<?xml version="1.0" encoding="utf-8"?>
<!-- Generator: Adobe Illustrator 26.0.2, SVG Export Plug-In . SVG Version: 6.00 Build 0)  -->
<svg version="1.1" id="Capa_1" xmlns="http://www.w3.org/2000/svg" xmlns:xlink="http://www.w3.org/1999/xlink" x="0px" y="0px"
	 viewBox="0 0 440 300" style="enable-background:new 0 0 440 300;" xml:space="preserve">
<g transform="translate(0.000000,300.000000) scale(0.100000,-0.100000)">
	<path d="M366.8,1760.2c-24.9-27.3-40.3-97.2-30.2-137.5c3.6-13.6,7.7-30.2,9.5-37.3c2.4-10.7,0-13.6-13-17.2
		c-27.9-7.1-120.9-72.9-131-92.5c-5.3-10.1-50.4-60.5-100.8-111.4c-78.8-80.6-91.3-96-91.3-112c0-20.7,22.5-48,39.1-48
		c5.3,0,19-7.1,30.2-15.4l20.2-15.4l155.3,4.1c180.8,4.1,152.3,13,254.3-77.6c79.4-71.1,101.9-85.9,230.5-154.1
		c53.3-27.9,122.7-67,154.1-85.9c56.3-34.4,62.2-41.5,73.5-80.6c4.1-16,29.6-32.6,55.7-36.7c31.4-5.3,36.2-19,14.2-43.9
		c-21.3-24.3-28.4-55.7-21.9-97.2c3.6-23.1,8.9-32.6,29.6-52.2c14.2-13,27.3-30.2,29-38.5c1.8-8.3-3-40.3-11.3-71.1
		c-7.7-30.8-17.2-90.7-21.3-133.3c-7.7-93.6-16-148.8-24.3-164.2c-3.6-6.5-13.6-19-23.1-27.3c-19-17.8-26.1-35.6-18.4-47.4
		c4.1-7.1,13.6-6.5,54.5,1.8c27.3,5.3,53.3,12.4,58.1,14.8c6.5,3.6,8.3,25.5,8.9,101.3c0.6,94.2,1.8,99.6,23.1,171.3
		c12.4,40.9,24.9,76.5,27.9,79.4c3,3,15.4-3.6,29.6-14.8c20.7-16.6,29-19.6,55.1-19.6c21.3,0,37.9,3.6,51.6,12.4
		c12.4,7.7,36.7,14.2,61,16.6c21.9,2.4,39.7,6.5,39.7,8.9c0,5.9-40.9,33.8-62.2,41.5c-9.5,4.1-39.7,6.5-66.4,6.5l-48-0.6l-12.4,20.2
		c-16,25.5-15.4,31.4,5.3,59.3c9.5,12.4,21.3,36.7,26.1,53.3c10.1,34.4,29,54.5,68.7,75.3c23.7,12.4,37.9,14.2,133.3,17.8
		c58.7,2.4,124.5,7.7,146.4,11.9c33.8,6.5,55.1,5.9,151.7-3c61.6-5.9,136.9-10.1,167.7-8.9l55.1,2.4l68.7-81.8
		c50.4-60.5,78.8-88.9,107.3-108.5c32.6-21.9,41.5-31.4,52.7-56.9s13-37.9,10.1-69.9c-1.8-21.3-7.7-49.2-13-62.2
		c-11.9-27.3-91.9-151.1-98.4-151.1c-2.4,0-12.4-7.1-22.5-15.4c-13-10.7-18.4-20.7-18.4-32.6c0-21.3-12.4-52.7-36.2-89.5
		c-10.1-15.4-16.6-30.8-14.2-33.8c5.9-10.1,44.4-14.2,67-7.1c39.7,11.9,90.1,81.8,90.1,124.5c0,24.3,35,90.7,94.8,181.4
		c58.7,88.3,88.9,145.8,88.9,167.7c0,7.1-4.1,20.2-9.5,27.9c-11.9,18.4-8.9,18.4,52.2,3c57.5-14.2,71.7-23.7,87.7-56.9
		c15.4-34.4,44.4-145.8,52.7-205.7c9.5-67,8.3-96.6-5.3-122.7c-11.9-23.1-16-62.2-7.1-67c2.4-1.8,22.5-4.7,45-7.1l40.9-4.1
		l-4.1,21.9c-3.6,16.6-1.8,24.9,5.3,32.6c11.3,12.4,10.1,36.2-5.3,100.8c-16,66.4-33.8,212.8-36.7,305.2
		c-1.8,49.2-4.1,94.8-5.9,101.9c-4.1,22.5-35,33.8-91.3,34.4h-50.4v29.6c0.6,65.8,65.2,159.4,135.7,196.2c27.9,14.8,35,16,45,10.1
		c10.7-7.1,12.4-5.3,20.2,23.7c14.2,49.8,17.2,94.8,9.5,139.9c-5.9,34.4-11.9,48.6-32,76.5c-49.8,67.6-155.9,146.4-288.6,215.7
		c-167.7,87.1-161.8,86.5-624.7,93.6c-273.2,4.7-365.7,8.3-399.5,14.8c-75.3,15.4-120.3,11.9-205.1-14.8
		c-141.6-45-253.1-52.2-335.4-21.9c-43.3,15.4-133.3,71.1-141.6,87.7c-6.5,11.9-5.9,13,25.5,22.5c53.9,17.8,90.1,116.8,69.3,191.4
		c-7.7,26.7-30.8,46.2-55.1,46.2c-39.1,0-104.9-58.7-123.9-110.2c-5.3-14.8-10.7-20.2-18.4-19c-8.9,1.8-11.3,8.3-12.4,40.3
		c-2.4,39.7-14.2,77-31.4,96C418.3,1778,382.8,1776.8,366.8,1760.2z"/>
</g>
</svg>
