%TF.GenerationSoftware,KiCad,Pcbnew,8.0.8*%
%TF.CreationDate,2025-04-26T12:51:52-04:00*%
%TF.ProjectId,udpudu,75647075-6475-42e6-9b69-6361645f7063,rev?*%
%TF.SameCoordinates,Original*%
%TF.FileFunction,Copper,L2,Bot*%
%TF.FilePolarity,Positive*%
%FSLAX46Y46*%
G04 Gerber Fmt 4.6, Leading zero omitted, Abs format (unit mm)*
G04 Created by KiCad (PCBNEW 8.0.8) date 2025-04-26 12:51:52*
%MOMM*%
%LPD*%
G01*
G04 APERTURE LIST*
G04 Aperture macros list*
%AMRoundRect*
0 Rectangle with rounded corners*
0 $1 Rounding radius*
0 $2 $3 $4 $5 $6 $7 $8 $9 X,Y pos of 4 corners*
0 Add a 4 corners polygon primitive as box body*
4,1,4,$2,$3,$4,$5,$6,$7,$8,$9,$2,$3,0*
0 Add four circle primitives for the rounded corners*
1,1,$1+$1,$2,$3*
1,1,$1+$1,$4,$5*
1,1,$1+$1,$6,$7*
1,1,$1+$1,$8,$9*
0 Add four rect primitives between the rounded corners*
20,1,$1+$1,$2,$3,$4,$5,0*
20,1,$1+$1,$4,$5,$6,$7,0*
20,1,$1+$1,$6,$7,$8,$9,0*
20,1,$1+$1,$8,$9,$2,$3,0*%
%AMOutline5P*
0 Free polygon, 5 corners , with rotation*
0 The origin of the aperture is its center*
0 number of corners: always 5*
0 $1 to $10 corner X, Y*
0 $11 Rotation angle, in degrees counterclockwise*
0 create outline with 5 corners*
4,1,5,$1,$2,$3,$4,$5,$6,$7,$8,$9,$10,$1,$2,$11*%
%AMOutline6P*
0 Free polygon, 6 corners , with rotation*
0 The origin of the aperture is its center*
0 number of corners: always 6*
0 $1 to $12 corner X, Y*
0 $13 Rotation angle, in degrees counterclockwise*
0 create outline with 6 corners*
4,1,6,$1,$2,$3,$4,$5,$6,$7,$8,$9,$10,$11,$12,$1,$2,$13*%
%AMOutline7P*
0 Free polygon, 7 corners , with rotation*
0 The origin of the aperture is its center*
0 number of corners: always 7*
0 $1 to $14 corner X, Y*
0 $15 Rotation angle, in degrees counterclockwise*
0 create outline with 7 corners*
4,1,7,$1,$2,$3,$4,$5,$6,$7,$8,$9,$10,$11,$12,$13,$14,$1,$2,$15*%
%AMOutline8P*
0 Free polygon, 8 corners , with rotation*
0 The origin of the aperture is its center*
0 number of corners: always 8*
0 $1 to $16 corner X, Y*
0 $17 Rotation angle, in degrees counterclockwise*
0 create outline with 8 corners*
4,1,8,$1,$2,$3,$4,$5,$6,$7,$8,$9,$10,$11,$12,$13,$14,$15,$16,$1,$2,$17*%
G04 Aperture macros list end*
%TA.AperFunction,ComponentPad*%
%ADD10R,1.600000X1.600000*%
%TD*%
%TA.AperFunction,ComponentPad*%
%ADD11C,1.600000*%
%TD*%
%TA.AperFunction,ComponentPad*%
%ADD12R,1.500000X1.500000*%
%TD*%
%TA.AperFunction,ComponentPad*%
%ADD13Outline8P,-1.900000X1.140000X-1.140000X1.900000X1.140000X1.900000X1.900000X1.140000X1.900000X-1.140000X1.140000X-1.900000X-1.140000X-1.900000X-1.900000X-1.140000X180.000000*%
%TD*%
%TA.AperFunction,ComponentPad*%
%ADD14R,1.800000X1.800000*%
%TD*%
%TA.AperFunction,ComponentPad*%
%ADD15C,1.800000*%
%TD*%
%TA.AperFunction,ComponentPad*%
%ADD16O,1.600000X1.600000*%
%TD*%
%TA.AperFunction,ComponentPad*%
%ADD17RoundRect,0.250001X1.149999X1.149999X-1.149999X1.149999X-1.149999X-1.149999X1.149999X-1.149999X0*%
%TD*%
%TA.AperFunction,ComponentPad*%
%ADD18C,2.800000*%
%TD*%
%TA.AperFunction,ComponentPad*%
%ADD19RoundRect,0.250001X1.149999X-1.149999X1.149999X1.149999X-1.149999X1.149999X-1.149999X-1.149999X0*%
%TD*%
%TA.AperFunction,ComponentPad*%
%ADD20Outline8P,-1.900000X1.140000X-1.140000X1.900000X1.140000X1.900000X1.900000X1.140000X1.900000X-1.140000X1.140000X-1.900000X-1.140000X-1.900000X-1.900000X-1.140000X0.000000*%
%TD*%
%TA.AperFunction,ComponentPad*%
%ADD21R,2.200000X2.200000*%
%TD*%
%TA.AperFunction,ComponentPad*%
%ADD22O,2.200000X2.200000*%
%TD*%
%TA.AperFunction,ComponentPad*%
%ADD23R,2.400000X1.600000*%
%TD*%
%TA.AperFunction,ComponentPad*%
%ADD24O,2.400000X1.600000*%
%TD*%
%TA.AperFunction,ViaPad*%
%ADD25C,1.500000*%
%TD*%
%TA.AperFunction,Conductor*%
%ADD26C,0.800000*%
%TD*%
%TA.AperFunction,Conductor*%
%ADD27C,0.400000*%
%TD*%
G04 APERTURE END LIST*
D10*
%TO.P,C2,1*%
%TO.N,Net-(J4-Pin_1)*%
X75000000Y-76317621D03*
D11*
%TO.P,C2,2*%
%TO.N,GND*%
X75000000Y-78817621D03*
%TD*%
D12*
%TO.P,SW1,1,A*%
%TO.N,unconnected-(SW1-A-Pad1)*%
X113960000Y-54000000D03*
%TO.P,SW1,2,B*%
%TO.N,Net-(D1-K)*%
X116500000Y-54000000D03*
%TO.P,SW1,3,C*%
%TO.N,VCC*%
X119040000Y-54000000D03*
%TD*%
D13*
%TO.P,J2,1,Pin_1*%
%TO.N,Net-(J2-Pin_1)*%
X52500000Y-67708333D03*
%TD*%
D14*
%TO.P,D3,1,K*%
%TO.N,GND*%
X120000000Y-78775000D03*
D15*
%TO.P,D3,2,A*%
%TO.N,Net-(D3-A)*%
X120000000Y-76235000D03*
%TD*%
D10*
%TO.P,C1,1*%
%TO.N,Net-(U1-Q)*%
X109000000Y-76317621D03*
D11*
%TO.P,C1,2*%
%TO.N,Net-(C1-Pad2)*%
X109000000Y-78817621D03*
%TD*%
%TO.P,C3,1*%
%TO.N,Net-(U1-CV)*%
X96329945Y-85775758D03*
%TO.P,C3,2*%
%TO.N,GND*%
X96329945Y-90775758D03*
%TD*%
%TO.P,R1,1*%
%TO.N,VCC*%
X87720000Y-63500000D03*
D16*
%TO.P,R1,2*%
%TO.N,Net-(D2-A)*%
X97880000Y-63500000D03*
%TD*%
D17*
%TO.P,J1,1,Pin_1*%
%TO.N,GND*%
X71047495Y-54797531D03*
D18*
%TO.P,J1,2,Pin_2*%
%TO.N,+9V*%
X66047495Y-54797531D03*
%TD*%
D19*
%TO.P,J3,1,1*%
%TO.N,Net-(C1-Pad2)*%
X130000000Y-79750000D03*
D18*
%TO.P,J3,2,2*%
%TO.N,GND*%
X130000000Y-74750000D03*
%TD*%
D14*
%TO.P,D2,1,K*%
%TO.N,GND*%
X92500000Y-55500000D03*
D15*
%TO.P,D2,2,A*%
%TO.N,Net-(D2-A)*%
X92500000Y-52960000D03*
%TD*%
D11*
%TO.P,R3,1*%
%TO.N,Net-(U1-Q)*%
X111840000Y-67000000D03*
D16*
%TO.P,R3,2*%
%TO.N,Net-(D3-A)*%
X122000000Y-67000000D03*
%TD*%
D11*
%TO.P,R2,1*%
%TO.N,VCC*%
X122045000Y-63500000D03*
D16*
%TO.P,R2,2*%
%TO.N,Net-(J2-Pin_1)*%
X111885000Y-63500000D03*
%TD*%
D20*
%TO.P,J4,1,Pin_1*%
%TO.N,Net-(J4-Pin_1)*%
X52810000Y-87291666D03*
%TD*%
D21*
%TO.P,D1,1,K*%
%TO.N,Net-(D1-K)*%
X73415000Y-64000000D03*
D22*
%TO.P,D1,2,A*%
%TO.N,+9V*%
X63255000Y-64000000D03*
%TD*%
D23*
%TO.P,U1,1,GND*%
%TO.N,GND*%
X88700000Y-73700000D03*
D24*
%TO.P,U1,2,TR*%
%TO.N,Net-(J4-Pin_1)*%
X88700000Y-76240000D03*
%TO.P,U1,3,Q*%
%TO.N,Net-(U1-Q)*%
X88700000Y-78780000D03*
%TO.P,U1,4,R*%
%TO.N,VCC*%
X88700000Y-81320000D03*
%TO.P,U1,5,CV*%
%TO.N,Net-(U1-CV)*%
X96320000Y-81320000D03*
%TO.P,U1,6,THR*%
%TO.N,Net-(J4-Pin_1)*%
X96320000Y-78780000D03*
%TO.P,U1,7,DIS*%
%TO.N,Net-(J2-Pin_1)*%
X96320000Y-76240000D03*
%TO.P,U1,8,VCC*%
%TO.N,VCC*%
X96320000Y-73700000D03*
%TD*%
D25*
%TO.N,Net-(D2-A)*%
X98000000Y-60500000D03*
X98000000Y-54500000D03*
%TD*%
D26*
%TO.N,Net-(U1-CV)*%
X96329945Y-85775758D02*
X96329945Y-81329945D01*
X96329945Y-81329945D02*
X96320000Y-81320000D01*
%TO.N,Net-(U1-Q)*%
X86500000Y-89000000D02*
X101500000Y-89000000D01*
X111840000Y-67000000D02*
X111840000Y-70660000D01*
X88700000Y-78780000D02*
X83720000Y-78780000D01*
X106182379Y-76317621D02*
X109000000Y-76317621D01*
X103500000Y-79000000D02*
X106182379Y-76317621D01*
X82500000Y-80000000D02*
X82500000Y-85000000D01*
X82500000Y-85000000D02*
X86500000Y-89000000D01*
X103500000Y-87000000D02*
X103500000Y-79000000D01*
X111840000Y-70660000D02*
X106182379Y-76317621D01*
X101500000Y-89000000D02*
X103500000Y-87000000D01*
X83720000Y-78780000D02*
X82500000Y-80000000D01*
%TO.N,Net-(D1-K)*%
X73415000Y-64000000D02*
X77500000Y-64000000D01*
X114500000Y-58500000D02*
X116500000Y-56500000D01*
X77500000Y-64000000D02*
X83000000Y-58500000D01*
X83000000Y-58500000D02*
X114500000Y-58500000D01*
X116500000Y-56500000D02*
X116500000Y-54000000D01*
%TO.N,+9V*%
X66000000Y-54500000D02*
X66000000Y-61255000D01*
X66000000Y-61255000D02*
X63255000Y-64000000D01*
%TO.N,Net-(D2-A)*%
X98000000Y-63380000D02*
X97880000Y-63500000D01*
X98000000Y-60500000D02*
X98000000Y-63380000D01*
X96460000Y-52960000D02*
X98000000Y-54500000D01*
X92500000Y-52960000D02*
X96460000Y-52960000D01*
%TO.N,Net-(D3-A)*%
X120000000Y-76235000D02*
X120000000Y-73000000D01*
X121500000Y-70500000D02*
X122000000Y-70000000D01*
X122000000Y-70000000D02*
X122000000Y-67000000D01*
X120000000Y-73000000D02*
X121500000Y-71500000D01*
X121500000Y-71500000D02*
X121500000Y-70500000D01*
%TO.N,VCC*%
X90500000Y-69500000D02*
X91500000Y-69500000D01*
X108520000Y-61500000D02*
X115540000Y-61500000D01*
X100500000Y-86000000D02*
X101000000Y-85500000D01*
X110000000Y-66500000D02*
X111000000Y-65500000D01*
X119040000Y-58000000D02*
X119040000Y-60495000D01*
X96320000Y-73700000D02*
X108520000Y-61500000D01*
X88700000Y-83700000D02*
X92500000Y-87500000D01*
X88700000Y-81320000D02*
X88700000Y-83700000D01*
X101000000Y-77500000D02*
X110000000Y-68500000D01*
X119040000Y-61960000D02*
X119040000Y-60495000D01*
X92500000Y-87500000D02*
X100000000Y-87500000D01*
X100000000Y-87500000D02*
X100500000Y-87000000D01*
X115500000Y-65500000D02*
X119040000Y-61960000D01*
X110000000Y-68500000D02*
X110000000Y-66500000D01*
X111000000Y-65500000D02*
X115500000Y-65500000D01*
X101000000Y-85500000D02*
X101000000Y-77500000D01*
X95700000Y-73700000D02*
X96320000Y-73700000D01*
X91500000Y-69500000D02*
X95700000Y-73700000D01*
X87720000Y-63500000D02*
X87720000Y-66720000D01*
X87720000Y-66720000D02*
X90500000Y-69500000D01*
X119040000Y-60495000D02*
X122045000Y-63500000D01*
X100500000Y-87000000D02*
X100500000Y-86000000D01*
X115540000Y-61500000D02*
X119040000Y-58000000D01*
X119040000Y-54000000D02*
X119040000Y-58000000D01*
%TO.N,Net-(C1-Pad2)*%
X111000000Y-84000000D02*
X109000000Y-82000000D01*
X109000000Y-82000000D02*
X109000000Y-78817621D01*
X130000000Y-79750000D02*
X125750000Y-84000000D01*
X125750000Y-84000000D02*
X111000000Y-84000000D01*
%TO.N,Net-(J4-Pin_1)*%
X91740000Y-76240000D02*
X88700000Y-76240000D01*
X94280000Y-78780000D02*
X91740000Y-76240000D01*
X52190000Y-87291666D02*
X56708334Y-87291666D01*
X88700000Y-76240000D02*
X75077621Y-76240000D01*
X75077621Y-76240000D02*
X75000000Y-76317621D01*
X67682379Y-76317621D02*
X75000000Y-76317621D01*
X96320000Y-78780000D02*
X94280000Y-78780000D01*
X56708334Y-87291666D02*
X67682379Y-76317621D01*
%TO.N,Net-(J2-Pin_1)*%
X110500000Y-63500000D02*
X108000000Y-66000000D01*
X111885000Y-63500000D02*
X110500000Y-63500000D01*
D27*
X78708333Y-67708333D02*
X86000000Y-75000000D01*
X52190000Y-67708333D02*
X78708333Y-67708333D01*
D26*
X108000000Y-68000000D02*
X99760000Y-76240000D01*
X99760000Y-76240000D02*
X96320000Y-76240000D01*
D27*
X86000000Y-75000000D02*
X92500000Y-75000000D01*
D26*
X108000000Y-66000000D02*
X108000000Y-68000000D01*
D27*
X92500000Y-75000000D02*
X93740000Y-76240000D01*
X93740000Y-76240000D02*
X96320000Y-76240000D01*
%TD*%
%TA.AperFunction,Conductor*%
%TO.N,GND*%
G36*
X130002702Y-50500617D02*
G01*
X130386771Y-50517386D01*
X130397506Y-50518326D01*
X130775971Y-50568152D01*
X130786597Y-50570025D01*
X131159284Y-50652648D01*
X131169710Y-50655442D01*
X131533765Y-50770227D01*
X131543911Y-50773920D01*
X131896578Y-50920000D01*
X131906369Y-50924566D01*
X132244942Y-51100816D01*
X132254310Y-51106224D01*
X132576244Y-51311318D01*
X132585105Y-51317523D01*
X132887930Y-51549889D01*
X132896217Y-51556843D01*
X133177635Y-51814715D01*
X133185284Y-51822364D01*
X133443156Y-52103782D01*
X133450110Y-52112069D01*
X133682476Y-52414894D01*
X133688681Y-52423755D01*
X133893775Y-52745689D01*
X133899183Y-52755057D01*
X134075430Y-53093623D01*
X134080002Y-53103427D01*
X134226075Y-53456078D01*
X134229775Y-53466244D01*
X134344554Y-53830278D01*
X134347354Y-53840727D01*
X134429971Y-54213389D01*
X134431849Y-54224042D01*
X134481671Y-54602473D01*
X134482614Y-54613249D01*
X134498464Y-54976283D01*
X134499382Y-54997297D01*
X134499500Y-55002706D01*
X134499500Y-99997293D01*
X134499382Y-100002702D01*
X134482614Y-100386750D01*
X134481671Y-100397526D01*
X134431849Y-100775957D01*
X134429971Y-100786610D01*
X134347354Y-101159272D01*
X134344554Y-101169721D01*
X134229775Y-101533755D01*
X134226075Y-101543921D01*
X134080002Y-101896572D01*
X134075430Y-101906376D01*
X133899183Y-102244942D01*
X133893775Y-102254310D01*
X133688681Y-102576244D01*
X133682476Y-102585105D01*
X133450110Y-102887930D01*
X133443156Y-102896217D01*
X133185284Y-103177635D01*
X133177635Y-103185284D01*
X132896217Y-103443156D01*
X132887930Y-103450110D01*
X132585105Y-103682476D01*
X132576244Y-103688681D01*
X132254310Y-103893775D01*
X132244942Y-103899183D01*
X131906376Y-104075430D01*
X131896572Y-104080002D01*
X131543921Y-104226075D01*
X131533755Y-104229775D01*
X131169721Y-104344554D01*
X131159272Y-104347354D01*
X130786610Y-104429971D01*
X130775957Y-104431849D01*
X130397526Y-104481671D01*
X130386750Y-104482614D01*
X130002703Y-104499382D01*
X129997294Y-104499500D01*
X55002706Y-104499500D01*
X54997297Y-104499382D01*
X54613249Y-104482614D01*
X54602473Y-104481671D01*
X54224042Y-104431849D01*
X54213389Y-104429971D01*
X53840727Y-104347354D01*
X53830278Y-104344554D01*
X53466244Y-104229775D01*
X53456078Y-104226075D01*
X53103427Y-104080002D01*
X53093623Y-104075430D01*
X52755057Y-103899183D01*
X52745689Y-103893775D01*
X52423755Y-103688681D01*
X52414894Y-103682476D01*
X52112069Y-103450110D01*
X52103782Y-103443156D01*
X51822364Y-103185284D01*
X51814715Y-103177635D01*
X51556843Y-102896217D01*
X51549889Y-102887930D01*
X51317523Y-102585105D01*
X51311318Y-102576244D01*
X51106224Y-102254310D01*
X51100816Y-102244942D01*
X50924569Y-101906376D01*
X50919997Y-101896572D01*
X50773924Y-101543921D01*
X50770224Y-101533755D01*
X50655442Y-101169710D01*
X50652648Y-101159284D01*
X50570025Y-100786597D01*
X50568152Y-100775971D01*
X50518326Y-100397506D01*
X50517386Y-100386771D01*
X50500618Y-100002702D01*
X50500500Y-99997293D01*
X50500500Y-89029342D01*
X50520185Y-88962303D01*
X50572989Y-88916548D01*
X50642147Y-88906604D01*
X50705703Y-88935629D01*
X50712181Y-88941661D01*
X51345067Y-89574548D01*
X51345077Y-89574557D01*
X51411982Y-89626529D01*
X51411983Y-89626529D01*
X51411984Y-89626530D01*
X51544950Y-89681606D01*
X51629023Y-89692166D01*
X53990975Y-89692165D01*
X54075050Y-89681606D01*
X54208016Y-89626529D01*
X54274935Y-89574545D01*
X55092884Y-88756597D01*
X55144864Y-88689682D01*
X55199940Y-88556716D01*
X55210500Y-88472643D01*
X55210500Y-88316166D01*
X55230185Y-88249127D01*
X55282989Y-88203372D01*
X55334500Y-88192166D01*
X56797027Y-88192166D01*
X56797028Y-88192165D01*
X56971000Y-88157561D01*
X57052940Y-88123619D01*
X57134881Y-88089679D01*
X57134883Y-88089677D01*
X57134886Y-88089676D01*
X57223289Y-88030605D01*
X57223289Y-88030604D01*
X57223293Y-88030602D01*
X57282370Y-87991130D01*
X68019059Y-77254439D01*
X68080382Y-77220955D01*
X68106740Y-77218121D01*
X73617209Y-77218121D01*
X73684248Y-77237806D01*
X73730003Y-77290610D01*
X73733391Y-77298788D01*
X73756202Y-77359949D01*
X73756206Y-77359956D01*
X73842452Y-77475165D01*
X73842455Y-77475168D01*
X73957664Y-77561414D01*
X73957671Y-77561418D01*
X73993497Y-77574780D01*
X74092517Y-77611712D01*
X74152127Y-77618121D01*
X74152153Y-77618120D01*
X74155453Y-77618299D01*
X74155372Y-77619804D01*
X74216672Y-77637733D01*
X74262483Y-77690488D01*
X74270016Y-77734085D01*
X74953553Y-78417621D01*
X74947339Y-78417621D01*
X74845606Y-78444880D01*
X74754394Y-78497541D01*
X74679920Y-78572015D01*
X74627259Y-78663227D01*
X74600000Y-78764960D01*
X74600000Y-78771173D01*
X73920974Y-78092147D01*
X73920973Y-78092147D01*
X73869868Y-78165133D01*
X73869866Y-78165137D01*
X73773734Y-78371294D01*
X73773730Y-78371303D01*
X73714860Y-78591010D01*
X73714858Y-78591021D01*
X73695034Y-78817618D01*
X73695034Y-78817623D01*
X73714858Y-79044220D01*
X73714860Y-79044231D01*
X73773730Y-79263938D01*
X73773735Y-79263952D01*
X73869863Y-79470099D01*
X73920974Y-79543093D01*
X74600000Y-78864067D01*
X74600000Y-78870282D01*
X74627259Y-78972015D01*
X74679920Y-79063227D01*
X74754394Y-79137701D01*
X74845606Y-79190362D01*
X74947339Y-79217621D01*
X74953553Y-79217621D01*
X74274526Y-79896646D01*
X74347513Y-79947753D01*
X74347521Y-79947757D01*
X74553668Y-80043885D01*
X74553682Y-80043890D01*
X74773389Y-80102760D01*
X74773400Y-80102762D01*
X74999998Y-80122587D01*
X75000002Y-80122587D01*
X75226599Y-80102762D01*
X75226610Y-80102760D01*
X75446317Y-80043890D01*
X75446331Y-80043885D01*
X75652478Y-79947757D01*
X75725471Y-79896645D01*
X75046447Y-79217621D01*
X75052661Y-79217621D01*
X75154394Y-79190362D01*
X75245606Y-79137701D01*
X75320080Y-79063227D01*
X75372741Y-78972015D01*
X75400000Y-78870282D01*
X75400000Y-78864068D01*
X76079024Y-79543092D01*
X76130136Y-79470099D01*
X76226264Y-79263952D01*
X76226269Y-79263938D01*
X76285139Y-79044231D01*
X76285141Y-79044220D01*
X76304966Y-78817623D01*
X76304966Y-78817618D01*
X76285141Y-78591021D01*
X76285139Y-78591010D01*
X76226269Y-78371303D01*
X76226264Y-78371289D01*
X76130136Y-78165142D01*
X76130132Y-78165134D01*
X76079025Y-78092147D01*
X75400000Y-78771172D01*
X75400000Y-78764960D01*
X75372741Y-78663227D01*
X75320080Y-78572015D01*
X75245606Y-78497541D01*
X75154394Y-78444880D01*
X75052661Y-78417621D01*
X75046445Y-78417621D01*
X75730646Y-77733421D01*
X75740492Y-77684428D01*
X75789107Y-77634245D01*
X75844633Y-77619602D01*
X75844576Y-77618521D01*
X75844571Y-77618475D01*
X75844573Y-77618474D01*
X75844564Y-77618297D01*
X75847857Y-77618120D01*
X75847872Y-77618120D01*
X75907483Y-77611712D01*
X76042331Y-77561417D01*
X76157546Y-77475167D01*
X76243796Y-77359952D01*
X76266609Y-77298788D01*
X76295560Y-77221167D01*
X76337431Y-77165233D01*
X76402895Y-77140816D01*
X76411742Y-77140500D01*
X87309953Y-77140500D01*
X87376992Y-77160185D01*
X87397634Y-77176819D01*
X87452786Y-77231971D01*
X87607749Y-77344556D01*
X87618390Y-77352287D01*
X87709840Y-77398883D01*
X87711080Y-77399515D01*
X87761876Y-77447490D01*
X87778671Y-77515311D01*
X87756134Y-77581446D01*
X87711080Y-77620485D01*
X87618386Y-77667715D01*
X87452786Y-77788028D01*
X87452782Y-77788032D01*
X87397634Y-77843181D01*
X87336311Y-77876666D01*
X87309953Y-77879500D01*
X83631304Y-77879500D01*
X83457339Y-77914103D01*
X83457323Y-77914108D01*
X83341453Y-77962102D01*
X83341454Y-77962103D01*
X83293454Y-77981986D01*
X83293453Y-77981987D01*
X83237150Y-78019608D01*
X83145964Y-78080535D01*
X83145961Y-78080538D01*
X81800540Y-79425958D01*
X81800534Y-79425965D01*
X81764789Y-79479463D01*
X81764789Y-79479464D01*
X81733388Y-79526458D01*
X81701987Y-79573452D01*
X81679717Y-79627218D01*
X81641291Y-79719987D01*
X81634105Y-79737334D01*
X81601650Y-79900500D01*
X81599500Y-79911309D01*
X81599500Y-79911310D01*
X81599500Y-85088696D01*
X81634103Y-85262658D01*
X81634105Y-85262666D01*
X81668046Y-85344606D01*
X81668046Y-85344607D01*
X81701983Y-85426540D01*
X81701987Y-85426547D01*
X81746806Y-85493623D01*
X81783848Y-85549060D01*
X81800537Y-85574038D01*
X81800538Y-85574039D01*
X85800536Y-89574035D01*
X85908106Y-89681605D01*
X85925966Y-89699465D01*
X85985043Y-89738939D01*
X86073453Y-89798013D01*
X86155393Y-89831953D01*
X86237334Y-89865895D01*
X86411303Y-89900499D01*
X86411307Y-89900500D01*
X95117598Y-89900500D01*
X95184637Y-89920185D01*
X95230392Y-89972989D01*
X95240336Y-90042147D01*
X95219173Y-90095624D01*
X95199811Y-90123275D01*
X95103679Y-90329431D01*
X95103675Y-90329440D01*
X95044805Y-90549147D01*
X95044803Y-90549158D01*
X95024979Y-90775755D01*
X95024979Y-90775758D01*
X95044803Y-91002357D01*
X95044805Y-91002368D01*
X95103675Y-91222075D01*
X95103680Y-91222089D01*
X95199808Y-91428236D01*
X95250919Y-91501230D01*
X95929945Y-90822204D01*
X95929945Y-90828419D01*
X95957204Y-90930152D01*
X96009865Y-91021364D01*
X96084339Y-91095838D01*
X96175551Y-91148499D01*
X96277284Y-91175758D01*
X96283498Y-91175758D01*
X95604471Y-91854783D01*
X95677458Y-91905890D01*
X95677466Y-91905894D01*
X95883613Y-92002022D01*
X95883627Y-92002027D01*
X96103334Y-92060897D01*
X96103345Y-92060899D01*
X96329943Y-92080724D01*
X96329947Y-92080724D01*
X96556544Y-92060899D01*
X96556555Y-92060897D01*
X96776262Y-92002027D01*
X96776276Y-92002022D01*
X96982423Y-91905894D01*
X97055416Y-91854782D01*
X96376392Y-91175758D01*
X96382606Y-91175758D01*
X96484339Y-91148499D01*
X96575551Y-91095838D01*
X96650025Y-91021364D01*
X96702686Y-90930152D01*
X96729945Y-90828419D01*
X96729945Y-90822205D01*
X97408969Y-91501229D01*
X97460081Y-91428236D01*
X97556209Y-91222089D01*
X97556214Y-91222075D01*
X97615084Y-91002368D01*
X97615086Y-91002357D01*
X97634911Y-90775758D01*
X97634911Y-90775755D01*
X97615086Y-90549158D01*
X97615084Y-90549147D01*
X97556214Y-90329440D01*
X97556210Y-90329431D01*
X97460078Y-90123275D01*
X97440717Y-90095624D01*
X97418390Y-90029418D01*
X97435400Y-89961650D01*
X97486348Y-89913837D01*
X97542292Y-89900500D01*
X101588693Y-89900500D01*
X101588694Y-89900499D01*
X101762666Y-89865895D01*
X101844606Y-89831953D01*
X101926547Y-89798013D01*
X101926549Y-89798011D01*
X101926552Y-89798010D01*
X102014955Y-89738939D01*
X102014955Y-89738938D01*
X102014959Y-89738936D01*
X102074036Y-89699464D01*
X104199464Y-87574036D01*
X104238936Y-87514959D01*
X104298013Y-87426547D01*
X104331953Y-87344606D01*
X104365895Y-87262666D01*
X104400500Y-87088692D01*
X104400500Y-86911308D01*
X104400500Y-79424361D01*
X104420185Y-79357322D01*
X104436819Y-79336680D01*
X106519059Y-77254440D01*
X106580382Y-77220955D01*
X106606740Y-77218121D01*
X107617209Y-77218121D01*
X107684248Y-77237806D01*
X107730003Y-77290610D01*
X107733391Y-77298788D01*
X107756202Y-77359949D01*
X107756206Y-77359956D01*
X107842452Y-77475165D01*
X107842455Y-77475168D01*
X107957664Y-77561414D01*
X107957671Y-77561418D01*
X107993497Y-77574780D01*
X108092517Y-77611712D01*
X108092527Y-77611713D01*
X108097913Y-77612986D01*
X108158631Y-77647556D01*
X108191021Y-77709464D01*
X108184799Y-77779056D01*
X108157088Y-77821346D01*
X107999951Y-77978483D01*
X107869432Y-78164886D01*
X107869431Y-78164888D01*
X107773261Y-78371123D01*
X107773258Y-78371132D01*
X107714366Y-78590923D01*
X107714364Y-78590934D01*
X107694532Y-78817619D01*
X107694532Y-78817622D01*
X107714364Y-79044307D01*
X107714366Y-79044318D01*
X107773258Y-79264109D01*
X107773261Y-79264118D01*
X107869431Y-79470353D01*
X107869432Y-79470355D01*
X107999951Y-79656758D01*
X107999952Y-79656759D01*
X107999953Y-79656760D01*
X108063182Y-79719989D01*
X108096666Y-79781310D01*
X108099500Y-79807669D01*
X108099500Y-82088696D01*
X108134103Y-82262658D01*
X108134105Y-82262666D01*
X108168046Y-82344606D01*
X108168046Y-82344607D01*
X108201984Y-82426542D01*
X108201985Y-82426544D01*
X108261063Y-82514960D01*
X108261064Y-82514961D01*
X108300534Y-82574034D01*
X108300535Y-82574035D01*
X110425958Y-84699459D01*
X110425961Y-84699462D01*
X110425964Y-84699464D01*
X110482641Y-84737334D01*
X110573453Y-84798013D01*
X110655393Y-84831953D01*
X110737334Y-84865895D01*
X110911303Y-84900499D01*
X110911307Y-84900500D01*
X110911308Y-84900500D01*
X125838693Y-84900500D01*
X125838694Y-84900499D01*
X126012666Y-84865895D01*
X126094606Y-84831953D01*
X126176547Y-84798013D01*
X126267359Y-84737334D01*
X126324036Y-84699464D01*
X129336680Y-81686818D01*
X129398003Y-81653334D01*
X129424361Y-81650500D01*
X131200003Y-81650500D01*
X131200008Y-81650500D01*
X131302797Y-81639999D01*
X131469334Y-81584814D01*
X131618655Y-81492711D01*
X131742711Y-81368655D01*
X131834814Y-81219334D01*
X131889999Y-81052797D01*
X131900500Y-80950008D01*
X131900500Y-78549992D01*
X131889999Y-78447203D01*
X131834814Y-78280666D01*
X131763557Y-78165142D01*
X131742713Y-78131348D01*
X131742710Y-78131344D01*
X131618655Y-78007289D01*
X131618651Y-78007286D01*
X131469337Y-77915187D01*
X131469335Y-77915186D01*
X131361641Y-77879500D01*
X131302797Y-77860001D01*
X131302795Y-77860000D01*
X131200015Y-77849500D01*
X131200008Y-77849500D01*
X128799992Y-77849500D01*
X128799984Y-77849500D01*
X128697204Y-77860000D01*
X128697203Y-77860001D01*
X128530664Y-77915186D01*
X128530662Y-77915187D01*
X128381348Y-78007286D01*
X128381344Y-78007289D01*
X128257289Y-78131344D01*
X128257286Y-78131348D01*
X128165187Y-78280662D01*
X128165186Y-78280664D01*
X128110002Y-78447200D01*
X128110001Y-78447203D01*
X128099500Y-78549984D01*
X128099500Y-80325638D01*
X128079815Y-80392677D01*
X128063181Y-80413319D01*
X125413319Y-83063181D01*
X125351996Y-83096666D01*
X125325638Y-83099500D01*
X111424362Y-83099500D01*
X111357323Y-83079815D01*
X111336681Y-83063181D01*
X109936819Y-81663319D01*
X109903334Y-81601996D01*
X109900500Y-81575638D01*
X109900500Y-79807669D01*
X109920185Y-79740630D01*
X109936814Y-79719992D01*
X110000047Y-79656760D01*
X110130568Y-79470355D01*
X110226739Y-79264117D01*
X110285635Y-79044313D01*
X110305468Y-78817621D01*
X110285635Y-78590929D01*
X110226739Y-78371125D01*
X110130568Y-78164887D01*
X110000047Y-77978482D01*
X110000045Y-77978479D01*
X109842913Y-77821347D01*
X109809428Y-77760024D01*
X109814412Y-77690332D01*
X109856284Y-77634399D01*
X109902078Y-77612989D01*
X109907480Y-77611712D01*
X109907483Y-77611712D01*
X109907489Y-77611710D01*
X110042328Y-77561418D01*
X110042327Y-77561418D01*
X110042331Y-77561417D01*
X110157546Y-77475167D01*
X110243796Y-77359952D01*
X110294091Y-77225104D01*
X110300500Y-77165494D01*
X110300499Y-76234993D01*
X118594700Y-76234993D01*
X118594700Y-76235006D01*
X118613864Y-76466297D01*
X118613866Y-76466308D01*
X118670842Y-76691300D01*
X118764075Y-76903848D01*
X118891018Y-77098150D01*
X118986167Y-77201510D01*
X119017089Y-77264164D01*
X119009228Y-77333590D01*
X118965081Y-77387746D01*
X118938271Y-77401674D01*
X118857911Y-77431646D01*
X118857906Y-77431649D01*
X118742812Y-77517809D01*
X118742809Y-77517812D01*
X118656649Y-77632906D01*
X118656645Y-77632913D01*
X118606403Y-77767620D01*
X118606401Y-77767627D01*
X118600000Y-77827155D01*
X118600000Y-78525000D01*
X119624722Y-78525000D01*
X119580667Y-78601306D01*
X119550000Y-78715756D01*
X119550000Y-78834244D01*
X119580667Y-78948694D01*
X119624722Y-79025000D01*
X118600000Y-79025000D01*
X118600000Y-79722844D01*
X118606401Y-79782372D01*
X118606403Y-79782379D01*
X118656645Y-79917086D01*
X118656649Y-79917093D01*
X118742809Y-80032187D01*
X118742812Y-80032190D01*
X118857906Y-80118350D01*
X118857913Y-80118354D01*
X118992620Y-80168596D01*
X118992627Y-80168598D01*
X119052155Y-80174999D01*
X119052172Y-80175000D01*
X119750000Y-80175000D01*
X119750000Y-79150277D01*
X119826306Y-79194333D01*
X119940756Y-79225000D01*
X120059244Y-79225000D01*
X120173694Y-79194333D01*
X120250000Y-79150277D01*
X120250000Y-80175000D01*
X120947828Y-80175000D01*
X120947844Y-80174999D01*
X121007372Y-80168598D01*
X121007379Y-80168596D01*
X121142086Y-80118354D01*
X121142093Y-80118350D01*
X121257187Y-80032190D01*
X121257190Y-80032187D01*
X121343350Y-79917093D01*
X121343354Y-79917086D01*
X121393596Y-79782379D01*
X121393598Y-79782372D01*
X121399999Y-79722844D01*
X121400000Y-79722827D01*
X121400000Y-79025000D01*
X120375278Y-79025000D01*
X120419333Y-78948694D01*
X120450000Y-78834244D01*
X120450000Y-78715756D01*
X120419333Y-78601306D01*
X120375278Y-78525000D01*
X121400000Y-78525000D01*
X121400000Y-77827172D01*
X121399999Y-77827155D01*
X121393598Y-77767627D01*
X121393596Y-77767620D01*
X121343354Y-77632913D01*
X121343350Y-77632906D01*
X121257190Y-77517812D01*
X121257187Y-77517809D01*
X121142093Y-77431649D01*
X121142086Y-77431645D01*
X121061729Y-77401674D01*
X121005795Y-77359803D01*
X120981378Y-77294338D01*
X120996230Y-77226065D01*
X121013826Y-77201516D01*
X121108979Y-77098153D01*
X121235924Y-76903849D01*
X121329157Y-76691300D01*
X121386134Y-76466305D01*
X121395567Y-76352462D01*
X121405300Y-76235006D01*
X121405300Y-76234993D01*
X121386135Y-76003702D01*
X121386133Y-76003691D01*
X121329157Y-75778699D01*
X121235924Y-75566151D01*
X121108983Y-75371852D01*
X121108980Y-75371849D01*
X121108979Y-75371847D01*
X120951784Y-75201087D01*
X120948336Y-75198403D01*
X120907524Y-75141692D01*
X120900500Y-75100551D01*
X120900500Y-74749998D01*
X128095147Y-74749998D01*
X128095147Y-74750001D01*
X128114536Y-75021090D01*
X128114537Y-75021097D01*
X128172305Y-75286654D01*
X128267285Y-75541306D01*
X128267287Y-75541310D01*
X128397532Y-75779835D01*
X128397537Y-75779843D01*
X128491321Y-75905123D01*
X128491322Y-75905124D01*
X129398958Y-74997487D01*
X129423978Y-75057890D01*
X129495112Y-75164351D01*
X129585649Y-75254888D01*
X129692110Y-75326022D01*
X129752511Y-75351041D01*
X128844874Y-76258676D01*
X128970163Y-76352466D01*
X128970164Y-76352467D01*
X129208689Y-76482712D01*
X129208693Y-76482714D01*
X129463345Y-76577694D01*
X129728902Y-76635462D01*
X129728909Y-76635463D01*
X129999999Y-76654853D01*
X130000001Y-76654853D01*
X130271090Y-76635463D01*
X130271097Y-76635462D01*
X130536654Y-76577694D01*
X130791306Y-76482714D01*
X130791310Y-76482712D01*
X131029844Y-76352462D01*
X131155123Y-76258677D01*
X131155124Y-76258676D01*
X130247488Y-75351041D01*
X130307890Y-75326022D01*
X130414351Y-75254888D01*
X130504888Y-75164351D01*
X130576022Y-75057890D01*
X130601041Y-74997489D01*
X131508676Y-75905124D01*
X131508677Y-75905123D01*
X131602462Y-75779844D01*
X131732712Y-75541310D01*
X131732714Y-75541306D01*
X131827694Y-75286654D01*
X131885462Y-75021097D01*
X131885463Y-75021090D01*
X131904853Y-74750001D01*
X131904853Y-74749998D01*
X131885463Y-74478909D01*
X131885462Y-74478902D01*
X131827694Y-74213345D01*
X131732714Y-73958693D01*
X131732712Y-73958689D01*
X131602467Y-73720164D01*
X131602466Y-73720163D01*
X131508676Y-73594874D01*
X130601040Y-74502509D01*
X130576022Y-74442110D01*
X130504888Y-74335649D01*
X130414351Y-74245112D01*
X130307890Y-74173978D01*
X130247487Y-74148957D01*
X131155124Y-73241322D01*
X131155123Y-73241321D01*
X131029843Y-73147537D01*
X131029835Y-73147532D01*
X130791310Y-73017287D01*
X130791306Y-73017285D01*
X130536654Y-72922305D01*
X130271097Y-72864537D01*
X130271090Y-72864536D01*
X130000001Y-72845147D01*
X129999999Y-72845147D01*
X129728909Y-72864536D01*
X129728902Y-72864537D01*
X129463345Y-72922305D01*
X129208693Y-73017285D01*
X129208689Y-73017287D01*
X128970164Y-73147532D01*
X128970156Y-73147537D01*
X128844875Y-73241321D01*
X128844874Y-73241322D01*
X129752511Y-74148958D01*
X129692110Y-74173978D01*
X129585649Y-74245112D01*
X129495112Y-74335649D01*
X129423978Y-74442110D01*
X129398958Y-74502511D01*
X128491322Y-73594874D01*
X128491321Y-73594875D01*
X128397537Y-73720156D01*
X128397532Y-73720164D01*
X128267287Y-73958689D01*
X128267285Y-73958693D01*
X128172305Y-74213345D01*
X128114537Y-74478902D01*
X128114536Y-74478909D01*
X128095147Y-74749998D01*
X120900500Y-74749998D01*
X120900500Y-73424361D01*
X120920185Y-73357322D01*
X120936819Y-73336680D01*
X122199463Y-72074036D01*
X122199465Y-72074033D01*
X122298009Y-71926553D01*
X122298009Y-71926552D01*
X122298013Y-71926547D01*
X122365894Y-71762666D01*
X122400500Y-71588691D01*
X122400500Y-70924361D01*
X122420185Y-70857322D01*
X122436819Y-70836680D01*
X122524808Y-70748691D01*
X122699464Y-70574035D01*
X122701285Y-70571309D01*
X122798013Y-70426547D01*
X122808802Y-70400499D01*
X122823136Y-70365895D01*
X122823136Y-70365894D01*
X122843018Y-70317895D01*
X122865895Y-70262666D01*
X122900500Y-70088692D01*
X122900500Y-69911308D01*
X122900500Y-67990048D01*
X122920185Y-67923009D01*
X122936814Y-67902371D01*
X123000047Y-67839139D01*
X123130568Y-67652734D01*
X123226739Y-67446496D01*
X123285635Y-67226692D01*
X123305468Y-67000000D01*
X123303951Y-66982666D01*
X123288731Y-66808696D01*
X123285635Y-66773308D01*
X123226739Y-66553504D01*
X123130568Y-66347266D01*
X123000047Y-66160861D01*
X123000045Y-66160858D01*
X122839141Y-65999954D01*
X122652734Y-65869432D01*
X122652732Y-65869431D01*
X122446497Y-65773261D01*
X122446488Y-65773258D01*
X122226697Y-65714366D01*
X122226693Y-65714365D01*
X122226692Y-65714365D01*
X122226691Y-65714364D01*
X122226686Y-65714364D01*
X122000002Y-65694532D01*
X121999998Y-65694532D01*
X121773313Y-65714364D01*
X121773302Y-65714366D01*
X121553511Y-65773258D01*
X121553502Y-65773261D01*
X121347267Y-65869431D01*
X121347265Y-65869432D01*
X121160858Y-65999954D01*
X120999954Y-66160858D01*
X120869432Y-66347265D01*
X120869431Y-66347267D01*
X120773261Y-66553502D01*
X120773258Y-66553511D01*
X120714366Y-66773302D01*
X120714364Y-66773313D01*
X120694532Y-66999998D01*
X120694532Y-67000001D01*
X120714364Y-67226686D01*
X120714366Y-67226697D01*
X120773258Y-67446488D01*
X120773261Y-67446497D01*
X120869431Y-67652732D01*
X120869432Y-67652734D01*
X120999951Y-67839137D01*
X120999952Y-67839138D01*
X120999953Y-67839139D01*
X121063182Y-67902368D01*
X121096666Y-67963689D01*
X121099500Y-67990048D01*
X121099500Y-69575637D01*
X121079815Y-69642676D01*
X121063181Y-69663318D01*
X120800538Y-69925960D01*
X120800537Y-69925961D01*
X120761064Y-69985039D01*
X120761063Y-69985040D01*
X120701985Y-70073455D01*
X120668046Y-70155393D01*
X120634106Y-70237329D01*
X120634103Y-70237341D01*
X120608532Y-70365892D01*
X120608533Y-70365893D01*
X120599500Y-70411308D01*
X120599500Y-71075637D01*
X120579815Y-71142676D01*
X120563181Y-71163318D01*
X119300536Y-72425962D01*
X119296820Y-72431525D01*
X119296818Y-72431527D01*
X119201988Y-72573450D01*
X119201986Y-72573454D01*
X119168046Y-72655393D01*
X119134106Y-72737330D01*
X119134103Y-72737342D01*
X119111141Y-72852782D01*
X119099500Y-72911304D01*
X119099500Y-75100551D01*
X119079815Y-75167590D01*
X119051664Y-75198403D01*
X119048219Y-75201084D01*
X118891016Y-75371852D01*
X118764075Y-75566151D01*
X118670842Y-75778699D01*
X118613866Y-76003691D01*
X118613864Y-76003702D01*
X118594700Y-76234993D01*
X110300499Y-76234993D01*
X110300499Y-75469749D01*
X110294091Y-75410138D01*
X110287618Y-75392784D01*
X110243797Y-75275292D01*
X110243793Y-75275285D01*
X110157547Y-75160076D01*
X110157544Y-75160073D01*
X110042335Y-75073827D01*
X110042328Y-75073823D01*
X109907482Y-75023529D01*
X109907483Y-75023529D01*
X109847883Y-75017122D01*
X109847881Y-75017121D01*
X109847873Y-75017121D01*
X109847865Y-75017121D01*
X109055740Y-75017121D01*
X108988701Y-74997436D01*
X108942946Y-74944632D01*
X108933002Y-74875474D01*
X108962027Y-74811918D01*
X108968059Y-74805440D01*
X112539463Y-71234036D01*
X112539465Y-71234033D01*
X112600509Y-71142676D01*
X112638013Y-71086547D01*
X112705894Y-70922666D01*
X112715774Y-70872999D01*
X112740499Y-70748695D01*
X112740500Y-70748693D01*
X112740500Y-67990048D01*
X112760185Y-67923009D01*
X112776814Y-67902371D01*
X112840047Y-67839139D01*
X112970568Y-67652734D01*
X113066739Y-67446496D01*
X113125635Y-67226692D01*
X113145468Y-67000000D01*
X113143951Y-66982666D01*
X113128731Y-66808696D01*
X113125635Y-66773308D01*
X113067567Y-66556593D01*
X113069230Y-66486743D01*
X113108393Y-66428881D01*
X113172621Y-66401377D01*
X113187342Y-66400500D01*
X115588693Y-66400500D01*
X115588694Y-66400499D01*
X115762666Y-66365895D01*
X115844606Y-66331953D01*
X115926547Y-66298013D01*
X116017359Y-66237334D01*
X116074036Y-66199464D01*
X119684819Y-62588681D01*
X119746142Y-62555196D01*
X119815834Y-62560180D01*
X119860181Y-62588681D01*
X120704553Y-63433053D01*
X120738038Y-63494376D01*
X120740400Y-63509926D01*
X120759364Y-63726687D01*
X120759366Y-63726697D01*
X120818258Y-63946488D01*
X120818261Y-63946497D01*
X120914431Y-64152732D01*
X120914432Y-64152734D01*
X121044954Y-64339141D01*
X121205858Y-64500045D01*
X121205861Y-64500047D01*
X121392266Y-64630568D01*
X121598504Y-64726739D01*
X121598509Y-64726740D01*
X121598511Y-64726741D01*
X121606416Y-64728859D01*
X121818308Y-64785635D01*
X121980230Y-64799801D01*
X122044998Y-64805468D01*
X122045000Y-64805468D01*
X122045002Y-64805468D01*
X122101673Y-64800509D01*
X122271692Y-64785635D01*
X122491496Y-64726739D01*
X122697734Y-64630568D01*
X122884139Y-64500047D01*
X123045047Y-64339139D01*
X123175568Y-64152734D01*
X123271739Y-63946496D01*
X123330635Y-63726692D01*
X123350468Y-63500000D01*
X123330635Y-63273308D01*
X123271739Y-63053504D01*
X123175568Y-62847266D01*
X123045047Y-62660861D01*
X123045045Y-62660858D01*
X122884141Y-62499954D01*
X122697734Y-62369432D01*
X122697732Y-62369431D01*
X122491497Y-62273261D01*
X122491488Y-62273258D01*
X122271697Y-62214366D01*
X122271687Y-62214364D01*
X122054926Y-62195400D01*
X121989858Y-62169947D01*
X121978053Y-62159553D01*
X119976819Y-60158319D01*
X119943334Y-60096996D01*
X119940500Y-60070638D01*
X119940500Y-55314141D01*
X119960185Y-55247102D01*
X120012989Y-55201347D01*
X120021149Y-55197966D01*
X120032331Y-55193796D01*
X120147546Y-55107546D01*
X120233796Y-54992331D01*
X120284091Y-54857483D01*
X120290500Y-54797873D01*
X120290499Y-53202128D01*
X120284091Y-53142517D01*
X120269511Y-53103427D01*
X120233797Y-53007671D01*
X120233793Y-53007664D01*
X120147547Y-52892455D01*
X120147544Y-52892452D01*
X120032335Y-52806206D01*
X120032328Y-52806202D01*
X119897482Y-52755908D01*
X119897483Y-52755908D01*
X119837883Y-52749501D01*
X119837881Y-52749500D01*
X119837873Y-52749500D01*
X119837864Y-52749500D01*
X118242129Y-52749500D01*
X118242123Y-52749501D01*
X118182516Y-52755908D01*
X118047671Y-52806202D01*
X118047664Y-52806206D01*
X117932455Y-52892452D01*
X117932452Y-52892455D01*
X117869266Y-52976861D01*
X117813332Y-53018732D01*
X117743641Y-53023716D01*
X117682318Y-52990230D01*
X117670734Y-52976861D01*
X117607547Y-52892455D01*
X117607544Y-52892452D01*
X117492335Y-52806206D01*
X117492328Y-52806202D01*
X117357482Y-52755908D01*
X117357483Y-52755908D01*
X117297883Y-52749501D01*
X117297881Y-52749500D01*
X117297873Y-52749500D01*
X117297864Y-52749500D01*
X115702129Y-52749500D01*
X115702123Y-52749501D01*
X115642516Y-52755908D01*
X115507671Y-52806202D01*
X115507664Y-52806206D01*
X115392455Y-52892452D01*
X115392452Y-52892455D01*
X115329266Y-52976861D01*
X115273332Y-53018732D01*
X115203641Y-53023716D01*
X115142318Y-52990230D01*
X115130734Y-52976861D01*
X115067547Y-52892455D01*
X115067544Y-52892452D01*
X114952335Y-52806206D01*
X114952328Y-52806202D01*
X114817482Y-52755908D01*
X114817483Y-52755908D01*
X114757883Y-52749501D01*
X114757881Y-52749500D01*
X114757873Y-52749500D01*
X114757864Y-52749500D01*
X113162129Y-52749500D01*
X113162123Y-52749501D01*
X113102516Y-52755908D01*
X112967671Y-52806202D01*
X112967664Y-52806206D01*
X112852455Y-52892452D01*
X112852452Y-52892455D01*
X112766206Y-53007664D01*
X112766202Y-53007671D01*
X112715908Y-53142517D01*
X112709501Y-53202116D01*
X112709501Y-53202123D01*
X112709500Y-53202135D01*
X112709500Y-54797870D01*
X112709501Y-54797876D01*
X112715908Y-54857483D01*
X112766202Y-54992328D01*
X112766206Y-54992335D01*
X112852452Y-55107544D01*
X112852455Y-55107547D01*
X112967664Y-55193793D01*
X112967671Y-55193797D01*
X113102517Y-55244091D01*
X113102516Y-55244091D01*
X113109444Y-55244835D01*
X113162127Y-55250500D01*
X114757872Y-55250499D01*
X114817483Y-55244091D01*
X114952331Y-55193796D01*
X115067546Y-55107546D01*
X115130734Y-55023136D01*
X115186667Y-54981267D01*
X115256359Y-54976283D01*
X115317682Y-55009768D01*
X115329260Y-55023130D01*
X115392454Y-55107546D01*
X115419295Y-55127639D01*
X115507665Y-55193794D01*
X115507667Y-55193794D01*
X115507669Y-55193796D01*
X115518830Y-55197958D01*
X115574764Y-55239826D01*
X115599184Y-55305289D01*
X115599500Y-55314141D01*
X115599500Y-56075638D01*
X115579815Y-56142677D01*
X115563181Y-56163319D01*
X114163319Y-57563181D01*
X114101996Y-57596666D01*
X114075638Y-57599500D01*
X82911304Y-57599500D01*
X82737339Y-57634103D01*
X82737323Y-57634108D01*
X82621453Y-57682102D01*
X82621454Y-57682103D01*
X82573454Y-57701986D01*
X82573453Y-57701987D01*
X82520553Y-57737334D01*
X82425965Y-57800535D01*
X82425961Y-57800538D01*
X77163319Y-63063181D01*
X77101996Y-63096666D01*
X77075638Y-63099500D01*
X75139499Y-63099500D01*
X75072460Y-63079815D01*
X75026705Y-63027011D01*
X75015499Y-62975500D01*
X75015499Y-62852129D01*
X75015498Y-62852123D01*
X75015497Y-62852116D01*
X75009091Y-62792517D01*
X74996221Y-62758012D01*
X74958797Y-62657671D01*
X74958793Y-62657664D01*
X74872547Y-62542455D01*
X74872544Y-62542452D01*
X74757335Y-62456206D01*
X74757328Y-62456202D01*
X74622482Y-62405908D01*
X74622483Y-62405908D01*
X74562883Y-62399501D01*
X74562881Y-62399500D01*
X74562873Y-62399500D01*
X74562864Y-62399500D01*
X72267129Y-62399500D01*
X72267123Y-62399501D01*
X72207516Y-62405908D01*
X72072671Y-62456202D01*
X72072664Y-62456206D01*
X71957455Y-62542452D01*
X71957452Y-62542455D01*
X71871206Y-62657664D01*
X71871202Y-62657671D01*
X71820908Y-62792517D01*
X71814501Y-62852116D01*
X71814501Y-62852123D01*
X71814500Y-62852135D01*
X71814500Y-65147870D01*
X71814501Y-65147876D01*
X71820908Y-65207483D01*
X71871202Y-65342328D01*
X71871206Y-65342335D01*
X71957452Y-65457544D01*
X71957454Y-65457546D01*
X72072664Y-65543793D01*
X72072671Y-65543797D01*
X72207517Y-65594091D01*
X72207516Y-65594091D01*
X72214444Y-65594835D01*
X72267127Y-65600500D01*
X74562872Y-65600499D01*
X74622483Y-65594091D01*
X74757331Y-65543796D01*
X74872546Y-65457546D01*
X74958796Y-65342331D01*
X75009091Y-65207483D01*
X75015500Y-65147873D01*
X75015500Y-65024500D01*
X75035185Y-64957461D01*
X75087989Y-64911706D01*
X75139500Y-64900500D01*
X77588693Y-64900500D01*
X77588694Y-64900499D01*
X77762666Y-64865895D01*
X77844606Y-64831953D01*
X77926547Y-64798013D01*
X78030043Y-64728859D01*
X78074036Y-64699464D01*
X83336680Y-59436818D01*
X83398003Y-59403334D01*
X83424361Y-59400500D01*
X97031662Y-59400500D01*
X97098701Y-59420185D01*
X97144456Y-59472989D01*
X97154400Y-59542147D01*
X97125375Y-59605703D01*
X97119343Y-59612181D01*
X97038402Y-59693121D01*
X96912900Y-59872357D01*
X96912898Y-59872361D01*
X96820426Y-60070668D01*
X96820422Y-60070677D01*
X96763793Y-60282020D01*
X96763793Y-60282024D01*
X96747054Y-60473361D01*
X96744723Y-60500000D01*
X96762394Y-60701990D01*
X96763793Y-60717975D01*
X96763793Y-60717979D01*
X96820422Y-60929322D01*
X96820424Y-60929326D01*
X96820425Y-60929330D01*
X96866661Y-61028484D01*
X96912897Y-61127638D01*
X96912898Y-61127639D01*
X97038402Y-61306877D01*
X97038406Y-61306881D01*
X97063181Y-61331656D01*
X97096666Y-61392979D01*
X97099500Y-61419337D01*
X97099500Y-62394343D01*
X97079815Y-62461382D01*
X97046625Y-62495917D01*
X97040863Y-62499951D01*
X96879953Y-62660861D01*
X96749432Y-62847265D01*
X96749431Y-62847267D01*
X96653261Y-63053502D01*
X96653258Y-63053511D01*
X96594366Y-63273302D01*
X96594364Y-63273313D01*
X96574532Y-63499998D01*
X96574532Y-63500001D01*
X96594364Y-63726686D01*
X96594366Y-63726697D01*
X96653258Y-63946488D01*
X96653261Y-63946497D01*
X96749431Y-64152732D01*
X96749432Y-64152734D01*
X96879954Y-64339141D01*
X97040858Y-64500045D01*
X97040861Y-64500047D01*
X97227266Y-64630568D01*
X97433504Y-64726739D01*
X97433509Y-64726740D01*
X97433511Y-64726741D01*
X97441416Y-64728859D01*
X97653308Y-64785635D01*
X97815230Y-64799801D01*
X97879998Y-64805468D01*
X97880000Y-64805468D01*
X97880002Y-64805468D01*
X97936673Y-64800509D01*
X98106692Y-64785635D01*
X98326496Y-64726739D01*
X98532734Y-64630568D01*
X98719139Y-64500047D01*
X98880047Y-64339139D01*
X99010568Y-64152734D01*
X99106739Y-63946496D01*
X99165635Y-63726692D01*
X99185468Y-63500000D01*
X99165635Y-63273308D01*
X99106739Y-63053504D01*
X99010568Y-62847266D01*
X98948073Y-62758013D01*
X98922925Y-62722097D01*
X98900597Y-62655890D01*
X98900500Y-62650974D01*
X98900500Y-61419337D01*
X98920185Y-61352298D01*
X98936819Y-61331656D01*
X98961598Y-61306877D01*
X99087102Y-61127639D01*
X99179575Y-60929330D01*
X99236207Y-60717977D01*
X99255277Y-60500000D01*
X99252946Y-60473361D01*
X99246445Y-60399051D01*
X99236207Y-60282023D01*
X99179575Y-60070670D01*
X99087102Y-59872362D01*
X99087100Y-59872359D01*
X99087099Y-59872357D01*
X98961599Y-59693124D01*
X98961596Y-59693121D01*
X98880654Y-59612179D01*
X98847171Y-59550859D01*
X98852155Y-59481167D01*
X98894026Y-59425233D01*
X98959490Y-59400816D01*
X98968337Y-59400500D01*
X114588693Y-59400500D01*
X114588694Y-59400499D01*
X114762666Y-59365895D01*
X114844606Y-59331953D01*
X114926547Y-59298013D01*
X114926549Y-59298011D01*
X114926552Y-59298010D01*
X115014955Y-59238939D01*
X115014955Y-59238938D01*
X115014959Y-59238936D01*
X115074036Y-59199464D01*
X117199464Y-57074036D01*
X117238936Y-57014959D01*
X117298013Y-56926547D01*
X117331953Y-56844606D01*
X117365895Y-56762666D01*
X117400500Y-56588692D01*
X117400500Y-56411308D01*
X117400500Y-55314141D01*
X117420185Y-55247102D01*
X117472989Y-55201347D01*
X117481149Y-55197966D01*
X117492331Y-55193796D01*
X117607546Y-55107546D01*
X117670734Y-55023136D01*
X117726667Y-54981267D01*
X117796359Y-54976283D01*
X117857682Y-55009768D01*
X117869260Y-55023130D01*
X117932454Y-55107546D01*
X117959295Y-55127639D01*
X118047665Y-55193794D01*
X118047667Y-55193794D01*
X118047669Y-55193796D01*
X118058830Y-55197958D01*
X118114764Y-55239826D01*
X118139184Y-55305289D01*
X118139500Y-55314141D01*
X118139500Y-57575638D01*
X118119815Y-57642677D01*
X118103181Y-57663319D01*
X115203319Y-60563181D01*
X115141996Y-60596666D01*
X115115638Y-60599500D01*
X108431306Y-60599500D01*
X108257341Y-60634103D01*
X108257332Y-60634106D01*
X108093459Y-60701983D01*
X108093446Y-60701990D01*
X107945966Y-60800534D01*
X107945964Y-60800537D01*
X96383319Y-72363181D01*
X96321996Y-72396666D01*
X96295638Y-72399500D01*
X95817642Y-72399500D01*
X95755179Y-72409393D01*
X95685886Y-72400438D01*
X95648101Y-72374601D01*
X92074035Y-68800535D01*
X92074030Y-68800531D01*
X92014961Y-68761064D01*
X92014960Y-68761063D01*
X91926544Y-68701985D01*
X91926542Y-68701984D01*
X91844607Y-68668046D01*
X91844606Y-68668046D01*
X91762666Y-68634105D01*
X91762658Y-68634103D01*
X91588696Y-68599500D01*
X91588692Y-68599500D01*
X91588691Y-68599500D01*
X90924361Y-68599500D01*
X90857322Y-68579815D01*
X90836680Y-68563181D01*
X88656819Y-66383319D01*
X88623334Y-66321996D01*
X88620500Y-66295638D01*
X88620500Y-64490048D01*
X88640185Y-64423009D01*
X88656814Y-64402371D01*
X88720047Y-64339139D01*
X88850568Y-64152734D01*
X88946739Y-63946496D01*
X89005635Y-63726692D01*
X89025468Y-63500000D01*
X89005635Y-63273308D01*
X88946739Y-63053504D01*
X88850568Y-62847266D01*
X88720047Y-62660861D01*
X88720045Y-62660858D01*
X88559141Y-62499954D01*
X88372734Y-62369432D01*
X88372732Y-62369431D01*
X88166497Y-62273261D01*
X88166488Y-62273258D01*
X87946697Y-62214366D01*
X87946693Y-62214365D01*
X87946692Y-62214365D01*
X87946691Y-62214364D01*
X87946686Y-62214364D01*
X87720002Y-62194532D01*
X87719998Y-62194532D01*
X87493313Y-62214364D01*
X87493302Y-62214366D01*
X87273511Y-62273258D01*
X87273502Y-62273261D01*
X87067267Y-62369431D01*
X87067265Y-62369432D01*
X86880858Y-62499954D01*
X86719954Y-62660858D01*
X86589432Y-62847265D01*
X86589431Y-62847267D01*
X86493261Y-63053502D01*
X86493258Y-63053511D01*
X86434366Y-63273302D01*
X86434364Y-63273313D01*
X86414532Y-63499998D01*
X86414532Y-63500001D01*
X86434364Y-63726686D01*
X86434366Y-63726697D01*
X86493258Y-63946488D01*
X86493261Y-63946497D01*
X86589431Y-64152732D01*
X86589432Y-64152734D01*
X86719951Y-64339137D01*
X86719952Y-64339138D01*
X86719953Y-64339139D01*
X86783182Y-64402368D01*
X86816666Y-64463689D01*
X86819500Y-64490048D01*
X86819500Y-66808696D01*
X86854103Y-66982659D01*
X86854104Y-66982663D01*
X86854105Y-66982666D01*
X86864529Y-67007832D01*
X86864530Y-67007834D01*
X86921983Y-67146540D01*
X86921987Y-67146547D01*
X86959031Y-67201987D01*
X86959031Y-67201988D01*
X87020532Y-67294031D01*
X87020538Y-67294039D01*
X89800536Y-70074035D01*
X89881894Y-70155393D01*
X89925966Y-70199465D01*
X89999208Y-70248404D01*
X90073453Y-70298013D01*
X90073454Y-70298013D01*
X90073455Y-70298014D01*
X90121452Y-70317895D01*
X90237334Y-70365895D01*
X90411304Y-70400499D01*
X90411308Y-70400500D01*
X90411309Y-70400500D01*
X90588692Y-70400500D01*
X91075638Y-70400500D01*
X91142677Y-70420185D01*
X91163319Y-70436819D01*
X94608069Y-73881569D01*
X94641554Y-73942892D01*
X94642861Y-73949850D01*
X94651522Y-74004532D01*
X94651523Y-74004534D01*
X94714780Y-74199219D01*
X94806496Y-74379222D01*
X94807715Y-74381613D01*
X94928028Y-74547213D01*
X95072786Y-74691971D01*
X95227749Y-74804556D01*
X95238390Y-74812287D01*
X95329840Y-74858883D01*
X95331080Y-74859515D01*
X95381876Y-74907490D01*
X95398671Y-74975311D01*
X95376134Y-75041446D01*
X95331080Y-75080485D01*
X95238386Y-75127715D01*
X95072786Y-75248028D01*
X94928030Y-75392784D01*
X94858575Y-75488384D01*
X94803245Y-75531051D01*
X94758256Y-75539500D01*
X94081519Y-75539500D01*
X94014480Y-75519815D01*
X93993838Y-75503181D01*
X92946546Y-74455888D01*
X92946545Y-74455887D01*
X92831807Y-74379222D01*
X92704332Y-74326421D01*
X92704322Y-74326418D01*
X92568996Y-74299500D01*
X92568994Y-74299500D01*
X92568993Y-74299500D01*
X90524000Y-74299500D01*
X90456961Y-74279815D01*
X90411206Y-74227011D01*
X90400000Y-74175500D01*
X90400000Y-73950000D01*
X89015686Y-73950000D01*
X89020080Y-73945606D01*
X89072741Y-73854394D01*
X89100000Y-73752661D01*
X89100000Y-73647339D01*
X89072741Y-73545606D01*
X89020080Y-73454394D01*
X89015686Y-73450000D01*
X90400000Y-73450000D01*
X90400000Y-72852172D01*
X90399999Y-72852155D01*
X90393598Y-72792627D01*
X90393596Y-72792620D01*
X90343354Y-72657913D01*
X90343350Y-72657906D01*
X90257190Y-72542812D01*
X90257187Y-72542809D01*
X90142093Y-72456649D01*
X90142086Y-72456645D01*
X90007379Y-72406403D01*
X90007372Y-72406401D01*
X89947844Y-72400000D01*
X88950000Y-72400000D01*
X88950000Y-73384314D01*
X88945606Y-73379920D01*
X88854394Y-73327259D01*
X88752661Y-73300000D01*
X88647339Y-73300000D01*
X88545606Y-73327259D01*
X88454394Y-73379920D01*
X88450000Y-73384314D01*
X88450000Y-72400000D01*
X87452155Y-72400000D01*
X87392627Y-72406401D01*
X87392620Y-72406403D01*
X87257913Y-72456645D01*
X87257906Y-72456649D01*
X87142812Y-72542809D01*
X87142809Y-72542812D01*
X87056649Y-72657906D01*
X87056645Y-72657913D01*
X87006403Y-72792620D01*
X87006401Y-72792627D01*
X87000000Y-72852155D01*
X87000000Y-73450000D01*
X88384314Y-73450000D01*
X88379920Y-73454394D01*
X88327259Y-73545606D01*
X88300000Y-73647339D01*
X88300000Y-73752661D01*
X88327259Y-73854394D01*
X88379920Y-73945606D01*
X88384314Y-73950000D01*
X87000000Y-73950000D01*
X87000000Y-74175500D01*
X86980315Y-74242539D01*
X86927511Y-74288294D01*
X86876000Y-74299500D01*
X86341518Y-74299500D01*
X86274479Y-74279815D01*
X86253837Y-74263181D01*
X79154879Y-67164221D01*
X79154878Y-67164220D01*
X79040140Y-67087555D01*
X78912665Y-67034754D01*
X78912655Y-67034751D01*
X78777329Y-67007833D01*
X78777327Y-67007833D01*
X78777326Y-67007833D01*
X55024499Y-67007833D01*
X54957460Y-66988148D01*
X54911705Y-66935344D01*
X54900499Y-66883833D01*
X54900499Y-66527362D01*
X54900499Y-66527358D01*
X54889940Y-66443283D01*
X54834863Y-66310317D01*
X54782879Y-66243398D01*
X53964931Y-65425449D01*
X53964930Y-65425448D01*
X53964922Y-65425441D01*
X53898017Y-65373469D01*
X53822842Y-65342331D01*
X53765050Y-65318393D01*
X53680977Y-65307833D01*
X51319029Y-65307833D01*
X51234950Y-65318393D01*
X51101984Y-65373469D01*
X51035065Y-65425454D01*
X51035058Y-65425460D01*
X50712181Y-65748337D01*
X50650858Y-65781822D01*
X50581166Y-65776838D01*
X50525233Y-65734966D01*
X50500816Y-65669502D01*
X50500500Y-65660656D01*
X50500500Y-64000000D01*
X61649551Y-64000000D01*
X61669317Y-64251151D01*
X61728126Y-64496110D01*
X61824532Y-64728856D01*
X61956160Y-64943653D01*
X61956161Y-64943656D01*
X61956164Y-64943659D01*
X62119776Y-65135224D01*
X62268066Y-65261875D01*
X62311343Y-65298838D01*
X62311346Y-65298839D01*
X62526140Y-65430466D01*
X62758889Y-65526873D01*
X63003852Y-65585683D01*
X63255000Y-65605449D01*
X63506148Y-65585683D01*
X63751111Y-65526873D01*
X63983859Y-65430466D01*
X64198659Y-65298836D01*
X64390224Y-65135224D01*
X64553836Y-64943659D01*
X64685466Y-64728859D01*
X64685465Y-64728859D01*
X64685468Y-64728856D01*
X64769074Y-64527011D01*
X64781873Y-64496111D01*
X64840683Y-64251148D01*
X64860449Y-64000000D01*
X64840714Y-63749253D01*
X64855078Y-63680880D01*
X64876648Y-63651850D01*
X66699464Y-61829036D01*
X66787464Y-61697334D01*
X66798013Y-61681547D01*
X66831953Y-61599606D01*
X66865895Y-61517666D01*
X66900500Y-61343692D01*
X66900500Y-61166308D01*
X66900500Y-56570698D01*
X66920185Y-56503659D01*
X66965074Y-56461866D01*
X67077603Y-56400421D01*
X67077604Y-56400420D01*
X67077608Y-56400418D01*
X67295237Y-56237502D01*
X67487466Y-56045273D01*
X67650382Y-55827644D01*
X67780667Y-55589044D01*
X67875670Y-55334332D01*
X67933456Y-55068691D01*
X67952850Y-54797531D01*
X67933456Y-54526371D01*
X67875670Y-54260730D01*
X67780667Y-54006018D01*
X67780665Y-54006015D01*
X67780664Y-54006011D01*
X67650385Y-53767423D01*
X67650384Y-53767422D01*
X67650382Y-53767418D01*
X67523216Y-53597545D01*
X69147495Y-53597545D01*
X69147495Y-54547531D01*
X70447494Y-54547531D01*
X70422474Y-54607933D01*
X70397495Y-54733512D01*
X70397495Y-54861550D01*
X70422474Y-54987129D01*
X70447494Y-55047531D01*
X69147495Y-55047531D01*
X69147495Y-55997516D01*
X69157988Y-56100220D01*
X69157989Y-56100227D01*
X69213136Y-56266649D01*
X69213138Y-56266654D01*
X69305179Y-56415875D01*
X69429150Y-56539846D01*
X69578371Y-56631887D01*
X69578376Y-56631889D01*
X69744798Y-56687036D01*
X69744805Y-56687037D01*
X69847509Y-56697530D01*
X69847522Y-56697531D01*
X70797495Y-56697531D01*
X70797495Y-55397532D01*
X70857897Y-55422552D01*
X70983476Y-55447531D01*
X71111514Y-55447531D01*
X71237093Y-55422552D01*
X71297495Y-55397532D01*
X71297495Y-56697531D01*
X72247468Y-56697531D01*
X72247480Y-56697530D01*
X72350184Y-56687037D01*
X72350191Y-56687036D01*
X72516613Y-56631889D01*
X72516618Y-56631887D01*
X72665839Y-56539846D01*
X72789810Y-56415875D01*
X72881851Y-56266654D01*
X72881853Y-56266649D01*
X72937000Y-56100227D01*
X72937001Y-56100220D01*
X72947494Y-55997516D01*
X72947495Y-55997503D01*
X72947495Y-55047531D01*
X71647496Y-55047531D01*
X71672516Y-54987129D01*
X71697495Y-54861550D01*
X71697495Y-54733512D01*
X71672516Y-54607933D01*
X71647496Y-54547531D01*
X72947495Y-54547531D01*
X72947495Y-53597558D01*
X72947494Y-53597545D01*
X72937001Y-53494841D01*
X72937000Y-53494834D01*
X72881853Y-53328412D01*
X72881851Y-53328407D01*
X72789810Y-53179186D01*
X72665839Y-53055215D01*
X72516618Y-52963174D01*
X72516613Y-52963172D01*
X72507019Y-52959993D01*
X91094700Y-52959993D01*
X91094700Y-52960006D01*
X91113864Y-53191297D01*
X91113866Y-53191308D01*
X91170842Y-53416300D01*
X91264075Y-53628848D01*
X91391018Y-53823150D01*
X91486167Y-53926510D01*
X91517089Y-53989164D01*
X91509228Y-54058590D01*
X91465081Y-54112746D01*
X91438271Y-54126674D01*
X91357911Y-54156646D01*
X91357906Y-54156649D01*
X91242812Y-54242809D01*
X91242809Y-54242812D01*
X91156649Y-54357906D01*
X91156645Y-54357913D01*
X91106403Y-54492620D01*
X91106401Y-54492627D01*
X91100000Y-54552155D01*
X91100000Y-55250000D01*
X92124722Y-55250000D01*
X92080667Y-55326306D01*
X92050000Y-55440756D01*
X92050000Y-55559244D01*
X92080667Y-55673694D01*
X92124722Y-55750000D01*
X91100000Y-55750000D01*
X91100000Y-56447844D01*
X91106401Y-56507372D01*
X91106403Y-56507379D01*
X91156645Y-56642086D01*
X91156649Y-56642093D01*
X91242809Y-56757187D01*
X91242812Y-56757190D01*
X91357906Y-56843350D01*
X91357913Y-56843354D01*
X91492620Y-56893596D01*
X91492627Y-56893598D01*
X91552155Y-56899999D01*
X91552172Y-56900000D01*
X92250000Y-56900000D01*
X92250000Y-55875277D01*
X92326306Y-55919333D01*
X92440756Y-55950000D01*
X92559244Y-55950000D01*
X92673694Y-55919333D01*
X92750000Y-55875277D01*
X92750000Y-56900000D01*
X93447828Y-56900000D01*
X93447844Y-56899999D01*
X93507372Y-56893598D01*
X93507379Y-56893596D01*
X93642086Y-56843354D01*
X93642093Y-56843350D01*
X93757187Y-56757190D01*
X93757190Y-56757187D01*
X93843350Y-56642093D01*
X93843354Y-56642086D01*
X93893596Y-56507379D01*
X93893598Y-56507372D01*
X93899999Y-56447844D01*
X93900000Y-56447827D01*
X93900000Y-55750000D01*
X92875278Y-55750000D01*
X92919333Y-55673694D01*
X92950000Y-55559244D01*
X92950000Y-55440756D01*
X92919333Y-55326306D01*
X92875278Y-55250000D01*
X93900000Y-55250000D01*
X93900000Y-54552172D01*
X93899999Y-54552155D01*
X93893598Y-54492627D01*
X93893596Y-54492620D01*
X93843354Y-54357913D01*
X93843350Y-54357906D01*
X93757190Y-54242812D01*
X93757187Y-54242809D01*
X93642093Y-54156649D01*
X93642086Y-54156645D01*
X93561729Y-54126674D01*
X93505795Y-54084803D01*
X93481378Y-54019338D01*
X93496230Y-53951065D01*
X93513830Y-53926512D01*
X93537764Y-53900514D01*
X93597652Y-53864525D01*
X93628991Y-53860500D01*
X96035638Y-53860500D01*
X96102677Y-53880185D01*
X96123319Y-53896819D01*
X96714556Y-54488056D01*
X96748041Y-54549379D01*
X96750403Y-54564930D01*
X96763792Y-54717971D01*
X96763794Y-54717982D01*
X96820422Y-54929322D01*
X96820424Y-54929326D01*
X96820425Y-54929330D01*
X96849803Y-54992331D01*
X96912897Y-55127638D01*
X96912898Y-55127639D01*
X97038402Y-55306877D01*
X97193123Y-55461598D01*
X97372361Y-55587102D01*
X97570670Y-55679575D01*
X97782023Y-55736207D01*
X97964926Y-55752208D01*
X97999998Y-55755277D01*
X98000000Y-55755277D01*
X98000002Y-55755277D01*
X98028254Y-55752805D01*
X98217977Y-55736207D01*
X98429330Y-55679575D01*
X98627639Y-55587102D01*
X98806877Y-55461598D01*
X98961598Y-55306877D01*
X99087102Y-55127639D01*
X99179575Y-54929330D01*
X99236207Y-54717977D01*
X99255277Y-54500000D01*
X99254631Y-54492620D01*
X99251569Y-54457618D01*
X99236207Y-54282023D01*
X99179575Y-54070670D01*
X99087102Y-53872362D01*
X99087100Y-53872359D01*
X99087099Y-53872357D01*
X98961599Y-53693124D01*
X98897323Y-53628848D01*
X98806877Y-53538402D01*
X98627639Y-53412898D01*
X98627640Y-53412898D01*
X98627638Y-53412897D01*
X98528484Y-53366661D01*
X98429330Y-53320425D01*
X98429326Y-53320424D01*
X98429322Y-53320422D01*
X98217982Y-53263794D01*
X98217978Y-53263793D01*
X98217977Y-53263793D01*
X98217976Y-53263792D01*
X98217971Y-53263792D01*
X98064930Y-53250403D01*
X97999861Y-53224951D01*
X97988056Y-53214556D01*
X97034035Y-52260535D01*
X97034030Y-52260531D01*
X96974961Y-52221064D01*
X96974960Y-52221063D01*
X96886544Y-52161985D01*
X96886542Y-52161984D01*
X96804607Y-52128046D01*
X96804606Y-52128046D01*
X96722666Y-52094105D01*
X96722658Y-52094103D01*
X96548696Y-52059500D01*
X96548692Y-52059500D01*
X96548691Y-52059500D01*
X93628991Y-52059500D01*
X93561952Y-52039815D01*
X93537762Y-52019483D01*
X93451787Y-51926090D01*
X93451777Y-51926081D01*
X93268634Y-51783535D01*
X93268628Y-51783531D01*
X93064504Y-51673064D01*
X93064495Y-51673061D01*
X92844984Y-51597702D01*
X92673282Y-51569050D01*
X92616049Y-51559500D01*
X92383951Y-51559500D01*
X92338164Y-51567140D01*
X92155015Y-51597702D01*
X91935504Y-51673061D01*
X91935495Y-51673064D01*
X91731371Y-51783531D01*
X91731365Y-51783535D01*
X91548222Y-51926081D01*
X91548219Y-51926084D01*
X91391016Y-52096852D01*
X91264075Y-52291151D01*
X91170842Y-52503699D01*
X91113866Y-52728691D01*
X91113864Y-52728702D01*
X91094700Y-52959993D01*
X72507019Y-52959993D01*
X72350191Y-52908025D01*
X72350184Y-52908024D01*
X72247480Y-52897531D01*
X71297495Y-52897531D01*
X71297495Y-54197529D01*
X71237093Y-54172510D01*
X71111514Y-54147531D01*
X70983476Y-54147531D01*
X70857897Y-54172510D01*
X70797495Y-54197529D01*
X70797495Y-52897531D01*
X69847509Y-52897531D01*
X69744805Y-52908024D01*
X69744798Y-52908025D01*
X69578376Y-52963172D01*
X69578371Y-52963174D01*
X69429150Y-53055215D01*
X69305179Y-53179186D01*
X69213138Y-53328407D01*
X69213136Y-53328412D01*
X69157989Y-53494834D01*
X69157988Y-53494841D01*
X69147495Y-53597545D01*
X67523216Y-53597545D01*
X67487466Y-53549789D01*
X67487461Y-53549784D01*
X67487456Y-53549778D01*
X67295247Y-53357569D01*
X67295241Y-53357564D01*
X67295237Y-53357560D01*
X67077608Y-53194644D01*
X67077603Y-53194641D01*
X67077602Y-53194640D01*
X66839013Y-53064361D01*
X66839014Y-53064361D01*
X66730040Y-53023716D01*
X66584296Y-52969356D01*
X66584289Y-52969354D01*
X66584288Y-52969354D01*
X66318662Y-52911571D01*
X66318655Y-52911570D01*
X66047496Y-52892176D01*
X66047494Y-52892176D01*
X65776334Y-52911570D01*
X65776327Y-52911571D01*
X65510701Y-52969354D01*
X65510697Y-52969355D01*
X65510694Y-52969356D01*
X65407968Y-53007671D01*
X65255975Y-53064361D01*
X65017387Y-53194640D01*
X65017386Y-53194641D01*
X64799754Y-53357559D01*
X64799742Y-53357569D01*
X64607533Y-53549778D01*
X64607523Y-53549790D01*
X64444605Y-53767422D01*
X64444604Y-53767423D01*
X64314325Y-54006011D01*
X64274515Y-54112746D01*
X64219320Y-54260730D01*
X64219319Y-54260733D01*
X64219318Y-54260737D01*
X64161535Y-54526363D01*
X64161534Y-54526370D01*
X64142140Y-54797529D01*
X64142140Y-54797532D01*
X64161534Y-55068691D01*
X64161535Y-55068698D01*
X64217574Y-55326306D01*
X64219320Y-55334332D01*
X64266786Y-55461593D01*
X64314325Y-55589050D01*
X64444604Y-55827638D01*
X64444605Y-55827639D01*
X64444608Y-55827644D01*
X64607524Y-56045273D01*
X64607528Y-56045277D01*
X64607533Y-56045283D01*
X64799742Y-56237492D01*
X64799748Y-56237497D01*
X64799753Y-56237502D01*
X65017382Y-56400418D01*
X65034927Y-56409998D01*
X65084332Y-56459402D01*
X65099500Y-56518830D01*
X65099500Y-60830637D01*
X65079815Y-60897676D01*
X65063181Y-60918318D01*
X63603150Y-62378348D01*
X63541827Y-62411833D01*
X63505740Y-62414284D01*
X63255000Y-62394551D01*
X63003848Y-62414317D01*
X62758889Y-62473126D01*
X62526140Y-62569533D01*
X62311346Y-62701160D01*
X62311343Y-62701161D01*
X62119776Y-62864776D01*
X61956161Y-63056343D01*
X61956160Y-63056346D01*
X61824533Y-63271140D01*
X61728126Y-63503889D01*
X61669317Y-63748848D01*
X61649551Y-64000000D01*
X50500500Y-64000000D01*
X50500500Y-55002706D01*
X50500618Y-54997297D01*
X50501318Y-54981267D01*
X50517386Y-54613226D01*
X50518326Y-54602495D01*
X50568152Y-54224025D01*
X50570025Y-54213405D01*
X50652649Y-53840709D01*
X50655440Y-53830295D01*
X50770230Y-53466227D01*
X50773917Y-53456095D01*
X50920003Y-53103412D01*
X50924561Y-53093638D01*
X51100822Y-52755045D01*
X51106217Y-52745700D01*
X51311325Y-52423744D01*
X51317515Y-52414905D01*
X51549896Y-52112060D01*
X51556834Y-52103791D01*
X51814726Y-51822352D01*
X51822352Y-51814726D01*
X52103791Y-51556834D01*
X52112060Y-51549896D01*
X52414905Y-51317515D01*
X52423744Y-51311325D01*
X52745700Y-51106217D01*
X52755045Y-51100822D01*
X53093638Y-50924561D01*
X53103412Y-50920003D01*
X53456095Y-50773917D01*
X53466227Y-50770230D01*
X53830295Y-50655440D01*
X53840709Y-50652649D01*
X54213405Y-50570025D01*
X54224025Y-50568152D01*
X54602495Y-50518326D01*
X54613226Y-50517386D01*
X54997297Y-50500617D01*
X55002706Y-50500500D01*
X55065892Y-50500500D01*
X129934108Y-50500500D01*
X129997294Y-50500500D01*
X130002702Y-50500617D01*
G37*
%TD.AperFunction*%
%TD*%
M02*
