M48
; DRILL file {KiCad 8.0.8} date 2025-04-26T12:51:49-0400
; FORMAT={-:-/ absolute / metric / decimal}
; #@! TF.CreationDate,2025-04-26T12:51:49-04:00
; #@! TF.GenerationSoftware,Kicad,Pcbnew,8.0.8
; #@! TF.FileFunction,Plated,1,2,PTH
FMAT,2
METRIC
; #@! TA.AperFunction,Plated,PTH,ComponentDrill
T1C0.700
; #@! TA.AperFunction,Plated,PTH,ViaDrill
T2C0.800
; #@! TA.AperFunction,Plated,PTH,ComponentDrill
T3C0.800
; #@! TA.AperFunction,Plated,PTH,ComponentDrill
T4C0.900
; #@! TA.AperFunction,Plated,PTH,ComponentDrill
T5C1.100
; #@! TA.AperFunction,Plated,PTH,ComponentDrill
T6C1.300
; #@! TA.AperFunction,Plated,PTH,ComponentDrill
T7C3.000
%
G90
G05
T1
X113.96Y-54.0
X116.5Y-54.0
X119.04Y-54.0
T2
X98.0Y-54.5
X98.0Y-60.5
T3
X75.0Y-76.318
X75.0Y-78.818
X87.72Y-63.5
X88.7Y-73.7
X88.7Y-76.24
X88.7Y-78.78
X88.7Y-81.32
X96.32Y-73.7
X96.32Y-76.24
X96.32Y-78.78
X96.32Y-81.32
X96.33Y-85.776
X96.33Y-90.776
X97.88Y-63.5
X109.0Y-76.318
X109.0Y-78.818
X111.84Y-67.0
X111.885Y-63.5
X122.0Y-67.0
X122.045Y-63.5
T4
X92.5Y-52.96
X92.5Y-55.5
X120.0Y-76.235
X120.0Y-78.775
T5
X63.255Y-64.0
X73.415Y-64.0
T6
X66.047Y-54.798
X71.047Y-54.798
X130.0Y-74.75
X130.0Y-79.75
T7
X52.5Y-67.708
X52.81Y-87.292
M30
