%TF.GenerationSoftware,KiCad,Pcbnew,8.0.8*%
%TF.CreationDate,2025-04-26T12:51:53-04:00*%
%TF.ProjectId,udpudu,75647075-6475-42e6-9b69-6361645f7063,rev?*%
%TF.SameCoordinates,Original*%
%TF.FileFunction,Soldermask,Top*%
%TF.FilePolarity,Negative*%
%FSLAX46Y46*%
G04 Gerber Fmt 4.6, Leading zero omitted, Abs format (unit mm)*
G04 Created by KiCad (PCBNEW 8.0.8) date 2025-04-26 12:51:53*
%MOMM*%
%LPD*%
G01*
G04 APERTURE LIST*
G04 Aperture macros list*
%AMRoundRect*
0 Rectangle with rounded corners*
0 $1 Rounding radius*
0 $2 $3 $4 $5 $6 $7 $8 $9 X,Y pos of 4 corners*
0 Add a 4 corners polygon primitive as box body*
4,1,4,$2,$3,$4,$5,$6,$7,$8,$9,$2,$3,0*
0 Add four circle primitives for the rounded corners*
1,1,$1+$1,$2,$3*
1,1,$1+$1,$4,$5*
1,1,$1+$1,$6,$7*
1,1,$1+$1,$8,$9*
0 Add four rect primitives between the rounded corners*
20,1,$1+$1,$2,$3,$4,$5,0*
20,1,$1+$1,$4,$5,$6,$7,0*
20,1,$1+$1,$6,$7,$8,$9,0*
20,1,$1+$1,$8,$9,$2,$3,0*%
%AMOutline5P*
0 Free polygon, 5 corners , with rotation*
0 The origin of the aperture is its center*
0 number of corners: always 5*
0 $1 to $10 corner X, Y*
0 $11 Rotation angle, in degrees counterclockwise*
0 create outline with 5 corners*
4,1,5,$1,$2,$3,$4,$5,$6,$7,$8,$9,$10,$1,$2,$11*%
%AMOutline6P*
0 Free polygon, 6 corners , with rotation*
0 The origin of the aperture is its center*
0 number of corners: always 6*
0 $1 to $12 corner X, Y*
0 $13 Rotation angle, in degrees counterclockwise*
0 create outline with 6 corners*
4,1,6,$1,$2,$3,$4,$5,$6,$7,$8,$9,$10,$11,$12,$1,$2,$13*%
%AMOutline7P*
0 Free polygon, 7 corners , with rotation*
0 The origin of the aperture is its center*
0 number of corners: always 7*
0 $1 to $14 corner X, Y*
0 $15 Rotation angle, in degrees counterclockwise*
0 create outline with 7 corners*
4,1,7,$1,$2,$3,$4,$5,$6,$7,$8,$9,$10,$11,$12,$13,$14,$1,$2,$15*%
%AMOutline8P*
0 Free polygon, 8 corners , with rotation*
0 The origin of the aperture is its center*
0 number of corners: always 8*
0 $1 to $16 corner X, Y*
0 $17 Rotation angle, in degrees counterclockwise*
0 create outline with 8 corners*
4,1,8,$1,$2,$3,$4,$5,$6,$7,$8,$9,$10,$11,$12,$13,$14,$15,$16,$1,$2,$17*%
G04 Aperture macros list end*
%ADD10C,0.000000*%
%ADD11C,0.100000*%
%ADD12R,1.600000X1.600000*%
%ADD13C,1.600000*%
%ADD14R,1.500000X1.500000*%
%ADD15Outline8P,-1.900000X1.140000X-1.140000X1.900000X1.140000X1.900000X1.900000X1.140000X1.900000X-1.140000X1.140000X-1.900000X-1.140000X-1.900000X-1.900000X-1.140000X180.000000*%
%ADD16R,1.800000X1.800000*%
%ADD17C,1.800000*%
%ADD18O,1.600000X1.600000*%
%ADD19RoundRect,0.250001X1.149999X1.149999X-1.149999X1.149999X-1.149999X-1.149999X1.149999X-1.149999X0*%
%ADD20C,2.800000*%
%ADD21RoundRect,0.250001X1.149999X-1.149999X1.149999X1.149999X-1.149999X1.149999X-1.149999X-1.149999X0*%
%ADD22Outline8P,-1.900000X1.140000X-1.140000X1.900000X1.140000X1.900000X1.900000X1.140000X1.900000X-1.140000X1.140000X-1.900000X-1.140000X-1.900000X-1.900000X-1.140000X0.000000*%
%ADD23R,2.200000X2.200000*%
%ADD24O,2.200000X2.200000*%
%ADD25R,2.400000X1.600000*%
%ADD26O,2.400000X1.600000*%
G04 APERTURE END LIST*
D10*
G36*
X91500000Y-92000000D02*
G01*
X91524531Y-92002059D01*
X91536534Y-92003837D01*
X91548310Y-92006114D01*
X91559818Y-92008892D01*
X91571019Y-92012173D01*
X91581874Y-92015956D01*
X91592343Y-92020244D01*
X91602386Y-92025036D01*
X91611964Y-92030335D01*
X91621037Y-92036142D01*
X91629565Y-92042456D01*
X91637508Y-92049280D01*
X91644828Y-92056615D01*
X91661554Y-92076581D01*
X91677579Y-92098693D01*
X91692872Y-92122829D01*
X91707402Y-92148864D01*
X91721139Y-92176676D01*
X91734051Y-92206141D01*
X91746107Y-92237136D01*
X91757276Y-92269539D01*
X91767528Y-92303225D01*
X91776831Y-92338071D01*
X91785154Y-92373955D01*
X91792466Y-92410752D01*
X91798736Y-92448340D01*
X91803934Y-92486595D01*
X91808028Y-92525395D01*
X91810987Y-92564615D01*
X91812165Y-92594811D01*
X91813546Y-92622005D01*
X91815168Y-92646359D01*
X91816082Y-92657522D01*
X91817072Y-92668035D01*
X91818143Y-92677918D01*
X91819299Y-92687192D01*
X91820546Y-92695877D01*
X91821888Y-92703993D01*
X91823332Y-92711560D01*
X91824881Y-92718599D01*
X91826541Y-92725129D01*
X91828317Y-92731171D01*
X91830214Y-92736744D01*
X91832236Y-92741870D01*
X91834390Y-92746568D01*
X91836680Y-92750857D01*
X91839111Y-92754760D01*
X91841688Y-92758295D01*
X91844416Y-92761482D01*
X91847301Y-92764343D01*
X91850346Y-92766897D01*
X91853558Y-92769163D01*
X91856941Y-92771164D01*
X91860501Y-92772917D01*
X91864242Y-92774444D01*
X91868169Y-92775766D01*
X91872288Y-92776901D01*
X91876603Y-92777870D01*
X91884103Y-92778648D01*
X91891335Y-92778585D01*
X91894856Y-92778232D01*
X91898316Y-92777660D01*
X91901717Y-92776868D01*
X91905062Y-92775852D01*
X91908353Y-92774610D01*
X91911592Y-92773139D01*
X91914781Y-92771435D01*
X91917922Y-92769498D01*
X91921017Y-92767323D01*
X91924068Y-92764909D01*
X91930049Y-92759349D01*
X91935881Y-92752797D01*
X91941581Y-92745231D01*
X91947167Y-92736629D01*
X91952654Y-92726971D01*
X91958062Y-92716233D01*
X91963405Y-92704394D01*
X91968702Y-92691433D01*
X91973970Y-92677328D01*
X91984109Y-92651678D01*
X91995629Y-92625869D01*
X92022522Y-92574028D01*
X92054080Y-92522315D01*
X92089733Y-92471242D01*
X92128912Y-92421320D01*
X92171046Y-92373058D01*
X92215566Y-92326969D01*
X92261903Y-92283562D01*
X92309485Y-92243349D01*
X92357745Y-92206840D01*
X92406111Y-92174546D01*
X92454015Y-92146979D01*
X92500886Y-92124648D01*
X92523756Y-92115606D01*
X92546155Y-92108065D01*
X92568011Y-92102089D01*
X92589252Y-92097741D01*
X92609808Y-92095086D01*
X92629607Y-92094186D01*
X92641641Y-92094486D01*
X92653625Y-92095380D01*
X92665543Y-92096853D01*
X92677383Y-92098896D01*
X92689131Y-92101496D01*
X92700773Y-92104640D01*
X92712295Y-92108318D01*
X92723683Y-92112517D01*
X92734924Y-92117225D01*
X92746004Y-92122431D01*
X92756910Y-92128122D01*
X92767627Y-92134286D01*
X92778141Y-92140912D01*
X92788440Y-92147988D01*
X92808333Y-92163441D01*
X92827197Y-92180549D01*
X92844922Y-92199218D01*
X92861397Y-92219353D01*
X92876513Y-92240856D01*
X92890159Y-92263634D01*
X92896397Y-92275471D01*
X92902225Y-92287591D01*
X92907632Y-92299982D01*
X92912602Y-92312632D01*
X92917122Y-92325529D01*
X92921178Y-92338661D01*
X92930620Y-92376031D01*
X92938332Y-92414055D01*
X92944353Y-92452631D01*
X92948721Y-92491656D01*
X92951474Y-92531029D01*
X92952649Y-92570647D01*
X92952287Y-92610407D01*
X92950423Y-92650208D01*
X92947096Y-92689947D01*
X92942345Y-92729521D01*
X92936208Y-92768829D01*
X92928722Y-92807767D01*
X92919925Y-92846235D01*
X92909857Y-92884129D01*
X92898554Y-92921346D01*
X92886055Y-92957786D01*
X92872397Y-92993345D01*
X92857620Y-93027921D01*
X92841761Y-93061412D01*
X92824858Y-93093716D01*
X92806950Y-93124729D01*
X92788073Y-93154351D01*
X92768267Y-93182478D01*
X92747570Y-93209008D01*
X92726019Y-93233839D01*
X92703653Y-93256868D01*
X92680509Y-93277994D01*
X92656627Y-93297114D01*
X92632043Y-93314125D01*
X92606796Y-93328926D01*
X92580924Y-93341414D01*
X92554466Y-93351486D01*
X92525190Y-93360416D01*
X92499551Y-93368453D01*
X92477364Y-93375745D01*
X92467508Y-93379159D01*
X92458447Y-93382443D01*
X92450156Y-93385615D01*
X92442614Y-93388693D01*
X92435797Y-93391698D01*
X92429682Y-93394647D01*
X92424247Y-93397558D01*
X92419469Y-93400451D01*
X92415324Y-93403344D01*
X92411789Y-93406255D01*
X92408842Y-93409204D01*
X92406460Y-93412208D01*
X92404619Y-93415287D01*
X92403297Y-93418459D01*
X92402470Y-93421743D01*
X92402116Y-93425156D01*
X92402212Y-93428719D01*
X92402735Y-93432449D01*
X92403662Y-93436365D01*
X92404970Y-93440486D01*
X92406635Y-93444829D01*
X92408636Y-93449415D01*
X92413550Y-93459387D01*
X92419528Y-93470549D01*
X92432664Y-93489341D01*
X92454937Y-93512367D01*
X92485352Y-93539012D01*
X92522914Y-93568660D01*
X92566628Y-93600695D01*
X92615497Y-93634502D01*
X92724725Y-93704970D01*
X92842634Y-93775140D01*
X92961262Y-93840089D01*
X93018358Y-93869067D01*
X93072648Y-93894893D01*
X93123136Y-93916952D01*
X93168828Y-93934628D01*
X93252297Y-93962365D01*
X93339394Y-93985449D01*
X93430127Y-94003878D01*
X93524502Y-94017649D01*
X93622527Y-94026759D01*
X93724208Y-94031208D01*
X93829553Y-94030991D01*
X93938567Y-94026107D01*
X94051259Y-94016554D01*
X94167635Y-94002329D01*
X94287703Y-93983430D01*
X94411468Y-93959854D01*
X94538939Y-93931600D01*
X94670122Y-93898664D01*
X94805025Y-93861045D01*
X94943653Y-93818741D01*
X95025413Y-93793682D01*
X95102780Y-93771468D01*
X95176298Y-93752064D01*
X95246510Y-93735438D01*
X95313959Y-93721555D01*
X95379189Y-93710384D01*
X95442743Y-93701889D01*
X95505165Y-93696039D01*
X95566997Y-93692800D01*
X95628784Y-93692138D01*
X95691068Y-93694020D01*
X95754394Y-93698412D01*
X95819304Y-93705282D01*
X95886341Y-93714596D01*
X95956050Y-93726321D01*
X96028973Y-93740423D01*
X96111867Y-93752644D01*
X96231446Y-93763674D01*
X96610925Y-93783154D01*
X97227934Y-93800848D01*
X98142995Y-93818741D01*
X98951917Y-93831905D01*
X99281613Y-93838904D01*
X99568106Y-93847166D01*
X99816375Y-93857432D01*
X100031400Y-93870439D01*
X100218159Y-93886929D01*
X100302496Y-93896711D01*
X100381634Y-93907640D01*
X100456195Y-93919810D01*
X100526802Y-93933312D01*
X100594078Y-93948240D01*
X100658644Y-93964685D01*
X100721124Y-93982740D01*
X100782139Y-94002497D01*
X100842313Y-94024049D01*
X100902267Y-94047489D01*
X101024008Y-94100400D01*
X101152340Y-94161969D01*
X101448698Y-94314040D01*
X101578673Y-94383361D01*
X101705120Y-94453700D01*
X101827806Y-94524895D01*
X101946504Y-94596788D01*
X102060981Y-94669217D01*
X102171008Y-94742023D01*
X102276355Y-94815043D01*
X102376791Y-94888119D01*
X102472086Y-94961090D01*
X102562011Y-95033794D01*
X102646334Y-95106072D01*
X102724826Y-95177764D01*
X102797256Y-95248708D01*
X102863394Y-95318744D01*
X102923011Y-95387713D01*
X102975875Y-95455452D01*
X102994962Y-95482329D01*
X103012408Y-95507769D01*
X103028323Y-95532035D01*
X103042815Y-95555391D01*
X103055992Y-95578098D01*
X103067962Y-95600420D01*
X103078835Y-95622620D01*
X103088719Y-95644960D01*
X103097723Y-95667703D01*
X103105954Y-95691112D01*
X103113522Y-95715450D01*
X103120535Y-95740979D01*
X103127101Y-95767962D01*
X103133330Y-95796662D01*
X103139328Y-95827342D01*
X103145206Y-95860264D01*
X103152182Y-95905012D01*
X103157827Y-95949786D01*
X103162137Y-95994623D01*
X103165108Y-96039561D01*
X103166737Y-96084639D01*
X103167019Y-96129895D01*
X103165951Y-96175366D01*
X103163529Y-96221090D01*
X103159749Y-96267106D01*
X103154607Y-96313452D01*
X103148099Y-96360164D01*
X103140221Y-96407282D01*
X103130970Y-96454844D01*
X103120341Y-96502887D01*
X103108331Y-96551449D01*
X103094936Y-96600568D01*
X103087556Y-96627679D01*
X103080815Y-96651558D01*
X103074596Y-96672347D01*
X103071646Y-96681627D01*
X103068783Y-96690188D01*
X103065992Y-96698048D01*
X103063259Y-96705223D01*
X103060568Y-96711733D01*
X103057905Y-96717594D01*
X103055256Y-96722825D01*
X103052606Y-96727443D01*
X103049941Y-96731466D01*
X103047245Y-96734911D01*
X103044504Y-96737797D01*
X103041703Y-96740141D01*
X103038828Y-96741960D01*
X103035865Y-96743273D01*
X103032797Y-96744098D01*
X103029612Y-96744451D01*
X103026294Y-96744351D01*
X103022829Y-96743816D01*
X103019201Y-96742863D01*
X103015397Y-96741509D01*
X103011402Y-96739774D01*
X103007201Y-96737673D01*
X103002779Y-96735226D01*
X102998122Y-96732450D01*
X102988044Y-96725981D01*
X102978271Y-96720576D01*
X102968675Y-96716101D01*
X102959070Y-96712608D01*
X102949274Y-96710147D01*
X102939103Y-96708768D01*
X102928373Y-96708522D01*
X102916901Y-96709458D01*
X102904502Y-96711627D01*
X102890993Y-96715081D01*
X102876191Y-96719868D01*
X102859911Y-96726039D01*
X102841969Y-96733646D01*
X102822184Y-96742737D01*
X102800369Y-96753365D01*
X102749920Y-96779427D01*
X102680412Y-96819353D01*
X102612085Y-96865667D01*
X102545392Y-96917714D01*
X102480781Y-96974839D01*
X102418703Y-97036384D01*
X102359609Y-97101696D01*
X102303949Y-97170117D01*
X102252173Y-97240993D01*
X102204731Y-97313667D01*
X102162075Y-97387483D01*
X102124654Y-97461786D01*
X102092918Y-97535920D01*
X102067319Y-97609230D01*
X102048306Y-97681058D01*
X102036330Y-97750751D01*
X102033121Y-97784591D01*
X102031840Y-97817651D01*
X102031840Y-97974285D01*
X102298540Y-97974285D01*
X102352824Y-97975545D01*
X102378780Y-97976673D01*
X102403946Y-97978135D01*
X102428318Y-97979931D01*
X102451896Y-97982060D01*
X102474678Y-97984525D01*
X102496663Y-97987324D01*
X102517850Y-97990460D01*
X102538237Y-97993931D01*
X102557823Y-97997739D01*
X102576607Y-98001884D01*
X102594587Y-98006366D01*
X102611761Y-98011187D01*
X102628129Y-98016346D01*
X102643689Y-98021844D01*
X102658440Y-98027682D01*
X102672380Y-98033860D01*
X102685509Y-98040378D01*
X102697824Y-98047237D01*
X102709324Y-98054438D01*
X102720008Y-98061980D01*
X102729875Y-98069865D01*
X102738923Y-98078093D01*
X102747151Y-98086664D01*
X102754558Y-98095579D01*
X102761141Y-98104839D01*
X102766901Y-98114443D01*
X102771835Y-98124393D01*
X102775942Y-98134688D01*
X102779221Y-98145330D01*
X102781670Y-98156318D01*
X102785355Y-98179597D01*
X102789226Y-98219811D01*
X102797279Y-98342387D01*
X102805333Y-98506735D01*
X102812890Y-98695539D01*
X102822168Y-98890905D01*
X102837802Y-99104751D01*
X102858757Y-99328766D01*
X102883997Y-99554642D01*
X102912486Y-99774068D01*
X102943189Y-99978736D01*
X102975070Y-100160335D01*
X103007093Y-100310557D01*
X103021495Y-100372160D01*
X103034148Y-100428931D01*
X103045067Y-100481097D01*
X103054264Y-100528887D01*
X103061753Y-100572528D01*
X103067547Y-100612249D01*
X103071658Y-100648277D01*
X103074100Y-100680840D01*
X103074700Y-100695894D01*
X103074887Y-100710166D01*
X103074664Y-100723687D01*
X103074031Y-100736483D01*
X103072991Y-100748584D01*
X103071546Y-100760019D01*
X103069696Y-100770815D01*
X103067444Y-100781001D01*
X103064792Y-100790606D01*
X103061740Y-100799658D01*
X103058291Y-100808186D01*
X103054446Y-100816217D01*
X103050206Y-100823782D01*
X103045575Y-100830907D01*
X103040552Y-100837622D01*
X103035140Y-100843955D01*
X103028424Y-100851642D01*
X103022366Y-100859464D01*
X103016968Y-100867479D01*
X103012228Y-100875747D01*
X103008150Y-100884329D01*
X103004732Y-100893283D01*
X103001977Y-100902670D01*
X102999884Y-100912549D01*
X102998454Y-100922980D01*
X102997689Y-100934023D01*
X102997590Y-100945737D01*
X102998155Y-100958182D01*
X102999388Y-100971417D01*
X103001288Y-100985503D01*
X103003856Y-101000499D01*
X103007093Y-101016465D01*
X103028791Y-101132352D01*
X102812362Y-101110656D01*
X102768467Y-101105786D01*
X102726711Y-101100767D01*
X102688043Y-101095699D01*
X102653413Y-101090680D01*
X102623768Y-101085810D01*
X102600058Y-101081188D01*
X102590725Y-101079001D01*
X102583231Y-101076914D01*
X102577695Y-101074938D01*
X102574236Y-101073086D01*
X102570022Y-101070181D01*
X102566205Y-101066261D01*
X102562782Y-101061375D01*
X102559746Y-101055572D01*
X102554819Y-101041410D01*
X102551384Y-101024162D01*
X102549399Y-101004221D01*
X102548825Y-100981975D01*
X102549621Y-100957814D01*
X102551748Y-100932129D01*
X102555164Y-100905308D01*
X102559830Y-100877743D01*
X102565705Y-100849823D01*
X102572749Y-100821938D01*
X102580922Y-100794477D01*
X102590183Y-100767831D01*
X102600491Y-100742390D01*
X102611808Y-100718543D01*
X102624535Y-100692386D01*
X102635737Y-100665533D01*
X102645428Y-100637719D01*
X102653620Y-100608683D01*
X102660328Y-100578163D01*
X102665563Y-100545894D01*
X102669339Y-100511614D01*
X102671670Y-100475061D01*
X102672568Y-100435972D01*
X102672047Y-100394083D01*
X102670120Y-100349133D01*
X102666800Y-100300858D01*
X102656034Y-100193283D01*
X102639854Y-100069257D01*
X102618603Y-99938947D01*
X102589211Y-99791056D01*
X102553803Y-99633553D01*
X102514508Y-99474407D01*
X102473451Y-99321586D01*
X102432760Y-99183059D01*
X102394562Y-99066795D01*
X102377063Y-99019501D01*
X102360984Y-98980761D01*
X102345162Y-98949253D01*
X102329214Y-98920465D01*
X102312790Y-98894175D01*
X102295541Y-98870165D01*
X102277116Y-98848213D01*
X102257167Y-98828100D01*
X102235343Y-98809606D01*
X102211296Y-98792510D01*
X102184675Y-98776592D01*
X102155131Y-98761632D01*
X102122314Y-98747410D01*
X102085875Y-98733706D01*
X102045464Y-98720300D01*
X102000732Y-98706971D01*
X101951329Y-98693499D01*
X101896905Y-98679665D01*
X101839829Y-98665344D01*
X101789625Y-98652956D01*
X101745956Y-98642525D01*
X101708489Y-98634074D01*
X101691976Y-98630597D01*
X101676888Y-98627625D01*
X101663182Y-98625159D01*
X101650818Y-98623203D01*
X101639753Y-98621759D01*
X101629945Y-98620830D01*
X101621352Y-98620419D01*
X101613933Y-98620530D01*
X101607646Y-98621164D01*
X101602449Y-98622326D01*
X101600246Y-98623105D01*
X101598299Y-98624017D01*
X101596605Y-98625062D01*
X101595156Y-98626241D01*
X101593949Y-98627554D01*
X101592977Y-98629001D01*
X101592236Y-98630582D01*
X101591721Y-98632299D01*
X101591425Y-98634151D01*
X101591345Y-98636138D01*
X101591808Y-98640522D01*
X101593067Y-98645453D01*
X101595082Y-98650935D01*
X101597809Y-98656969D01*
X101601208Y-98663560D01*
X101605237Y-98670709D01*
X101609853Y-98678420D01*
X101620680Y-98695539D01*
X101625953Y-98703499D01*
X101631044Y-98712041D01*
X101635930Y-98721075D01*
X101640589Y-98730514D01*
X101645001Y-98740269D01*
X101649143Y-98750253D01*
X101652993Y-98760375D01*
X101656531Y-98770549D01*
X101659733Y-98780686D01*
X101662579Y-98790697D01*
X101665047Y-98800494D01*
X101667114Y-98809989D01*
X101668760Y-98819093D01*
X101669963Y-98827717D01*
X101670700Y-98835775D01*
X101670951Y-98843177D01*
X101669080Y-98867107D01*
X101663477Y-98895415D01*
X101654155Y-98928065D01*
X101641127Y-98965017D01*
X101624407Y-99006237D01*
X101604006Y-99051685D01*
X101552219Y-99155121D01*
X101485872Y-99275027D01*
X101405069Y-99411105D01*
X101309918Y-99563059D01*
X101200522Y-99730590D01*
X101088113Y-99904361D01*
X101036720Y-99986381D01*
X100988640Y-100064973D01*
X100943952Y-100140000D01*
X100902736Y-100211323D01*
X100865069Y-100278804D01*
X100831031Y-100342306D01*
X100800702Y-100401690D01*
X100774161Y-100456819D01*
X100751485Y-100507554D01*
X100732755Y-100553757D01*
X100718050Y-100595292D01*
X100707448Y-100632018D01*
X100701029Y-100663800D01*
X100699413Y-100677792D01*
X100698872Y-100690497D01*
X100698101Y-100712089D01*
X100695826Y-100734441D01*
X100692106Y-100757471D01*
X100687002Y-100781097D01*
X100680572Y-100805236D01*
X100672875Y-100829806D01*
X100663970Y-100854723D01*
X100653918Y-100879906D01*
X100630604Y-100930739D01*
X100603408Y-100981643D01*
X100572803Y-101031958D01*
X100539262Y-101081023D01*
X100503259Y-101128178D01*
X100465268Y-101172763D01*
X100425763Y-101214117D01*
X100385216Y-101251580D01*
X100364700Y-101268646D01*
X100344102Y-101284491D01*
X100323480Y-101299034D01*
X100302894Y-101312190D01*
X100282403Y-101323879D01*
X100262067Y-101334017D01*
X100241943Y-101342522D01*
X100222092Y-101349311D01*
X100198746Y-101355667D01*
X100173803Y-101360675D01*
X100147640Y-101364375D01*
X100120633Y-101366806D01*
X100093158Y-101368009D01*
X100065591Y-101368025D01*
X100038307Y-101366894D01*
X100011683Y-101364656D01*
X99986094Y-101361351D01*
X99961917Y-101357020D01*
X99939528Y-101351703D01*
X99919302Y-101345441D01*
X99901615Y-101338273D01*
X99893841Y-101334362D01*
X99886844Y-101330240D01*
X99880669Y-101325912D01*
X99875364Y-101321383D01*
X99870975Y-101316657D01*
X99867551Y-101311741D01*
X99866497Y-101310062D01*
X99865714Y-101308011D01*
X99864941Y-101302839D01*
X99865189Y-101296322D01*
X99866418Y-101288556D01*
X99868587Y-101279636D01*
X99871653Y-101269658D01*
X99875577Y-101258720D01*
X99880317Y-101246917D01*
X99885833Y-101234344D01*
X99892082Y-101221099D01*
X99899024Y-101207277D01*
X99906618Y-101192975D01*
X99914823Y-101178288D01*
X99923598Y-101163313D01*
X99932902Y-101148145D01*
X99942692Y-101132882D01*
X99965598Y-101096710D01*
X99987082Y-101061244D01*
X100007137Y-101026522D01*
X100025755Y-100992578D01*
X100042928Y-100959449D01*
X100058648Y-100927173D01*
X100072908Y-100895785D01*
X100085700Y-100865321D01*
X100097015Y-100835819D01*
X100106848Y-100807314D01*
X100115188Y-100779844D01*
X100122030Y-100753444D01*
X100127365Y-100728151D01*
X100131185Y-100704001D01*
X100133483Y-100681030D01*
X100134251Y-100659276D01*
X100134588Y-100647584D01*
X100135613Y-100636107D01*
X100137341Y-100624825D01*
X100139790Y-100613719D01*
X100142977Y-100602767D01*
X100146920Y-100591951D01*
X100151634Y-100581249D01*
X100157137Y-100570641D01*
X100163447Y-100560108D01*
X100170579Y-100549630D01*
X100178552Y-100539185D01*
X100187382Y-100528754D01*
X100197087Y-100518317D01*
X100207683Y-100507854D01*
X100219188Y-100497344D01*
X100231618Y-100486768D01*
X100251558Y-100470657D01*
X100270983Y-100455507D01*
X100289428Y-100441683D01*
X100298138Y-100435384D01*
X100306429Y-100429553D01*
X100314242Y-100424237D01*
X100321519Y-100419481D01*
X100328203Y-100415331D01*
X100334235Y-100411834D01*
X100339557Y-100409034D01*
X100344110Y-100406977D01*
X100347838Y-100405710D01*
X100349373Y-100405386D01*
X100350680Y-100405277D01*
X100355022Y-100403393D01*
X100361505Y-100397885D01*
X100380347Y-100376846D01*
X100437695Y-100300659D01*
X100513945Y-100190378D01*
X100600314Y-100059665D01*
X100688023Y-99922180D01*
X100768291Y-99791584D01*
X100832337Y-99681539D01*
X100855532Y-99638492D01*
X100871379Y-99605706D01*
X100876669Y-99591911D01*
X100881997Y-99576435D01*
X100892621Y-99541106D01*
X100902959Y-99501052D01*
X100912721Y-99457606D01*
X100921614Y-99412100D01*
X100929348Y-99365870D01*
X100935631Y-99320247D01*
X100940171Y-99276565D01*
X100942751Y-99245988D01*
X100944711Y-99217588D01*
X100946016Y-99191113D01*
X100946628Y-99166308D01*
X100946512Y-99142920D01*
X100945631Y-99120695D01*
X100943948Y-99099381D01*
X100941427Y-99078723D01*
X100938032Y-99058468D01*
X100933727Y-99038362D01*
X100928474Y-99018153D01*
X100922237Y-98997586D01*
X100914980Y-98976409D01*
X100906667Y-98954368D01*
X100897260Y-98931208D01*
X100886725Y-98906678D01*
X100875721Y-98882332D01*
X100864802Y-98859751D01*
X100853764Y-98838714D01*
X100842407Y-98819001D01*
X100830529Y-98800392D01*
X100817929Y-98782666D01*
X100804405Y-98765604D01*
X100789755Y-98748986D01*
X100773779Y-98732590D01*
X100756273Y-98716198D01*
X100737038Y-98699589D01*
X100715871Y-98682542D01*
X100692570Y-98664838D01*
X100666935Y-98646257D01*
X100638764Y-98626578D01*
X100607854Y-98605581D01*
X100551096Y-98564264D01*
X100522307Y-98541516D01*
X100493017Y-98517136D01*
X100432246Y-98462753D01*
X100367414Y-98399669D01*
X100297149Y-98326441D01*
X100220082Y-98241622D01*
X100134842Y-98143768D01*
X100040058Y-98031435D01*
X99676521Y-97598578D01*
X99384950Y-97611277D01*
X99313395Y-97612357D01*
X99223373Y-97610987D01*
X99118492Y-97607398D01*
X99002363Y-97601818D01*
X98750794Y-97585605D01*
X98497538Y-97564182D01*
X98323618Y-97548567D01*
X98181609Y-97536995D01*
X98120870Y-97532703D01*
X98066067Y-97529393D01*
X98016520Y-97527056D01*
X97971547Y-97525684D01*
X97930469Y-97525267D01*
X97892604Y-97525796D01*
X97857273Y-97527261D01*
X97823794Y-97529653D01*
X97791487Y-97532963D01*
X97759672Y-97537181D01*
X97727667Y-97542299D01*
X97694793Y-97548306D01*
X97640973Y-97556872D01*
X97568537Y-97565736D01*
X97480647Y-97574649D01*
X97380467Y-97583364D01*
X97155885Y-97599206D01*
X96920092Y-97611277D01*
X96749987Y-97618102D01*
X96678283Y-97621421D01*
X96614540Y-97624804D01*
X96558056Y-97628348D01*
X96508127Y-97632150D01*
X96464050Y-97636306D01*
X96425123Y-97640910D01*
X96390642Y-97646061D01*
X96359904Y-97651853D01*
X96332206Y-97658384D01*
X96306846Y-97665748D01*
X96283119Y-97674043D01*
X96260324Y-97683363D01*
X96237756Y-97693807D01*
X96214713Y-97705469D01*
X96176598Y-97726082D01*
X96140969Y-97746725D01*
X96107734Y-97767514D01*
X96076799Y-97788565D01*
X96048072Y-97809994D01*
X96021460Y-97831917D01*
X95996869Y-97854451D01*
X95974207Y-97877713D01*
X95953380Y-97901818D01*
X95934296Y-97926882D01*
X95916862Y-97953022D01*
X95900984Y-97980355D01*
X95886569Y-98008996D01*
X95873525Y-98039061D01*
X95861758Y-98070668D01*
X95851176Y-98103932D01*
X95845991Y-98120854D01*
X95840011Y-98138580D01*
X95833306Y-98156956D01*
X95825950Y-98175832D01*
X95818013Y-98195055D01*
X95809569Y-98214474D01*
X95791447Y-98253289D01*
X95772158Y-98291062D01*
X95762256Y-98309178D01*
X95752280Y-98326578D01*
X95742300Y-98343110D01*
X95732390Y-98358622D01*
X95722620Y-98372962D01*
X95713064Y-98385978D01*
X95693767Y-98412349D01*
X95676937Y-98436314D01*
X95662544Y-98458196D01*
X95650564Y-98478317D01*
X95645469Y-98487817D01*
X95640968Y-98496999D01*
X95637055Y-98505901D01*
X95633729Y-98514564D01*
X95630985Y-98523030D01*
X95628820Y-98531337D01*
X95627231Y-98539526D01*
X95626214Y-98547637D01*
X95625766Y-98555712D01*
X95625884Y-98563789D01*
X95626564Y-98571910D01*
X95627802Y-98580115D01*
X95629596Y-98588444D01*
X95631942Y-98596937D01*
X95634837Y-98605634D01*
X95638277Y-98614577D01*
X95642259Y-98623805D01*
X95646779Y-98633358D01*
X95657421Y-98653603D01*
X95670176Y-98675634D01*
X95685017Y-98699773D01*
X95750634Y-98806666D01*
X96004634Y-98803489D01*
X96058235Y-98804077D01*
X96112072Y-98805812D01*
X96164643Y-98808652D01*
X96214449Y-98812551D01*
X96259988Y-98817468D01*
X96280689Y-98820294D01*
X96299761Y-98823358D01*
X96317015Y-98826655D01*
X96332265Y-98830178D01*
X96345323Y-98833924D01*
X96356001Y-98837885D01*
X96378272Y-98846723D01*
X96402505Y-98857740D01*
X96428230Y-98870607D01*
X96454980Y-98884998D01*
X96482284Y-98900586D01*
X96509675Y-98917044D01*
X96536683Y-98934044D01*
X96562838Y-98951260D01*
X96587673Y-98968364D01*
X96610719Y-98985029D01*
X96631505Y-99000928D01*
X96649564Y-99015735D01*
X96664426Y-99029122D01*
X96675622Y-99040761D01*
X96679699Y-99045823D01*
X96682684Y-99050326D01*
X96684517Y-99054228D01*
X96685142Y-99057490D01*
X96684868Y-99058706D01*
X96684056Y-99059972D01*
X96680868Y-99062639D01*
X96675685Y-99065463D01*
X96668614Y-99068420D01*
X96659759Y-99071482D01*
X96649228Y-99074623D01*
X96623560Y-99081038D01*
X96592461Y-99087452D01*
X96556778Y-99093655D01*
X96517363Y-99099437D01*
X96475063Y-99104586D01*
X96450968Y-99107218D01*
X96426966Y-99110335D01*
X96403148Y-99113917D01*
X96379607Y-99117939D01*
X96356434Y-99122380D01*
X96333723Y-99127217D01*
X96311565Y-99132428D01*
X96290054Y-99137990D01*
X96269279Y-99143880D01*
X96249336Y-99150077D01*
X96230314Y-99156557D01*
X96212307Y-99163299D01*
X96195408Y-99170279D01*
X96179707Y-99177476D01*
X96165298Y-99184866D01*
X96152272Y-99192428D01*
X96138497Y-99200838D01*
X96124348Y-99208617D01*
X96109812Y-99215775D01*
X96094874Y-99222325D01*
X96079521Y-99228281D01*
X96063738Y-99233653D01*
X96047512Y-99238454D01*
X96030828Y-99242698D01*
X96013674Y-99246396D01*
X95996034Y-99249561D01*
X95977894Y-99252204D01*
X95959242Y-99254339D01*
X95940063Y-99255979D01*
X95920342Y-99257134D01*
X95900066Y-99257818D01*
X95879222Y-99258043D01*
X95854391Y-99257844D01*
X95831533Y-99257190D01*
X95810414Y-99255999D01*
X95790801Y-99254190D01*
X95772460Y-99251681D01*
X95755155Y-99248388D01*
X95738653Y-99244230D01*
X95722721Y-99239126D01*
X95707123Y-99232991D01*
X95691626Y-99225745D01*
X95675996Y-99217306D01*
X95659998Y-99207590D01*
X95643399Y-99196517D01*
X95625964Y-99184003D01*
X95607460Y-99169967D01*
X95587651Y-99154326D01*
X95573684Y-99143506D01*
X95559998Y-99133295D01*
X95546654Y-99123731D01*
X95533709Y-99114855D01*
X95521224Y-99106703D01*
X95509256Y-99099317D01*
X95497865Y-99092733D01*
X95487110Y-99086991D01*
X95477049Y-99082129D01*
X95467741Y-99078187D01*
X95459246Y-99075203D01*
X95455322Y-99074082D01*
X95451622Y-99073215D01*
X95448156Y-99072608D01*
X95444929Y-99072264D01*
X95441949Y-99072188D01*
X95439224Y-99072386D01*
X95436761Y-99072862D01*
X95434568Y-99073622D01*
X95432651Y-99074669D01*
X95431018Y-99076009D01*
X95427465Y-99080879D01*
X95422808Y-99089592D01*
X95410480Y-99117698D01*
X95394629Y-99158628D01*
X95375852Y-99210683D01*
X95354743Y-99272164D01*
X95331898Y-99341371D01*
X95283380Y-99496168D01*
X95245898Y-99623605D01*
X95217177Y-99727770D01*
X95205724Y-99774131D01*
X95196009Y-99818280D01*
X95187880Y-99861419D01*
X95181185Y-99904752D01*
X95175774Y-99949480D01*
X95171496Y-99996805D01*
X95168199Y-100047930D01*
X95165732Y-100104058D01*
X95162684Y-100236127D01*
X95161143Y-100402631D01*
X95159619Y-100540045D01*
X95158565Y-100599415D01*
X95157282Y-100652928D01*
X95155741Y-100700859D01*
X95153916Y-100743485D01*
X95151779Y-100781083D01*
X95149303Y-100813927D01*
X95146461Y-100842293D01*
X95143227Y-100866459D01*
X95141453Y-100877052D01*
X95139572Y-100886699D01*
X95137579Y-100895433D01*
X95135470Y-100903289D01*
X95133243Y-100910303D01*
X95130894Y-100916507D01*
X95128419Y-100921936D01*
X95125816Y-100926626D01*
X95123080Y-100930611D01*
X95120209Y-100933924D01*
X95117199Y-100936602D01*
X95114047Y-100938677D01*
X95099469Y-100944538D01*
X95075608Y-100952328D01*
X95043698Y-100961643D01*
X95004973Y-100972081D01*
X94960666Y-100983238D01*
X94912013Y-100994711D01*
X94860247Y-101006098D01*
X94806601Y-101016994D01*
X94767934Y-101024752D01*
X94732960Y-101031554D01*
X94701477Y-101037402D01*
X94673284Y-101042294D01*
X94648179Y-101046232D01*
X94636722Y-101047843D01*
X94625961Y-101049215D01*
X94615871Y-101050348D01*
X94606428Y-101051242D01*
X94597605Y-101051898D01*
X94589378Y-101052315D01*
X94581722Y-101052493D01*
X94574610Y-101052433D01*
X94568019Y-101052134D01*
X94561923Y-101051596D01*
X94556297Y-101050819D01*
X94551115Y-101049804D01*
X94546353Y-101048550D01*
X94541984Y-101047057D01*
X94537985Y-101045325D01*
X94534330Y-101043355D01*
X94530993Y-101041146D01*
X94527949Y-101038698D01*
X94525174Y-101036011D01*
X94522642Y-101033086D01*
X94520327Y-101029922D01*
X94518205Y-101026519D01*
X94514614Y-101020573D01*
X94511479Y-101014447D01*
X94508798Y-101008146D01*
X94506567Y-101001677D01*
X94504783Y-100995045D01*
X94503445Y-100988256D01*
X94502548Y-100981316D01*
X94502090Y-100974230D01*
X94502069Y-100967005D01*
X94502482Y-100959647D01*
X94503325Y-100952160D01*
X94504597Y-100944552D01*
X94506293Y-100936827D01*
X94508412Y-100928991D01*
X94513906Y-100913013D01*
X94521055Y-100896662D01*
X94529838Y-100879985D01*
X94540231Y-100863030D01*
X94552212Y-100845842D01*
X94565760Y-100828468D01*
X94580850Y-100810954D01*
X94597462Y-100793348D01*
X94615572Y-100775695D01*
X94625020Y-100767212D01*
X94634476Y-100758288D01*
X94643888Y-100749000D01*
X94653201Y-100739429D01*
X94662362Y-100729654D01*
X94671317Y-100719753D01*
X94680014Y-100709805D01*
X94688398Y-100699890D01*
X94696417Y-100690087D01*
X94704016Y-100680475D01*
X94711142Y-100671132D01*
X94717742Y-100662138D01*
X94723762Y-100653571D01*
X94729149Y-100645512D01*
X94733849Y-100638039D01*
X94737809Y-100631231D01*
X94746044Y-100613485D01*
X94754273Y-100590814D01*
X94770700Y-100530739D01*
X94787053Y-100451093D01*
X94803294Y-100351963D01*
X94819386Y-100233436D01*
X94835292Y-100095598D01*
X94850975Y-99938537D01*
X94866397Y-99762339D01*
X94875798Y-99673993D01*
X94887431Y-99579942D01*
X94900851Y-99483063D01*
X94915610Y-99386234D01*
X94931261Y-99292332D01*
X94947360Y-99204234D01*
X94963458Y-99124818D01*
X94979110Y-99056960D01*
X94987124Y-99026358D01*
X94994680Y-98995801D01*
X95008322Y-98935591D01*
X95019842Y-98877873D01*
X95029050Y-98824193D01*
X95035752Y-98776093D01*
X95038104Y-98754619D01*
X95039757Y-98735119D01*
X95040688Y-98717787D01*
X95040872Y-98702814D01*
X95040286Y-98690395D01*
X95038906Y-98680723D01*
X95036525Y-98671952D01*
X95032811Y-98662180D01*
X95027842Y-98651507D01*
X95021699Y-98640035D01*
X95014462Y-98627865D01*
X95006210Y-98615099D01*
X94997023Y-98601838D01*
X94986981Y-98588185D01*
X94976164Y-98574240D01*
X94964652Y-98560105D01*
X94952524Y-98545882D01*
X94939860Y-98531672D01*
X94926741Y-98517576D01*
X94913246Y-98503697D01*
X94899455Y-98490135D01*
X94885447Y-98476993D01*
X94865846Y-98458142D01*
X94848049Y-98440360D01*
X94831949Y-98423463D01*
X94817441Y-98407267D01*
X94804418Y-98391590D01*
X94792774Y-98376246D01*
X94782403Y-98361053D01*
X94773198Y-98345826D01*
X94765053Y-98330383D01*
X94757863Y-98314538D01*
X94751521Y-98298110D01*
X94745921Y-98280913D01*
X94740956Y-98262764D01*
X94736521Y-98243479D01*
X94732509Y-98222876D01*
X94728814Y-98200769D01*
X94723209Y-98160215D01*
X94719295Y-98120891D01*
X94717078Y-98082773D01*
X94716561Y-98045838D01*
X94717749Y-98010063D01*
X94720647Y-97975424D01*
X94725260Y-97941898D01*
X94731592Y-97909462D01*
X94739648Y-97878093D01*
X94749433Y-97847767D01*
X94760951Y-97818461D01*
X94774207Y-97790152D01*
X94789205Y-97762816D01*
X94805951Y-97736431D01*
X94824448Y-97710973D01*
X94844702Y-97686419D01*
X94855200Y-97674239D01*
X94864868Y-97662404D01*
X94873705Y-97650911D01*
X94881712Y-97639757D01*
X94888889Y-97628939D01*
X94895236Y-97618455D01*
X94900753Y-97608302D01*
X94905440Y-97598478D01*
X94909298Y-97588979D01*
X94912327Y-97579802D01*
X94914526Y-97570946D01*
X94915897Y-97562407D01*
X94916439Y-97554183D01*
X94916153Y-97546271D01*
X94915039Y-97538669D01*
X94913096Y-97531373D01*
X94910326Y-97524380D01*
X94906728Y-97517689D01*
X94902302Y-97511296D01*
X94897050Y-97505199D01*
X94890970Y-97499396D01*
X94884063Y-97493882D01*
X94876330Y-97488656D01*
X94867770Y-97483714D01*
X94858384Y-97479055D01*
X94848171Y-97474676D01*
X94837133Y-97470573D01*
X94825269Y-97466744D01*
X94812580Y-97463186D01*
X94799065Y-97459897D01*
X94784725Y-97456874D01*
X94769560Y-97454114D01*
X94756625Y-97451889D01*
X94743728Y-97449288D01*
X94730890Y-97446325D01*
X94718132Y-97443013D01*
X94692932Y-97435391D01*
X94668291Y-97426523D01*
X94644368Y-97416511D01*
X94621327Y-97405457D01*
X94599327Y-97393461D01*
X94578531Y-97380626D01*
X94568634Y-97373925D01*
X94559098Y-97367053D01*
X94549944Y-97360021D01*
X94541191Y-97352844D01*
X94532860Y-97345532D01*
X94524971Y-97338099D01*
X94517544Y-97330558D01*
X94510599Y-97322922D01*
X94504156Y-97315202D01*
X94498236Y-97307412D01*
X94492858Y-97299565D01*
X94488043Y-97291673D01*
X94483811Y-97283749D01*
X94480182Y-97275805D01*
X94477176Y-97267854D01*
X94474814Y-97259910D01*
X94463865Y-97223023D01*
X94453153Y-97189645D01*
X94442246Y-97159317D01*
X94430711Y-97131579D01*
X94418116Y-97105970D01*
X94404028Y-97082032D01*
X94388014Y-97059305D01*
X94369642Y-97037329D01*
X94348480Y-97015644D01*
X94324095Y-96993792D01*
X94296054Y-96971311D01*
X94263924Y-96947743D01*
X94227275Y-96922627D01*
X94185672Y-96895505D01*
X94085876Y-96833401D01*
X93928028Y-96740946D01*
X93721612Y-96623984D01*
X93493466Y-96498092D01*
X93270431Y-96378847D01*
X93039874Y-96255625D01*
X92851844Y-96152092D01*
X92770618Y-96105582D01*
X92696234Y-96061444D01*
X92627427Y-96018827D01*
X92562935Y-95976880D01*
X92501494Y-95934753D01*
X92441841Y-95891596D01*
X92382711Y-95846558D01*
X92322842Y-95798790D01*
X92260970Y-95747441D01*
X92195832Y-95691660D01*
X92050702Y-95563402D01*
X91877154Y-95407220D01*
X91808072Y-95345618D01*
X91747274Y-95293932D01*
X91692125Y-95251352D01*
X91639992Y-95217069D01*
X91588240Y-95190277D01*
X91534235Y-95170165D01*
X91475344Y-95155926D01*
X91408932Y-95146750D01*
X91332366Y-95141831D01*
X91243012Y-95140358D01*
X91015402Y-95144520D01*
X90705031Y-95152769D01*
X89883235Y-95174464D01*
X89776343Y-95092973D01*
X89765090Y-95084820D01*
X89753611Y-95076861D01*
X89741991Y-95069143D01*
X89730314Y-95061711D01*
X89718665Y-95054610D01*
X89707129Y-95047887D01*
X89695790Y-95041587D01*
X89684732Y-95035757D01*
X89674039Y-95030440D01*
X89663797Y-95025685D01*
X89654090Y-95021535D01*
X89645003Y-95018038D01*
X89636619Y-95015238D01*
X89629023Y-95013181D01*
X89622301Y-95011914D01*
X89616535Y-95011481D01*
X89608213Y-95011063D01*
X89599736Y-95009832D01*
X89591130Y-95007820D01*
X89582425Y-95005060D01*
X89573646Y-95001585D01*
X89564822Y-94997427D01*
X89555980Y-94992621D01*
X89547148Y-94987197D01*
X89529623Y-94974633D01*
X89512467Y-94959996D01*
X89495900Y-94943550D01*
X89480142Y-94925557D01*
X89465414Y-94906281D01*
X89451935Y-94885984D01*
X89439926Y-94864929D01*
X89429607Y-94843379D01*
X89421198Y-94821596D01*
X89417778Y-94810700D01*
X89414919Y-94799844D01*
X89412647Y-94789061D01*
X89410990Y-94778384D01*
X89409975Y-94767846D01*
X89409631Y-94757480D01*
X89410476Y-94741558D01*
X89413288Y-94725199D01*
X89418484Y-94707895D01*
X89426482Y-94689136D01*
X89437698Y-94668410D01*
X89452549Y-94645209D01*
X89471453Y-94619021D01*
X89494827Y-94589338D01*
X89523087Y-94555649D01*
X89556650Y-94517444D01*
X89641356Y-94425445D01*
X89752281Y-94309262D01*
X89892760Y-94164815D01*
X89991101Y-94064345D01*
X90084674Y-93966592D01*
X90171339Y-93874022D01*
X90248955Y-93789106D01*
X90315386Y-93714309D01*
X90368489Y-93652101D01*
X90389375Y-93626489D01*
X90406127Y-93604949D01*
X90418478Y-93587791D01*
X90426160Y-93575322D01*
X90441131Y-93553146D01*
X90465236Y-93526053D01*
X90497328Y-93494856D01*
X90536260Y-93460369D01*
X90580885Y-93423404D01*
X90630055Y-93384776D01*
X90682623Y-93345296D01*
X90737442Y-93305778D01*
X90793366Y-93267035D01*
X90849245Y-93229881D01*
X90903935Y-93195128D01*
X90956286Y-93163589D01*
X91005152Y-93136078D01*
X91049386Y-93113408D01*
X91087841Y-93096392D01*
X91119368Y-93085843D01*
X91131617Y-93082304D01*
X91142596Y-93078785D01*
X91152350Y-93075222D01*
X91156782Y-93073403D01*
X91160924Y-93071548D01*
X91164783Y-93069648D01*
X91168364Y-93067697D01*
X91171672Y-93065684D01*
X91174714Y-93063603D01*
X91177494Y-93061444D01*
X91180019Y-93059201D01*
X91182293Y-93056863D01*
X91184324Y-93054424D01*
X91186115Y-93051875D01*
X91187674Y-93049207D01*
X91189004Y-93046413D01*
X91190113Y-93043484D01*
X91191006Y-93040412D01*
X91191688Y-93037189D01*
X91192165Y-93033806D01*
X91192443Y-93030256D01*
X91192527Y-93026530D01*
X91192423Y-93022619D01*
X91192136Y-93018516D01*
X91191672Y-93014213D01*
X91190236Y-93004971D01*
X91188160Y-92994827D01*
X91166597Y-92909035D01*
X91152441Y-92853365D01*
X91137889Y-92797447D01*
X91129429Y-92755720D01*
X91124007Y-92710881D01*
X91121500Y-92663490D01*
X91121783Y-92614107D01*
X91124733Y-92563292D01*
X91130225Y-92511604D01*
X91138135Y-92459603D01*
X91148340Y-92407848D01*
X91160716Y-92356900D01*
X91175138Y-92307317D01*
X91191482Y-92259660D01*
X91209625Y-92214488D01*
X91229441Y-92172360D01*
X91250809Y-92133837D01*
X91273602Y-92099478D01*
X91285495Y-92084035D01*
X91297698Y-92069843D01*
X91305931Y-92061847D01*
X91314729Y-92054329D01*
X91324053Y-92047291D01*
X91333862Y-92040734D01*
X91344117Y-92034658D01*
X91354779Y-92029065D01*
X91365808Y-92023956D01*
X91377164Y-92019332D01*
X91388807Y-92015194D01*
X91400698Y-92011544D01*
X91425067Y-92005707D01*
X91449951Y-92001832D01*
X91475034Y-91999927D01*
X91500000Y-92000000D01*
G37*
D11*
G36*
X61851675Y-99556410D02*
G01*
X61950340Y-99566326D01*
X61994682Y-99573133D01*
X62094179Y-99595239D01*
X62187504Y-99626507D01*
X62213035Y-99637124D01*
X62303403Y-99684029D01*
X62385827Y-99742311D01*
X62396217Y-99750942D01*
X62468352Y-99823513D01*
X62526188Y-99904029D01*
X62537390Y-99922889D01*
X62580664Y-100010925D01*
X62615231Y-100109925D01*
X62628248Y-100159316D01*
X62646325Y-100256057D01*
X62656899Y-100361572D01*
X62660000Y-100465108D01*
X62660000Y-100850034D01*
X60878004Y-100850034D01*
X60878004Y-100395743D01*
X61096845Y-100395743D01*
X61096845Y-100605792D01*
X62441158Y-100605792D01*
X62441158Y-100423098D01*
X62435255Y-100313539D01*
X62417545Y-100214757D01*
X62375565Y-100099810D01*
X62312596Y-100004021D01*
X62228638Y-99927390D01*
X62123690Y-99869916D01*
X61997752Y-99831601D01*
X61889524Y-99815436D01*
X61769490Y-99810048D01*
X61669361Y-99812869D01*
X61568802Y-99822620D01*
X61471189Y-99841390D01*
X61454905Y-99845708D01*
X61358348Y-99880889D01*
X61272756Y-99932661D01*
X61246810Y-99954640D01*
X61182282Y-100031033D01*
X61137073Y-100123740D01*
X61132505Y-100137334D01*
X61109417Y-100233004D01*
X61098552Y-100332621D01*
X61096845Y-100395743D01*
X60878004Y-100395743D01*
X60878004Y-100386950D01*
X60881362Y-100285261D01*
X60895005Y-100167531D01*
X60919143Y-100060224D01*
X60953776Y-99963340D01*
X61009189Y-99860838D01*
X61079714Y-99773346D01*
X61092937Y-99760223D01*
X61181357Y-99689835D01*
X61267267Y-99642303D01*
X61364291Y-99604884D01*
X61472431Y-99577579D01*
X61591685Y-99560386D01*
X61695091Y-99553914D01*
X61749462Y-99553105D01*
X61851675Y-99556410D01*
G37*
G36*
X61096845Y-98812561D02*
G01*
X61096845Y-99225819D01*
X60878004Y-99225819D01*
X60878004Y-98151639D01*
X61096845Y-98151639D01*
X61096845Y-98564898D01*
X62441158Y-98564898D01*
X62441158Y-98151639D01*
X62660000Y-98151639D01*
X62660000Y-99225819D01*
X62441158Y-99225819D01*
X62441158Y-98812561D01*
X61096845Y-98812561D01*
G37*
G36*
X62180307Y-96554780D02*
G01*
X62279053Y-96563406D01*
X62373674Y-96591990D01*
X62404521Y-96607048D01*
X62487304Y-96665065D01*
X62556133Y-96741114D01*
X62564256Y-96752616D01*
X62614078Y-96841547D01*
X62649290Y-96937187D01*
X62660000Y-96977320D01*
X62679050Y-97079352D01*
X62688790Y-97179641D01*
X62691263Y-97266503D01*
X62688492Y-97364336D01*
X62685401Y-97408653D01*
X62676162Y-97507696D01*
X62671723Y-97544940D01*
X62657257Y-97641981D01*
X62652672Y-97667550D01*
X62631105Y-97763199D01*
X62628736Y-97772086D01*
X62378632Y-97772086D01*
X62413454Y-97677037D01*
X62439258Y-97580071D01*
X62447508Y-97540544D01*
X62462689Y-97439244D01*
X62470450Y-97337696D01*
X62472421Y-97248429D01*
X62468450Y-97145332D01*
X62454347Y-97047173D01*
X62422621Y-96951223D01*
X62400125Y-96911374D01*
X62327997Y-96842389D01*
X62312198Y-96834193D01*
X62214387Y-96810842D01*
X62193984Y-96810258D01*
X62096898Y-96833064D01*
X62069909Y-96850802D01*
X62001280Y-96922207D01*
X61977585Y-96957292D01*
X61929767Y-97046975D01*
X61903824Y-97107745D01*
X61867460Y-97198500D01*
X61834459Y-97280181D01*
X61794535Y-97372639D01*
X61756789Y-97452616D01*
X61704737Y-97541815D01*
X61657627Y-97603070D01*
X61582869Y-97672425D01*
X61523782Y-97709560D01*
X61428229Y-97742344D01*
X61341088Y-97750104D01*
X61238546Y-97737894D01*
X61159860Y-97711514D01*
X61070532Y-97658655D01*
X61001102Y-97592323D01*
X60941976Y-97506213D01*
X60900283Y-97415262D01*
X60889239Y-97384228D01*
X60863341Y-97281807D01*
X60850102Y-97175972D01*
X60846741Y-97080879D01*
X60851625Y-96982693D01*
X60864219Y-96882487D01*
X60865303Y-96875715D01*
X60883246Y-96778157D01*
X60885331Y-96768248D01*
X60908474Y-96672909D01*
X60909267Y-96670062D01*
X61128108Y-96670062D01*
X61102585Y-96769439D01*
X61083715Y-96868815D01*
X61081702Y-96882065D01*
X61070132Y-96979481D01*
X61065598Y-97080078D01*
X61065582Y-97086252D01*
X61069856Y-97184560D01*
X61087221Y-97287867D01*
X61125689Y-97383122D01*
X61133970Y-97395952D01*
X61207930Y-97466778D01*
X61302498Y-97494241D01*
X61316664Y-97494626D01*
X61414300Y-97471820D01*
X61441716Y-97454082D01*
X61511047Y-97382677D01*
X61535017Y-97347592D01*
X61583446Y-97257909D01*
X61609755Y-97197138D01*
X61646119Y-97106384D01*
X61679120Y-97024703D01*
X61719076Y-96932245D01*
X61757766Y-96852267D01*
X61807332Y-96767717D01*
X61858394Y-96701814D01*
X61934656Y-96632458D01*
X61995170Y-96595324D01*
X62092217Y-96562540D01*
X62180307Y-96554780D01*
G37*
G36*
X62324645Y-95012188D02*
G01*
X62418602Y-95045893D01*
X62424061Y-95048778D01*
X62508344Y-95108700D01*
X62570118Y-95179204D01*
X62619305Y-95264276D01*
X62653980Y-95355879D01*
X62660000Y-95377041D01*
X62680241Y-95472742D01*
X62690163Y-95574893D01*
X62691263Y-95624214D01*
X62686729Y-95729544D01*
X62671585Y-95832489D01*
X62659023Y-95883112D01*
X62622758Y-95980041D01*
X62571772Y-96065923D01*
X62568164Y-96070690D01*
X62495968Y-96144123D01*
X62430411Y-96184996D01*
X62335580Y-96215805D01*
X62254556Y-96223098D01*
X62148312Y-96212246D01*
X62052573Y-96179691D01*
X61974654Y-96131263D01*
X61903223Y-96063829D01*
X61842605Y-95986497D01*
X61785465Y-95893401D01*
X61761186Y-95846964D01*
X61708494Y-95938386D01*
X61646231Y-96022383D01*
X61573224Y-96093401D01*
X61559441Y-96103907D01*
X61471605Y-96153321D01*
X61374427Y-96179928D01*
X61304452Y-96184996D01*
X61207388Y-96173713D01*
X61134459Y-96149337D01*
X61047459Y-96097628D01*
X60987913Y-96041381D01*
X60930027Y-95960048D01*
X60887738Y-95867384D01*
X60885331Y-95860642D01*
X60860345Y-95766162D01*
X60848587Y-95667644D01*
X60846972Y-95612979D01*
X61034319Y-95612979D01*
X61041534Y-95710744D01*
X61068666Y-95805595D01*
X61095380Y-95852826D01*
X61171339Y-95917306D01*
X61270501Y-95938715D01*
X61278073Y-95938799D01*
X61376114Y-95923091D01*
X61388960Y-95918283D01*
X61473002Y-95864801D01*
X61484214Y-95854291D01*
X61550343Y-95777263D01*
X61572142Y-95746336D01*
X61623705Y-95660983D01*
X61638608Y-95632519D01*
X61847159Y-95632519D01*
X61895152Y-95723760D01*
X61937041Y-95790300D01*
X61998855Y-95866072D01*
X62027411Y-95892882D01*
X62110758Y-95944066D01*
X62123154Y-95948569D01*
X62220383Y-95965113D01*
X62227201Y-95965177D01*
X62323500Y-95943112D01*
X62332226Y-95938311D01*
X62405384Y-95870762D01*
X62409406Y-95865038D01*
X62451382Y-95773384D01*
X62456789Y-95753663D01*
X62471185Y-95655169D01*
X62472421Y-95613468D01*
X62465103Y-95513130D01*
X62458255Y-95476203D01*
X62424444Y-95382710D01*
X62413803Y-95364340D01*
X62344193Y-95292613D01*
X62338576Y-95289113D01*
X62241793Y-95261998D01*
X62230132Y-95261758D01*
X62131458Y-95278367D01*
X62045410Y-95329649D01*
X62036692Y-95337473D01*
X61969533Y-95413453D01*
X61943391Y-95451290D01*
X61892876Y-95537958D01*
X61847159Y-95632519D01*
X61638608Y-95632519D01*
X61659581Y-95592463D01*
X61607927Y-95503200D01*
X61549566Y-95423082D01*
X61489588Y-95361898D01*
X61406373Y-95310139D01*
X61305180Y-95286848D01*
X61283447Y-95286182D01*
X61185513Y-95302638D01*
X61103814Y-95361745D01*
X61095868Y-95372156D01*
X61053794Y-95460566D01*
X61036483Y-95557332D01*
X61034319Y-95612979D01*
X60846972Y-95612979D01*
X60846741Y-95605163D01*
X60851000Y-95505856D01*
X60865226Y-95408970D01*
X60877027Y-95361409D01*
X60913419Y-95264811D01*
X60963000Y-95185066D01*
X61033771Y-95115720D01*
X61099288Y-95077599D01*
X61194737Y-95048765D01*
X61277096Y-95041939D01*
X61381315Y-95052272D01*
X61474336Y-95083268D01*
X61549183Y-95129378D01*
X61623077Y-95197873D01*
X61684443Y-95275267D01*
X61740275Y-95367068D01*
X61745554Y-95377041D01*
X61792146Y-95291019D01*
X61832016Y-95229030D01*
X61895023Y-95149994D01*
X61937041Y-95109351D01*
X62018796Y-95052129D01*
X62066489Y-95030216D01*
X62161935Y-95005868D01*
X62225247Y-95001884D01*
X62324645Y-95012188D01*
G37*
G36*
X62198202Y-93449566D02*
G01*
X62297631Y-93474143D01*
X62331737Y-93487090D01*
X62420869Y-93533278D01*
X62499341Y-93594053D01*
X62519804Y-93614096D01*
X62583023Y-93692448D01*
X62633339Y-93783890D01*
X62645345Y-93812421D01*
X62675075Y-93910993D01*
X62689065Y-94009282D01*
X62691263Y-94069853D01*
X62685721Y-94167906D01*
X62667037Y-94265657D01*
X62644368Y-94332658D01*
X62597565Y-94419088D01*
X62534155Y-94493425D01*
X62499288Y-94523656D01*
X62411127Y-94579922D01*
X62314865Y-94621127D01*
X62252114Y-94640404D01*
X62153396Y-94661270D01*
X62055495Y-94673441D01*
X61949016Y-94679353D01*
X61898939Y-94679972D01*
X61797525Y-94677499D01*
X61698446Y-94670080D01*
X61633691Y-94662386D01*
X61531491Y-94643912D01*
X61434450Y-94617859D01*
X61391402Y-94603279D01*
X61295552Y-94561806D01*
X61207182Y-94510047D01*
X61183307Y-94493370D01*
X61105623Y-94426745D01*
X61038410Y-94347404D01*
X61021130Y-94322400D01*
X60970960Y-94233086D01*
X60933522Y-94140053D01*
X60915617Y-94081088D01*
X60894202Y-93980516D01*
X60882448Y-93880071D01*
X60878151Y-93782330D01*
X60878004Y-93759665D01*
X60878004Y-93582344D01*
X61096845Y-93582344D01*
X61096845Y-93774808D01*
X61101290Y-93880275D01*
X61116276Y-93983876D01*
X61134459Y-94053733D01*
X61173261Y-94149783D01*
X61227908Y-94236301D01*
X61240460Y-94251570D01*
X61315931Y-94321912D01*
X61405568Y-94373691D01*
X61500830Y-94406664D01*
X61598844Y-94425043D01*
X61620990Y-94427424D01*
X61690844Y-94432798D01*
X61642658Y-94345836D01*
X61606594Y-94254020D01*
X61599986Y-94233007D01*
X61576611Y-94130292D01*
X61567611Y-94038590D01*
X61753370Y-94038590D01*
X61764103Y-94137880D01*
X61765582Y-94144591D01*
X61795740Y-94239894D01*
X61799776Y-94249616D01*
X61844834Y-94338970D01*
X61850090Y-94347801D01*
X61907705Y-94430378D01*
X61909685Y-94432798D01*
X62010750Y-94430413D01*
X62109250Y-94422279D01*
X62194473Y-94408374D01*
X62291302Y-94379758D01*
X62377166Y-94334612D01*
X62447386Y-94264774D01*
X62474863Y-94214445D01*
X62499631Y-94116519D01*
X62503684Y-94049337D01*
X62491678Y-93948104D01*
X62478283Y-93906210D01*
X62428449Y-93821453D01*
X62402079Y-93793370D01*
X62318901Y-93735856D01*
X62280446Y-93719120D01*
X62182863Y-93696032D01*
X62116803Y-93692254D01*
X62018686Y-93700077D01*
X61965861Y-93712281D01*
X61876102Y-93754963D01*
X61851556Y-93774808D01*
X61791401Y-93855224D01*
X61779260Y-93882763D01*
X61756429Y-93979184D01*
X61753370Y-94038590D01*
X61567611Y-94038590D01*
X61566626Y-94028550D01*
X61565792Y-93987787D01*
X61572322Y-93882697D01*
X61593960Y-93782145D01*
X61605359Y-93749406D01*
X61649323Y-93660856D01*
X61711360Y-93583202D01*
X61715757Y-93578925D01*
X61798491Y-93516294D01*
X61884773Y-93476831D01*
X61981115Y-93451937D01*
X62078782Y-93442454D01*
X62100683Y-93442149D01*
X62198202Y-93449566D01*
G37*
G36*
X62253579Y-92143265D02*
G01*
X62660000Y-92143265D01*
X62660000Y-92387997D01*
X62253579Y-92387997D01*
X62253579Y-93252128D01*
X62034738Y-93252128D01*
X60878004Y-92486671D01*
X60878004Y-92387997D01*
X61105150Y-92387997D01*
X62034738Y-93013258D01*
X62034738Y-92387997D01*
X61105150Y-92387997D01*
X60878004Y-92387997D01*
X60878004Y-92143265D01*
X62034738Y-92143265D01*
X62034738Y-91836985D01*
X62253579Y-91836985D01*
X62253579Y-92143265D01*
G37*
G36*
X62253579Y-90605512D02*
G01*
X62660000Y-90605512D01*
X62660000Y-90850244D01*
X62253579Y-90850244D01*
X62253579Y-91714375D01*
X62034738Y-91714375D01*
X60878004Y-90948918D01*
X60878004Y-90850244D01*
X61105150Y-90850244D01*
X62034738Y-91475505D01*
X62034738Y-90850244D01*
X61105150Y-90850244D01*
X60878004Y-90850244D01*
X60878004Y-90605512D01*
X62034738Y-90605512D01*
X62034738Y-90299232D01*
X62253579Y-90299232D01*
X62253579Y-90605512D01*
G37*
D12*
%TO.C,C2*%
X75000000Y-76317621D03*
D13*
X75000000Y-78817621D03*
%TD*%
D14*
%TO.C,SW1*%
X113960000Y-54000000D03*
X116500000Y-54000000D03*
X119040000Y-54000000D03*
%TD*%
D15*
%TO.C,J2*%
X52500000Y-67708333D03*
%TD*%
D16*
%TO.C,D3*%
X120000000Y-78775000D03*
D17*
X120000000Y-76235000D03*
%TD*%
D12*
%TO.C,C1*%
X109000000Y-76317621D03*
D13*
X109000000Y-78817621D03*
%TD*%
%TO.C,C3*%
X96329945Y-85775758D03*
X96329945Y-90775758D03*
%TD*%
%TO.C,R1*%
X87720000Y-63500000D03*
D18*
X97880000Y-63500000D03*
%TD*%
D19*
%TO.C,J1*%
X71047495Y-54797531D03*
D20*
X66047495Y-54797531D03*
%TD*%
D21*
%TO.C,J3*%
X130000000Y-79750000D03*
D20*
X130000000Y-74750000D03*
%TD*%
D16*
%TO.C,D2*%
X92500000Y-55500000D03*
D17*
X92500000Y-52960000D03*
%TD*%
D13*
%TO.C,R3*%
X111840000Y-67000000D03*
D18*
X122000000Y-67000000D03*
%TD*%
D13*
%TO.C,R2*%
X122045000Y-63500000D03*
D18*
X111885000Y-63500000D03*
%TD*%
D22*
%TO.C,J4*%
X52810000Y-87291666D03*
%TD*%
D23*
%TO.C,D1*%
X73415000Y-64000000D03*
D24*
X63255000Y-64000000D03*
%TD*%
D25*
%TO.C,U1*%
X88700000Y-73700000D03*
D26*
X88700000Y-76240000D03*
X88700000Y-78780000D03*
X88700000Y-81320000D03*
X96320000Y-81320000D03*
X96320000Y-78780000D03*
X96320000Y-76240000D03*
X96320000Y-73700000D03*
%TD*%
M02*
