%TF.GenerationSoftware,KiCad,Pcbnew,8.0.8*%
%TF.CreationDate,2025-04-26T12:51:52-04:00*%
%TF.ProjectId,udpudu,75647075-6475-42e6-9b69-6361645f7063,rev?*%
%TF.SameCoordinates,Original*%
%TF.FileFunction,Legend,Top*%
%TF.FilePolarity,Positive*%
%FSLAX46Y46*%
G04 Gerber Fmt 4.6, Leading zero omitted, Abs format (unit mm)*
G04 Created by KiCad (PCBNEW 8.0.8) date 2025-04-26 12:51:52*
%MOMM*%
%LPD*%
G01*
G04 APERTURE LIST*
%ADD10C,0.100000*%
%ADD11C,0.150000*%
%ADD12C,0.000000*%
%ADD13C,0.120000*%
G04 APERTURE END LIST*
D10*
X128426942Y-69958020D02*
X128307895Y-69838972D01*
X128307895Y-69838972D02*
X128188847Y-69600877D01*
X128188847Y-69600877D02*
X128188847Y-69005639D01*
X128188847Y-69005639D02*
X128307895Y-68767544D01*
X128307895Y-68767544D02*
X128426942Y-68648496D01*
X128426942Y-68648496D02*
X128665038Y-68529449D01*
X128665038Y-68529449D02*
X128903133Y-68529449D01*
X128903133Y-68529449D02*
X129260276Y-68648496D01*
X129260276Y-68648496D02*
X130688847Y-70077068D01*
X130688847Y-70077068D02*
X130688847Y-68529449D01*
X128188847Y-66981830D02*
X128188847Y-66743735D01*
X128188847Y-66743735D02*
X128307895Y-66505639D01*
X128307895Y-66505639D02*
X128426942Y-66386592D01*
X128426942Y-66386592D02*
X128665038Y-66267544D01*
X128665038Y-66267544D02*
X129141228Y-66148497D01*
X129141228Y-66148497D02*
X129736466Y-66148497D01*
X129736466Y-66148497D02*
X130212657Y-66267544D01*
X130212657Y-66267544D02*
X130450752Y-66386592D01*
X130450752Y-66386592D02*
X130569800Y-66505639D01*
X130569800Y-66505639D02*
X130688847Y-66743735D01*
X130688847Y-66743735D02*
X130688847Y-66981830D01*
X130688847Y-66981830D02*
X130569800Y-67219925D01*
X130569800Y-67219925D02*
X130450752Y-67338973D01*
X130450752Y-67338973D02*
X130212657Y-67458020D01*
X130212657Y-67458020D02*
X129736466Y-67577068D01*
X129736466Y-67577068D02*
X129141228Y-67577068D01*
X129141228Y-67577068D02*
X128665038Y-67458020D01*
X128665038Y-67458020D02*
X128426942Y-67338973D01*
X128426942Y-67338973D02*
X128307895Y-67219925D01*
X128307895Y-67219925D02*
X128188847Y-66981830D01*
X128426942Y-65196116D02*
X128307895Y-65077068D01*
X128307895Y-65077068D02*
X128188847Y-64838973D01*
X128188847Y-64838973D02*
X128188847Y-64243735D01*
X128188847Y-64243735D02*
X128307895Y-64005640D01*
X128307895Y-64005640D02*
X128426942Y-63886592D01*
X128426942Y-63886592D02*
X128665038Y-63767545D01*
X128665038Y-63767545D02*
X128903133Y-63767545D01*
X128903133Y-63767545D02*
X129260276Y-63886592D01*
X129260276Y-63886592D02*
X130688847Y-65315164D01*
X130688847Y-65315164D02*
X130688847Y-63767545D01*
X129022180Y-61624688D02*
X130688847Y-61624688D01*
X128069800Y-62219926D02*
X129855514Y-62815164D01*
X129855514Y-62815164D02*
X129855514Y-61267545D01*
X128188847Y-59838974D02*
X128188847Y-59600879D01*
X128188847Y-59600879D02*
X128307895Y-59362783D01*
X128307895Y-59362783D02*
X128426942Y-59243736D01*
X128426942Y-59243736D02*
X128665038Y-59124688D01*
X128665038Y-59124688D02*
X129141228Y-59005641D01*
X129141228Y-59005641D02*
X129736466Y-59005641D01*
X129736466Y-59005641D02*
X130212657Y-59124688D01*
X130212657Y-59124688D02*
X130450752Y-59243736D01*
X130450752Y-59243736D02*
X130569800Y-59362783D01*
X130569800Y-59362783D02*
X130688847Y-59600879D01*
X130688847Y-59600879D02*
X130688847Y-59838974D01*
X130688847Y-59838974D02*
X130569800Y-60077069D01*
X130569800Y-60077069D02*
X130450752Y-60196117D01*
X130450752Y-60196117D02*
X130212657Y-60315164D01*
X130212657Y-60315164D02*
X129736466Y-60434212D01*
X129736466Y-60434212D02*
X129141228Y-60434212D01*
X129141228Y-60434212D02*
X128665038Y-60315164D01*
X128665038Y-60315164D02*
X128426942Y-60196117D01*
X128426942Y-60196117D02*
X128307895Y-60077069D01*
X128307895Y-60077069D02*
X128188847Y-59838974D01*
X129022180Y-56862784D02*
X130688847Y-56862784D01*
X128069800Y-57458022D02*
X129855514Y-58053260D01*
X129855514Y-58053260D02*
X129855514Y-56505641D01*
X128426942Y-55672308D02*
X128307895Y-55553260D01*
X128307895Y-55553260D02*
X128188847Y-55315165D01*
X128188847Y-55315165D02*
X128188847Y-54719927D01*
X128188847Y-54719927D02*
X128307895Y-54481832D01*
X128307895Y-54481832D02*
X128426942Y-54362784D01*
X128426942Y-54362784D02*
X128665038Y-54243737D01*
X128665038Y-54243737D02*
X128903133Y-54243737D01*
X128903133Y-54243737D02*
X129260276Y-54362784D01*
X129260276Y-54362784D02*
X130688847Y-55791356D01*
X130688847Y-55791356D02*
X130688847Y-54243737D01*
X128188847Y-51981832D02*
X128188847Y-53172308D01*
X128188847Y-53172308D02*
X129379323Y-53291356D01*
X129379323Y-53291356D02*
X129260276Y-53172308D01*
X129260276Y-53172308D02*
X129141228Y-52934213D01*
X129141228Y-52934213D02*
X129141228Y-52338975D01*
X129141228Y-52338975D02*
X129260276Y-52100880D01*
X129260276Y-52100880D02*
X129379323Y-51981832D01*
X129379323Y-51981832D02*
X129617419Y-51862785D01*
X129617419Y-51862785D02*
X130212657Y-51862785D01*
X130212657Y-51862785D02*
X130450752Y-51981832D01*
X130450752Y-51981832D02*
X130569800Y-52100880D01*
X130569800Y-52100880D02*
X130688847Y-52338975D01*
X130688847Y-52338975D02*
X130688847Y-52934213D01*
X130688847Y-52934213D02*
X130569800Y-53172308D01*
X130569800Y-53172308D02*
X130450752Y-53291356D01*
G36*
X65643230Y-88565268D02*
G01*
X64846022Y-88565268D01*
X64846022Y-90910000D01*
X64474528Y-90910000D01*
X64474528Y-88565268D01*
X63677320Y-88565268D01*
X63677320Y-88237006D01*
X65643230Y-88237006D01*
X65643230Y-88565268D01*
G37*
G36*
X68106664Y-90910000D02*
G01*
X67706594Y-90910000D01*
X67519016Y-90347264D01*
X66397941Y-90347264D01*
X66208164Y-90910000D01*
X65827145Y-90910000D01*
X66125366Y-90019002D01*
X66503454Y-90019002D01*
X67414235Y-90019002D01*
X66958478Y-88546217D01*
X66503454Y-90019002D01*
X66125366Y-90019002D01*
X66721807Y-88237006D01*
X67224459Y-88237006D01*
X68106664Y-90910000D01*
G37*
G36*
X70142916Y-90910000D02*
G01*
X68593196Y-90910000D01*
X68593196Y-88237006D01*
X68966154Y-88237006D01*
X68966154Y-90581737D01*
X70142916Y-90581737D01*
X70142916Y-90910000D01*
G37*
G36*
X72449546Y-90910000D02*
G01*
X70899825Y-90910000D01*
X70899825Y-88237006D01*
X71272784Y-88237006D01*
X71272784Y-90581737D01*
X72449546Y-90581737D01*
X72449546Y-90910000D01*
G37*
G36*
X74671912Y-90910000D02*
G01*
X73140509Y-90910000D01*
X73140509Y-88237006D01*
X74671912Y-88237006D01*
X74671912Y-88565268D01*
X73507606Y-88565268D01*
X73507606Y-89362477D01*
X74626482Y-89362477D01*
X74626482Y-89690739D01*
X73507606Y-89690739D01*
X73507606Y-90581737D01*
X74671912Y-90581737D01*
X74671912Y-90910000D01*
G37*
G36*
X76258623Y-88242980D02*
G01*
X76408495Y-88263124D01*
X76508862Y-88287564D01*
X76654020Y-88343291D01*
X76779041Y-88422609D01*
X76785833Y-88428248D01*
X76889517Y-88541463D01*
X76944836Y-88645868D01*
X76984285Y-88788776D01*
X76995394Y-88927236D01*
X76980796Y-89075671D01*
X76958025Y-89159511D01*
X76894161Y-89294285D01*
X76848115Y-89358080D01*
X76742786Y-89460376D01*
X76666399Y-89512686D01*
X76526514Y-89578502D01*
X76418004Y-89610139D01*
X76546517Y-89684271D01*
X76610711Y-89751556D01*
X76695826Y-89877032D01*
X76767473Y-90008625D01*
X76772644Y-90019002D01*
X77199092Y-90910000D01*
X76785101Y-90910000D01*
X76382833Y-90034389D01*
X76313452Y-89903185D01*
X76289776Y-89868060D01*
X76187927Y-89763279D01*
X76068492Y-89707592D01*
X75923412Y-89690739D01*
X75750488Y-89690739D01*
X75750488Y-90910000D01*
X75383391Y-90910000D01*
X75383391Y-89409371D01*
X75750488Y-89409371D01*
X76047243Y-89409371D01*
X76199341Y-89398495D01*
X76280983Y-89381528D01*
X76419332Y-89323413D01*
X76457571Y-89297264D01*
X76557745Y-89185034D01*
X76571144Y-89160244D01*
X76609516Y-89018403D01*
X76611444Y-88973398D01*
X76589193Y-88823874D01*
X76508221Y-88694022D01*
X76476622Y-88667117D01*
X76337475Y-88597494D01*
X76184495Y-88568849D01*
X76096336Y-88565268D01*
X75750488Y-88565268D01*
X75750488Y-89409371D01*
X75383391Y-89409371D01*
X75383391Y-88237006D01*
X76105129Y-88237006D01*
X76258623Y-88242980D01*
G37*
G36*
X65719434Y-95950000D02*
G01*
X65361130Y-95950000D01*
X65307641Y-94225157D01*
X65284926Y-93638974D01*
X65158897Y-93989951D01*
X64761025Y-95059002D01*
X64507501Y-95059002D01*
X64128681Y-94030251D01*
X64002651Y-93638974D01*
X63994591Y-94253733D01*
X63946964Y-95950000D01*
X63601116Y-95950000D01*
X63733007Y-93277006D01*
X64167515Y-93277006D01*
X64530949Y-94294033D01*
X64648185Y-94636950D01*
X64761758Y-94294033D01*
X65142777Y-93277006D01*
X65589741Y-93277006D01*
X65719434Y-95950000D01*
G37*
G36*
X68106664Y-95950000D02*
G01*
X67706594Y-95950000D01*
X67519016Y-95387264D01*
X66397941Y-95387264D01*
X66208164Y-95950000D01*
X65827145Y-95950000D01*
X66125366Y-95059002D01*
X66503454Y-95059002D01*
X67414235Y-95059002D01*
X66958478Y-93586217D01*
X66503454Y-95059002D01*
X66125366Y-95059002D01*
X66721807Y-93277006D01*
X67224459Y-93277006D01*
X68106664Y-95950000D01*
G37*
G36*
X69449675Y-93239342D02*
G01*
X69606058Y-93270818D01*
X69746510Y-93324633D01*
X69881870Y-93406722D01*
X69998890Y-93512303D01*
X70066713Y-93595743D01*
X70146746Y-93725978D01*
X70211541Y-93873876D01*
X70257222Y-94023656D01*
X70287683Y-94170069D01*
X70308175Y-94326568D01*
X70318021Y-94474144D01*
X70320237Y-94590055D01*
X70315840Y-94750248D01*
X70302651Y-94900366D01*
X70277303Y-95057206D01*
X70249895Y-95170376D01*
X70201309Y-95318782D01*
X70136128Y-95465169D01*
X70058653Y-95593893D01*
X69961349Y-95713729D01*
X69851886Y-95812750D01*
X69772156Y-95867201D01*
X69634092Y-95936326D01*
X69487806Y-95982958D01*
X69417515Y-95996894D01*
X69464559Y-96140925D01*
X69554845Y-96262260D01*
X69561863Y-96268736D01*
X69688623Y-96342893D01*
X69843538Y-96371143D01*
X69881332Y-96372051D01*
X70028061Y-96353916D01*
X70076238Y-96339811D01*
X70209606Y-96274701D01*
X70271144Y-96231367D01*
X70433810Y-96465840D01*
X70313015Y-96562732D01*
X70180169Y-96635418D01*
X70153175Y-96646092D01*
X70006812Y-96686758D01*
X69856420Y-96700314D01*
X69707656Y-96690493D01*
X69561751Y-96658367D01*
X69553070Y-96655617D01*
X69416840Y-96596498D01*
X69313468Y-96523726D01*
X69211407Y-96410665D01*
X69149337Y-96303175D01*
X69100061Y-96160293D01*
X69076157Y-96007708D01*
X69075331Y-95996894D01*
X68922591Y-95963303D01*
X68785308Y-95908692D01*
X68702372Y-95860607D01*
X68582485Y-95763752D01*
X68480012Y-95644646D01*
X68438590Y-95582170D01*
X68367424Y-95443821D01*
X68315222Y-95301795D01*
X68281786Y-95174773D01*
X68254738Y-95022832D01*
X68237708Y-94861016D01*
X68230946Y-94706939D01*
X68230495Y-94653803D01*
X68232119Y-94590788D01*
X68612247Y-94590788D01*
X68615824Y-94739166D01*
X68628025Y-94891802D01*
X68648883Y-95033356D01*
X68686138Y-95184908D01*
X68741677Y-95327561D01*
X68765387Y-95373342D01*
X68856612Y-95498639D01*
X68970551Y-95591695D01*
X69109403Y-95649398D01*
X69262868Y-95668557D01*
X69273900Y-95668632D01*
X69425552Y-95650600D01*
X69564243Y-95591615D01*
X69572121Y-95586566D01*
X69686976Y-95489663D01*
X69774356Y-95371865D01*
X69779483Y-95363084D01*
X69842515Y-95229587D01*
X69886477Y-95089300D01*
X69899651Y-95031158D01*
X69923762Y-94885219D01*
X69936745Y-94732067D01*
X69939218Y-94625959D01*
X69934975Y-94467262D01*
X69922248Y-94318608D01*
X69903314Y-94192184D01*
X69866766Y-94041823D01*
X69810907Y-93900452D01*
X69786810Y-93855129D01*
X69694670Y-93730198D01*
X69579448Y-93636775D01*
X69439680Y-93577974D01*
X69285024Y-93558450D01*
X69273900Y-93558374D01*
X69121884Y-93576406D01*
X68983513Y-93635390D01*
X68975680Y-93640439D01*
X68862107Y-93737159D01*
X68770516Y-93863189D01*
X68704495Y-94005545D01*
X68661603Y-94145850D01*
X68651081Y-94192184D01*
X68625937Y-94348461D01*
X68614105Y-94499586D01*
X68612247Y-94590788D01*
X68232119Y-94590788D01*
X68234527Y-94497325D01*
X68246624Y-94350384D01*
X68270323Y-94194130D01*
X68304555Y-94050332D01*
X68314759Y-94016329D01*
X68367322Y-93872543D01*
X68436874Y-93730319D01*
X68518161Y-93606557D01*
X68544836Y-93573028D01*
X68650293Y-93463454D01*
X68778371Y-93368606D01*
X68883356Y-93314375D01*
X69032077Y-93263027D01*
X69186980Y-93235378D01*
X69293684Y-93230111D01*
X69449675Y-93239342D01*
G37*
G36*
X72517690Y-95026029D02*
G01*
X72510244Y-95173313D01*
X72485136Y-95322927D01*
X72454675Y-95427564D01*
X72393801Y-95564595D01*
X72306607Y-95692422D01*
X72270027Y-95733112D01*
X72153581Y-95832448D01*
X72015816Y-95909906D01*
X71972540Y-95928018D01*
X71820951Y-95972612D01*
X71665566Y-95993598D01*
X71568073Y-95996894D01*
X71418437Y-95990526D01*
X71271026Y-95968809D01*
X71141625Y-95931681D01*
X71000735Y-95863601D01*
X70877173Y-95767623D01*
X70855861Y-95745568D01*
X70765862Y-95622285D01*
X70705395Y-95488047D01*
X70695394Y-95456873D01*
X70662659Y-95313656D01*
X70646613Y-95157863D01*
X70644836Y-95081716D01*
X70644836Y-93277006D01*
X71011200Y-93277006D01*
X71011200Y-95036287D01*
X71018710Y-95183382D01*
X71041242Y-95311060D01*
X71096765Y-95448840D01*
X71138695Y-95508164D01*
X71257470Y-95602237D01*
X71315282Y-95628332D01*
X71461108Y-95661981D01*
X71580530Y-95668632D01*
X71732868Y-95655475D01*
X71873718Y-95609994D01*
X71994106Y-95522444D01*
X72012107Y-95502302D01*
X72091369Y-95371343D01*
X72134875Y-95224339D01*
X72150782Y-95069277D01*
X72151325Y-95031891D01*
X72151325Y-93277006D01*
X72517690Y-93277006D01*
X72517690Y-95026029D01*
G37*
G36*
X73701046Y-93605268D02*
G01*
X73081158Y-93605268D01*
X73081158Y-93277006D01*
X74692428Y-93277006D01*
X74692428Y-93605268D01*
X74072540Y-93605268D01*
X74072540Y-95621737D01*
X74692428Y-95621737D01*
X74692428Y-95950000D01*
X73081158Y-95950000D01*
X73081158Y-95621737D01*
X73701046Y-95621737D01*
X73701046Y-93605268D01*
G37*
G36*
X77110432Y-95950000D02*
G01*
X76632693Y-95950000D01*
X75847208Y-94282309D01*
X75620795Y-93745952D01*
X75620795Y-95094905D01*
X75620795Y-95950000D01*
X75278611Y-95950000D01*
X75278611Y-93277006D01*
X75750488Y-93277006D01*
X76498604Y-94865561D01*
X76768248Y-95481053D01*
X76768248Y-94040509D01*
X76768248Y-93277006D01*
X77110432Y-93277006D01*
X77110432Y-95950000D01*
G37*
G36*
X79639811Y-95950000D02*
G01*
X79239741Y-95950000D01*
X79052163Y-95387264D01*
X77931088Y-95387264D01*
X77741311Y-95950000D01*
X77360293Y-95950000D01*
X77658513Y-95059002D01*
X78036601Y-95059002D01*
X78947383Y-95059002D01*
X78491625Y-93586217D01*
X78036601Y-95059002D01*
X77658513Y-95059002D01*
X78254954Y-93277006D01*
X78757606Y-93277006D01*
X79639811Y-95950000D01*
G37*
G36*
X81700976Y-95230460D02*
G01*
X81688037Y-95378579D01*
X81645161Y-95520511D01*
X81622575Y-95566782D01*
X81535549Y-95690956D01*
X81421475Y-95794200D01*
X81404221Y-95806385D01*
X81270825Y-95881117D01*
X81127366Y-95933935D01*
X81067166Y-95950000D01*
X80914118Y-95978576D01*
X80763685Y-95993185D01*
X80633391Y-95996894D01*
X80486642Y-95992738D01*
X80420167Y-95988101D01*
X80271603Y-95974244D01*
X80215736Y-95967585D01*
X80070174Y-95945886D01*
X80031821Y-95939009D01*
X79888348Y-95906658D01*
X79875017Y-95903105D01*
X79875017Y-95527948D01*
X80017590Y-95580181D01*
X80163039Y-95618887D01*
X80222330Y-95631263D01*
X80374280Y-95654034D01*
X80526602Y-95665676D01*
X80660502Y-95668632D01*
X80815148Y-95662675D01*
X80962386Y-95641521D01*
X81106311Y-95593931D01*
X81166085Y-95560188D01*
X81269563Y-95451996D01*
X81281856Y-95428297D01*
X81316883Y-95281581D01*
X81317759Y-95250976D01*
X81283550Y-95105347D01*
X81256943Y-95064863D01*
X81149836Y-94961920D01*
X81097208Y-94926378D01*
X80962684Y-94854650D01*
X80871528Y-94815736D01*
X80735396Y-94761190D01*
X80612875Y-94711688D01*
X80474188Y-94651803D01*
X80354221Y-94595184D01*
X80220424Y-94517106D01*
X80128541Y-94446441D01*
X80024508Y-94334304D01*
X79968806Y-94245673D01*
X79919630Y-94102344D01*
X79907990Y-93971632D01*
X79926305Y-93817820D01*
X79965875Y-93699790D01*
X80045163Y-93565799D01*
X80144661Y-93461653D01*
X80273826Y-93372964D01*
X80410252Y-93310425D01*
X80456803Y-93293859D01*
X80610436Y-93255012D01*
X80769188Y-93235154D01*
X80911828Y-93230111D01*
X81059106Y-93237438D01*
X81209416Y-93256329D01*
X81219574Y-93257955D01*
X81365911Y-93284869D01*
X81380774Y-93287997D01*
X81523783Y-93322712D01*
X81528053Y-93323900D01*
X81528053Y-93652163D01*
X81378988Y-93613877D01*
X81229924Y-93585573D01*
X81210048Y-93582554D01*
X81063925Y-93565198D01*
X80913029Y-93558397D01*
X80903768Y-93558374D01*
X80756306Y-93564785D01*
X80601346Y-93590831D01*
X80458463Y-93648533D01*
X80439218Y-93660956D01*
X80332979Y-93771895D01*
X80291785Y-93913747D01*
X80291207Y-93934996D01*
X80325416Y-94081450D01*
X80352023Y-94122575D01*
X80459130Y-94226571D01*
X80511758Y-94262526D01*
X80646282Y-94335169D01*
X80737438Y-94374633D01*
X80873571Y-94429178D01*
X80996092Y-94478681D01*
X81134778Y-94538615D01*
X81254745Y-94596650D01*
X81381571Y-94670999D01*
X81480425Y-94747592D01*
X81584458Y-94861985D01*
X81640160Y-94952756D01*
X81689336Y-95098326D01*
X81700976Y-95230460D01*
G37*
G36*
X65445394Y-100990000D02*
G01*
X63913991Y-100990000D01*
X63913991Y-98317006D01*
X65445394Y-98317006D01*
X65445394Y-98645268D01*
X64281088Y-98645268D01*
X64281088Y-99442477D01*
X65399965Y-99442477D01*
X65399965Y-99770739D01*
X64281088Y-99770739D01*
X64281088Y-100661737D01*
X65445394Y-100661737D01*
X65445394Y-100990000D01*
G37*
G36*
X67836287Y-100990000D02*
G01*
X66286566Y-100990000D01*
X66286566Y-98317006D01*
X66659525Y-98317006D01*
X66659525Y-100661737D01*
X67836287Y-100661737D01*
X67836287Y-100990000D01*
G37*
G36*
X70058653Y-100990000D02*
G01*
X68527250Y-100990000D01*
X68527250Y-98317006D01*
X70058653Y-98317006D01*
X70058653Y-98645268D01*
X68894347Y-98645268D01*
X68894347Y-99442477D01*
X70013224Y-99442477D01*
X70013224Y-99770739D01*
X68894347Y-99770739D01*
X68894347Y-100661737D01*
X70058653Y-100661737D01*
X70058653Y-100990000D01*
G37*
G36*
X72470062Y-100896210D02*
G01*
X72327184Y-100951028D01*
X72181290Y-100992381D01*
X72032381Y-101020270D01*
X71880456Y-101034696D01*
X71792288Y-101036894D01*
X71620373Y-101028558D01*
X71461373Y-101003549D01*
X71315289Y-100961868D01*
X71157036Y-100889843D01*
X71017383Y-100793810D01*
X70915212Y-100695443D01*
X70811374Y-100555609D01*
X70741253Y-100421489D01*
X70686051Y-100271376D01*
X70645769Y-100105271D01*
X70620406Y-99923173D01*
X70610858Y-99765979D01*
X70609665Y-99683545D01*
X70614931Y-99525138D01*
X70630730Y-99374516D01*
X70661095Y-99214373D01*
X70693928Y-99096629D01*
X70747361Y-98955393D01*
X70819918Y-98813284D01*
X70906357Y-98686774D01*
X70934996Y-98651863D01*
X71039367Y-98545603D01*
X71156475Y-98455801D01*
X71286319Y-98382456D01*
X71313817Y-98369762D01*
X71458259Y-98317212D01*
X71613148Y-98284125D01*
X71761480Y-98270987D01*
X71812805Y-98270111D01*
X71960738Y-98275795D01*
X72110043Y-98294628D01*
X72160851Y-98304549D01*
X72309078Y-98345046D01*
X72451509Y-98401965D01*
X72470062Y-98410795D01*
X72470062Y-98785952D01*
X72339871Y-98714225D01*
X72196023Y-98656050D01*
X72166713Y-98646734D01*
X72013956Y-98612022D01*
X71859762Y-98598799D01*
X71825261Y-98598374D01*
X71676993Y-98610104D01*
X71530573Y-98648973D01*
X71481612Y-98669448D01*
X71348024Y-98750249D01*
X71241355Y-98851228D01*
X71220760Y-98876078D01*
X71136551Y-99006048D01*
X71075184Y-99147079D01*
X71055896Y-99206538D01*
X71021069Y-99360446D01*
X71003264Y-99515105D01*
X70998743Y-99651304D01*
X71003913Y-99808956D01*
X71023766Y-99981513D01*
X71058507Y-100135936D01*
X71117858Y-100293175D01*
X71197474Y-100425730D01*
X71210502Y-100442651D01*
X71329112Y-100559018D01*
X71472452Y-100642137D01*
X71618161Y-100687592D01*
X71782803Y-100707593D01*
X71833321Y-100708632D01*
X71981825Y-100701619D01*
X72134710Y-100678543D01*
X72164515Y-100671995D01*
X72310842Y-100630522D01*
X72451695Y-100576168D01*
X72470062Y-100567948D01*
X72470062Y-100896210D01*
G37*
G36*
X74869748Y-98645268D02*
G01*
X74072540Y-98645268D01*
X74072540Y-100990000D01*
X73701046Y-100990000D01*
X73701046Y-98645268D01*
X72903838Y-98645268D01*
X72903838Y-98317006D01*
X74869748Y-98317006D01*
X74869748Y-98645268D01*
G37*
G36*
X76258623Y-98322980D02*
G01*
X76408495Y-98343124D01*
X76508862Y-98367564D01*
X76654020Y-98423291D01*
X76779041Y-98502609D01*
X76785833Y-98508248D01*
X76889517Y-98621463D01*
X76944836Y-98725868D01*
X76984285Y-98868776D01*
X76995394Y-99007236D01*
X76980796Y-99155671D01*
X76958025Y-99239511D01*
X76894161Y-99374285D01*
X76848115Y-99438080D01*
X76742786Y-99540376D01*
X76666399Y-99592686D01*
X76526514Y-99658502D01*
X76418004Y-99690139D01*
X76546517Y-99764271D01*
X76610711Y-99831556D01*
X76695826Y-99957032D01*
X76767473Y-100088625D01*
X76772644Y-100099002D01*
X77199092Y-100990000D01*
X76785101Y-100990000D01*
X76382833Y-100114389D01*
X76313452Y-99983185D01*
X76289776Y-99948060D01*
X76187927Y-99843279D01*
X76068492Y-99787592D01*
X75923412Y-99770739D01*
X75750488Y-99770739D01*
X75750488Y-100990000D01*
X75383391Y-100990000D01*
X75383391Y-99489371D01*
X75750488Y-99489371D01*
X76047243Y-99489371D01*
X76199341Y-99478495D01*
X76280983Y-99461528D01*
X76419332Y-99403413D01*
X76457571Y-99377264D01*
X76557745Y-99265034D01*
X76571144Y-99240244D01*
X76609516Y-99098403D01*
X76611444Y-99053398D01*
X76589193Y-98903874D01*
X76508221Y-98774022D01*
X76476622Y-98747117D01*
X76337475Y-98677494D01*
X76184495Y-98648849D01*
X76096336Y-98645268D01*
X75750488Y-98645268D01*
X75750488Y-99489371D01*
X75383391Y-99489371D01*
X75383391Y-98317006D01*
X76105129Y-98317006D01*
X76258623Y-98322980D01*
G37*
G36*
X78676193Y-98279413D02*
G01*
X78832576Y-98311134D01*
X78973028Y-98365366D01*
X79108388Y-98447695D01*
X79225407Y-98552899D01*
X79293230Y-98635743D01*
X79373264Y-98765821D01*
X79432798Y-98900002D01*
X79479739Y-99049352D01*
X79483740Y-99065122D01*
X79514201Y-99212771D01*
X79534693Y-99370506D01*
X79544539Y-99519181D01*
X79546755Y-99635917D01*
X79542652Y-99789865D01*
X79527918Y-99954214D01*
X79502467Y-100106198D01*
X79461025Y-100262400D01*
X79408404Y-100403533D01*
X79338652Y-100543352D01*
X79257021Y-100665283D01*
X79230216Y-100698374D01*
X79124586Y-100805861D01*
X78995923Y-100899422D01*
X78890230Y-100953363D01*
X78741062Y-101004265D01*
X78585918Y-101031673D01*
X78479169Y-101036894D01*
X78323564Y-101027735D01*
X78167441Y-100996502D01*
X78027076Y-100943105D01*
X77891818Y-100861119D01*
X77775109Y-100755847D01*
X77707606Y-100672728D01*
X77628076Y-100541729D01*
X77569000Y-100406861D01*
X77522518Y-100256967D01*
X77518562Y-100241151D01*
X77488809Y-100092619D01*
X77468794Y-99933886D01*
X77459177Y-99784226D01*
X77457013Y-99666692D01*
X77457576Y-99645443D01*
X77838764Y-99645443D01*
X77843093Y-99803723D01*
X77856081Y-99952132D01*
X77875401Y-100078485D01*
X77912656Y-100227776D01*
X77968195Y-100368266D01*
X77991905Y-100413342D01*
X78083129Y-100537723D01*
X78197069Y-100630963D01*
X78335921Y-100689214D01*
X78489386Y-100708556D01*
X78500418Y-100708632D01*
X78652069Y-100690439D01*
X78790761Y-100630927D01*
X78798639Y-100625833D01*
X78913494Y-100528197D01*
X79000874Y-100409712D01*
X79006001Y-100400886D01*
X79069033Y-100267389D01*
X79112995Y-100127102D01*
X79126168Y-100068960D01*
X79150280Y-99922368D01*
X79163263Y-99768358D01*
X79165736Y-99661563D01*
X79161493Y-99504621D01*
X79148766Y-99357203D01*
X79129832Y-99231451D01*
X79093284Y-99081564D01*
X79037425Y-98940434D01*
X79013328Y-98895129D01*
X78921188Y-98769649D01*
X78805966Y-98676043D01*
X78666198Y-98617791D01*
X78511542Y-98598449D01*
X78500418Y-98598374D01*
X78348402Y-98616567D01*
X78210031Y-98676078D01*
X78202198Y-98681172D01*
X78088625Y-98778808D01*
X78002114Y-98897293D01*
X77997034Y-98906120D01*
X77934863Y-99039897D01*
X77890948Y-99180946D01*
X77877599Y-99239511D01*
X77853934Y-99386240D01*
X77841191Y-99539563D01*
X77838764Y-99645443D01*
X77457576Y-99645443D01*
X77461045Y-99514457D01*
X77475528Y-99351551D01*
X77500544Y-99200460D01*
X77541277Y-99044605D01*
X77593840Y-98903531D01*
X77663392Y-98763912D01*
X77753453Y-98631157D01*
X77771353Y-98609364D01*
X77876810Y-98501459D01*
X78004889Y-98407642D01*
X78109874Y-98353642D01*
X78258595Y-98302740D01*
X78413498Y-98275332D01*
X78520202Y-98270111D01*
X78676193Y-98279413D01*
G37*
G36*
X81723691Y-100990000D02*
G01*
X81245952Y-100990000D01*
X80460467Y-99322309D01*
X80234054Y-98785952D01*
X80234054Y-100134905D01*
X80234054Y-100990000D01*
X79891870Y-100990000D01*
X79891870Y-98317006D01*
X80363747Y-98317006D01*
X81111863Y-99905561D01*
X81381507Y-100521053D01*
X81381507Y-99080509D01*
X81381507Y-98317006D01*
X81723691Y-98317006D01*
X81723691Y-100990000D01*
G37*
G36*
X82927564Y-98645268D02*
G01*
X82307676Y-98645268D01*
X82307676Y-98317006D01*
X83918946Y-98317006D01*
X83918946Y-98645268D01*
X83299057Y-98645268D01*
X83299057Y-100661737D01*
X83918946Y-100661737D01*
X83918946Y-100990000D01*
X82307676Y-100990000D01*
X82307676Y-100661737D01*
X82927564Y-100661737D01*
X82927564Y-98645268D01*
G37*
G36*
X86309839Y-100896210D02*
G01*
X86166961Y-100951028D01*
X86021067Y-100992381D01*
X85872157Y-101020270D01*
X85720233Y-101034696D01*
X85632065Y-101036894D01*
X85460149Y-101028558D01*
X85301149Y-101003549D01*
X85155065Y-100961868D01*
X84996813Y-100889843D01*
X84857160Y-100793810D01*
X84754989Y-100695443D01*
X84651151Y-100555609D01*
X84581030Y-100421489D01*
X84525828Y-100271376D01*
X84485546Y-100105271D01*
X84460183Y-99923173D01*
X84450635Y-99765979D01*
X84449441Y-99683545D01*
X84454708Y-99525138D01*
X84470507Y-99374516D01*
X84500872Y-99214373D01*
X84533705Y-99096629D01*
X84587138Y-98955393D01*
X84659695Y-98813284D01*
X84746134Y-98686774D01*
X84774773Y-98651863D01*
X84879144Y-98545603D01*
X84996251Y-98455801D01*
X85126096Y-98382456D01*
X85153593Y-98369762D01*
X85298035Y-98317212D01*
X85452924Y-98284125D01*
X85601257Y-98270987D01*
X85652581Y-98270111D01*
X85800515Y-98275795D01*
X85949820Y-98294628D01*
X86000628Y-98304549D01*
X86148855Y-98345046D01*
X86291286Y-98401965D01*
X86309839Y-98410795D01*
X86309839Y-98785952D01*
X86179648Y-98714225D01*
X86035800Y-98656050D01*
X86006489Y-98646734D01*
X85853733Y-98612022D01*
X85699539Y-98598799D01*
X85665038Y-98598374D01*
X85516770Y-98610104D01*
X85370350Y-98648973D01*
X85321388Y-98669448D01*
X85187801Y-98750249D01*
X85081132Y-98851228D01*
X85060537Y-98876078D01*
X84976327Y-99006048D01*
X84914961Y-99147079D01*
X84895673Y-99206538D01*
X84860845Y-99360446D01*
X84843041Y-99515105D01*
X84838520Y-99651304D01*
X84843690Y-99808956D01*
X84863542Y-99981513D01*
X84898284Y-100135936D01*
X84957634Y-100293175D01*
X85037251Y-100425730D01*
X85050279Y-100442651D01*
X85168889Y-100559018D01*
X85312229Y-100642137D01*
X85457938Y-100687592D01*
X85622580Y-100707593D01*
X85673098Y-100708632D01*
X85821601Y-100701619D01*
X85974487Y-100678543D01*
X86004291Y-100671995D01*
X86150619Y-100630522D01*
X86291472Y-100576168D01*
X86309839Y-100567948D01*
X86309839Y-100896210D01*
G37*
G36*
X88866329Y-100990000D02*
G01*
X88466259Y-100990000D01*
X88278681Y-100427264D01*
X87157606Y-100427264D01*
X86967829Y-100990000D01*
X86586810Y-100990000D01*
X86885031Y-100099002D01*
X87263119Y-100099002D01*
X88173900Y-100099002D01*
X87718143Y-98626217D01*
X87263119Y-100099002D01*
X86885031Y-100099002D01*
X87481472Y-98317006D01*
X87984124Y-98317006D01*
X88866329Y-100990000D01*
G37*
G36*
X90927494Y-100270460D02*
G01*
X90914555Y-100418579D01*
X90871679Y-100560511D01*
X90849092Y-100606782D01*
X90762066Y-100730956D01*
X90647993Y-100834200D01*
X90630739Y-100846385D01*
X90497343Y-100921117D01*
X90353884Y-100973935D01*
X90293684Y-100990000D01*
X90140635Y-101018576D01*
X89990203Y-101033185D01*
X89859909Y-101036894D01*
X89713160Y-101032738D01*
X89646685Y-101028101D01*
X89498120Y-101014244D01*
X89442254Y-101007585D01*
X89296692Y-100985886D01*
X89258339Y-100979009D01*
X89114866Y-100946658D01*
X89101535Y-100943105D01*
X89101535Y-100567948D01*
X89244108Y-100620181D01*
X89389557Y-100658887D01*
X89448848Y-100671263D01*
X89600798Y-100694034D01*
X89753119Y-100705676D01*
X89887020Y-100708632D01*
X90041666Y-100702675D01*
X90188904Y-100681521D01*
X90332829Y-100633931D01*
X90392602Y-100600188D01*
X90496080Y-100491996D01*
X90508374Y-100468297D01*
X90543401Y-100321581D01*
X90544277Y-100290976D01*
X90510068Y-100145347D01*
X90483461Y-100104863D01*
X90376354Y-100001920D01*
X90323726Y-99966378D01*
X90189202Y-99894650D01*
X90098046Y-99855736D01*
X89961913Y-99801190D01*
X89839392Y-99751688D01*
X89700706Y-99691803D01*
X89580739Y-99635184D01*
X89446942Y-99557106D01*
X89355059Y-99486441D01*
X89251026Y-99374304D01*
X89195324Y-99285673D01*
X89146148Y-99142344D01*
X89134508Y-99011632D01*
X89152823Y-98857820D01*
X89192393Y-98739790D01*
X89271681Y-98605799D01*
X89371179Y-98501653D01*
X89500344Y-98412964D01*
X89636770Y-98350425D01*
X89683321Y-98333859D01*
X89836954Y-98295012D01*
X89995706Y-98275154D01*
X90138346Y-98270111D01*
X90285624Y-98277438D01*
X90435934Y-98296329D01*
X90446092Y-98297955D01*
X90592428Y-98324869D01*
X90607292Y-98327997D01*
X90750301Y-98362712D01*
X90754570Y-98363900D01*
X90754570Y-98692163D01*
X90605506Y-98653877D01*
X90456441Y-98625573D01*
X90436566Y-98622554D01*
X90290443Y-98605198D01*
X90139546Y-98598397D01*
X90130286Y-98598374D01*
X89982824Y-98604785D01*
X89827863Y-98630831D01*
X89684981Y-98688533D01*
X89665736Y-98700956D01*
X89559497Y-98811895D01*
X89518303Y-98953747D01*
X89517725Y-98974996D01*
X89551934Y-99121450D01*
X89578541Y-99162575D01*
X89685648Y-99266571D01*
X89738276Y-99302526D01*
X89872800Y-99375169D01*
X89963956Y-99414633D01*
X90100088Y-99469178D01*
X90222609Y-99518681D01*
X90361296Y-99578615D01*
X90481263Y-99636650D01*
X90608089Y-99710999D01*
X90706943Y-99787592D01*
X90810976Y-99901985D01*
X90866678Y-99992756D01*
X90915854Y-100138326D01*
X90927494Y-100270460D01*
G37*
X57500000Y-70000000D02*
X57500000Y-73500000D01*
X54000000Y-75500000D02*
X62000000Y-77000000D01*
X52500000Y-68000000D02*
X57500000Y-68000000D01*
X57500000Y-73500000D02*
X60000000Y-75000000D01*
X57500000Y-87000000D02*
X53000000Y-87000000D01*
X62000000Y-77000000D02*
X56000000Y-77500000D01*
X61500000Y-81000000D02*
X57500000Y-82500000D01*
X53000000Y-79500000D02*
X61500000Y-81000000D01*
X60000000Y-79000000D02*
X53000000Y-79500000D01*
X56000000Y-77500000D02*
X60000000Y-79000000D01*
X57500000Y-68000000D02*
X57500000Y-70000000D01*
X60000000Y-75000000D02*
X54000000Y-75500000D01*
X57500000Y-82500000D02*
X57500000Y-87000000D01*
X75827693Y-54420038D02*
X75732455Y-54372419D01*
X75732455Y-54372419D02*
X75589598Y-54372419D01*
X75589598Y-54372419D02*
X75446741Y-54420038D01*
X75446741Y-54420038D02*
X75351503Y-54515276D01*
X75351503Y-54515276D02*
X75303884Y-54610514D01*
X75303884Y-54610514D02*
X75256265Y-54800990D01*
X75256265Y-54800990D02*
X75256265Y-54943847D01*
X75256265Y-54943847D02*
X75303884Y-55134323D01*
X75303884Y-55134323D02*
X75351503Y-55229561D01*
X75351503Y-55229561D02*
X75446741Y-55324800D01*
X75446741Y-55324800D02*
X75589598Y-55372419D01*
X75589598Y-55372419D02*
X75684836Y-55372419D01*
X75684836Y-55372419D02*
X75827693Y-55324800D01*
X75827693Y-55324800D02*
X75875312Y-55277180D01*
X75875312Y-55277180D02*
X75875312Y-54943847D01*
X75875312Y-54943847D02*
X75684836Y-54943847D01*
X76303884Y-55372419D02*
X76303884Y-54372419D01*
X76303884Y-54372419D02*
X76875312Y-55372419D01*
X76875312Y-55372419D02*
X76875312Y-54372419D01*
X77351503Y-55372419D02*
X77351503Y-54372419D01*
X77351503Y-54372419D02*
X77589598Y-54372419D01*
X77589598Y-54372419D02*
X77732455Y-54420038D01*
X77732455Y-54420038D02*
X77827693Y-54515276D01*
X77827693Y-54515276D02*
X77875312Y-54610514D01*
X77875312Y-54610514D02*
X77922931Y-54800990D01*
X77922931Y-54800990D02*
X77922931Y-54943847D01*
X77922931Y-54943847D02*
X77875312Y-55134323D01*
X77875312Y-55134323D02*
X77827693Y-55229561D01*
X77827693Y-55229561D02*
X77732455Y-55324800D01*
X77732455Y-55324800D02*
X77589598Y-55372419D01*
X77589598Y-55372419D02*
X77351503Y-55372419D01*
X127256265Y-84824800D02*
X127399122Y-84872419D01*
X127399122Y-84872419D02*
X127637217Y-84872419D01*
X127637217Y-84872419D02*
X127732455Y-84824800D01*
X127732455Y-84824800D02*
X127780074Y-84777180D01*
X127780074Y-84777180D02*
X127827693Y-84681942D01*
X127827693Y-84681942D02*
X127827693Y-84586704D01*
X127827693Y-84586704D02*
X127780074Y-84491466D01*
X127780074Y-84491466D02*
X127732455Y-84443847D01*
X127732455Y-84443847D02*
X127637217Y-84396228D01*
X127637217Y-84396228D02*
X127446741Y-84348609D01*
X127446741Y-84348609D02*
X127351503Y-84300990D01*
X127351503Y-84300990D02*
X127303884Y-84253371D01*
X127303884Y-84253371D02*
X127256265Y-84158133D01*
X127256265Y-84158133D02*
X127256265Y-84062895D01*
X127256265Y-84062895D02*
X127303884Y-83967657D01*
X127303884Y-83967657D02*
X127351503Y-83920038D01*
X127351503Y-83920038D02*
X127446741Y-83872419D01*
X127446741Y-83872419D02*
X127684836Y-83872419D01*
X127684836Y-83872419D02*
X127827693Y-83920038D01*
X128256265Y-84872419D02*
X128256265Y-83872419D01*
X128256265Y-83872419D02*
X128637217Y-83872419D01*
X128637217Y-83872419D02*
X128732455Y-83920038D01*
X128732455Y-83920038D02*
X128780074Y-83967657D01*
X128780074Y-83967657D02*
X128827693Y-84062895D01*
X128827693Y-84062895D02*
X128827693Y-84205752D01*
X128827693Y-84205752D02*
X128780074Y-84300990D01*
X128780074Y-84300990D02*
X128732455Y-84348609D01*
X128732455Y-84348609D02*
X128637217Y-84396228D01*
X128637217Y-84396228D02*
X128256265Y-84396228D01*
X129256265Y-84348609D02*
X129589598Y-84348609D01*
X129732455Y-84872419D02*
X129256265Y-84872419D01*
X129256265Y-84872419D02*
X129256265Y-83872419D01*
X129256265Y-83872419D02*
X129732455Y-83872419D01*
X130113408Y-84586704D02*
X130589598Y-84586704D01*
X130018170Y-84872419D02*
X130351503Y-83872419D01*
X130351503Y-83872419D02*
X130684836Y-84872419D01*
X131018170Y-84872419D02*
X131018170Y-83872419D01*
X131589598Y-84872419D02*
X131161027Y-84300990D01*
X131589598Y-83872419D02*
X131018170Y-84443847D01*
X132018170Y-84348609D02*
X132351503Y-84348609D01*
X132494360Y-84872419D02*
X132018170Y-84872419D01*
X132018170Y-84872419D02*
X132018170Y-83872419D01*
X132018170Y-83872419D02*
X132494360Y-83872419D01*
X133494360Y-84872419D02*
X133161027Y-84396228D01*
X132922932Y-84872419D02*
X132922932Y-83872419D01*
X132922932Y-83872419D02*
X133303884Y-83872419D01*
X133303884Y-83872419D02*
X133399122Y-83920038D01*
X133399122Y-83920038D02*
X133446741Y-83967657D01*
X133446741Y-83967657D02*
X133494360Y-84062895D01*
X133494360Y-84062895D02*
X133494360Y-84205752D01*
X133494360Y-84205752D02*
X133446741Y-84300990D01*
X133446741Y-84300990D02*
X133399122Y-84348609D01*
X133399122Y-84348609D02*
X133303884Y-84396228D01*
X133303884Y-84396228D02*
X132922932Y-84396228D01*
X59303884Y-54991466D02*
X60065789Y-54991466D01*
X59684836Y-55372419D02*
X59684836Y-54610514D01*
X60589598Y-55372419D02*
X60780074Y-55372419D01*
X60780074Y-55372419D02*
X60875312Y-55324800D01*
X60875312Y-55324800D02*
X60922931Y-55277180D01*
X60922931Y-55277180D02*
X61018169Y-55134323D01*
X61018169Y-55134323D02*
X61065788Y-54943847D01*
X61065788Y-54943847D02*
X61065788Y-54562895D01*
X61065788Y-54562895D02*
X61018169Y-54467657D01*
X61018169Y-54467657D02*
X60970550Y-54420038D01*
X60970550Y-54420038D02*
X60875312Y-54372419D01*
X60875312Y-54372419D02*
X60684836Y-54372419D01*
X60684836Y-54372419D02*
X60589598Y-54420038D01*
X60589598Y-54420038D02*
X60541979Y-54467657D01*
X60541979Y-54467657D02*
X60494360Y-54562895D01*
X60494360Y-54562895D02*
X60494360Y-54800990D01*
X60494360Y-54800990D02*
X60541979Y-54896228D01*
X60541979Y-54896228D02*
X60589598Y-54943847D01*
X60589598Y-54943847D02*
X60684836Y-54991466D01*
X60684836Y-54991466D02*
X60875312Y-54991466D01*
X60875312Y-54991466D02*
X60970550Y-54943847D01*
X60970550Y-54943847D02*
X61018169Y-54896228D01*
X61018169Y-54896228D02*
X61065788Y-54800990D01*
X61351503Y-54372419D02*
X61684836Y-55372419D01*
X61684836Y-55372419D02*
X62018169Y-54372419D01*
D11*
X79759580Y-77734287D02*
X79807200Y-77781906D01*
X79807200Y-77781906D02*
X79854819Y-77924763D01*
X79854819Y-77924763D02*
X79854819Y-78020001D01*
X79854819Y-78020001D02*
X79807200Y-78162858D01*
X79807200Y-78162858D02*
X79711961Y-78258096D01*
X79711961Y-78258096D02*
X79616723Y-78305715D01*
X79616723Y-78305715D02*
X79426247Y-78353334D01*
X79426247Y-78353334D02*
X79283390Y-78353334D01*
X79283390Y-78353334D02*
X79092914Y-78305715D01*
X79092914Y-78305715D02*
X78997676Y-78258096D01*
X78997676Y-78258096D02*
X78902438Y-78162858D01*
X78902438Y-78162858D02*
X78854819Y-78020001D01*
X78854819Y-78020001D02*
X78854819Y-77924763D01*
X78854819Y-77924763D02*
X78902438Y-77781906D01*
X78902438Y-77781906D02*
X78950057Y-77734287D01*
X78950057Y-77353334D02*
X78902438Y-77305715D01*
X78902438Y-77305715D02*
X78854819Y-77210477D01*
X78854819Y-77210477D02*
X78854819Y-76972382D01*
X78854819Y-76972382D02*
X78902438Y-76877144D01*
X78902438Y-76877144D02*
X78950057Y-76829525D01*
X78950057Y-76829525D02*
X79045295Y-76781906D01*
X79045295Y-76781906D02*
X79140533Y-76781906D01*
X79140533Y-76781906D02*
X79283390Y-76829525D01*
X79283390Y-76829525D02*
X79854819Y-77400953D01*
X79854819Y-77400953D02*
X79854819Y-76781906D01*
X115166667Y-51907200D02*
X115309524Y-51954819D01*
X115309524Y-51954819D02*
X115547619Y-51954819D01*
X115547619Y-51954819D02*
X115642857Y-51907200D01*
X115642857Y-51907200D02*
X115690476Y-51859580D01*
X115690476Y-51859580D02*
X115738095Y-51764342D01*
X115738095Y-51764342D02*
X115738095Y-51669104D01*
X115738095Y-51669104D02*
X115690476Y-51573866D01*
X115690476Y-51573866D02*
X115642857Y-51526247D01*
X115642857Y-51526247D02*
X115547619Y-51478628D01*
X115547619Y-51478628D02*
X115357143Y-51431009D01*
X115357143Y-51431009D02*
X115261905Y-51383390D01*
X115261905Y-51383390D02*
X115214286Y-51335771D01*
X115214286Y-51335771D02*
X115166667Y-51240533D01*
X115166667Y-51240533D02*
X115166667Y-51145295D01*
X115166667Y-51145295D02*
X115214286Y-51050057D01*
X115214286Y-51050057D02*
X115261905Y-51002438D01*
X115261905Y-51002438D02*
X115357143Y-50954819D01*
X115357143Y-50954819D02*
X115595238Y-50954819D01*
X115595238Y-50954819D02*
X115738095Y-51002438D01*
X116071429Y-50954819D02*
X116309524Y-51954819D01*
X116309524Y-51954819D02*
X116500000Y-51240533D01*
X116500000Y-51240533D02*
X116690476Y-51954819D01*
X116690476Y-51954819D02*
X116928572Y-50954819D01*
X117833333Y-51954819D02*
X117261905Y-51954819D01*
X117547619Y-51954819D02*
X117547619Y-50954819D01*
X117547619Y-50954819D02*
X117452381Y-51097676D01*
X117452381Y-51097676D02*
X117357143Y-51192914D01*
X117357143Y-51192914D02*
X117261905Y-51240533D01*
X52643333Y-71883513D02*
X52643333Y-71169228D01*
X52643333Y-71169228D02*
X52690952Y-71026371D01*
X52690952Y-71026371D02*
X52786190Y-70931133D01*
X52786190Y-70931133D02*
X52929047Y-70883513D01*
X52929047Y-70883513D02*
X53024285Y-70883513D01*
X52214761Y-71788275D02*
X52167142Y-71835894D01*
X52167142Y-71835894D02*
X52071904Y-71883513D01*
X52071904Y-71883513D02*
X51833809Y-71883513D01*
X51833809Y-71883513D02*
X51738571Y-71835894D01*
X51738571Y-71835894D02*
X51690952Y-71788275D01*
X51690952Y-71788275D02*
X51643333Y-71693037D01*
X51643333Y-71693037D02*
X51643333Y-71597799D01*
X51643333Y-71597799D02*
X51690952Y-71454942D01*
X51690952Y-71454942D02*
X52262380Y-70883513D01*
X52262380Y-70883513D02*
X51643333Y-70883513D01*
X116494819Y-78243094D02*
X115494819Y-78243094D01*
X115494819Y-78243094D02*
X115494819Y-78004999D01*
X115494819Y-78004999D02*
X115542438Y-77862142D01*
X115542438Y-77862142D02*
X115637676Y-77766904D01*
X115637676Y-77766904D02*
X115732914Y-77719285D01*
X115732914Y-77719285D02*
X115923390Y-77671666D01*
X115923390Y-77671666D02*
X116066247Y-77671666D01*
X116066247Y-77671666D02*
X116256723Y-77719285D01*
X116256723Y-77719285D02*
X116351961Y-77766904D01*
X116351961Y-77766904D02*
X116447200Y-77862142D01*
X116447200Y-77862142D02*
X116494819Y-78004999D01*
X116494819Y-78004999D02*
X116494819Y-78243094D01*
X115494819Y-77338332D02*
X115494819Y-76719285D01*
X115494819Y-76719285D02*
X115875771Y-77052618D01*
X115875771Y-77052618D02*
X115875771Y-76909761D01*
X115875771Y-76909761D02*
X115923390Y-76814523D01*
X115923390Y-76814523D02*
X115971009Y-76766904D01*
X115971009Y-76766904D02*
X116066247Y-76719285D01*
X116066247Y-76719285D02*
X116304342Y-76719285D01*
X116304342Y-76719285D02*
X116399580Y-76766904D01*
X116399580Y-76766904D02*
X116447200Y-76814523D01*
X116447200Y-76814523D02*
X116494819Y-76909761D01*
X116494819Y-76909761D02*
X116494819Y-77195475D01*
X116494819Y-77195475D02*
X116447200Y-77290713D01*
X116447200Y-77290713D02*
X116399580Y-77338332D01*
X113759580Y-77734287D02*
X113807200Y-77781906D01*
X113807200Y-77781906D02*
X113854819Y-77924763D01*
X113854819Y-77924763D02*
X113854819Y-78020001D01*
X113854819Y-78020001D02*
X113807200Y-78162858D01*
X113807200Y-78162858D02*
X113711961Y-78258096D01*
X113711961Y-78258096D02*
X113616723Y-78305715D01*
X113616723Y-78305715D02*
X113426247Y-78353334D01*
X113426247Y-78353334D02*
X113283390Y-78353334D01*
X113283390Y-78353334D02*
X113092914Y-78305715D01*
X113092914Y-78305715D02*
X112997676Y-78258096D01*
X112997676Y-78258096D02*
X112902438Y-78162858D01*
X112902438Y-78162858D02*
X112854819Y-78020001D01*
X112854819Y-78020001D02*
X112854819Y-77924763D01*
X112854819Y-77924763D02*
X112902438Y-77781906D01*
X112902438Y-77781906D02*
X112950057Y-77734287D01*
X113854819Y-76781906D02*
X113854819Y-77353334D01*
X113854819Y-77067620D02*
X112854819Y-77067620D01*
X112854819Y-77067620D02*
X112997676Y-77162858D01*
X112997676Y-77162858D02*
X113092914Y-77258096D01*
X113092914Y-77258096D02*
X113140533Y-77353334D01*
X99189525Y-88442424D02*
X99237145Y-88490043D01*
X99237145Y-88490043D02*
X99284764Y-88632900D01*
X99284764Y-88632900D02*
X99284764Y-88728138D01*
X99284764Y-88728138D02*
X99237145Y-88870995D01*
X99237145Y-88870995D02*
X99141906Y-88966233D01*
X99141906Y-88966233D02*
X99046668Y-89013852D01*
X99046668Y-89013852D02*
X98856192Y-89061471D01*
X98856192Y-89061471D02*
X98713335Y-89061471D01*
X98713335Y-89061471D02*
X98522859Y-89013852D01*
X98522859Y-89013852D02*
X98427621Y-88966233D01*
X98427621Y-88966233D02*
X98332383Y-88870995D01*
X98332383Y-88870995D02*
X98284764Y-88728138D01*
X98284764Y-88728138D02*
X98284764Y-88632900D01*
X98284764Y-88632900D02*
X98332383Y-88490043D01*
X98332383Y-88490043D02*
X98380002Y-88442424D01*
X98284764Y-88109090D02*
X98284764Y-87490043D01*
X98284764Y-87490043D02*
X98665716Y-87823376D01*
X98665716Y-87823376D02*
X98665716Y-87680519D01*
X98665716Y-87680519D02*
X98713335Y-87585281D01*
X98713335Y-87585281D02*
X98760954Y-87537662D01*
X98760954Y-87537662D02*
X98856192Y-87490043D01*
X98856192Y-87490043D02*
X99094287Y-87490043D01*
X99094287Y-87490043D02*
X99189525Y-87537662D01*
X99189525Y-87537662D02*
X99237145Y-87585281D01*
X99237145Y-87585281D02*
X99284764Y-87680519D01*
X99284764Y-87680519D02*
X99284764Y-87966233D01*
X99284764Y-87966233D02*
X99237145Y-88061471D01*
X99237145Y-88061471D02*
X99189525Y-88109090D01*
X92633333Y-61584819D02*
X92300000Y-61108628D01*
X92061905Y-61584819D02*
X92061905Y-60584819D01*
X92061905Y-60584819D02*
X92442857Y-60584819D01*
X92442857Y-60584819D02*
X92538095Y-60632438D01*
X92538095Y-60632438D02*
X92585714Y-60680057D01*
X92585714Y-60680057D02*
X92633333Y-60775295D01*
X92633333Y-60775295D02*
X92633333Y-60918152D01*
X92633333Y-60918152D02*
X92585714Y-61013390D01*
X92585714Y-61013390D02*
X92538095Y-61061009D01*
X92538095Y-61061009D02*
X92442857Y-61108628D01*
X92442857Y-61108628D02*
X92061905Y-61108628D01*
X93585714Y-61584819D02*
X93014286Y-61584819D01*
X93300000Y-61584819D02*
X93300000Y-60584819D01*
X93300000Y-60584819D02*
X93204762Y-60727676D01*
X93204762Y-60727676D02*
X93109524Y-60822914D01*
X93109524Y-60822914D02*
X93014286Y-60870533D01*
X68464161Y-57219850D02*
X68464161Y-57934135D01*
X68464161Y-57934135D02*
X68416542Y-58076992D01*
X68416542Y-58076992D02*
X68321304Y-58172231D01*
X68321304Y-58172231D02*
X68178447Y-58219850D01*
X68178447Y-58219850D02*
X68083209Y-58219850D01*
X69464161Y-58219850D02*
X68892733Y-58219850D01*
X69178447Y-58219850D02*
X69178447Y-57219850D01*
X69178447Y-57219850D02*
X69083209Y-57362707D01*
X69083209Y-57362707D02*
X68987971Y-57457945D01*
X68987971Y-57457945D02*
X68892733Y-57505564D01*
X126454819Y-77833333D02*
X127169104Y-77833333D01*
X127169104Y-77833333D02*
X127311961Y-77880952D01*
X127311961Y-77880952D02*
X127407200Y-77976190D01*
X127407200Y-77976190D02*
X127454819Y-78119047D01*
X127454819Y-78119047D02*
X127454819Y-78214285D01*
X126454819Y-77452380D02*
X126454819Y-76833333D01*
X126454819Y-76833333D02*
X126835771Y-77166666D01*
X126835771Y-77166666D02*
X126835771Y-77023809D01*
X126835771Y-77023809D02*
X126883390Y-76928571D01*
X126883390Y-76928571D02*
X126931009Y-76880952D01*
X126931009Y-76880952D02*
X127026247Y-76833333D01*
X127026247Y-76833333D02*
X127264342Y-76833333D01*
X127264342Y-76833333D02*
X127359580Y-76880952D01*
X127359580Y-76880952D02*
X127407200Y-76928571D01*
X127407200Y-76928571D02*
X127454819Y-77023809D01*
X127454819Y-77023809D02*
X127454819Y-77309523D01*
X127454819Y-77309523D02*
X127407200Y-77404761D01*
X127407200Y-77404761D02*
X127359580Y-77452380D01*
X88994819Y-54968094D02*
X87994819Y-54968094D01*
X87994819Y-54968094D02*
X87994819Y-54729999D01*
X87994819Y-54729999D02*
X88042438Y-54587142D01*
X88042438Y-54587142D02*
X88137676Y-54491904D01*
X88137676Y-54491904D02*
X88232914Y-54444285D01*
X88232914Y-54444285D02*
X88423390Y-54396666D01*
X88423390Y-54396666D02*
X88566247Y-54396666D01*
X88566247Y-54396666D02*
X88756723Y-54444285D01*
X88756723Y-54444285D02*
X88851961Y-54491904D01*
X88851961Y-54491904D02*
X88947200Y-54587142D01*
X88947200Y-54587142D02*
X88994819Y-54729999D01*
X88994819Y-54729999D02*
X88994819Y-54968094D01*
X88090057Y-54015713D02*
X88042438Y-53968094D01*
X88042438Y-53968094D02*
X87994819Y-53872856D01*
X87994819Y-53872856D02*
X87994819Y-53634761D01*
X87994819Y-53634761D02*
X88042438Y-53539523D01*
X88042438Y-53539523D02*
X88090057Y-53491904D01*
X88090057Y-53491904D02*
X88185295Y-53444285D01*
X88185295Y-53444285D02*
X88280533Y-53444285D01*
X88280533Y-53444285D02*
X88423390Y-53491904D01*
X88423390Y-53491904D02*
X88994819Y-54063332D01*
X88994819Y-54063332D02*
X88994819Y-53444285D01*
X116753333Y-69954819D02*
X116420000Y-69478628D01*
X116181905Y-69954819D02*
X116181905Y-68954819D01*
X116181905Y-68954819D02*
X116562857Y-68954819D01*
X116562857Y-68954819D02*
X116658095Y-69002438D01*
X116658095Y-69002438D02*
X116705714Y-69050057D01*
X116705714Y-69050057D02*
X116753333Y-69145295D01*
X116753333Y-69145295D02*
X116753333Y-69288152D01*
X116753333Y-69288152D02*
X116705714Y-69383390D01*
X116705714Y-69383390D02*
X116658095Y-69431009D01*
X116658095Y-69431009D02*
X116562857Y-69478628D01*
X116562857Y-69478628D02*
X116181905Y-69478628D01*
X117086667Y-68954819D02*
X117705714Y-68954819D01*
X117705714Y-68954819D02*
X117372381Y-69335771D01*
X117372381Y-69335771D02*
X117515238Y-69335771D01*
X117515238Y-69335771D02*
X117610476Y-69383390D01*
X117610476Y-69383390D02*
X117658095Y-69431009D01*
X117658095Y-69431009D02*
X117705714Y-69526247D01*
X117705714Y-69526247D02*
X117705714Y-69764342D01*
X117705714Y-69764342D02*
X117658095Y-69859580D01*
X117658095Y-69859580D02*
X117610476Y-69907200D01*
X117610476Y-69907200D02*
X117515238Y-69954819D01*
X117515238Y-69954819D02*
X117229524Y-69954819D01*
X117229524Y-69954819D02*
X117134286Y-69907200D01*
X117134286Y-69907200D02*
X117086667Y-69859580D01*
X116833333Y-61454819D02*
X116500000Y-60978628D01*
X116261905Y-61454819D02*
X116261905Y-60454819D01*
X116261905Y-60454819D02*
X116642857Y-60454819D01*
X116642857Y-60454819D02*
X116738095Y-60502438D01*
X116738095Y-60502438D02*
X116785714Y-60550057D01*
X116785714Y-60550057D02*
X116833333Y-60645295D01*
X116833333Y-60645295D02*
X116833333Y-60788152D01*
X116833333Y-60788152D02*
X116785714Y-60883390D01*
X116785714Y-60883390D02*
X116738095Y-60931009D01*
X116738095Y-60931009D02*
X116642857Y-60978628D01*
X116642857Y-60978628D02*
X116261905Y-60978628D01*
X117214286Y-60550057D02*
X117261905Y-60502438D01*
X117261905Y-60502438D02*
X117357143Y-60454819D01*
X117357143Y-60454819D02*
X117595238Y-60454819D01*
X117595238Y-60454819D02*
X117690476Y-60502438D01*
X117690476Y-60502438D02*
X117738095Y-60550057D01*
X117738095Y-60550057D02*
X117785714Y-60645295D01*
X117785714Y-60645295D02*
X117785714Y-60740533D01*
X117785714Y-60740533D02*
X117738095Y-60883390D01*
X117738095Y-60883390D02*
X117166667Y-61454819D01*
X117166667Y-61454819D02*
X117785714Y-61454819D01*
X52666666Y-83116485D02*
X52666666Y-83830770D01*
X52666666Y-83830770D02*
X52619047Y-83973627D01*
X52619047Y-83973627D02*
X52523809Y-84068866D01*
X52523809Y-84068866D02*
X52380952Y-84116485D01*
X52380952Y-84116485D02*
X52285714Y-84116485D01*
X53571428Y-83449818D02*
X53571428Y-84116485D01*
X53333333Y-83068866D02*
X53095238Y-83783151D01*
X53095238Y-83783151D02*
X53714285Y-83783151D01*
X67351903Y-62170956D02*
X67351903Y-61170956D01*
X67351903Y-61170956D02*
X67589998Y-61170956D01*
X67589998Y-61170956D02*
X67732855Y-61218575D01*
X67732855Y-61218575D02*
X67828093Y-61313813D01*
X67828093Y-61313813D02*
X67875712Y-61409051D01*
X67875712Y-61409051D02*
X67923331Y-61599527D01*
X67923331Y-61599527D02*
X67923331Y-61742384D01*
X67923331Y-61742384D02*
X67875712Y-61932860D01*
X67875712Y-61932860D02*
X67828093Y-62028098D01*
X67828093Y-62028098D02*
X67732855Y-62123337D01*
X67732855Y-62123337D02*
X67589998Y-62170956D01*
X67589998Y-62170956D02*
X67351903Y-62170956D01*
X68875712Y-62170956D02*
X68304284Y-62170956D01*
X68589998Y-62170956D02*
X68589998Y-61170956D01*
X68589998Y-61170956D02*
X68494760Y-61313813D01*
X68494760Y-61313813D02*
X68399522Y-61409051D01*
X68399522Y-61409051D02*
X68304284Y-61456670D01*
X73153095Y-66554819D02*
X73153095Y-65554819D01*
X73724523Y-66554819D02*
X73295952Y-65983390D01*
X73724523Y-65554819D02*
X73153095Y-66126247D01*
X91748095Y-70824819D02*
X91748095Y-71634342D01*
X91748095Y-71634342D02*
X91795714Y-71729580D01*
X91795714Y-71729580D02*
X91843333Y-71777200D01*
X91843333Y-71777200D02*
X91938571Y-71824819D01*
X91938571Y-71824819D02*
X92129047Y-71824819D01*
X92129047Y-71824819D02*
X92224285Y-71777200D01*
X92224285Y-71777200D02*
X92271904Y-71729580D01*
X92271904Y-71729580D02*
X92319523Y-71634342D01*
X92319523Y-71634342D02*
X92319523Y-70824819D01*
X93319523Y-71824819D02*
X92748095Y-71824819D01*
X93033809Y-71824819D02*
X93033809Y-70824819D01*
X93033809Y-70824819D02*
X92938571Y-70967676D01*
X92938571Y-70967676D02*
X92843333Y-71062914D01*
X92843333Y-71062914D02*
X92748095Y-71110533D01*
D12*
%TO.C,G\u002A\u002A\u002A*%
G36*
X123133105Y-94745737D02*
G01*
X123153621Y-94763889D01*
X123194569Y-94846291D01*
X123198714Y-94943784D01*
X123166556Y-95029086D01*
X123148404Y-95049602D01*
X123066002Y-95090550D01*
X122968509Y-95094695D01*
X122883207Y-95062537D01*
X122862691Y-95044385D01*
X122821743Y-94961983D01*
X122817597Y-94864490D01*
X122849756Y-94779188D01*
X122867908Y-94758672D01*
X122950310Y-94717724D01*
X123047803Y-94713578D01*
X123133105Y-94745737D01*
G37*
G36*
X127947109Y-94754033D02*
G01*
X128022538Y-94783603D01*
X128113116Y-94836203D01*
X128146658Y-94859983D01*
X128256158Y-94927547D01*
X128343016Y-94943974D01*
X128414867Y-94909979D01*
X128437106Y-94887213D01*
X128502800Y-94841101D01*
X128570013Y-94837844D01*
X128619500Y-94875013D01*
X128632196Y-94911839D01*
X128614164Y-94989294D01*
X128551941Y-95069463D01*
X128445094Y-95143566D01*
X128326918Y-95161347D01*
X128194267Y-95122705D01*
X128080026Y-95054255D01*
X127982824Y-94988460D01*
X127918168Y-94957651D01*
X127871634Y-94959407D01*
X127828800Y-94991302D01*
X127811938Y-95009220D01*
X127745826Y-95054485D01*
X127672530Y-95067443D01*
X127614076Y-95046751D01*
X127596884Y-95022317D01*
X127595257Y-94943869D01*
X127639817Y-94867203D01*
X127717292Y-94802484D01*
X127814411Y-94759881D01*
X127917901Y-94749559D01*
X127947109Y-94754033D01*
G37*
G36*
X120742648Y-92487234D02*
G01*
X120751484Y-92674788D01*
X120763379Y-92830943D01*
X120777433Y-92946663D01*
X120792751Y-93012912D01*
X120795421Y-93018614D01*
X120881094Y-93116854D01*
X121004323Y-93168709D01*
X121101655Y-93177778D01*
X121248850Y-93154962D01*
X121358642Y-93085815D01*
X121409165Y-93018614D01*
X121426295Y-92958097D01*
X121441255Y-92843522D01*
X121453451Y-92680854D01*
X121461938Y-92487234D01*
X121476950Y-92021867D01*
X121612057Y-92021867D01*
X121747163Y-92021867D01*
X121747163Y-92727423D01*
X121747163Y-93432979D01*
X121612057Y-93432979D01*
X121528843Y-93430617D01*
X121488191Y-93414321D01*
X121472615Y-93370273D01*
X121467535Y-93318768D01*
X121458120Y-93204557D01*
X121397144Y-93282076D01*
X121275345Y-93391057D01*
X121124401Y-93454985D01*
X120957988Y-93470906D01*
X120789781Y-93435863D01*
X120754023Y-93421079D01*
X120609254Y-93325056D01*
X120509495Y-93189353D01*
X120470490Y-93085226D01*
X120460245Y-93015362D01*
X120452549Y-92899118D01*
X120447924Y-92750126D01*
X120446894Y-92582021D01*
X120447871Y-92496179D01*
X120456146Y-92021867D01*
X120591253Y-92021867D01*
X120726359Y-92021867D01*
X120742648Y-92487234D01*
G37*
G36*
X116323360Y-98255939D02*
G01*
X116430532Y-98271296D01*
X116496042Y-98302133D01*
X116528886Y-98352739D01*
X116538058Y-98427404D01*
X116538061Y-98429425D01*
X116538061Y-98548516D01*
X116329326Y-98531016D01*
X116155837Y-98527577D01*
X116029125Y-98552518D01*
X115941673Y-98608573D01*
X115888860Y-98691324D01*
X115860049Y-98781619D01*
X115847534Y-98863129D01*
X115847518Y-98865277D01*
X115849357Y-98898378D01*
X115861920Y-98920268D01*
X115895775Y-98933681D01*
X115961491Y-98941354D01*
X116069635Y-98946021D01*
X116170272Y-98948807D01*
X116493026Y-98957328D01*
X116502759Y-99059263D01*
X116498367Y-99142357D01*
X116472735Y-99186403D01*
X116426891Y-99197314D01*
X116336338Y-99205950D01*
X116216404Y-99211124D01*
X116140911Y-99212070D01*
X115848843Y-99212529D01*
X115840674Y-99775473D01*
X115832506Y-100338416D01*
X115711322Y-100347335D01*
X115629762Y-100348110D01*
X115575769Y-100339065D01*
X115568710Y-100334825D01*
X115561887Y-100299304D01*
X115555961Y-100213633D01*
X115551304Y-100087709D01*
X115548288Y-99931426D01*
X115547281Y-99764461D01*
X115547281Y-99215526D01*
X115374645Y-99206522D01*
X115202009Y-99197518D01*
X115202009Y-99077423D01*
X115202009Y-98957328D01*
X115374645Y-98948324D01*
X115547281Y-98939320D01*
X115547281Y-98795422D01*
X115572271Y-98613210D01*
X115645342Y-98465313D01*
X115763651Y-98354232D01*
X115924353Y-98282470D01*
X116124602Y-98252528D01*
X116165533Y-98251773D01*
X116323360Y-98255939D01*
G37*
G36*
X119526537Y-91993916D02*
G01*
X119710122Y-92049223D01*
X119877180Y-92153606D01*
X119908215Y-92181030D01*
X119974454Y-92267268D01*
X119985692Y-92346800D01*
X119941106Y-92413192D01*
X119938239Y-92415416D01*
X119875633Y-92449663D01*
X119813735Y-92446049D01*
X119735019Y-92401726D01*
X119701386Y-92376936D01*
X119565479Y-92305822D01*
X119416287Y-92280783D01*
X119268361Y-92299586D01*
X119136251Y-92360002D01*
X119034509Y-92459797D01*
X119020812Y-92481311D01*
X118980536Y-92594403D01*
X118966676Y-92733463D01*
X118979934Y-92870200D01*
X119009087Y-92956155D01*
X119103325Y-93079909D01*
X119227769Y-93158551D01*
X119371089Y-93190333D01*
X119521955Y-93173508D01*
X119669038Y-93106328D01*
X119722761Y-93066241D01*
X119786766Y-93017039D01*
X119831289Y-93003866D01*
X119880689Y-93021720D01*
X119896763Y-93030505D01*
X119956914Y-93081954D01*
X119984732Y-93136441D01*
X119967201Y-93197553D01*
X119909240Y-93271747D01*
X119824751Y-93346541D01*
X119727638Y-93409454D01*
X119640127Y-93445825D01*
X119492924Y-93470400D01*
X119329717Y-93472603D01*
X119179926Y-93452942D01*
X119124210Y-93436907D01*
X118983545Y-93361072D01*
X118851013Y-93246382D01*
X118747797Y-93112593D01*
X118720390Y-93060237D01*
X118669082Y-92882188D01*
X118658850Y-92685277D01*
X118689402Y-92493720D01*
X118728452Y-92388776D01*
X118837068Y-92226452D01*
X118981691Y-92103954D01*
X119151815Y-92023132D01*
X119336932Y-91985836D01*
X119526537Y-91993916D01*
G37*
G36*
X129906658Y-95468215D02*
G01*
X130116433Y-95506957D01*
X130290975Y-95593898D01*
X130432637Y-95730404D01*
X130483249Y-95803418D01*
X130528269Y-95881869D01*
X130555393Y-95950963D01*
X130569072Y-96030632D01*
X130573754Y-96140806D01*
X130574113Y-96210341D01*
X130572170Y-96342204D01*
X130563372Y-96433986D01*
X130543271Y-96505604D01*
X130507418Y-96576975D01*
X130483249Y-96617089D01*
X130352933Y-96775887D01*
X130189999Y-96884348D01*
X129995561Y-96941810D01*
X129922705Y-96949597D01*
X129766159Y-96948451D01*
X129638068Y-96925641D01*
X129621135Y-96919877D01*
X129430840Y-96820168D01*
X129285107Y-96680641D01*
X129185645Y-96503268D01*
X129147535Y-96373100D01*
X129134092Y-96197976D01*
X129447674Y-96197976D01*
X129458616Y-96343563D01*
X129494720Y-96453173D01*
X129580114Y-96557611D01*
X129701097Y-96627851D01*
X129841299Y-96659789D01*
X129984348Y-96649322D01*
X130096138Y-96603905D01*
X130194611Y-96510994D01*
X130261484Y-96379360D01*
X130288665Y-96225533D01*
X130288889Y-96210165D01*
X130264467Y-96043022D01*
X130195017Y-95909175D01*
X130086263Y-95814749D01*
X129943928Y-95765869D01*
X129868558Y-95760366D01*
X129720257Y-95777980D01*
X129607585Y-95835113D01*
X129516681Y-95937324D01*
X129467393Y-96054025D01*
X129447674Y-96197976D01*
X129134092Y-96197976D01*
X129131094Y-96158926D01*
X129170036Y-95958575D01*
X129260692Y-95779867D01*
X129399391Y-95630625D01*
X129538504Y-95539736D01*
X129638729Y-95492663D01*
X129722445Y-95469229D01*
X129817741Y-95463977D01*
X129906658Y-95468215D01*
G37*
G36*
X125206432Y-98930099D02*
G01*
X125241825Y-98953603D01*
X125254174Y-98992915D01*
X125262867Y-99078790D01*
X125268027Y-99214525D01*
X125269774Y-99403417D01*
X125268230Y-99648763D01*
X125268019Y-99666664D01*
X125259929Y-100338416D01*
X125124823Y-100338416D01*
X125041455Y-100335894D01*
X124999954Y-100318999D01*
X124982142Y-100273736D01*
X124974704Y-100222847D01*
X124959693Y-100107278D01*
X124889200Y-100203089D01*
X124781032Y-100302550D01*
X124640058Y-100363898D01*
X124481883Y-100384551D01*
X124322112Y-100361920D01*
X124211354Y-100315404D01*
X124097216Y-100221074D01*
X124023706Y-100116022D01*
X123998225Y-100064023D01*
X123979817Y-100012370D01*
X123967340Y-99950395D01*
X123959654Y-99867432D01*
X123955618Y-99752815D01*
X123954090Y-99595878D01*
X123953901Y-99463580D01*
X123953901Y-98943461D01*
X124028960Y-98924622D01*
X124119532Y-98917133D01*
X124179078Y-98924622D01*
X124254137Y-98943461D01*
X124254137Y-99381200D01*
X124256624Y-99593718D01*
X124266369Y-99755029D01*
X124286800Y-99873852D01*
X124321346Y-99958906D01*
X124373432Y-100018909D01*
X124446487Y-100062579D01*
X124535071Y-100095796D01*
X124625158Y-100100054D01*
X124732570Y-100071885D01*
X124831305Y-100020436D01*
X124883024Y-99973360D01*
X124906911Y-99938079D01*
X124923728Y-99895961D01*
X124934694Y-99836449D01*
X124941029Y-99748991D01*
X124943951Y-99623033D01*
X124944680Y-99448020D01*
X124944681Y-99439662D01*
X124946789Y-99234954D01*
X124953267Y-99087003D01*
X124964345Y-98992664D01*
X124980255Y-98948791D01*
X124980709Y-98948321D01*
X125042267Y-98919920D01*
X125127410Y-98914047D01*
X125206432Y-98930099D01*
G37*
G36*
X121717543Y-94901556D02*
G01*
X121793006Y-94920496D01*
X121785096Y-95918108D01*
X121777187Y-96915721D01*
X121673429Y-96925590D01*
X121573903Y-96913369D01*
X121512778Y-96855219D01*
X121491630Y-96752643D01*
X121491629Y-96752358D01*
X121491296Y-96675532D01*
X121417116Y-96769630D01*
X121299419Y-96872693D01*
X121147662Y-96935524D01*
X120974971Y-96955028D01*
X120794473Y-96928107D01*
X120772811Y-96921578D01*
X120639310Y-96850408D01*
X120520500Y-96733581D01*
X120429030Y-96585453D01*
X120393599Y-96491235D01*
X120356244Y-96278707D01*
X120362737Y-96134875D01*
X120661688Y-96134875D01*
X120663024Y-96285466D01*
X120703135Y-96428166D01*
X120775095Y-96545032D01*
X120842402Y-96602902D01*
X120955628Y-96645154D01*
X121092194Y-96659099D01*
X121222833Y-96643455D01*
X121280895Y-96622110D01*
X121387220Y-96536131D01*
X121459357Y-96408959D01*
X121491034Y-96252567D01*
X121491962Y-96219246D01*
X121470600Y-96042030D01*
X121408182Y-95905324D01*
X121307211Y-95812033D01*
X121170192Y-95765063D01*
X121096115Y-95759811D01*
X120928051Y-95781127D01*
X120801217Y-95845930D01*
X120714131Y-95955497D01*
X120665313Y-96111108D01*
X120661688Y-96134875D01*
X120362737Y-96134875D01*
X120365509Y-96073456D01*
X120417453Y-95884373D01*
X120508133Y-95720350D01*
X120633609Y-95590279D01*
X120789938Y-95503051D01*
X120838554Y-95487556D01*
X120993515Y-95466038D01*
X121159706Y-95475713D01*
X121311742Y-95513694D01*
X121387422Y-95549981D01*
X121491962Y-95614590D01*
X121491962Y-95267441D01*
X121492365Y-95118816D01*
X121495046Y-95019485D01*
X121502209Y-94958695D01*
X121516059Y-94925693D01*
X121538802Y-94909726D01*
X121567021Y-94901454D01*
X121657440Y-94893995D01*
X121717543Y-94901556D01*
G37*
G36*
X123038737Y-95464784D02*
G01*
X123088305Y-95477760D01*
X123093842Y-95482503D01*
X123094002Y-95518938D01*
X123084589Y-95602897D01*
X123067162Y-95722899D01*
X123043282Y-95867460D01*
X123035729Y-95910340D01*
X122999971Y-96119308D01*
X122977132Y-96277923D01*
X122966994Y-96394425D01*
X122969340Y-96477055D01*
X122983953Y-96534051D01*
X123010614Y-96573655D01*
X123018026Y-96580808D01*
X123098506Y-96619033D01*
X123209819Y-96629736D01*
X123329718Y-96613472D01*
X123435957Y-96570799D01*
X123436718Y-96570337D01*
X123503152Y-96531776D01*
X123544525Y-96511371D01*
X123548536Y-96510402D01*
X123569851Y-96534157D01*
X123604356Y-96592372D01*
X123609744Y-96602629D01*
X123638893Y-96673751D01*
X123633326Y-96720602D01*
X123620029Y-96739930D01*
X123529877Y-96811441D01*
X123400292Y-96868941D01*
X123251200Y-96907478D01*
X123102528Y-96922102D01*
X122974202Y-96907863D01*
X122960526Y-96903787D01*
X122815943Y-96832871D01*
X122716214Y-96725834D01*
X122674825Y-96641646D01*
X122651377Y-96574193D01*
X122639886Y-96514611D01*
X122640289Y-96445732D01*
X122652520Y-96350388D01*
X122673272Y-96229529D01*
X122694833Y-96107184D01*
X122711668Y-96008540D01*
X122721429Y-95947524D01*
X122722931Y-95935117D01*
X122696879Y-95932662D01*
X122630047Y-95944051D01*
X122573265Y-95957548D01*
X122439308Y-95979579D01*
X122316169Y-95977322D01*
X122220948Y-95952267D01*
X122181199Y-95923366D01*
X122163556Y-95864939D01*
X122169292Y-95775796D01*
X122184911Y-95708100D01*
X122210390Y-95679744D01*
X122265052Y-95678894D01*
X122315827Y-95686053D01*
X122476848Y-95687866D01*
X122624589Y-95648302D01*
X122741666Y-95572675D01*
X122763837Y-95549078D01*
X122831991Y-95485905D01*
X122910548Y-95461687D01*
X122959410Y-95459574D01*
X123038737Y-95464784D01*
G37*
G36*
X117905787Y-95514225D02*
G01*
X118064992Y-95602819D01*
X118147598Y-95686845D01*
X118217999Y-95799676D01*
X118271615Y-95926788D01*
X118303870Y-96053655D01*
X118310186Y-96165753D01*
X118285987Y-96248558D01*
X118273428Y-96264208D01*
X118234532Y-96279032D01*
X118149170Y-96289751D01*
X118013453Y-96296616D01*
X117823490Y-96299877D01*
X117714736Y-96300236D01*
X117192072Y-96300236D01*
X117211695Y-96378423D01*
X117273646Y-96513536D01*
X117378217Y-96612752D01*
X117518093Y-96673522D01*
X117685960Y-96693300D01*
X117874503Y-96669538D01*
X117969227Y-96642249D01*
X118054718Y-96615078D01*
X118103985Y-96609836D01*
X118137433Y-96628487D01*
X118165882Y-96661146D01*
X118197263Y-96717118D01*
X118187411Y-96766582D01*
X118130950Y-96817862D01*
X118026240Y-96877378D01*
X117891034Y-96923751D01*
X117725063Y-96948126D01*
X117554079Y-96948801D01*
X117403829Y-96924075D01*
X117388924Y-96919487D01*
X117210581Y-96836872D01*
X117072540Y-96715179D01*
X116996038Y-96606017D01*
X116954147Y-96527417D01*
X116929292Y-96454350D01*
X116917240Y-96366456D01*
X116913755Y-96243373D01*
X116913717Y-96210165D01*
X116927592Y-96028368D01*
X117216188Y-96028368D01*
X117229921Y-96042859D01*
X117269327Y-96052126D01*
X117343116Y-96057314D01*
X117459993Y-96059572D01*
X117618293Y-96060047D01*
X118036120Y-96060047D01*
X118006003Y-95973655D01*
X117933863Y-95850898D01*
X117820686Y-95769907D01*
X117699401Y-95737818D01*
X117527083Y-95742407D01*
X117384740Y-95796330D01*
X117276962Y-95897009D01*
X117219421Y-96007506D01*
X117216188Y-96028368D01*
X116927592Y-96028368D01*
X116930144Y-95994927D01*
X116981909Y-95823302D01*
X117073750Y-95687241D01*
X117210407Y-95578689D01*
X117318676Y-95522144D01*
X117510306Y-95466808D01*
X117711079Y-95464716D01*
X117905787Y-95514225D01*
G37*
G36*
X121777187Y-99347636D02*
G01*
X121777187Y-100338416D01*
X121650212Y-100347618D01*
X121570130Y-100350734D01*
X121530608Y-100334842D01*
X121512317Y-100285304D01*
X121504066Y-100236925D01*
X121484894Y-100117031D01*
X121409793Y-100206284D01*
X121335616Y-100279021D01*
X121256013Y-100336093D01*
X121249688Y-100339494D01*
X121149032Y-100369771D01*
X121017042Y-100381702D01*
X120879509Y-100375446D01*
X120762223Y-100351165D01*
X120726359Y-100336236D01*
X120572009Y-100232313D01*
X120463378Y-100101510D01*
X120396734Y-99936838D01*
X120368345Y-99731310D01*
X120366734Y-99662884D01*
X120367989Y-99605356D01*
X120657033Y-99605356D01*
X120665823Y-99746690D01*
X120701709Y-99873706D01*
X120732698Y-99929021D01*
X120841659Y-100030556D01*
X120978823Y-100089230D01*
X121127666Y-100102028D01*
X121271666Y-100065938D01*
X121324473Y-100036965D01*
X121408602Y-99948938D01*
X121465021Y-99823478D01*
X121490693Y-99677893D01*
X121482586Y-99529489D01*
X121437664Y-99395577D01*
X121437101Y-99394523D01*
X121346817Y-99281270D01*
X121229920Y-99212487D01*
X121098640Y-99186858D01*
X120965212Y-99203065D01*
X120841867Y-99259788D01*
X120740839Y-99355712D01*
X120678514Y-99476243D01*
X120657033Y-99605356D01*
X120367989Y-99605356D01*
X120369855Y-99519832D01*
X120382646Y-99414903D01*
X120408936Y-99326456D01*
X120437613Y-99262373D01*
X120545563Y-99107236D01*
X120691373Y-98991566D01*
X120863937Y-98920076D01*
X121052145Y-98897481D01*
X121232837Y-98924872D01*
X121330493Y-98959869D01*
X121407436Y-98999192D01*
X121435493Y-99021871D01*
X121453362Y-99036221D01*
X121466354Y-99023685D01*
X121475926Y-98976329D01*
X121483535Y-98886220D01*
X121490639Y-98745423D01*
X121491962Y-98714432D01*
X121506974Y-98356856D01*
X121642080Y-98356856D01*
X121777187Y-98356856D01*
X121777187Y-99347636D01*
G37*
G36*
X127031324Y-99347636D02*
G01*
X127031324Y-100338416D01*
X126904349Y-100347618D01*
X126824267Y-100350734D01*
X126784745Y-100334842D01*
X126766454Y-100285304D01*
X126758203Y-100236925D01*
X126739031Y-100117031D01*
X126663930Y-100206284D01*
X126589753Y-100279021D01*
X126510150Y-100336093D01*
X126503825Y-100339494D01*
X126403169Y-100369771D01*
X126271179Y-100381702D01*
X126133646Y-100375446D01*
X126016360Y-100351165D01*
X125980496Y-100336236D01*
X125826146Y-100232313D01*
X125717515Y-100101510D01*
X125650871Y-99936838D01*
X125622482Y-99731310D01*
X125620871Y-99662884D01*
X125622290Y-99597827D01*
X125911058Y-99597827D01*
X125913644Y-99714909D01*
X125956951Y-99869405D01*
X126042891Y-99990623D01*
X126162528Y-100071155D01*
X126306924Y-100103588D01*
X126378537Y-100100400D01*
X126478118Y-100078786D01*
X126564000Y-100045494D01*
X126578610Y-100036965D01*
X126664487Y-99947407D01*
X126722358Y-99816837D01*
X126745841Y-99660262D01*
X126746052Y-99643335D01*
X126722739Y-99470775D01*
X126655891Y-99335534D01*
X126549965Y-99241996D01*
X126409417Y-99194544D01*
X126286835Y-99191583D01*
X126139890Y-99231171D01*
X126024666Y-99317140D01*
X125946583Y-99441892D01*
X125911058Y-99597827D01*
X125622290Y-99597827D01*
X125623992Y-99519832D01*
X125636783Y-99414903D01*
X125663073Y-99326456D01*
X125691750Y-99262373D01*
X125799700Y-99107236D01*
X125945510Y-98991566D01*
X126118074Y-98920076D01*
X126306282Y-98897481D01*
X126486974Y-98924872D01*
X126584630Y-98959869D01*
X126661573Y-98999192D01*
X126689630Y-99021871D01*
X126707499Y-99036221D01*
X126720491Y-99023685D01*
X126730063Y-98976329D01*
X126737672Y-98886220D01*
X126744776Y-98745423D01*
X126746099Y-98714432D01*
X126761111Y-98356856D01*
X126896217Y-98356856D01*
X127031324Y-98356856D01*
X127031324Y-99347636D01*
G37*
G36*
X116463406Y-94901556D02*
G01*
X116538869Y-94920496D01*
X116530959Y-95918108D01*
X116523049Y-96915721D01*
X116419292Y-96925590D01*
X116319766Y-96913369D01*
X116258641Y-96855219D01*
X116237493Y-96752643D01*
X116237492Y-96752358D01*
X116237159Y-96675532D01*
X116162979Y-96769630D01*
X116045493Y-96872369D01*
X115893171Y-96935490D01*
X115718900Y-96955826D01*
X115535564Y-96930208D01*
X115523605Y-96926866D01*
X115400267Y-96863930D01*
X115285208Y-96756067D01*
X115191587Y-96618198D01*
X115139462Y-96491235D01*
X115102107Y-96278707D01*
X115105201Y-96210165D01*
X115413216Y-96210165D01*
X115428182Y-96376875D01*
X115475995Y-96500000D01*
X115561025Y-96588823D01*
X115604124Y-96615577D01*
X115705615Y-96647464D01*
X115833136Y-96657479D01*
X115956769Y-96645159D01*
X116026758Y-96622110D01*
X116133083Y-96536131D01*
X116205220Y-96408959D01*
X116236897Y-96252567D01*
X116237825Y-96219246D01*
X116216463Y-96042030D01*
X116154045Y-95905324D01*
X116053074Y-95812033D01*
X115916055Y-95765063D01*
X115841978Y-95759811D01*
X115673574Y-95779726D01*
X115548319Y-95840579D01*
X115464631Y-95944031D01*
X115420930Y-96091743D01*
X115413216Y-96210165D01*
X115105201Y-96210165D01*
X115111372Y-96073456D01*
X115163316Y-95884373D01*
X115253996Y-95720350D01*
X115379472Y-95590279D01*
X115535801Y-95503051D01*
X115584417Y-95487556D01*
X115723762Y-95466756D01*
X115873955Y-95471043D01*
X116012648Y-95497902D01*
X116117491Y-95544818D01*
X116121980Y-95548040D01*
X116182303Y-95589501D01*
X116219583Y-95609391D01*
X116221597Y-95609693D01*
X116227991Y-95581648D01*
X116233198Y-95505420D01*
X116236661Y-95392873D01*
X116237825Y-95264993D01*
X116238236Y-95116982D01*
X116240955Y-95018223D01*
X116248211Y-94957920D01*
X116262233Y-94925278D01*
X116285250Y-94909501D01*
X116312884Y-94901454D01*
X116403303Y-94893995D01*
X116463406Y-94901556D01*
G37*
G36*
X128478255Y-95519075D02*
G01*
X128608129Y-95616976D01*
X128696887Y-95744704D01*
X128725287Y-95806643D01*
X128745861Y-95867668D01*
X128760206Y-95939534D01*
X128769924Y-96033997D01*
X128776613Y-96162812D01*
X128781873Y-96337734D01*
X128782821Y-96376234D01*
X128786624Y-96573289D01*
X128785307Y-96718040D01*
X128776123Y-96818184D01*
X128756331Y-96881418D01*
X128723186Y-96915438D01*
X128673946Y-96927940D01*
X128605865Y-96926622D01*
X128587142Y-96925164D01*
X128472458Y-96915721D01*
X128456947Y-96435343D01*
X128450169Y-96268282D01*
X128441561Y-96119898D01*
X128431989Y-96001701D01*
X128422322Y-95925201D01*
X128416896Y-95904224D01*
X128351812Y-95831995D01*
X128249209Y-95782502D01*
X128128414Y-95759141D01*
X128008755Y-95765312D01*
X127909562Y-95804410D01*
X127898017Y-95813020D01*
X127848981Y-95859170D01*
X127813758Y-95912685D01*
X127790146Y-95983896D01*
X127775938Y-96083135D01*
X127768929Y-96220733D01*
X127766915Y-96407023D01*
X127766903Y-96427364D01*
X127765725Y-96612142D01*
X127760354Y-96745289D01*
X127748035Y-96835202D01*
X127726013Y-96890281D01*
X127691532Y-96918925D01*
X127641838Y-96929531D01*
X127601773Y-96930733D01*
X127524032Y-96919747D01*
X127472671Y-96894704D01*
X127462765Y-96855993D01*
X127454113Y-96768007D01*
X127446856Y-96641510D01*
X127441136Y-96487262D01*
X127437094Y-96316027D01*
X127434870Y-96138568D01*
X127434607Y-95965646D01*
X127436445Y-95808024D01*
X127440525Y-95676465D01*
X127446988Y-95581730D01*
X127454867Y-95537089D01*
X127495092Y-95505187D01*
X127568678Y-95490257D01*
X127651099Y-95493318D01*
X127717826Y-95515389D01*
X127730875Y-95525626D01*
X127757275Y-95580067D01*
X127768105Y-95653227D01*
X127769307Y-95744799D01*
X127812545Y-95665200D01*
X127865939Y-95603641D01*
X127949411Y-95542439D01*
X127985952Y-95522588D01*
X128156877Y-95468666D01*
X128324408Y-95468567D01*
X128478255Y-95519075D01*
G37*
G36*
X116066794Y-92012098D02*
G01*
X116233208Y-92077550D01*
X116373055Y-92178207D01*
X116474467Y-92310513D01*
X116494103Y-92352127D01*
X116534736Y-92478956D01*
X116555228Y-92604473D01*
X116553343Y-92708705D01*
X116539264Y-92755199D01*
X116524304Y-92777676D01*
X116501247Y-92793983D01*
X116461262Y-92805106D01*
X116395517Y-92812032D01*
X116295179Y-92815747D01*
X116151416Y-92817238D01*
X115981568Y-92817494D01*
X115457210Y-92817494D01*
X115457210Y-92888504D01*
X115482672Y-92978243D01*
X115549350Y-93071273D01*
X115642678Y-93148651D01*
X115668536Y-93163366D01*
X115769803Y-93193776D01*
X115905173Y-93205966D01*
X116051583Y-93200096D01*
X116185970Y-93176330D01*
X116237556Y-93159370D01*
X116321012Y-93131160D01*
X116372690Y-93130733D01*
X116404742Y-93149237D01*
X116445205Y-93210745D01*
X116427208Y-93277589D01*
X116351878Y-93347705D01*
X116269971Y-93395449D01*
X116070436Y-93464391D01*
X115859341Y-93479992D01*
X115652115Y-93442011D01*
X115562293Y-93406459D01*
X115390179Y-93301660D01*
X115268067Y-93170693D01*
X115192287Y-93007410D01*
X115159168Y-92805661D01*
X115156974Y-92727423D01*
X115173669Y-92551721D01*
X115457210Y-92551721D01*
X115485408Y-92561073D01*
X115562709Y-92568891D01*
X115678174Y-92574487D01*
X115820866Y-92577170D01*
X115862529Y-92577305D01*
X116022051Y-92575289D01*
X116148518Y-92569649D01*
X116233239Y-92560999D01*
X116267528Y-92549952D01*
X116267849Y-92548694D01*
X116256334Y-92502170D01*
X116233197Y-92444032D01*
X116158904Y-92347020D01*
X116049709Y-92284599D01*
X115920078Y-92257177D01*
X115784475Y-92265161D01*
X115657365Y-92308957D01*
X115553215Y-92388974D01*
X115525861Y-92424121D01*
X115482576Y-92494206D01*
X115458788Y-92543926D01*
X115457210Y-92551721D01*
X115173669Y-92551721D01*
X115177801Y-92508241D01*
X115241876Y-92328762D01*
X115351593Y-92184688D01*
X115509342Y-92071717D01*
X115526817Y-92062496D01*
X115701732Y-92001017D01*
X115885680Y-91985402D01*
X116066794Y-92012098D01*
G37*
G36*
X124659456Y-95468950D02*
G01*
X124867180Y-95492290D01*
X125024987Y-95543547D01*
X125137085Y-95624637D01*
X125197316Y-95713610D01*
X125230041Y-95802420D01*
X125219535Y-95853722D01*
X125160108Y-95876364D01*
X125090334Y-95879905D01*
X124986198Y-95865567D01*
X124919744Y-95818688D01*
X124919470Y-95818351D01*
X124838875Y-95760236D01*
X124722371Y-95724795D01*
X124590130Y-95713240D01*
X124462322Y-95726786D01*
X124359121Y-95766647D01*
X124336702Y-95783279D01*
X124290599Y-95857158D01*
X124293918Y-95939389D01*
X124345195Y-96007668D01*
X124351714Y-96012111D01*
X124412616Y-96036730D01*
X124513870Y-96063180D01*
X124636154Y-96086612D01*
X124667882Y-96091450D01*
X124803363Y-96116657D01*
X124933136Y-96150380D01*
X125032132Y-96185951D01*
X125043177Y-96191236D01*
X125166717Y-96280702D01*
X125241169Y-96392150D01*
X125268050Y-96515239D01*
X125248875Y-96639630D01*
X125185163Y-96754981D01*
X125078431Y-96850951D01*
X124936978Y-96915227D01*
X124788070Y-96944363D01*
X124613080Y-96956397D01*
X124441766Y-96950473D01*
X124329196Y-96932682D01*
X124178591Y-96878157D01*
X124061681Y-96799826D01*
X123999444Y-96721550D01*
X123959797Y-96622207D01*
X123963962Y-96558537D01*
X124001392Y-96528626D01*
X124114128Y-96512240D01*
X124221824Y-96553765D01*
X124279434Y-96600473D01*
X124343512Y-96651531D01*
X124415480Y-96682354D01*
X124510205Y-96696021D01*
X124642555Y-96695609D01*
X124719503Y-96691580D01*
X124845573Y-96672497D01*
X124923371Y-96631001D01*
X124959322Y-96571615D01*
X124962751Y-96486421D01*
X124911522Y-96421332D01*
X124804431Y-96375149D01*
X124749636Y-96362461D01*
X124618464Y-96336995D01*
X124474030Y-96309093D01*
X124411761Y-96297113D01*
X124230953Y-96247303D01*
X124102914Y-96175104D01*
X124023133Y-96076150D01*
X123987100Y-95946075D01*
X123983924Y-95882933D01*
X124010024Y-95737279D01*
X124086600Y-95621318D01*
X124211063Y-95536636D01*
X124380826Y-95484819D01*
X124593301Y-95467451D01*
X124659456Y-95468950D01*
G37*
G36*
X123055219Y-92004391D02*
G01*
X123221114Y-92058983D01*
X123355870Y-92144089D01*
X123389306Y-92176837D01*
X123457492Y-92275360D01*
X123511418Y-92396516D01*
X123547484Y-92524565D01*
X123562091Y-92643766D01*
X123551640Y-92738376D01*
X123527565Y-92781466D01*
X123488515Y-92796341D01*
X123402841Y-92807082D01*
X123266675Y-92813939D01*
X123076152Y-92817162D01*
X122972127Y-92817494D01*
X122781840Y-92818112D01*
X122643645Y-92820440D01*
X122549595Y-92825191D01*
X122491744Y-92833076D01*
X122462146Y-92844807D01*
X122452852Y-92861096D01*
X122452719Y-92864020D01*
X122476251Y-92954737D01*
X122536660Y-93052167D01*
X122618657Y-93133276D01*
X122641824Y-93148969D01*
X122750875Y-93189405D01*
X122893845Y-93207041D01*
X123048974Y-93201562D01*
X123194501Y-93172649D01*
X123237326Y-93157665D01*
X123315741Y-93128460D01*
X123360880Y-93124622D01*
X123395047Y-93148791D01*
X123420821Y-93179393D01*
X123479013Y-93251258D01*
X123387797Y-93332759D01*
X123260853Y-93411094D01*
X123097763Y-93460550D01*
X122916232Y-93478813D01*
X122733966Y-93463567D01*
X122619585Y-93433215D01*
X122437275Y-93339818D01*
X122298987Y-93206739D01*
X122206421Y-93036895D01*
X122161278Y-92833204D01*
X122160592Y-92646053D01*
X122182070Y-92541102D01*
X122470505Y-92541102D01*
X122480459Y-92557602D01*
X122512808Y-92568138D01*
X122576468Y-92574042D01*
X122680355Y-92576650D01*
X122833384Y-92577294D01*
X122875117Y-92577305D01*
X123291894Y-92577305D01*
X123260524Y-92494795D01*
X123220052Y-92413822D01*
X123181320Y-92359429D01*
X123097560Y-92302274D01*
X122980426Y-92264865D01*
X122855135Y-92253804D01*
X122800245Y-92259653D01*
X122703001Y-92295785D01*
X122603458Y-92360327D01*
X122521041Y-92437936D01*
X122475175Y-92513270D01*
X122474031Y-92517304D01*
X122470505Y-92541102D01*
X122182070Y-92541102D01*
X122203352Y-92437107D01*
X122294179Y-92263284D01*
X122430628Y-92127482D01*
X122610254Y-92032599D01*
X122701742Y-92004707D01*
X122876117Y-91984802D01*
X123055219Y-92004391D01*
G37*
G36*
X128389878Y-98932836D02*
G01*
X128543995Y-99009360D01*
X128677247Y-99125293D01*
X128765845Y-99252963D01*
X128809923Y-99379208D01*
X128833427Y-99539755D01*
X128836300Y-99713201D01*
X128818487Y-99878142D01*
X128779932Y-100013175D01*
X128767895Y-100038180D01*
X128653607Y-100200882D01*
X128511800Y-100310879D01*
X128338620Y-100370465D01*
X128187234Y-100383451D01*
X128014624Y-100367602D01*
X127882476Y-100316985D01*
X127779332Y-100226998D01*
X127770501Y-100216076D01*
X127708749Y-100137572D01*
X127700297Y-100508207D01*
X127691844Y-100878841D01*
X127570660Y-100887760D01*
X127489100Y-100888536D01*
X127435107Y-100879490D01*
X127428048Y-100875250D01*
X127422768Y-100841002D01*
X127417961Y-100754123D01*
X127413791Y-100622030D01*
X127410426Y-100452137D01*
X127408031Y-100251861D01*
X127406772Y-100028618D01*
X127406619Y-99916757D01*
X127406716Y-99643095D01*
X127406923Y-99598330D01*
X127705995Y-99598330D01*
X127715748Y-99748955D01*
X127767611Y-99891870D01*
X127861627Y-100012665D01*
X127931256Y-100064342D01*
X127992080Y-100093202D01*
X128103902Y-100103121D01*
X128229672Y-100086040D01*
X128338363Y-100047159D01*
X128364776Y-100030738D01*
X128467889Y-99920769D01*
X128527875Y-99782644D01*
X128544315Y-99630417D01*
X128516791Y-99478141D01*
X128444887Y-99339869D01*
X128387237Y-99275769D01*
X128280344Y-99213952D01*
X128146782Y-99188429D01*
X128009131Y-99201143D01*
X127919341Y-99235519D01*
X127808797Y-99328079D01*
X127737346Y-99453527D01*
X127705995Y-99598330D01*
X127406923Y-99598330D01*
X127407732Y-99423627D01*
X127410755Y-99252499D01*
X127416874Y-99123860D01*
X127427175Y-99031856D01*
X127442747Y-98970634D01*
X127464677Y-98934342D01*
X127494054Y-98917125D01*
X127531966Y-98913132D01*
X127579500Y-98916508D01*
X127592306Y-98917750D01*
X127662141Y-98932330D01*
X127694515Y-98971328D01*
X127706856Y-99028330D01*
X127721867Y-99129355D01*
X127781844Y-99062786D01*
X127910879Y-98960696D01*
X128062466Y-98906406D01*
X128225750Y-98897819D01*
X128389878Y-98932836D01*
G37*
G36*
X126532392Y-95474911D02*
G01*
X126704051Y-95531452D01*
X126851902Y-95625135D01*
X126958922Y-95753578D01*
X127033363Y-95926771D01*
X127034916Y-95931887D01*
X127067759Y-96050634D01*
X127081397Y-96140729D01*
X127069830Y-96206113D01*
X127027057Y-96250723D01*
X126947078Y-96278498D01*
X126823892Y-96293378D01*
X126651498Y-96299300D01*
X126473742Y-96300236D01*
X126275904Y-96300786D01*
X126131918Y-96304321D01*
X126035585Y-96313674D01*
X125980711Y-96331677D01*
X125961099Y-96361160D01*
X125970553Y-96404956D01*
X126002876Y-96465895D01*
X126026301Y-96504703D01*
X126119272Y-96602255D01*
X126251350Y-96664931D01*
X126411265Y-96690532D01*
X126587744Y-96676857D01*
X126721686Y-96640407D01*
X126811653Y-96612003D01*
X126866706Y-96607762D01*
X126906426Y-96626618D01*
X126910782Y-96630126D01*
X126952553Y-96691806D01*
X126942090Y-96756725D01*
X126886614Y-96819719D01*
X126793347Y-96875623D01*
X126669512Y-96919275D01*
X126522330Y-96945511D01*
X126463745Y-96949755D01*
X126345177Y-96951093D01*
X126241082Y-96945486D01*
X126175456Y-96934488D01*
X125994458Y-96854932D01*
X125858052Y-96745096D01*
X125754055Y-96594254D01*
X125727818Y-96540425D01*
X125683414Y-96392354D01*
X125665599Y-96218737D01*
X125674575Y-96044099D01*
X125676139Y-96037529D01*
X125965597Y-96037529D01*
X125993752Y-96045760D01*
X126071016Y-96052642D01*
X126186453Y-96057567D01*
X126329129Y-96059928D01*
X126370804Y-96060047D01*
X126534354Y-96059403D01*
X126647134Y-96056658D01*
X126718413Y-96050591D01*
X126757462Y-96039982D01*
X126773549Y-96023610D01*
X126776123Y-96006680D01*
X126748398Y-95915159D01*
X126674413Y-95832639D01*
X126567946Y-95768896D01*
X126442779Y-95733706D01*
X126385815Y-95729787D01*
X126242402Y-95754145D01*
X126115421Y-95820301D01*
X126026301Y-95915628D01*
X125987230Y-95985002D01*
X125966567Y-96031999D01*
X125965597Y-96037529D01*
X125676139Y-96037529D01*
X125710541Y-95892969D01*
X125722288Y-95864893D01*
X125828863Y-95702028D01*
X125973561Y-95578064D01*
X126145983Y-95496535D01*
X126335726Y-95460974D01*
X126532392Y-95474911D01*
G37*
G36*
X117705337Y-91988794D02*
G01*
X117875467Y-92019017D01*
X118024543Y-92074638D01*
X118138693Y-92154855D01*
X118176226Y-92200660D01*
X118215905Y-92293808D01*
X118207866Y-92365641D01*
X118162207Y-92411065D01*
X118089025Y-92424985D01*
X117998418Y-92402305D01*
X117901824Y-92339112D01*
X117838527Y-92288867D01*
X117779257Y-92261268D01*
X117702187Y-92249827D01*
X117595350Y-92248000D01*
X117451313Y-92256502D01*
X117357610Y-92283441D01*
X117306145Y-92333409D01*
X117288822Y-92410997D01*
X117288652Y-92421934D01*
X117296847Y-92484367D01*
X117327898Y-92529238D01*
X117391509Y-92561940D01*
X117497380Y-92587862D01*
X117623454Y-92607973D01*
X117813629Y-92639618D01*
X117955536Y-92675385D01*
X118060954Y-92719369D01*
X118141664Y-92775667D01*
X118162826Y-92795577D01*
X118215843Y-92858381D01*
X118241657Y-92924685D01*
X118249275Y-93020190D01*
X118249409Y-93042677D01*
X118227429Y-93194444D01*
X118159136Y-93310754D01*
X118041000Y-93396308D01*
X117958424Y-93430297D01*
X117824562Y-93460065D01*
X117659445Y-93474189D01*
X117487063Y-93472580D01*
X117331407Y-93455151D01*
X117243617Y-93432918D01*
X117133337Y-93375599D01*
X117039641Y-93294162D01*
X116976828Y-93203682D01*
X116958392Y-93132268D01*
X116964122Y-93086101D01*
X116992065Y-93064315D01*
X117058351Y-93057937D01*
X117092442Y-93057683D01*
X117186657Y-93065127D01*
X117239869Y-93091657D01*
X117258083Y-93116711D01*
X117317009Y-93170145D01*
X117416789Y-93207306D01*
X117540163Y-93227043D01*
X117669874Y-93228206D01*
X117788662Y-93209644D01*
X117879270Y-93170208D01*
X117893243Y-93159039D01*
X117939585Y-93086139D01*
X117944209Y-93004561D01*
X117906231Y-92939326D01*
X117859464Y-92919148D01*
X117768458Y-92893760D01*
X117648323Y-92867062D01*
X117566743Y-92851721D01*
X117427051Y-92823073D01*
X117298394Y-92789346D01*
X117199951Y-92755886D01*
X117166836Y-92740235D01*
X117054327Y-92644885D01*
X116989414Y-92523735D01*
X116973694Y-92389583D01*
X117008763Y-92255224D01*
X117091689Y-92137929D01*
X117207328Y-92058537D01*
X117357397Y-92007752D01*
X117528023Y-91984772D01*
X117705337Y-91988794D01*
G37*
G36*
X119520742Y-98909475D02*
G01*
X119672339Y-98940091D01*
X119789064Y-98998441D01*
X119874929Y-99090001D01*
X119933949Y-99220242D01*
X119970135Y-99394640D01*
X119987500Y-99618668D01*
X119990606Y-99801820D01*
X119992946Y-99951798D01*
X120000667Y-100052111D01*
X120015125Y-100113010D01*
X120035815Y-100143262D01*
X120074345Y-100209053D01*
X120074984Y-100290343D01*
X120044823Y-100347423D01*
X119975043Y-100380186D01*
X119887915Y-100374776D01*
X119803301Y-100339100D01*
X119741061Y-100281066D01*
X119720567Y-100218321D01*
X119706133Y-100177683D01*
X119665403Y-100188287D01*
X119612632Y-100237477D01*
X119543416Y-100295125D01*
X119458825Y-100342560D01*
X119364449Y-100366763D01*
X119237381Y-100379352D01*
X119098675Y-100380467D01*
X118969383Y-100370247D01*
X118870557Y-100348832D01*
X118846677Y-100338509D01*
X118738764Y-100247496D01*
X118675069Y-100116658D01*
X118656359Y-99972908D01*
X118662466Y-99928694D01*
X118945879Y-99928694D01*
X118954177Y-99994571D01*
X119012894Y-100068814D01*
X119013647Y-100069568D01*
X119105632Y-100123417D01*
X119230085Y-100145145D01*
X119367589Y-100132858D01*
X119440894Y-100111239D01*
X119567460Y-100039871D01*
X119640822Y-99942467D01*
X119660520Y-99840639D01*
X119660520Y-99728625D01*
X119472872Y-99742099D01*
X119298516Y-99755929D01*
X119174049Y-99769829D01*
X119089355Y-99786068D01*
X119034314Y-99806918D01*
X118998810Y-99834648D01*
X118985451Y-99851477D01*
X118945879Y-99928694D01*
X118662466Y-99928694D01*
X118678157Y-99815100D01*
X118747817Y-99693170D01*
X118866188Y-99605640D01*
X118867594Y-99604946D01*
X118933724Y-99585020D01*
X119044786Y-99564470D01*
X119185714Y-99545179D01*
X119341445Y-99529032D01*
X119496915Y-99517913D01*
X119592967Y-99514224D01*
X119637452Y-99504663D01*
X119656702Y-99467326D01*
X119660520Y-99397325D01*
X119640140Y-99286180D01*
X119576140Y-99211356D01*
X119464230Y-99168793D01*
X119410098Y-99160440D01*
X119262346Y-99161314D01*
X119137285Y-99195625D01*
X119048391Y-99258623D01*
X119022909Y-99296851D01*
X118965123Y-99368576D01*
X118879880Y-99391053D01*
X118802471Y-99379746D01*
X118744304Y-99345707D01*
X118729787Y-99285526D01*
X118756893Y-99152917D01*
X118835645Y-99045710D01*
X118962197Y-98966367D01*
X119132702Y-98917349D01*
X119330260Y-98901121D01*
X119520742Y-98909475D01*
G37*
G36*
X126534942Y-92001121D02*
G01*
X126681626Y-92030289D01*
X126791052Y-92085027D01*
X126873440Y-92169805D01*
X126918735Y-92245901D01*
X126946385Y-92306671D01*
X126965342Y-92368579D01*
X126977202Y-92444543D01*
X126983563Y-92547482D01*
X126986021Y-92690311D01*
X126986288Y-92792340D01*
X126987256Y-92961275D01*
X126990864Y-93079723D01*
X126998171Y-93157221D01*
X127010235Y-93203308D01*
X127028115Y-93227523D01*
X127035077Y-93232121D01*
X127071898Y-93281926D01*
X127082477Y-93356042D01*
X127065796Y-93424798D01*
X127042583Y-93450945D01*
X126959826Y-93472417D01*
X126867012Y-93453143D01*
X126783304Y-93403150D01*
X126727869Y-93332463D01*
X126716075Y-93280131D01*
X126707272Y-93256180D01*
X126675302Y-93273441D01*
X126633510Y-93312993D01*
X126550543Y-93381261D01*
X126460551Y-93434459D01*
X126454333Y-93437182D01*
X126349045Y-93463672D01*
X126211481Y-93474994D01*
X126067029Y-93471230D01*
X125941080Y-93452463D01*
X125887879Y-93435338D01*
X125769482Y-93359518D01*
X125697099Y-93251831D01*
X125666753Y-93105498D01*
X125665248Y-93055938D01*
X125665917Y-93042189D01*
X125980496Y-93042189D01*
X125988463Y-93127207D01*
X126019686Y-93176393D01*
X126055555Y-93198966D01*
X126188142Y-93234076D01*
X126351130Y-93223440D01*
X126418069Y-93207679D01*
X126547977Y-93143572D01*
X126637741Y-93038890D01*
X126676383Y-92925490D01*
X126694360Y-92814709D01*
X126412487Y-92834676D01*
X126241407Y-92849636D01*
X126121644Y-92869025D01*
X126044471Y-92897037D01*
X126001158Y-92937865D01*
X125982976Y-92995702D01*
X125980496Y-93042189D01*
X125665917Y-93042189D01*
X125670717Y-92943583D01*
X125691927Y-92865888D01*
X125736085Y-92798078D01*
X125742499Y-92790341D01*
X125797523Y-92736553D01*
X125866055Y-92696196D01*
X125958379Y-92666457D01*
X126084778Y-92644525D01*
X126255536Y-92627589D01*
X126366446Y-92619746D01*
X126692349Y-92598712D01*
X126672797Y-92475420D01*
X126645845Y-92370093D01*
X126597162Y-92304900D01*
X126513646Y-92269080D01*
X126402503Y-92253442D01*
X126235761Y-92256371D01*
X126113138Y-92295820D01*
X126036863Y-92371000D01*
X126029287Y-92385900D01*
X125999198Y-92433359D01*
X125953487Y-92452357D01*
X125870694Y-92451615D01*
X125868027Y-92451424D01*
X125776314Y-92434009D01*
X125733665Y-92393566D01*
X125736674Y-92322258D01*
X125772490Y-92231724D01*
X125843730Y-92128239D01*
X125948116Y-92056089D01*
X126092668Y-92012327D01*
X126284407Y-91994003D01*
X126340780Y-91993051D01*
X126534942Y-92001121D01*
G37*
G36*
X125063671Y-91305084D02*
G01*
X125136104Y-91337444D01*
X125147615Y-91344463D01*
X125264385Y-91450068D01*
X125336851Y-91585985D01*
X125365565Y-91742603D01*
X125351074Y-91910311D01*
X125293930Y-92079497D01*
X125194681Y-92240549D01*
X125089938Y-92352947D01*
X125010807Y-92413909D01*
X124905921Y-92480993D01*
X124791503Y-92545409D01*
X124683777Y-92598366D01*
X124598967Y-92631074D01*
X124565091Y-92637328D01*
X124527116Y-92659132D01*
X124504153Y-92727973D01*
X124494736Y-92849092D01*
X124494326Y-92890355D01*
X124500966Y-92998061D01*
X124524860Y-93067100D01*
X124557525Y-93105571D01*
X124642869Y-93147712D01*
X124761111Y-93161526D01*
X124892192Y-93146991D01*
X125011991Y-93106097D01*
X125114524Y-93069396D01*
X125183448Y-93079242D01*
X125224925Y-93137196D01*
X125232363Y-93161870D01*
X125236590Y-93232088D01*
X125204053Y-93288711D01*
X125126947Y-93339849D01*
X125015878Y-93386809D01*
X124820091Y-93437010D01*
X124629007Y-93443301D01*
X124458570Y-93405651D01*
X124418289Y-93388012D01*
X124294847Y-93300700D01*
X124217438Y-93180928D01*
X124182802Y-93022834D01*
X124180194Y-92960141D01*
X124176621Y-92867378D01*
X124168515Y-92804710D01*
X124160227Y-92787505D01*
X124122935Y-92798090D01*
X124053145Y-92824512D01*
X124029121Y-92834373D01*
X123925391Y-92865489D01*
X123861734Y-92853933D01*
X123835066Y-92798781D01*
X123833806Y-92775856D01*
X123841572Y-92694519D01*
X123872776Y-92637286D01*
X123939276Y-92591358D01*
X124046464Y-92546349D01*
X124117607Y-92520103D01*
X124168800Y-92496656D01*
X124204835Y-92466141D01*
X124230503Y-92418691D01*
X124243045Y-92372348D01*
X124546557Y-92372348D01*
X124666550Y-92311131D01*
X124768417Y-92251428D01*
X124866137Y-92182496D01*
X124881703Y-92169844D01*
X124995545Y-92043913D01*
X125054211Y-91900674D01*
X125064775Y-91793039D01*
X125045986Y-91672410D01*
X124993163Y-91591259D01*
X124911626Y-91557106D01*
X124897447Y-91556501D01*
X124807923Y-91567622D01*
X124740446Y-91606237D01*
X124689909Y-91680229D01*
X124651204Y-91797477D01*
X124619225Y-91965862D01*
X124615306Y-91991844D01*
X124596390Y-92114824D01*
X124578510Y-92222239D01*
X124565026Y-92294081D01*
X124563207Y-92302190D01*
X124546557Y-92372348D01*
X124243045Y-92372348D01*
X124250597Y-92344442D01*
X124269907Y-92233527D01*
X124293226Y-92076079D01*
X124301192Y-92021867D01*
X124342419Y-91789335D01*
X124392121Y-91610277D01*
X124455199Y-91478227D01*
X124536557Y-91386719D01*
X124641096Y-91329286D01*
X124773720Y-91299462D01*
X124853938Y-91292791D01*
X124977101Y-91291517D01*
X125063671Y-91305084D01*
G37*
G36*
X117828192Y-98917007D02*
G01*
X117955906Y-98955470D01*
X117962247Y-98958534D01*
X118046597Y-99005040D01*
X118109026Y-99054952D01*
X118153213Y-99118087D01*
X118182837Y-99204260D01*
X118201574Y-99323286D01*
X118213104Y-99484983D01*
X118219385Y-99644728D01*
X118226330Y-99826354D01*
X118234233Y-99957453D01*
X118244356Y-100047549D01*
X118257959Y-100106161D01*
X118276301Y-100142812D01*
X118286938Y-100155179D01*
X118335313Y-100233862D01*
X118330363Y-100307101D01*
X118278273Y-100361442D01*
X118185228Y-100383432D01*
X118181992Y-100383451D01*
X118099689Y-100361270D01*
X118020375Y-100306255D01*
X117964133Y-100235697D01*
X117949172Y-100182982D01*
X117944115Y-100152318D01*
X117922668Y-100169028D01*
X117902153Y-100197031D01*
X117799003Y-100292769D01*
X117649195Y-100355015D01*
X117456927Y-100382203D01*
X117402437Y-100383339D01*
X117261493Y-100377605D01*
X117161201Y-100358271D01*
X117087450Y-100324620D01*
X116983721Y-100230096D01*
X116920893Y-100107440D01*
X116899078Y-99970939D01*
X116905551Y-99925331D01*
X117198790Y-99925331D01*
X117206992Y-100008890D01*
X117258629Y-100083215D01*
X117335354Y-100124335D01*
X117447887Y-100142982D01*
X117576040Y-100138362D01*
X117699621Y-100109682D01*
X117721036Y-100101398D01*
X117836333Y-100025865D01*
X117903461Y-99919077D01*
X117919149Y-99822748D01*
X117919149Y-99725760D01*
X117761525Y-99740247D01*
X117633292Y-99751970D01*
X117499286Y-99764131D01*
X117457171Y-99767929D01*
X117328899Y-99796879D01*
X117241099Y-99852003D01*
X117198790Y-99925331D01*
X116905551Y-99925331D01*
X116918387Y-99834881D01*
X116978934Y-99713553D01*
X117080829Y-99621244D01*
X117081936Y-99620587D01*
X117153852Y-99594296D01*
X117272141Y-99568872D01*
X117423133Y-99546207D01*
X117593163Y-99528193D01*
X117768564Y-99516721D01*
X117851596Y-99514074D01*
X117898242Y-99503095D01*
X117916782Y-99461092D01*
X117919149Y-99411009D01*
X117901928Y-99317243D01*
X117861754Y-99238373D01*
X117824288Y-99200750D01*
X117777057Y-99179314D01*
X117703211Y-99169688D01*
X117588889Y-99167494D01*
X117473710Y-99169569D01*
X117401684Y-99178883D01*
X117355974Y-99200067D01*
X117319742Y-99237753D01*
X117316034Y-99242553D01*
X117250970Y-99324938D01*
X117205830Y-99369937D01*
X117165287Y-99388772D01*
X117114012Y-99392667D01*
X117111003Y-99392671D01*
X117021422Y-99375063D01*
X116979362Y-99321240D01*
X116983784Y-99229707D01*
X116987768Y-99214788D01*
X117024975Y-99117712D01*
X117080763Y-99047866D01*
X117172010Y-98986445D01*
X117211585Y-98965432D01*
X117337167Y-98923393D01*
X117496606Y-98901173D01*
X117667687Y-98898976D01*
X117828192Y-98917007D01*
G37*
G36*
X113311308Y-90211464D02*
G01*
X113340416Y-90216246D01*
X113345864Y-90223207D01*
X113350864Y-90241353D01*
X113355432Y-90273111D01*
X113359589Y-90320910D01*
X113363354Y-90387178D01*
X113366745Y-90474343D01*
X113369780Y-90584834D01*
X113372480Y-90721079D01*
X113374863Y-90885507D01*
X113376947Y-91080546D01*
X113378751Y-91308625D01*
X113380296Y-91572171D01*
X113381598Y-91873613D01*
X113382677Y-92215380D01*
X113383553Y-92599900D01*
X113384243Y-93029601D01*
X113384767Y-93506912D01*
X113385144Y-94034261D01*
X113385392Y-94614077D01*
X113385531Y-95248787D01*
X113385579Y-95940821D01*
X113385579Y-96029081D01*
X113385579Y-101824586D01*
X113032801Y-101821360D01*
X112857158Y-101816220D01*
X112669455Y-101804991D01*
X112497134Y-101789556D01*
X112409138Y-101778565D01*
X111825832Y-101663736D01*
X111264163Y-101493439D01*
X110726680Y-101268973D01*
X110215931Y-100991637D01*
X109734465Y-100662731D01*
X109284830Y-100283555D01*
X109076103Y-100078981D01*
X108826031Y-99811765D01*
X108614851Y-99562012D01*
X108431460Y-99313927D01*
X108264755Y-99051714D01*
X108103632Y-98759578D01*
X107992185Y-98536997D01*
X107763995Y-97999959D01*
X107593085Y-97451079D01*
X107478786Y-96894242D01*
X107420427Y-96333334D01*
X107418290Y-95945035D01*
X107742526Y-95945035D01*
X107749349Y-96263547D01*
X107768880Y-96579282D01*
X107800339Y-96873469D01*
X107842945Y-97127334D01*
X107843080Y-97127973D01*
X107989702Y-97680889D01*
X108190395Y-98211768D01*
X108442511Y-98716812D01*
X108743398Y-99192226D01*
X109090407Y-99634212D01*
X109480887Y-100038974D01*
X109912189Y-100402715D01*
X110328799Y-100689219D01*
X110798531Y-100948630D01*
X111297298Y-101163466D01*
X111813843Y-101329926D01*
X112336907Y-101444213D01*
X112707090Y-101491693D01*
X112832203Y-101502949D01*
X112936297Y-101512464D01*
X113003586Y-101518787D01*
X113017789Y-101520221D01*
X113022555Y-101510102D01*
X113026925Y-101477198D01*
X113030916Y-101419322D01*
X113034541Y-101334291D01*
X113037816Y-101219921D01*
X113040756Y-101074026D01*
X113043375Y-100894424D01*
X113045690Y-100678928D01*
X113047713Y-100425356D01*
X113049461Y-100131521D01*
X113050949Y-99795241D01*
X113052191Y-99414331D01*
X113053202Y-98986605D01*
X113053997Y-98509881D01*
X113054592Y-97981973D01*
X113055000Y-97400696D01*
X113055238Y-96763868D01*
X113055319Y-96069302D01*
X113055319Y-96027462D01*
X113055319Y-90530574D01*
X112822636Y-90550472D01*
X112677172Y-90565507D01*
X112506095Y-90586993D01*
X112342875Y-90610677D01*
X112319740Y-90614384D01*
X111774444Y-90732836D01*
X111250204Y-90905288D01*
X110750134Y-91128482D01*
X110277345Y-91399163D01*
X109834950Y-91714073D01*
X109426063Y-92069956D01*
X109053795Y-92463554D01*
X108721260Y-92891611D01*
X108431570Y-93350869D01*
X108187837Y-93838073D01*
X107993175Y-94349964D01*
X107850695Y-94883287D01*
X107770132Y-95374769D01*
X107749194Y-95642518D01*
X107742526Y-95945035D01*
X107418290Y-95945035D01*
X107417339Y-95772239D01*
X107468851Y-95214843D01*
X107574294Y-94665032D01*
X107732996Y-94126690D01*
X107944287Y-93603703D01*
X108207499Y-93099957D01*
X108521959Y-92619337D01*
X108886999Y-92165727D01*
X109136724Y-91901457D01*
X109550787Y-91529901D01*
X110005806Y-91196755D01*
X110493710Y-90906299D01*
X111006428Y-90662811D01*
X111535890Y-90470573D01*
X112074025Y-90333863D01*
X112104183Y-90327950D01*
X112240688Y-90304773D01*
X112403797Y-90282026D01*
X112582265Y-90260724D01*
X112764843Y-90241884D01*
X112940284Y-90226521D01*
X113097340Y-90215653D01*
X113224764Y-90210295D01*
X113311308Y-90211464D01*
G37*
D13*
%TO.C,C2*%
X73960000Y-77807621D02*
X71778000Y-77807621D01*
X73960000Y-77847621D02*
X71782000Y-77847621D01*
X73960000Y-77887621D02*
X71785000Y-77887621D01*
X73960000Y-77927621D02*
X71789000Y-77927621D01*
X73960000Y-77967621D02*
X71794000Y-77967621D01*
X73960000Y-78007621D02*
X71799000Y-78007621D01*
X73960000Y-78047621D02*
X71805000Y-78047621D01*
X73960000Y-78087621D02*
X71811000Y-78087621D01*
X73960000Y-78127621D02*
X71818000Y-78127621D01*
X73960000Y-78167621D02*
X71825000Y-78167621D01*
X73960000Y-78207621D02*
X71833000Y-78207621D01*
X73960000Y-78247621D02*
X71841000Y-78247621D01*
X73960000Y-78288621D02*
X71850000Y-78288621D01*
X73960000Y-78328621D02*
X71859000Y-78328621D01*
X73960000Y-78368621D02*
X71869000Y-78368621D01*
X73960000Y-78408621D02*
X71879000Y-78408621D01*
X73960000Y-78448621D02*
X71890000Y-78448621D01*
X73960000Y-78488621D02*
X71902000Y-78488621D01*
X73960000Y-78528621D02*
X71914000Y-78528621D01*
X73960000Y-78568621D02*
X71926000Y-78568621D01*
X73960000Y-78608621D02*
X71939000Y-78608621D01*
X73960000Y-78648621D02*
X71953000Y-78648621D01*
X73960000Y-78688621D02*
X71967000Y-78688621D01*
X73960000Y-78728621D02*
X71982000Y-78728621D01*
X73960000Y-78768621D02*
X71998000Y-78768621D01*
X73960000Y-78808621D02*
X72014000Y-78808621D01*
X73960000Y-78848621D02*
X72030000Y-78848621D01*
X73960000Y-78888621D02*
X72048000Y-78888621D01*
X73960000Y-78928621D02*
X72066000Y-78928621D01*
X73960000Y-78968621D02*
X72084000Y-78968621D01*
X73960000Y-79008621D02*
X72104000Y-79008621D01*
X73960000Y-79048621D02*
X72124000Y-79048621D01*
X73960000Y-79088621D02*
X72144000Y-79088621D01*
X73960000Y-79128621D02*
X72166000Y-79128621D01*
X73960000Y-79168621D02*
X72188000Y-79168621D01*
X73960000Y-79208621D02*
X72210000Y-79208621D01*
X73960000Y-79248621D02*
X72234000Y-79248621D01*
X73960000Y-79288621D02*
X72258000Y-79288621D01*
X73960000Y-79328621D02*
X72284000Y-79328621D01*
X73960000Y-79368621D02*
X72310000Y-79368621D01*
X73960000Y-79408621D02*
X72336000Y-79408621D01*
X73960000Y-79448621D02*
X72364000Y-79448621D01*
X73960000Y-79488621D02*
X72393000Y-79488621D01*
X73960000Y-79528621D02*
X72422000Y-79528621D01*
X73960000Y-79568621D02*
X72452000Y-79568621D01*
X73960000Y-79608621D02*
X72484000Y-79608621D01*
X73960000Y-79648621D02*
X72516000Y-79648621D01*
X73960000Y-79688621D02*
X72550000Y-79688621D01*
X73960000Y-79728621D02*
X72584000Y-79728621D01*
X73960000Y-79768621D02*
X72620000Y-79768621D01*
X73960000Y-79808621D02*
X72657000Y-79808621D01*
X73960000Y-79848621D02*
X72695000Y-79848621D01*
X75402000Y-80808621D02*
X74598000Y-80808621D01*
X75633000Y-80768621D02*
X74367000Y-80768621D01*
X75802000Y-80728621D02*
X74198000Y-80728621D01*
X75940000Y-80688621D02*
X74060000Y-80688621D01*
X76059000Y-80648621D02*
X73941000Y-80648621D01*
X76165000Y-80608621D02*
X73835000Y-80608621D01*
X76262000Y-80568621D02*
X73738000Y-80568621D01*
X76350000Y-80528621D02*
X73650000Y-80528621D01*
X76432000Y-80488621D02*
X73568000Y-80488621D01*
X76509000Y-80448621D02*
X73491000Y-80448621D01*
X76581000Y-80408621D02*
X73419000Y-80408621D01*
X76650000Y-80368621D02*
X73350000Y-80368621D01*
X76714000Y-80328621D02*
X73286000Y-80328621D01*
X76776000Y-80288621D02*
X73224000Y-80288621D01*
X76834000Y-80248621D02*
X73166000Y-80248621D01*
X76839000Y-74067380D02*
X76839000Y-74697380D01*
X76890000Y-80208621D02*
X73110000Y-80208621D01*
X76944000Y-80168621D02*
X73056000Y-80168621D01*
X76995000Y-80128621D02*
X73005000Y-80128621D01*
X77044000Y-80088621D02*
X72956000Y-80088621D01*
X77092000Y-80048621D02*
X72908000Y-80048621D01*
X77137000Y-80008621D02*
X72863000Y-80008621D01*
X77154000Y-74382380D02*
X76524000Y-74382380D01*
X77182000Y-79968621D02*
X72818000Y-79968621D01*
X77224000Y-79928621D02*
X72776000Y-79928621D01*
X77265000Y-79888621D02*
X72735000Y-79888621D01*
X77305000Y-79848621D02*
X76040000Y-79848621D01*
X77343000Y-79808621D02*
X76040000Y-79808621D01*
X77380000Y-79768621D02*
X76040000Y-79768621D01*
X77416000Y-79728621D02*
X76040000Y-79728621D01*
X77450000Y-79688621D02*
X76040000Y-79688621D01*
X77484000Y-79648621D02*
X76040000Y-79648621D01*
X77516000Y-79608621D02*
X76040000Y-79608621D01*
X77548000Y-79568621D02*
X76040000Y-79568621D01*
X77578000Y-79528621D02*
X76040000Y-79528621D01*
X77607000Y-79488621D02*
X76040000Y-79488621D01*
X77636000Y-79448621D02*
X76040000Y-79448621D01*
X77664000Y-79408621D02*
X76040000Y-79408621D01*
X77690000Y-79368621D02*
X76040000Y-79368621D01*
X77716000Y-79328621D02*
X76040000Y-79328621D01*
X77742000Y-79288621D02*
X76040000Y-79288621D01*
X77766000Y-79248621D02*
X76040000Y-79248621D01*
X77790000Y-79208621D02*
X76040000Y-79208621D01*
X77812000Y-79168621D02*
X76040000Y-79168621D01*
X77834000Y-79128621D02*
X76040000Y-79128621D01*
X77856000Y-79088621D02*
X76040000Y-79088621D01*
X77876000Y-79048621D02*
X76040000Y-79048621D01*
X77896000Y-79008621D02*
X76040000Y-79008621D01*
X77916000Y-78968621D02*
X76040000Y-78968621D01*
X77934000Y-78928621D02*
X76040000Y-78928621D01*
X77952000Y-78888621D02*
X76040000Y-78888621D01*
X77970000Y-78848621D02*
X76040000Y-78848621D01*
X77986000Y-78808621D02*
X76040000Y-78808621D01*
X78002000Y-78768621D02*
X76040000Y-78768621D01*
X78018000Y-78728621D02*
X76040000Y-78728621D01*
X78033000Y-78688621D02*
X76040000Y-78688621D01*
X78047000Y-78648621D02*
X76040000Y-78648621D01*
X78061000Y-78608621D02*
X76040000Y-78608621D01*
X78074000Y-78568621D02*
X76040000Y-78568621D01*
X78086000Y-78528621D02*
X76040000Y-78528621D01*
X78098000Y-78488621D02*
X76040000Y-78488621D01*
X78110000Y-78448621D02*
X76040000Y-78448621D01*
X78121000Y-78408621D02*
X76040000Y-78408621D01*
X78131000Y-78368621D02*
X76040000Y-78368621D01*
X78141000Y-78328621D02*
X76040000Y-78328621D01*
X78150000Y-78288621D02*
X76040000Y-78288621D01*
X78159000Y-78247621D02*
X76040000Y-78247621D01*
X78167000Y-78207621D02*
X76040000Y-78207621D01*
X78175000Y-78167621D02*
X76040000Y-78167621D01*
X78182000Y-78127621D02*
X76040000Y-78127621D01*
X78189000Y-78087621D02*
X76040000Y-78087621D01*
X78195000Y-78047621D02*
X76040000Y-78047621D01*
X78201000Y-78007621D02*
X76040000Y-78007621D01*
X78206000Y-77967621D02*
X76040000Y-77967621D01*
X78211000Y-77927621D02*
X76040000Y-77927621D01*
X78215000Y-77887621D02*
X76040000Y-77887621D01*
X78218000Y-77847621D02*
X76040000Y-77847621D01*
X78222000Y-77807621D02*
X76040000Y-77807621D01*
X78224000Y-77767621D02*
X71776000Y-77767621D01*
X78227000Y-77727621D02*
X71773000Y-77727621D01*
X78228000Y-77687621D02*
X71772000Y-77687621D01*
X78230000Y-77567621D02*
X71770000Y-77567621D01*
X78230000Y-77607621D02*
X71770000Y-77607621D01*
X78230000Y-77647621D02*
X71770000Y-77647621D01*
X78270000Y-77567621D02*
G75*
G02*
X71730000Y-77567621I-3270000J0D01*
G01*
X71730000Y-77567621D02*
G75*
G02*
X78270000Y-77567621I3270000J0D01*
G01*
D11*
%TO.C,SW1*%
X112182000Y-52222000D02*
X120818000Y-52222000D01*
X112182000Y-55778000D02*
X112182000Y-52222000D01*
X114722000Y-53238000D02*
X118278000Y-53238000D01*
X114722000Y-54000000D02*
X114722000Y-53238000D01*
X114722000Y-54762000D02*
X114722000Y-54000000D01*
X115738000Y-53238000D02*
X115738000Y-54762000D01*
X118278000Y-53238000D02*
X118278000Y-54000000D01*
X118278000Y-54000000D02*
X118278000Y-54762000D01*
X118278000Y-54762000D02*
X114722000Y-54762000D01*
X120818000Y-52222000D02*
X120818000Y-55778000D01*
X120818000Y-55778000D02*
X112182000Y-55778000D01*
D13*
%TO.C,D3*%
X118455000Y-80065000D02*
X121545000Y-80065000D01*
X118455170Y-80065000D02*
G75*
G02*
X119999952Y-74515000I1544830J2560000D01*
G01*
X120000048Y-74515000D02*
G75*
G02*
X121544830Y-80065000I-48J-2990000D01*
G01*
X122500000Y-77505000D02*
G75*
G02*
X117500000Y-77505000I-2500000J0D01*
G01*
X117500000Y-77505000D02*
G75*
G02*
X122500000Y-77505000I2500000J0D01*
G01*
%TO.C,C1*%
X107960000Y-77807621D02*
X105778000Y-77807621D01*
X107960000Y-77847621D02*
X105782000Y-77847621D01*
X107960000Y-77887621D02*
X105785000Y-77887621D01*
X107960000Y-77927621D02*
X105789000Y-77927621D01*
X107960000Y-77967621D02*
X105794000Y-77967621D01*
X107960000Y-78007621D02*
X105799000Y-78007621D01*
X107960000Y-78047621D02*
X105805000Y-78047621D01*
X107960000Y-78087621D02*
X105811000Y-78087621D01*
X107960000Y-78127621D02*
X105818000Y-78127621D01*
X107960000Y-78167621D02*
X105825000Y-78167621D01*
X107960000Y-78207621D02*
X105833000Y-78207621D01*
X107960000Y-78247621D02*
X105841000Y-78247621D01*
X107960000Y-78288621D02*
X105850000Y-78288621D01*
X107960000Y-78328621D02*
X105859000Y-78328621D01*
X107960000Y-78368621D02*
X105869000Y-78368621D01*
X107960000Y-78408621D02*
X105879000Y-78408621D01*
X107960000Y-78448621D02*
X105890000Y-78448621D01*
X107960000Y-78488621D02*
X105902000Y-78488621D01*
X107960000Y-78528621D02*
X105914000Y-78528621D01*
X107960000Y-78568621D02*
X105926000Y-78568621D01*
X107960000Y-78608621D02*
X105939000Y-78608621D01*
X107960000Y-78648621D02*
X105953000Y-78648621D01*
X107960000Y-78688621D02*
X105967000Y-78688621D01*
X107960000Y-78728621D02*
X105982000Y-78728621D01*
X107960000Y-78768621D02*
X105998000Y-78768621D01*
X107960000Y-78808621D02*
X106014000Y-78808621D01*
X107960000Y-78848621D02*
X106030000Y-78848621D01*
X107960000Y-78888621D02*
X106048000Y-78888621D01*
X107960000Y-78928621D02*
X106066000Y-78928621D01*
X107960000Y-78968621D02*
X106084000Y-78968621D01*
X107960000Y-79008621D02*
X106104000Y-79008621D01*
X107960000Y-79048621D02*
X106124000Y-79048621D01*
X107960000Y-79088621D02*
X106144000Y-79088621D01*
X107960000Y-79128621D02*
X106166000Y-79128621D01*
X107960000Y-79168621D02*
X106188000Y-79168621D01*
X107960000Y-79208621D02*
X106210000Y-79208621D01*
X107960000Y-79248621D02*
X106234000Y-79248621D01*
X107960000Y-79288621D02*
X106258000Y-79288621D01*
X107960000Y-79328621D02*
X106284000Y-79328621D01*
X107960000Y-79368621D02*
X106310000Y-79368621D01*
X107960000Y-79408621D02*
X106336000Y-79408621D01*
X107960000Y-79448621D02*
X106364000Y-79448621D01*
X107960000Y-79488621D02*
X106393000Y-79488621D01*
X107960000Y-79528621D02*
X106422000Y-79528621D01*
X107960000Y-79568621D02*
X106452000Y-79568621D01*
X107960000Y-79608621D02*
X106484000Y-79608621D01*
X107960000Y-79648621D02*
X106516000Y-79648621D01*
X107960000Y-79688621D02*
X106550000Y-79688621D01*
X107960000Y-79728621D02*
X106584000Y-79728621D01*
X107960000Y-79768621D02*
X106620000Y-79768621D01*
X107960000Y-79808621D02*
X106657000Y-79808621D01*
X107960000Y-79848621D02*
X106695000Y-79848621D01*
X109402000Y-80808621D02*
X108598000Y-80808621D01*
X109633000Y-80768621D02*
X108367000Y-80768621D01*
X109802000Y-80728621D02*
X108198000Y-80728621D01*
X109940000Y-80688621D02*
X108060000Y-80688621D01*
X110059000Y-80648621D02*
X107941000Y-80648621D01*
X110165000Y-80608621D02*
X107835000Y-80608621D01*
X110262000Y-80568621D02*
X107738000Y-80568621D01*
X110350000Y-80528621D02*
X107650000Y-80528621D01*
X110432000Y-80488621D02*
X107568000Y-80488621D01*
X110509000Y-80448621D02*
X107491000Y-80448621D01*
X110581000Y-80408621D02*
X107419000Y-80408621D01*
X110650000Y-80368621D02*
X107350000Y-80368621D01*
X110714000Y-80328621D02*
X107286000Y-80328621D01*
X110776000Y-80288621D02*
X107224000Y-80288621D01*
X110834000Y-80248621D02*
X107166000Y-80248621D01*
X110839000Y-74067380D02*
X110839000Y-74697380D01*
X110890000Y-80208621D02*
X107110000Y-80208621D01*
X110944000Y-80168621D02*
X107056000Y-80168621D01*
X110995000Y-80128621D02*
X107005000Y-80128621D01*
X111044000Y-80088621D02*
X106956000Y-80088621D01*
X111092000Y-80048621D02*
X106908000Y-80048621D01*
X111137000Y-80008621D02*
X106863000Y-80008621D01*
X111154000Y-74382380D02*
X110524000Y-74382380D01*
X111182000Y-79968621D02*
X106818000Y-79968621D01*
X111224000Y-79928621D02*
X106776000Y-79928621D01*
X111265000Y-79888621D02*
X106735000Y-79888621D01*
X111305000Y-79848621D02*
X110040000Y-79848621D01*
X111343000Y-79808621D02*
X110040000Y-79808621D01*
X111380000Y-79768621D02*
X110040000Y-79768621D01*
X111416000Y-79728621D02*
X110040000Y-79728621D01*
X111450000Y-79688621D02*
X110040000Y-79688621D01*
X111484000Y-79648621D02*
X110040000Y-79648621D01*
X111516000Y-79608621D02*
X110040000Y-79608621D01*
X111548000Y-79568621D02*
X110040000Y-79568621D01*
X111578000Y-79528621D02*
X110040000Y-79528621D01*
X111607000Y-79488621D02*
X110040000Y-79488621D01*
X111636000Y-79448621D02*
X110040000Y-79448621D01*
X111664000Y-79408621D02*
X110040000Y-79408621D01*
X111690000Y-79368621D02*
X110040000Y-79368621D01*
X111716000Y-79328621D02*
X110040000Y-79328621D01*
X111742000Y-79288621D02*
X110040000Y-79288621D01*
X111766000Y-79248621D02*
X110040000Y-79248621D01*
X111790000Y-79208621D02*
X110040000Y-79208621D01*
X111812000Y-79168621D02*
X110040000Y-79168621D01*
X111834000Y-79128621D02*
X110040000Y-79128621D01*
X111856000Y-79088621D02*
X110040000Y-79088621D01*
X111876000Y-79048621D02*
X110040000Y-79048621D01*
X111896000Y-79008621D02*
X110040000Y-79008621D01*
X111916000Y-78968621D02*
X110040000Y-78968621D01*
X111934000Y-78928621D02*
X110040000Y-78928621D01*
X111952000Y-78888621D02*
X110040000Y-78888621D01*
X111970000Y-78848621D02*
X110040000Y-78848621D01*
X111986000Y-78808621D02*
X110040000Y-78808621D01*
X112002000Y-78768621D02*
X110040000Y-78768621D01*
X112018000Y-78728621D02*
X110040000Y-78728621D01*
X112033000Y-78688621D02*
X110040000Y-78688621D01*
X112047000Y-78648621D02*
X110040000Y-78648621D01*
X112061000Y-78608621D02*
X110040000Y-78608621D01*
X112074000Y-78568621D02*
X110040000Y-78568621D01*
X112086000Y-78528621D02*
X110040000Y-78528621D01*
X112098000Y-78488621D02*
X110040000Y-78488621D01*
X112110000Y-78448621D02*
X110040000Y-78448621D01*
X112121000Y-78408621D02*
X110040000Y-78408621D01*
X112131000Y-78368621D02*
X110040000Y-78368621D01*
X112141000Y-78328621D02*
X110040000Y-78328621D01*
X112150000Y-78288621D02*
X110040000Y-78288621D01*
X112159000Y-78247621D02*
X110040000Y-78247621D01*
X112167000Y-78207621D02*
X110040000Y-78207621D01*
X112175000Y-78167621D02*
X110040000Y-78167621D01*
X112182000Y-78127621D02*
X110040000Y-78127621D01*
X112189000Y-78087621D02*
X110040000Y-78087621D01*
X112195000Y-78047621D02*
X110040000Y-78047621D01*
X112201000Y-78007621D02*
X110040000Y-78007621D01*
X112206000Y-77967621D02*
X110040000Y-77967621D01*
X112211000Y-77927621D02*
X110040000Y-77927621D01*
X112215000Y-77887621D02*
X110040000Y-77887621D01*
X112218000Y-77847621D02*
X110040000Y-77847621D01*
X112222000Y-77807621D02*
X110040000Y-77807621D01*
X112224000Y-77767621D02*
X105776000Y-77767621D01*
X112227000Y-77727621D02*
X105773000Y-77727621D01*
X112228000Y-77687621D02*
X105772000Y-77687621D01*
X112230000Y-77567621D02*
X105770000Y-77567621D01*
X112230000Y-77607621D02*
X105770000Y-77607621D01*
X112230000Y-77647621D02*
X105770000Y-77647621D01*
X112270000Y-77567621D02*
G75*
G02*
X105730000Y-77567621I-3270000J0D01*
G01*
X105730000Y-77567621D02*
G75*
G02*
X112270000Y-77567621I3270000J0D01*
G01*
%TO.C,C3*%
X94959945Y-85155758D02*
X94959945Y-91395758D01*
X95404945Y-85155758D02*
X94959945Y-85155758D01*
X95404945Y-91395758D02*
X94959945Y-91395758D01*
X97699945Y-85155758D02*
X97254945Y-85155758D01*
X97699945Y-85155758D02*
X97699945Y-91395758D01*
X97699945Y-91395758D02*
X97254945Y-91395758D01*
%TO.C,R1*%
X88760000Y-63500000D02*
X89530000Y-63500000D01*
X89530000Y-62130000D02*
X89530000Y-64870000D01*
X89530000Y-64870000D02*
X96070000Y-64870000D01*
X96070000Y-62130000D02*
X89530000Y-62130000D01*
X96070000Y-64870000D02*
X96070000Y-62130000D01*
X96840000Y-63500000D02*
X96070000Y-63500000D01*
%TO.C,J1*%
X63427495Y-58917531D02*
X63427495Y-50877531D01*
X64235495Y-54297531D02*
X63427495Y-54297531D01*
X64235495Y-55297531D02*
X63427495Y-55297531D01*
X64560495Y-56044531D02*
X64603495Y-56001531D01*
X64800495Y-56283531D02*
X64843495Y-56240531D01*
X65504495Y-52997531D02*
X63427495Y-52997531D01*
X67252495Y-53354531D02*
X67295495Y-53311531D01*
X67491495Y-53593531D02*
X67534495Y-53550531D01*
X69167495Y-52997531D02*
X66590495Y-52997531D01*
X69167495Y-54297531D02*
X67859495Y-54297531D01*
X69167495Y-55297531D02*
X67859495Y-55297531D01*
X70747495Y-50877531D02*
X63427495Y-50877531D01*
X74167495Y-50877531D02*
X71347495Y-50877531D01*
X74167495Y-52997531D02*
X72927495Y-52997531D01*
X74167495Y-54297531D02*
X72927495Y-54297531D01*
X74167495Y-55297531D02*
X72927495Y-55297531D01*
X74167495Y-58917531D02*
X63427495Y-58917531D01*
X74167495Y-58917531D02*
X74167495Y-50877531D01*
X69167495Y-55351531D02*
G75*
G02*
X69167634Y-54243059I1880000J554000D01*
G01*
X70493495Y-52917531D02*
G75*
G02*
X71601967Y-52917670I554000J-1879990D01*
G01*
X71601495Y-56677531D02*
G75*
G02*
X70493023Y-56677392I-554000J1880000D01*
G01*
X72927495Y-54243531D02*
G75*
G02*
X72927356Y-55352003I-1879990J-554000D01*
G01*
X68007495Y-54797531D02*
G75*
G02*
X64087495Y-54797531I-1960000J0D01*
G01*
X64087495Y-54797531D02*
G75*
G02*
X68007495Y-54797531I1960000J0D01*
G01*
X71047495Y-50877531D02*
X70607495Y-50267531D01*
X71487495Y-50267531D01*
X71047495Y-50877531D01*
G36*
X71047495Y-50877531D02*
G01*
X70607495Y-50267531D01*
X71487495Y-50267531D01*
X71047495Y-50877531D01*
G37*
%TO.C,J3*%
X125880000Y-72130000D02*
X133920000Y-72130000D01*
X125880000Y-82870000D02*
X125880000Y-72130000D01*
X125880000Y-82870000D02*
X133920000Y-82870000D01*
X128514000Y-73503000D02*
X128557000Y-73546000D01*
X128753000Y-73263000D02*
X128796000Y-73306000D01*
X129500000Y-72938000D02*
X129500000Y-72130000D01*
X129500000Y-77870000D02*
X129500000Y-76562000D01*
X129500000Y-82870000D02*
X129500000Y-81630000D01*
X130500000Y-72938000D02*
X130500000Y-72130000D01*
X130500000Y-77870000D02*
X130500000Y-76562000D01*
X130500000Y-82870000D02*
X130500000Y-81630000D01*
X131204000Y-76194000D02*
X131247000Y-76237000D01*
X131443000Y-75955000D02*
X131486000Y-75998000D01*
X131800000Y-74207000D02*
X131800000Y-72130000D01*
X131800000Y-77870000D02*
X131800000Y-75293000D01*
X131800000Y-82870000D02*
X131800000Y-81630000D01*
X133920000Y-79450000D02*
X133920000Y-72130000D01*
X133920000Y-82870000D02*
X133920000Y-80050000D01*
X128120000Y-80304000D02*
G75*
G02*
X128120139Y-79195528I1880000J554000D01*
G01*
X129446000Y-77870000D02*
G75*
G02*
X130554472Y-77870139I554000J-1880000D01*
G01*
X130554000Y-81630000D02*
G75*
G02*
X129445528Y-81629861I-554000J1879990D01*
G01*
X131880000Y-79196000D02*
G75*
G02*
X131879861Y-80304472I-1879990J-554000D01*
G01*
X131960000Y-74750000D02*
G75*
G02*
X128040000Y-74750000I-1960000J0D01*
G01*
X128040000Y-74750000D02*
G75*
G02*
X131960000Y-74750000I1960000J0D01*
G01*
X134530000Y-80190000D02*
X133920000Y-79750000D01*
X134530000Y-79310000D01*
X134530000Y-80190000D01*
G36*
X134530000Y-80190000D02*
G01*
X133920000Y-79750000D01*
X134530000Y-79310000D01*
X134530000Y-80190000D01*
G37*
%TO.C,D2*%
X90955000Y-56790000D02*
X94045000Y-56790000D01*
X90955170Y-56790000D02*
G75*
G02*
X92499952Y-51240000I1544830J2560000D01*
G01*
X92500048Y-51240000D02*
G75*
G02*
X94044830Y-56790000I-48J-2990000D01*
G01*
X95000000Y-54230000D02*
G75*
G02*
X90000000Y-54230000I-2500000J0D01*
G01*
X90000000Y-54230000D02*
G75*
G02*
X95000000Y-54230000I2500000J0D01*
G01*
%TO.C,R3*%
X112880000Y-67000000D02*
X113650000Y-67000000D01*
X113650000Y-65630000D02*
X113650000Y-68370000D01*
X113650000Y-68370000D02*
X120190000Y-68370000D01*
X120190000Y-65630000D02*
X113650000Y-65630000D01*
X120190000Y-68370000D02*
X120190000Y-65630000D01*
X120960000Y-67000000D02*
X120190000Y-67000000D01*
%TO.C,R2*%
X112925000Y-63500000D02*
X113695000Y-63500000D01*
X113695000Y-62130000D02*
X113695000Y-64870000D01*
X113695000Y-64870000D02*
X120235000Y-64870000D01*
X120235000Y-62130000D02*
X113695000Y-62130000D01*
X120235000Y-64870000D02*
X120235000Y-62130000D01*
X121005000Y-63500000D02*
X120235000Y-63500000D01*
%TO.C,D1*%
X64595000Y-64000000D02*
X65615000Y-64000000D01*
X65615000Y-62530000D02*
X65615000Y-65470000D01*
X65615000Y-65470000D02*
X71055000Y-65470000D01*
X70035000Y-65470000D02*
X70035000Y-62530000D01*
X70155000Y-65470000D02*
X70155000Y-62530000D01*
X70275000Y-65470000D02*
X70275000Y-62530000D01*
X71055000Y-62530000D02*
X65615000Y-62530000D01*
X71055000Y-65470000D02*
X71055000Y-62530000D01*
X72075000Y-64000000D02*
X71055000Y-64000000D01*
%TO.C,U1*%
X87260000Y-72310000D02*
X87260000Y-82710000D01*
X87260000Y-82710000D02*
X97760000Y-82710000D01*
X90260000Y-72370000D02*
X90260000Y-82650000D01*
X90260000Y-82650000D02*
X94760000Y-82650000D01*
X91510000Y-72370000D02*
X90260000Y-72370000D01*
X94760000Y-72370000D02*
X93510000Y-72370000D01*
X94760000Y-82650000D02*
X94760000Y-72370000D01*
X97760000Y-72310000D02*
X87260000Y-72310000D01*
X97760000Y-82710000D02*
X97760000Y-72310000D01*
X93510000Y-72370000D02*
G75*
G02*
X91510000Y-72370000I-1000000J0D01*
G01*
%TD*%
M02*
