%TF.GenerationSoftware,KiCad,Pcbnew,8.0.8*%
%TF.CreationDate,2025-04-26T12:51:52-04:00*%
%TF.ProjectId,udpudu,75647075-6475-42e6-9b69-6361645f7063,rev?*%
%TF.SameCoordinates,Original*%
%TF.FileFunction,Copper,L1,Top*%
%TF.FilePolarity,Positive*%
%FSLAX46Y46*%
G04 Gerber Fmt 4.6, Leading zero omitted, Abs format (unit mm)*
G04 Created by KiCad (PCBNEW 8.0.8) date 2025-04-26 12:51:52*
%MOMM*%
%LPD*%
G01*
G04 APERTURE LIST*
G04 Aperture macros list*
%AMRoundRect*
0 Rectangle with rounded corners*
0 $1 Rounding radius*
0 $2 $3 $4 $5 $6 $7 $8 $9 X,Y pos of 4 corners*
0 Add a 4 corners polygon primitive as box body*
4,1,4,$2,$3,$4,$5,$6,$7,$8,$9,$2,$3,0*
0 Add four circle primitives for the rounded corners*
1,1,$1+$1,$2,$3*
1,1,$1+$1,$4,$5*
1,1,$1+$1,$6,$7*
1,1,$1+$1,$8,$9*
0 Add four rect primitives between the rounded corners*
20,1,$1+$1,$2,$3,$4,$5,0*
20,1,$1+$1,$4,$5,$6,$7,0*
20,1,$1+$1,$6,$7,$8,$9,0*
20,1,$1+$1,$8,$9,$2,$3,0*%
%AMOutline5P*
0 Free polygon, 5 corners , with rotation*
0 The origin of the aperture is its center*
0 number of corners: always 5*
0 $1 to $10 corner X, Y*
0 $11 Rotation angle, in degrees counterclockwise*
0 create outline with 5 corners*
4,1,5,$1,$2,$3,$4,$5,$6,$7,$8,$9,$10,$1,$2,$11*%
%AMOutline6P*
0 Free polygon, 6 corners , with rotation*
0 The origin of the aperture is its center*
0 number of corners: always 6*
0 $1 to $12 corner X, Y*
0 $13 Rotation angle, in degrees counterclockwise*
0 create outline with 6 corners*
4,1,6,$1,$2,$3,$4,$5,$6,$7,$8,$9,$10,$11,$12,$1,$2,$13*%
%AMOutline7P*
0 Free polygon, 7 corners , with rotation*
0 The origin of the aperture is its center*
0 number of corners: always 7*
0 $1 to $14 corner X, Y*
0 $15 Rotation angle, in degrees counterclockwise*
0 create outline with 7 corners*
4,1,7,$1,$2,$3,$4,$5,$6,$7,$8,$9,$10,$11,$12,$13,$14,$1,$2,$15*%
%AMOutline8P*
0 Free polygon, 8 corners , with rotation*
0 The origin of the aperture is its center*
0 number of corners: always 8*
0 $1 to $16 corner X, Y*
0 $17 Rotation angle, in degrees counterclockwise*
0 create outline with 8 corners*
4,1,8,$1,$2,$3,$4,$5,$6,$7,$8,$9,$10,$11,$12,$13,$14,$15,$16,$1,$2,$17*%
G04 Aperture macros list end*
%TA.AperFunction,ComponentPad*%
%ADD10R,1.600000X1.600000*%
%TD*%
%TA.AperFunction,ComponentPad*%
%ADD11C,1.600000*%
%TD*%
%TA.AperFunction,ComponentPad*%
%ADD12R,1.500000X1.500000*%
%TD*%
%TA.AperFunction,ComponentPad*%
%ADD13Outline8P,-1.900000X1.140000X-1.140000X1.900000X1.140000X1.900000X1.900000X1.140000X1.900000X-1.140000X1.140000X-1.900000X-1.140000X-1.900000X-1.900000X-1.140000X180.000000*%
%TD*%
%TA.AperFunction,ComponentPad*%
%ADD14R,1.800000X1.800000*%
%TD*%
%TA.AperFunction,ComponentPad*%
%ADD15C,1.800000*%
%TD*%
%TA.AperFunction,ComponentPad*%
%ADD16O,1.600000X1.600000*%
%TD*%
%TA.AperFunction,ComponentPad*%
%ADD17RoundRect,0.250001X1.149999X1.149999X-1.149999X1.149999X-1.149999X-1.149999X1.149999X-1.149999X0*%
%TD*%
%TA.AperFunction,ComponentPad*%
%ADD18C,2.800000*%
%TD*%
%TA.AperFunction,ComponentPad*%
%ADD19RoundRect,0.250001X1.149999X-1.149999X1.149999X1.149999X-1.149999X1.149999X-1.149999X-1.149999X0*%
%TD*%
%TA.AperFunction,ComponentPad*%
%ADD20Outline8P,-1.900000X1.140000X-1.140000X1.900000X1.140000X1.900000X1.900000X1.140000X1.900000X-1.140000X1.140000X-1.900000X-1.140000X-1.900000X-1.900000X-1.140000X0.000000*%
%TD*%
%TA.AperFunction,ComponentPad*%
%ADD21R,2.200000X2.200000*%
%TD*%
%TA.AperFunction,ComponentPad*%
%ADD22O,2.200000X2.200000*%
%TD*%
%TA.AperFunction,ComponentPad*%
%ADD23R,2.400000X1.600000*%
%TD*%
%TA.AperFunction,ComponentPad*%
%ADD24O,2.400000X1.600000*%
%TD*%
%TA.AperFunction,ViaPad*%
%ADD25C,1.500000*%
%TD*%
%TA.AperFunction,Conductor*%
%ADD26C,0.800000*%
%TD*%
G04 APERTURE END LIST*
D10*
%TO.P,C2,1*%
%TO.N,Net-(J4-Pin_1)*%
X75000000Y-76317621D03*
D11*
%TO.P,C2,2*%
%TO.N,GND*%
X75000000Y-78817621D03*
%TD*%
D12*
%TO.P,SW1,1,A*%
%TO.N,unconnected-(SW1-A-Pad1)*%
X113960000Y-54000000D03*
%TO.P,SW1,2,B*%
%TO.N,Net-(D1-K)*%
X116500000Y-54000000D03*
%TO.P,SW1,3,C*%
%TO.N,VCC*%
X119040000Y-54000000D03*
%TD*%
D13*
%TO.P,J2,1,Pin_1*%
%TO.N,Net-(J2-Pin_1)*%
X52500000Y-67708333D03*
%TD*%
D14*
%TO.P,D3,1,K*%
%TO.N,GND*%
X120000000Y-78775000D03*
D15*
%TO.P,D3,2,A*%
%TO.N,Net-(D3-A)*%
X120000000Y-76235000D03*
%TD*%
D10*
%TO.P,C1,1*%
%TO.N,Net-(U1-Q)*%
X109000000Y-76317621D03*
D11*
%TO.P,C1,2*%
%TO.N,Net-(C1-Pad2)*%
X109000000Y-78817621D03*
%TD*%
%TO.P,C3,1*%
%TO.N,Net-(U1-CV)*%
X96329945Y-85775758D03*
%TO.P,C3,2*%
%TO.N,GND*%
X96329945Y-90775758D03*
%TD*%
%TO.P,R1,1*%
%TO.N,VCC*%
X87720000Y-63500000D03*
D16*
%TO.P,R1,2*%
%TO.N,Net-(D2-A)*%
X97880000Y-63500000D03*
%TD*%
D17*
%TO.P,J1,1,Pin_1*%
%TO.N,GND*%
X71047495Y-54797531D03*
D18*
%TO.P,J1,2,Pin_2*%
%TO.N,+9V*%
X66047495Y-54797531D03*
%TD*%
D19*
%TO.P,J3,1,1*%
%TO.N,Net-(C1-Pad2)*%
X130000000Y-79750000D03*
D18*
%TO.P,J3,2,2*%
%TO.N,GND*%
X130000000Y-74750000D03*
%TD*%
D14*
%TO.P,D2,1,K*%
%TO.N,GND*%
X92500000Y-55500000D03*
D15*
%TO.P,D2,2,A*%
%TO.N,Net-(D2-A)*%
X92500000Y-52960000D03*
%TD*%
D11*
%TO.P,R3,1*%
%TO.N,Net-(U1-Q)*%
X111840000Y-67000000D03*
D16*
%TO.P,R3,2*%
%TO.N,Net-(D3-A)*%
X122000000Y-67000000D03*
%TD*%
D11*
%TO.P,R2,1*%
%TO.N,VCC*%
X122045000Y-63500000D03*
D16*
%TO.P,R2,2*%
%TO.N,Net-(J2-Pin_1)*%
X111885000Y-63500000D03*
%TD*%
D20*
%TO.P,J4,1,Pin_1*%
%TO.N,Net-(J4-Pin_1)*%
X52810000Y-87291666D03*
%TD*%
D21*
%TO.P,D1,1,K*%
%TO.N,Net-(D1-K)*%
X73415000Y-64000000D03*
D22*
%TO.P,D1,2,A*%
%TO.N,+9V*%
X63255000Y-64000000D03*
%TD*%
D23*
%TO.P,U1,1,GND*%
%TO.N,GND*%
X88700000Y-73700000D03*
D24*
%TO.P,U1,2,TR*%
%TO.N,Net-(J4-Pin_1)*%
X88700000Y-76240000D03*
%TO.P,U1,3,Q*%
%TO.N,Net-(U1-Q)*%
X88700000Y-78780000D03*
%TO.P,U1,4,R*%
%TO.N,VCC*%
X88700000Y-81320000D03*
%TO.P,U1,5,CV*%
%TO.N,Net-(U1-CV)*%
X96320000Y-81320000D03*
%TO.P,U1,6,THR*%
%TO.N,Net-(J4-Pin_1)*%
X96320000Y-78780000D03*
%TO.P,U1,7,DIS*%
%TO.N,Net-(J2-Pin_1)*%
X96320000Y-76240000D03*
%TO.P,U1,8,VCC*%
%TO.N,VCC*%
X96320000Y-73700000D03*
%TD*%
D25*
%TO.N,Net-(D2-A)*%
X98000000Y-60500000D03*
X98000000Y-54500000D03*
%TD*%
D26*
%TO.N,Net-(D2-A)*%
X98000000Y-54500000D02*
X98000000Y-60500000D01*
%TD*%
%TA.AperFunction,Conductor*%
%TO.N,GND*%
G36*
X130002702Y-50500617D02*
G01*
X130386771Y-50517386D01*
X130397506Y-50518326D01*
X130775971Y-50568152D01*
X130786597Y-50570025D01*
X131159284Y-50652648D01*
X131169710Y-50655442D01*
X131533765Y-50770227D01*
X131543911Y-50773920D01*
X131896578Y-50920000D01*
X131906369Y-50924566D01*
X132244942Y-51100816D01*
X132254310Y-51106224D01*
X132576244Y-51311318D01*
X132585105Y-51317523D01*
X132887930Y-51549889D01*
X132896217Y-51556843D01*
X133177635Y-51814715D01*
X133185284Y-51822364D01*
X133443156Y-52103782D01*
X133450110Y-52112069D01*
X133682476Y-52414894D01*
X133688681Y-52423755D01*
X133893775Y-52745689D01*
X133899183Y-52755057D01*
X134075430Y-53093623D01*
X134080002Y-53103427D01*
X134226075Y-53456078D01*
X134229775Y-53466244D01*
X134344554Y-53830278D01*
X134347354Y-53840727D01*
X134429971Y-54213389D01*
X134431849Y-54224042D01*
X134481671Y-54602473D01*
X134482614Y-54613249D01*
X134498464Y-54976283D01*
X134499382Y-54997297D01*
X134499500Y-55002706D01*
X134499500Y-99997293D01*
X134499382Y-100002702D01*
X134482614Y-100386750D01*
X134481671Y-100397526D01*
X134431849Y-100775957D01*
X134429971Y-100786610D01*
X134347354Y-101159272D01*
X134344554Y-101169721D01*
X134229775Y-101533755D01*
X134226075Y-101543921D01*
X134080002Y-101896572D01*
X134075430Y-101906376D01*
X133899183Y-102244942D01*
X133893775Y-102254310D01*
X133688681Y-102576244D01*
X133682476Y-102585105D01*
X133450110Y-102887930D01*
X133443156Y-102896217D01*
X133185284Y-103177635D01*
X133177635Y-103185284D01*
X132896217Y-103443156D01*
X132887930Y-103450110D01*
X132585105Y-103682476D01*
X132576244Y-103688681D01*
X132254310Y-103893775D01*
X132244942Y-103899183D01*
X131906376Y-104075430D01*
X131896572Y-104080002D01*
X131543921Y-104226075D01*
X131533755Y-104229775D01*
X131169721Y-104344554D01*
X131159272Y-104347354D01*
X130786610Y-104429971D01*
X130775957Y-104431849D01*
X130397526Y-104481671D01*
X130386750Y-104482614D01*
X130002703Y-104499382D01*
X129997294Y-104499500D01*
X55002706Y-104499500D01*
X54997297Y-104499382D01*
X54613249Y-104482614D01*
X54602473Y-104481671D01*
X54224042Y-104431849D01*
X54213389Y-104429971D01*
X53840727Y-104347354D01*
X53830278Y-104344554D01*
X53466244Y-104229775D01*
X53456078Y-104226075D01*
X53103427Y-104080002D01*
X53093623Y-104075430D01*
X52755057Y-103899183D01*
X52745689Y-103893775D01*
X52423755Y-103688681D01*
X52414894Y-103682476D01*
X52112069Y-103450110D01*
X52103782Y-103443156D01*
X51822364Y-103185284D01*
X51814715Y-103177635D01*
X51556843Y-102896217D01*
X51549889Y-102887930D01*
X51317523Y-102585105D01*
X51311318Y-102576244D01*
X51106224Y-102254310D01*
X51100816Y-102244942D01*
X50924569Y-101906376D01*
X50919997Y-101896572D01*
X50773924Y-101543921D01*
X50770224Y-101533755D01*
X50655442Y-101169710D01*
X50652648Y-101159284D01*
X50570025Y-100786597D01*
X50568152Y-100775971D01*
X50518326Y-100397506D01*
X50517386Y-100386771D01*
X50500618Y-100002702D01*
X50500500Y-99997293D01*
X50500500Y-90775755D01*
X95024979Y-90775755D01*
X95024979Y-90775760D01*
X95044803Y-91002357D01*
X95044805Y-91002368D01*
X95103675Y-91222075D01*
X95103680Y-91222089D01*
X95199808Y-91428236D01*
X95250919Y-91501230D01*
X95929945Y-90822204D01*
X95929945Y-90828419D01*
X95957204Y-90930152D01*
X96009865Y-91021364D01*
X96084339Y-91095838D01*
X96175551Y-91148499D01*
X96277284Y-91175758D01*
X96283498Y-91175758D01*
X95604471Y-91854783D01*
X95677458Y-91905890D01*
X95677466Y-91905894D01*
X95883613Y-92002022D01*
X95883627Y-92002027D01*
X96103334Y-92060897D01*
X96103345Y-92060899D01*
X96329943Y-92080724D01*
X96329947Y-92080724D01*
X96556544Y-92060899D01*
X96556555Y-92060897D01*
X96776262Y-92002027D01*
X96776276Y-92002022D01*
X96982423Y-91905894D01*
X97055416Y-91854782D01*
X96376392Y-91175758D01*
X96382606Y-91175758D01*
X96484339Y-91148499D01*
X96575551Y-91095838D01*
X96650025Y-91021364D01*
X96702686Y-90930152D01*
X96729945Y-90828419D01*
X96729945Y-90822205D01*
X97408969Y-91501229D01*
X97460081Y-91428236D01*
X97556209Y-91222089D01*
X97556214Y-91222075D01*
X97615084Y-91002368D01*
X97615086Y-91002357D01*
X97634911Y-90775760D01*
X97634911Y-90775755D01*
X97615086Y-90549158D01*
X97615084Y-90549147D01*
X97556214Y-90329440D01*
X97556209Y-90329426D01*
X97460081Y-90123279D01*
X97460077Y-90123271D01*
X97408970Y-90050284D01*
X96729945Y-90729309D01*
X96729945Y-90723097D01*
X96702686Y-90621364D01*
X96650025Y-90530152D01*
X96575551Y-90455678D01*
X96484339Y-90403017D01*
X96382606Y-90375758D01*
X96376390Y-90375758D01*
X97055417Y-89696732D01*
X96982423Y-89645621D01*
X96776276Y-89549493D01*
X96776262Y-89549488D01*
X96556555Y-89490618D01*
X96556544Y-89490616D01*
X96329947Y-89470792D01*
X96329943Y-89470792D01*
X96103345Y-89490616D01*
X96103334Y-89490618D01*
X95883627Y-89549488D01*
X95883618Y-89549492D01*
X95677461Y-89645624D01*
X95677457Y-89645626D01*
X95604471Y-89696731D01*
X95604471Y-89696732D01*
X96283498Y-90375758D01*
X96277284Y-90375758D01*
X96175551Y-90403017D01*
X96084339Y-90455678D01*
X96009865Y-90530152D01*
X95957204Y-90621364D01*
X95929945Y-90723097D01*
X95929945Y-90729310D01*
X95250919Y-90050284D01*
X95250918Y-90050284D01*
X95199813Y-90123270D01*
X95199811Y-90123274D01*
X95103679Y-90329431D01*
X95103675Y-90329440D01*
X95044805Y-90549147D01*
X95044803Y-90549158D01*
X95024979Y-90775755D01*
X50500500Y-90775755D01*
X50500500Y-89029342D01*
X50520185Y-88962303D01*
X50572989Y-88916548D01*
X50642147Y-88906604D01*
X50705703Y-88935629D01*
X50712181Y-88941661D01*
X51345067Y-89574548D01*
X51345077Y-89574557D01*
X51411982Y-89626529D01*
X51411983Y-89626529D01*
X51411984Y-89626530D01*
X51544950Y-89681606D01*
X51629023Y-89692166D01*
X53990975Y-89692165D01*
X54075050Y-89681606D01*
X54208016Y-89626529D01*
X54274935Y-89574545D01*
X55092884Y-88756597D01*
X55144864Y-88689682D01*
X55199940Y-88556716D01*
X55210500Y-88472643D01*
X55210499Y-86110691D01*
X55199940Y-86026616D01*
X55144863Y-85893650D01*
X55092879Y-85826731D01*
X55041904Y-85775756D01*
X95024477Y-85775756D01*
X95024477Y-85775759D01*
X95044309Y-86002444D01*
X95044311Y-86002455D01*
X95103203Y-86222246D01*
X95103206Y-86222255D01*
X95199376Y-86428490D01*
X95199377Y-86428492D01*
X95329899Y-86614899D01*
X95490803Y-86775803D01*
X95490806Y-86775805D01*
X95677211Y-86906326D01*
X95883449Y-87002497D01*
X96103253Y-87061393D01*
X96265175Y-87075559D01*
X96329943Y-87081226D01*
X96329945Y-87081226D01*
X96329947Y-87081226D01*
X96386618Y-87076267D01*
X96556637Y-87061393D01*
X96776441Y-87002497D01*
X96982679Y-86906326D01*
X97169084Y-86775805D01*
X97329992Y-86614897D01*
X97460513Y-86428492D01*
X97556684Y-86222254D01*
X97615580Y-86002450D01*
X97635413Y-85775758D01*
X97615580Y-85549066D01*
X97556684Y-85329262D01*
X97460513Y-85123024D01*
X97329992Y-84936619D01*
X97329990Y-84936616D01*
X97169086Y-84775712D01*
X96982679Y-84645190D01*
X96982677Y-84645189D01*
X96776442Y-84549019D01*
X96776433Y-84549016D01*
X96556642Y-84490124D01*
X96556638Y-84490123D01*
X96556637Y-84490123D01*
X96556636Y-84490122D01*
X96556631Y-84490122D01*
X96329947Y-84470290D01*
X96329943Y-84470290D01*
X96103258Y-84490122D01*
X96103247Y-84490124D01*
X95883456Y-84549016D01*
X95883447Y-84549019D01*
X95677212Y-84645189D01*
X95677210Y-84645190D01*
X95490803Y-84775712D01*
X95329899Y-84936616D01*
X95199377Y-85123023D01*
X95199376Y-85123025D01*
X95103206Y-85329260D01*
X95103203Y-85329269D01*
X95044311Y-85549060D01*
X95044309Y-85549071D01*
X95024477Y-85775756D01*
X55041904Y-85775756D01*
X54274931Y-85008782D01*
X54274930Y-85008781D01*
X54274922Y-85008774D01*
X54208017Y-84956802D01*
X54141533Y-84929264D01*
X54075050Y-84901726D01*
X53990977Y-84891166D01*
X51629029Y-84891166D01*
X51544950Y-84901726D01*
X51411984Y-84956802D01*
X51345065Y-85008787D01*
X51345058Y-85008793D01*
X50712181Y-85641670D01*
X50650858Y-85675155D01*
X50581166Y-85670171D01*
X50525233Y-85628299D01*
X50500816Y-85562835D01*
X50500500Y-85553989D01*
X50500500Y-78817618D01*
X73695034Y-78817618D01*
X73695034Y-78817623D01*
X73714858Y-79044220D01*
X73714860Y-79044231D01*
X73773730Y-79263938D01*
X73773735Y-79263952D01*
X73869863Y-79470099D01*
X73920974Y-79543093D01*
X74600000Y-78864067D01*
X74600000Y-78870282D01*
X74627259Y-78972015D01*
X74679920Y-79063227D01*
X74754394Y-79137701D01*
X74845606Y-79190362D01*
X74947339Y-79217621D01*
X74953553Y-79217621D01*
X74274526Y-79896646D01*
X74347513Y-79947753D01*
X74347521Y-79947757D01*
X74553668Y-80043885D01*
X74553682Y-80043890D01*
X74773389Y-80102760D01*
X74773400Y-80102762D01*
X74999998Y-80122587D01*
X75000002Y-80122587D01*
X75226599Y-80102762D01*
X75226610Y-80102760D01*
X75446317Y-80043890D01*
X75446331Y-80043885D01*
X75652478Y-79947757D01*
X75725471Y-79896645D01*
X75046447Y-79217621D01*
X75052661Y-79217621D01*
X75154394Y-79190362D01*
X75245606Y-79137701D01*
X75320080Y-79063227D01*
X75372741Y-78972015D01*
X75400000Y-78870282D01*
X75400000Y-78864068D01*
X76079024Y-79543092D01*
X76130136Y-79470099D01*
X76226264Y-79263952D01*
X76226269Y-79263938D01*
X76285139Y-79044231D01*
X76285141Y-79044220D01*
X76304966Y-78817623D01*
X76304966Y-78817618D01*
X76285141Y-78591021D01*
X76285139Y-78591010D01*
X76226269Y-78371303D01*
X76226264Y-78371289D01*
X76130136Y-78165142D01*
X76130132Y-78165134D01*
X76079025Y-78092147D01*
X75400000Y-78771172D01*
X75400000Y-78764960D01*
X75372741Y-78663227D01*
X75320080Y-78572015D01*
X75245606Y-78497541D01*
X75154394Y-78444880D01*
X75052661Y-78417621D01*
X75046445Y-78417621D01*
X75730646Y-77733421D01*
X75740492Y-77684428D01*
X75789107Y-77634245D01*
X75844633Y-77619602D01*
X75844576Y-77618521D01*
X75844571Y-77618475D01*
X75844573Y-77618474D01*
X75844564Y-77618297D01*
X75847857Y-77618120D01*
X75847872Y-77618120D01*
X75907483Y-77611712D01*
X76042331Y-77561417D01*
X76157546Y-77475167D01*
X76243796Y-77359952D01*
X76294091Y-77225104D01*
X76300500Y-77165494D01*
X76300499Y-76137648D01*
X86999500Y-76137648D01*
X86999500Y-76342351D01*
X87031522Y-76544534D01*
X87094781Y-76739223D01*
X87158691Y-76864653D01*
X87178663Y-76903849D01*
X87187715Y-76921613D01*
X87308028Y-77087213D01*
X87452786Y-77231971D01*
X87607749Y-77344556D01*
X87618390Y-77352287D01*
X87709840Y-77398883D01*
X87711080Y-77399515D01*
X87761876Y-77447490D01*
X87778671Y-77515311D01*
X87756134Y-77581446D01*
X87711080Y-77620485D01*
X87618386Y-77667715D01*
X87452786Y-77788028D01*
X87308028Y-77932786D01*
X87187715Y-78098386D01*
X87094781Y-78280776D01*
X87031522Y-78475465D01*
X86999500Y-78677648D01*
X86999500Y-78882351D01*
X87031522Y-79084534D01*
X87094781Y-79279223D01*
X87187715Y-79461613D01*
X87308028Y-79627213D01*
X87452786Y-79771971D01*
X87607749Y-79884556D01*
X87618390Y-79892287D01*
X87709840Y-79938883D01*
X87711080Y-79939515D01*
X87761876Y-79987490D01*
X87778671Y-80055311D01*
X87756134Y-80121446D01*
X87711080Y-80160485D01*
X87618386Y-80207715D01*
X87452786Y-80328028D01*
X87308028Y-80472786D01*
X87187715Y-80638386D01*
X87094781Y-80820776D01*
X87031522Y-81015465D01*
X86999500Y-81217648D01*
X86999500Y-81422351D01*
X87031522Y-81624534D01*
X87094781Y-81819223D01*
X87187715Y-82001613D01*
X87308028Y-82167213D01*
X87452786Y-82311971D01*
X87607749Y-82424556D01*
X87618390Y-82432287D01*
X87734607Y-82491503D01*
X87800776Y-82525218D01*
X87800778Y-82525218D01*
X87800781Y-82525220D01*
X87905137Y-82559127D01*
X87995465Y-82588477D01*
X88096557Y-82604488D01*
X88197648Y-82620500D01*
X88197649Y-82620500D01*
X89202351Y-82620500D01*
X89202352Y-82620500D01*
X89404534Y-82588477D01*
X89599219Y-82525220D01*
X89781610Y-82432287D01*
X89874590Y-82364732D01*
X89947213Y-82311971D01*
X89947215Y-82311968D01*
X89947219Y-82311966D01*
X90091966Y-82167219D01*
X90091968Y-82167215D01*
X90091971Y-82167213D01*
X90144732Y-82094590D01*
X90212287Y-82001610D01*
X90305220Y-81819219D01*
X90368477Y-81624534D01*
X90400500Y-81422352D01*
X90400500Y-81217648D01*
X90374390Y-81052796D01*
X90368477Y-81015465D01*
X90305218Y-80820776D01*
X90271503Y-80754607D01*
X90212287Y-80638390D01*
X90204556Y-80627749D01*
X90091971Y-80472786D01*
X89947213Y-80328028D01*
X89781614Y-80207715D01*
X89717405Y-80174999D01*
X89688917Y-80160483D01*
X89638123Y-80112511D01*
X89621328Y-80044690D01*
X89643865Y-79978555D01*
X89688917Y-79939516D01*
X89781610Y-79892287D01*
X89802770Y-79876913D01*
X89947213Y-79771971D01*
X89947215Y-79771968D01*
X89947219Y-79771966D01*
X90091966Y-79627219D01*
X90091968Y-79627215D01*
X90091971Y-79627213D01*
X90205933Y-79470355D01*
X90212287Y-79461610D01*
X90305220Y-79279219D01*
X90368477Y-79084534D01*
X90400500Y-78882352D01*
X90400500Y-78677648D01*
X90372156Y-78498694D01*
X90368477Y-78475465D01*
X90334577Y-78371132D01*
X90305220Y-78280781D01*
X90305218Y-78280778D01*
X90305218Y-78280776D01*
X90271503Y-78214607D01*
X90212287Y-78098390D01*
X90146097Y-78007286D01*
X90091971Y-77932786D01*
X89947213Y-77788028D01*
X89781614Y-77667715D01*
X89775006Y-77664348D01*
X89688917Y-77620483D01*
X89638123Y-77572511D01*
X89621328Y-77504690D01*
X89643865Y-77438555D01*
X89688917Y-77399516D01*
X89781610Y-77352287D01*
X89861371Y-77294338D01*
X89947213Y-77231971D01*
X89947215Y-77231968D01*
X89947219Y-77231966D01*
X90091966Y-77087219D01*
X90091968Y-77087215D01*
X90091971Y-77087213D01*
X90144732Y-77014590D01*
X90212287Y-76921610D01*
X90305220Y-76739219D01*
X90368477Y-76544534D01*
X90400500Y-76342352D01*
X90400500Y-76137648D01*
X90368477Y-75935466D01*
X90358618Y-75905124D01*
X90317909Y-75779835D01*
X90305220Y-75740781D01*
X90305218Y-75740778D01*
X90305218Y-75740776D01*
X90216241Y-75566151D01*
X90212287Y-75558390D01*
X90199875Y-75541306D01*
X90091971Y-75392786D01*
X89947217Y-75248032D01*
X89947212Y-75248028D01*
X89910325Y-75221228D01*
X89867659Y-75165898D01*
X89861680Y-75096285D01*
X89894286Y-75034490D01*
X89955124Y-75000133D01*
X89969956Y-74997620D01*
X90007379Y-74993596D01*
X90142086Y-74943354D01*
X90142093Y-74943350D01*
X90257187Y-74857190D01*
X90257190Y-74857187D01*
X90343350Y-74742093D01*
X90343354Y-74742086D01*
X90393596Y-74607379D01*
X90393598Y-74607372D01*
X90399999Y-74547844D01*
X90400000Y-74547827D01*
X90400000Y-73950000D01*
X89015686Y-73950000D01*
X89020080Y-73945606D01*
X89072741Y-73854394D01*
X89100000Y-73752661D01*
X89100000Y-73647339D01*
X89086685Y-73597648D01*
X94619500Y-73597648D01*
X94619500Y-73802351D01*
X94651522Y-74004534D01*
X94714781Y-74199223D01*
X94807715Y-74381613D01*
X94928028Y-74547213D01*
X95072786Y-74691971D01*
X95227749Y-74804556D01*
X95238390Y-74812287D01*
X95326511Y-74857187D01*
X95331080Y-74859515D01*
X95381876Y-74907490D01*
X95398671Y-74975311D01*
X95376134Y-75041446D01*
X95331080Y-75080485D01*
X95238386Y-75127715D01*
X95072786Y-75248028D01*
X94928028Y-75392786D01*
X94807715Y-75558386D01*
X94714781Y-75740776D01*
X94651522Y-75935465D01*
X94619500Y-76137648D01*
X94619500Y-76342351D01*
X94651522Y-76544534D01*
X94714781Y-76739223D01*
X94778691Y-76864653D01*
X94798663Y-76903849D01*
X94807715Y-76921613D01*
X94928028Y-77087213D01*
X95072786Y-77231971D01*
X95227749Y-77344556D01*
X95238390Y-77352287D01*
X95329840Y-77398883D01*
X95331080Y-77399515D01*
X95381876Y-77447490D01*
X95398671Y-77515311D01*
X95376134Y-77581446D01*
X95331080Y-77620485D01*
X95238386Y-77667715D01*
X95072786Y-77788028D01*
X94928028Y-77932786D01*
X94807715Y-78098386D01*
X94714781Y-78280776D01*
X94651522Y-78475465D01*
X94619500Y-78677648D01*
X94619500Y-78882351D01*
X94651522Y-79084534D01*
X94714781Y-79279223D01*
X94807715Y-79461613D01*
X94928028Y-79627213D01*
X95072786Y-79771971D01*
X95227749Y-79884556D01*
X95238390Y-79892287D01*
X95329840Y-79938883D01*
X95331080Y-79939515D01*
X95381876Y-79987490D01*
X95398671Y-80055311D01*
X95376134Y-80121446D01*
X95331080Y-80160485D01*
X95238386Y-80207715D01*
X95072786Y-80328028D01*
X94928028Y-80472786D01*
X94807715Y-80638386D01*
X94714781Y-80820776D01*
X94651522Y-81015465D01*
X94619500Y-81217648D01*
X94619500Y-81422351D01*
X94651522Y-81624534D01*
X94714781Y-81819223D01*
X94807715Y-82001613D01*
X94928028Y-82167213D01*
X95072786Y-82311971D01*
X95227749Y-82424556D01*
X95238390Y-82432287D01*
X95354607Y-82491503D01*
X95420776Y-82525218D01*
X95420778Y-82525218D01*
X95420781Y-82525220D01*
X95525137Y-82559127D01*
X95615465Y-82588477D01*
X95716557Y-82604488D01*
X95817648Y-82620500D01*
X95817649Y-82620500D01*
X96822351Y-82620500D01*
X96822352Y-82620500D01*
X97024534Y-82588477D01*
X97219219Y-82525220D01*
X97401610Y-82432287D01*
X97494590Y-82364732D01*
X97567213Y-82311971D01*
X97567215Y-82311968D01*
X97567219Y-82311966D01*
X97711966Y-82167219D01*
X97711968Y-82167215D01*
X97711971Y-82167213D01*
X97764732Y-82094590D01*
X97832287Y-82001610D01*
X97925220Y-81819219D01*
X97988477Y-81624534D01*
X98020500Y-81422352D01*
X98020500Y-81217648D01*
X97994390Y-81052796D01*
X97988477Y-81015465D01*
X97925218Y-80820776D01*
X97891503Y-80754607D01*
X97832287Y-80638390D01*
X97824556Y-80627749D01*
X97711971Y-80472786D01*
X97567213Y-80328028D01*
X97401614Y-80207715D01*
X97337405Y-80174999D01*
X97308917Y-80160483D01*
X97258123Y-80112511D01*
X97241328Y-80044690D01*
X97263865Y-79978555D01*
X97308917Y-79939516D01*
X97401610Y-79892287D01*
X97422770Y-79876913D01*
X97567213Y-79771971D01*
X97567215Y-79771968D01*
X97567219Y-79771966D01*
X97711966Y-79627219D01*
X97711968Y-79627215D01*
X97711971Y-79627213D01*
X97825933Y-79470355D01*
X97832287Y-79461610D01*
X97925220Y-79279219D01*
X97988477Y-79084534D01*
X98020500Y-78882352D01*
X98020500Y-78817619D01*
X107694532Y-78817619D01*
X107694532Y-78817622D01*
X107714364Y-79044307D01*
X107714366Y-79044318D01*
X107773258Y-79264109D01*
X107773261Y-79264118D01*
X107869431Y-79470353D01*
X107869432Y-79470355D01*
X107999954Y-79656762D01*
X108160858Y-79817666D01*
X108160861Y-79817668D01*
X108347266Y-79948189D01*
X108553504Y-80044360D01*
X108553509Y-80044361D01*
X108553511Y-80044362D01*
X108568869Y-80048477D01*
X108773308Y-80103256D01*
X108935230Y-80117422D01*
X108999998Y-80123089D01*
X109000000Y-80123089D01*
X109000002Y-80123089D01*
X109056673Y-80118130D01*
X109226692Y-80103256D01*
X109446496Y-80044360D01*
X109652734Y-79948189D01*
X109839139Y-79817668D01*
X110000047Y-79656760D01*
X110130568Y-79470355D01*
X110226739Y-79264117D01*
X110285635Y-79044313D01*
X110305468Y-78817621D01*
X110285635Y-78590929D01*
X110226739Y-78371125D01*
X110130568Y-78164887D01*
X110000047Y-77978482D01*
X110000045Y-77978479D01*
X109842913Y-77821347D01*
X109809428Y-77760024D01*
X109814412Y-77690332D01*
X109856284Y-77634399D01*
X109902078Y-77612989D01*
X109907480Y-77611712D01*
X109907483Y-77611712D01*
X109907489Y-77611710D01*
X110042328Y-77561418D01*
X110042327Y-77561418D01*
X110042331Y-77561417D01*
X110157546Y-77475167D01*
X110243796Y-77359952D01*
X110294091Y-77225104D01*
X110300500Y-77165494D01*
X110300499Y-76234993D01*
X118594700Y-76234993D01*
X118594700Y-76235006D01*
X118613864Y-76466297D01*
X118613866Y-76466308D01*
X118670842Y-76691300D01*
X118764075Y-76903848D01*
X118891018Y-77098150D01*
X118986167Y-77201510D01*
X119017089Y-77264164D01*
X119009228Y-77333590D01*
X118965081Y-77387746D01*
X118938271Y-77401674D01*
X118857911Y-77431646D01*
X118857906Y-77431649D01*
X118742812Y-77517809D01*
X118742809Y-77517812D01*
X118656649Y-77632906D01*
X118656645Y-77632913D01*
X118606403Y-77767620D01*
X118606401Y-77767627D01*
X118600000Y-77827155D01*
X118600000Y-78525000D01*
X119624722Y-78525000D01*
X119580667Y-78601306D01*
X119550000Y-78715756D01*
X119550000Y-78834244D01*
X119580667Y-78948694D01*
X119624722Y-79025000D01*
X118600000Y-79025000D01*
X118600000Y-79722844D01*
X118606401Y-79782372D01*
X118606403Y-79782379D01*
X118656645Y-79917086D01*
X118656649Y-79917093D01*
X118742809Y-80032187D01*
X118742812Y-80032190D01*
X118857906Y-80118350D01*
X118857913Y-80118354D01*
X118992620Y-80168596D01*
X118992627Y-80168598D01*
X119052155Y-80174999D01*
X119052172Y-80175000D01*
X119750000Y-80175000D01*
X119750000Y-79150277D01*
X119826306Y-79194333D01*
X119940756Y-79225000D01*
X120059244Y-79225000D01*
X120173694Y-79194333D01*
X120250000Y-79150277D01*
X120250000Y-80175000D01*
X120947828Y-80175000D01*
X120947844Y-80174999D01*
X121007372Y-80168598D01*
X121007379Y-80168596D01*
X121142086Y-80118354D01*
X121142093Y-80118350D01*
X121257187Y-80032190D01*
X121257190Y-80032187D01*
X121343350Y-79917093D01*
X121343354Y-79917086D01*
X121393596Y-79782379D01*
X121393598Y-79782372D01*
X121399999Y-79722844D01*
X121400000Y-79722827D01*
X121400000Y-79025000D01*
X120375278Y-79025000D01*
X120419333Y-78948694D01*
X120450000Y-78834244D01*
X120450000Y-78715756D01*
X120419333Y-78601306D01*
X120389702Y-78549984D01*
X128099500Y-78549984D01*
X128099500Y-80950015D01*
X128110000Y-81052795D01*
X128110001Y-81052796D01*
X128165186Y-81219335D01*
X128165187Y-81219337D01*
X128257286Y-81368651D01*
X128257289Y-81368655D01*
X128381344Y-81492710D01*
X128381348Y-81492713D01*
X128530662Y-81584812D01*
X128530664Y-81584813D01*
X128530666Y-81584814D01*
X128697203Y-81639999D01*
X128799992Y-81650500D01*
X128799997Y-81650500D01*
X131200003Y-81650500D01*
X131200008Y-81650500D01*
X131302797Y-81639999D01*
X131469334Y-81584814D01*
X131618655Y-81492711D01*
X131742711Y-81368655D01*
X131834814Y-81219334D01*
X131889999Y-81052797D01*
X131900500Y-80950008D01*
X131900500Y-78549992D01*
X131889999Y-78447203D01*
X131834814Y-78280666D01*
X131763557Y-78165142D01*
X131742713Y-78131348D01*
X131742710Y-78131344D01*
X131618655Y-78007289D01*
X131618651Y-78007286D01*
X131469337Y-77915187D01*
X131469335Y-77915186D01*
X131386065Y-77887593D01*
X131302797Y-77860001D01*
X131302795Y-77860000D01*
X131200015Y-77849500D01*
X131200008Y-77849500D01*
X128799992Y-77849500D01*
X128799984Y-77849500D01*
X128697204Y-77860000D01*
X128697203Y-77860001D01*
X128530664Y-77915186D01*
X128530662Y-77915187D01*
X128381348Y-78007286D01*
X128381344Y-78007289D01*
X128257289Y-78131344D01*
X128257286Y-78131348D01*
X128165187Y-78280662D01*
X128165186Y-78280664D01*
X128110001Y-78447203D01*
X128110000Y-78447204D01*
X128099500Y-78549984D01*
X120389702Y-78549984D01*
X120375278Y-78525000D01*
X121400000Y-78525000D01*
X121400000Y-77827172D01*
X121399999Y-77827155D01*
X121393598Y-77767627D01*
X121393596Y-77767620D01*
X121343354Y-77632913D01*
X121343350Y-77632906D01*
X121257190Y-77517812D01*
X121257187Y-77517809D01*
X121142093Y-77431649D01*
X121142086Y-77431645D01*
X121061729Y-77401674D01*
X121005795Y-77359803D01*
X120981378Y-77294338D01*
X120996230Y-77226065D01*
X121013826Y-77201516D01*
X121108979Y-77098153D01*
X121235924Y-76903849D01*
X121329157Y-76691300D01*
X121386134Y-76466305D01*
X121396405Y-76342351D01*
X121405300Y-76235006D01*
X121405300Y-76234993D01*
X121386135Y-76003702D01*
X121386133Y-76003691D01*
X121329157Y-75778699D01*
X121235924Y-75566151D01*
X121108983Y-75371852D01*
X121108980Y-75371849D01*
X121108979Y-75371847D01*
X120951784Y-75201087D01*
X120951779Y-75201083D01*
X120951777Y-75201081D01*
X120768634Y-75058535D01*
X120768628Y-75058531D01*
X120564504Y-74948064D01*
X120564495Y-74948061D01*
X120344984Y-74872702D01*
X120173282Y-74844050D01*
X120116049Y-74834500D01*
X119883951Y-74834500D01*
X119838164Y-74842140D01*
X119655015Y-74872702D01*
X119435504Y-74948061D01*
X119435495Y-74948064D01*
X119231371Y-75058531D01*
X119231365Y-75058535D01*
X119048222Y-75201081D01*
X119048219Y-75201084D01*
X119048216Y-75201086D01*
X119048216Y-75201087D01*
X119029676Y-75221227D01*
X118891016Y-75371852D01*
X118764075Y-75566151D01*
X118670842Y-75778699D01*
X118613866Y-76003691D01*
X118613864Y-76003702D01*
X118594700Y-76234993D01*
X110300499Y-76234993D01*
X110300499Y-75469749D01*
X110294091Y-75410138D01*
X110287617Y-75392781D01*
X110243797Y-75275292D01*
X110243793Y-75275285D01*
X110157547Y-75160076D01*
X110157544Y-75160073D01*
X110042335Y-75073827D01*
X110042328Y-75073823D01*
X109907482Y-75023529D01*
X109907483Y-75023529D01*
X109847883Y-75017122D01*
X109847881Y-75017121D01*
X109847873Y-75017121D01*
X109847864Y-75017121D01*
X108152129Y-75017121D01*
X108152123Y-75017122D01*
X108092516Y-75023529D01*
X107957671Y-75073823D01*
X107957664Y-75073827D01*
X107842455Y-75160073D01*
X107842452Y-75160076D01*
X107756206Y-75275285D01*
X107756202Y-75275292D01*
X107705908Y-75410138D01*
X107699501Y-75469737D01*
X107699501Y-75469744D01*
X107699500Y-75469756D01*
X107699500Y-77165491D01*
X107699501Y-77165497D01*
X107705908Y-77225104D01*
X107756202Y-77359949D01*
X107756206Y-77359956D01*
X107842452Y-77475165D01*
X107842455Y-77475168D01*
X107957664Y-77561414D01*
X107957671Y-77561418D01*
X107993497Y-77574780D01*
X108092517Y-77611712D01*
X108092527Y-77611713D01*
X108097913Y-77612986D01*
X108158631Y-77647556D01*
X108191021Y-77709464D01*
X108184799Y-77779056D01*
X108157088Y-77821346D01*
X107999951Y-77978483D01*
X107869432Y-78164886D01*
X107869431Y-78164888D01*
X107773261Y-78371123D01*
X107773258Y-78371132D01*
X107714366Y-78590923D01*
X107714364Y-78590934D01*
X107694532Y-78817619D01*
X98020500Y-78817619D01*
X98020500Y-78677648D01*
X97992156Y-78498694D01*
X97988477Y-78475465D01*
X97954577Y-78371132D01*
X97925220Y-78280781D01*
X97925218Y-78280778D01*
X97925218Y-78280776D01*
X97891503Y-78214607D01*
X97832287Y-78098390D01*
X97766097Y-78007286D01*
X97711971Y-77932786D01*
X97567213Y-77788028D01*
X97401614Y-77667715D01*
X97395006Y-77664348D01*
X97308917Y-77620483D01*
X97258123Y-77572511D01*
X97241328Y-77504690D01*
X97263865Y-77438555D01*
X97308917Y-77399516D01*
X97401610Y-77352287D01*
X97481371Y-77294338D01*
X97567213Y-77231971D01*
X97567215Y-77231968D01*
X97567219Y-77231966D01*
X97711966Y-77087219D01*
X97711968Y-77087215D01*
X97711971Y-77087213D01*
X97764732Y-77014590D01*
X97832287Y-76921610D01*
X97925220Y-76739219D01*
X97988477Y-76544534D01*
X98020500Y-76342352D01*
X98020500Y-76137648D01*
X97988477Y-75935466D01*
X97978618Y-75905124D01*
X97937909Y-75779835D01*
X97925220Y-75740781D01*
X97925218Y-75740778D01*
X97925218Y-75740776D01*
X97836241Y-75566151D01*
X97832287Y-75558390D01*
X97819875Y-75541306D01*
X97711971Y-75392786D01*
X97567213Y-75248028D01*
X97401614Y-75127715D01*
X97339929Y-75096285D01*
X97308917Y-75080483D01*
X97258123Y-75032511D01*
X97241328Y-74964690D01*
X97263865Y-74898555D01*
X97308917Y-74859516D01*
X97401610Y-74812287D01*
X97487340Y-74750001D01*
X97487344Y-74749998D01*
X128095147Y-74749998D01*
X128095147Y-74750001D01*
X128114536Y-75021090D01*
X128114537Y-75021097D01*
X128172305Y-75286654D01*
X128267285Y-75541306D01*
X128267287Y-75541310D01*
X128397532Y-75779835D01*
X128397537Y-75779843D01*
X128491321Y-75905123D01*
X128491322Y-75905124D01*
X129398958Y-74997487D01*
X129423978Y-75057890D01*
X129495112Y-75164351D01*
X129585649Y-75254888D01*
X129692110Y-75326022D01*
X129752511Y-75351041D01*
X128844874Y-76258676D01*
X128970163Y-76352466D01*
X128970164Y-76352467D01*
X129208689Y-76482712D01*
X129208693Y-76482714D01*
X129463345Y-76577694D01*
X129728902Y-76635462D01*
X129728909Y-76635463D01*
X129999999Y-76654853D01*
X130000001Y-76654853D01*
X130271090Y-76635463D01*
X130271097Y-76635462D01*
X130536654Y-76577694D01*
X130791306Y-76482714D01*
X130791310Y-76482712D01*
X131029844Y-76352462D01*
X131155123Y-76258677D01*
X131155124Y-76258676D01*
X130247488Y-75351041D01*
X130307890Y-75326022D01*
X130414351Y-75254888D01*
X130504888Y-75164351D01*
X130576022Y-75057890D01*
X130601041Y-74997489D01*
X131508676Y-75905124D01*
X131508677Y-75905123D01*
X131602462Y-75779844D01*
X131732712Y-75541310D01*
X131732714Y-75541306D01*
X131827694Y-75286654D01*
X131885462Y-75021097D01*
X131885463Y-75021090D01*
X131904853Y-74750001D01*
X131904853Y-74749998D01*
X131885463Y-74478909D01*
X131885462Y-74478902D01*
X131827694Y-74213345D01*
X131732714Y-73958693D01*
X131732712Y-73958689D01*
X131602467Y-73720164D01*
X131602466Y-73720163D01*
X131508676Y-73594874D01*
X130601040Y-74502509D01*
X130576022Y-74442110D01*
X130504888Y-74335649D01*
X130414351Y-74245112D01*
X130307890Y-74173978D01*
X130247487Y-74148957D01*
X131155124Y-73241322D01*
X131155123Y-73241321D01*
X131029843Y-73147537D01*
X131029835Y-73147532D01*
X130791310Y-73017287D01*
X130791306Y-73017285D01*
X130536654Y-72922305D01*
X130271097Y-72864537D01*
X130271090Y-72864536D01*
X130000001Y-72845147D01*
X129999999Y-72845147D01*
X129728909Y-72864536D01*
X129728902Y-72864537D01*
X129463345Y-72922305D01*
X129208693Y-73017285D01*
X129208689Y-73017287D01*
X128970164Y-73147532D01*
X128970156Y-73147537D01*
X128844875Y-73241321D01*
X128844874Y-73241322D01*
X129752511Y-74148958D01*
X129692110Y-74173978D01*
X129585649Y-74245112D01*
X129495112Y-74335649D01*
X129423978Y-74442110D01*
X129398958Y-74502511D01*
X128491322Y-73594874D01*
X128491321Y-73594875D01*
X128397537Y-73720156D01*
X128397532Y-73720164D01*
X128267287Y-73958689D01*
X128267285Y-73958693D01*
X128172305Y-74213345D01*
X128114537Y-74478902D01*
X128114536Y-74478909D01*
X128095147Y-74749998D01*
X97487344Y-74749998D01*
X97567213Y-74691971D01*
X97567215Y-74691968D01*
X97567219Y-74691966D01*
X97711966Y-74547219D01*
X97711968Y-74547215D01*
X97711971Y-74547213D01*
X97764732Y-74474590D01*
X97832287Y-74381610D01*
X97925220Y-74199219D01*
X97988477Y-74004534D01*
X98020500Y-73802352D01*
X98020500Y-73597648D01*
X98012257Y-73545606D01*
X97988477Y-73395465D01*
X97957458Y-73300000D01*
X97925220Y-73200781D01*
X97925218Y-73200778D01*
X97925218Y-73200776D01*
X97891503Y-73134607D01*
X97832287Y-73018390D01*
X97762478Y-72922305D01*
X97711971Y-72852786D01*
X97567213Y-72708028D01*
X97401613Y-72587715D01*
X97401612Y-72587714D01*
X97401610Y-72587713D01*
X97313487Y-72542812D01*
X97219223Y-72494781D01*
X97024534Y-72431522D01*
X96849995Y-72403878D01*
X96822352Y-72399500D01*
X95817648Y-72399500D01*
X95793329Y-72403351D01*
X95615465Y-72431522D01*
X95420776Y-72494781D01*
X95238386Y-72587715D01*
X95072786Y-72708028D01*
X94928028Y-72852786D01*
X94807715Y-73018386D01*
X94714781Y-73200776D01*
X94651522Y-73395465D01*
X94619500Y-73597648D01*
X89086685Y-73597648D01*
X89072741Y-73545606D01*
X89020080Y-73454394D01*
X89015686Y-73450000D01*
X90400000Y-73450000D01*
X90400000Y-72852172D01*
X90399999Y-72852155D01*
X90393598Y-72792627D01*
X90393596Y-72792620D01*
X90343354Y-72657913D01*
X90343350Y-72657906D01*
X90257190Y-72542812D01*
X90257187Y-72542809D01*
X90142093Y-72456649D01*
X90142086Y-72456645D01*
X90007379Y-72406403D01*
X90007372Y-72406401D01*
X89947844Y-72400000D01*
X88950000Y-72400000D01*
X88950000Y-73384314D01*
X88945606Y-73379920D01*
X88854394Y-73327259D01*
X88752661Y-73300000D01*
X88647339Y-73300000D01*
X88545606Y-73327259D01*
X88454394Y-73379920D01*
X88450000Y-73384314D01*
X88450000Y-72400000D01*
X87452155Y-72400000D01*
X87392627Y-72406401D01*
X87392620Y-72406403D01*
X87257913Y-72456645D01*
X87257906Y-72456649D01*
X87142812Y-72542809D01*
X87142809Y-72542812D01*
X87056649Y-72657906D01*
X87056645Y-72657913D01*
X87006403Y-72792620D01*
X87006401Y-72792627D01*
X87000000Y-72852155D01*
X87000000Y-73450000D01*
X88384314Y-73450000D01*
X88379920Y-73454394D01*
X88327259Y-73545606D01*
X88300000Y-73647339D01*
X88300000Y-73752661D01*
X88327259Y-73854394D01*
X88379920Y-73945606D01*
X88384314Y-73950000D01*
X87000000Y-73950000D01*
X87000000Y-74547844D01*
X87006401Y-74607372D01*
X87006403Y-74607379D01*
X87056645Y-74742086D01*
X87056649Y-74742093D01*
X87142809Y-74857187D01*
X87142812Y-74857190D01*
X87257906Y-74943350D01*
X87257913Y-74943354D01*
X87392620Y-74993596D01*
X87430043Y-74997620D01*
X87494595Y-75024358D01*
X87534443Y-75081750D01*
X87536937Y-75151576D01*
X87501285Y-75211665D01*
X87489675Y-75221227D01*
X87452789Y-75248026D01*
X87452782Y-75248032D01*
X87308028Y-75392786D01*
X87187715Y-75558386D01*
X87094781Y-75740776D01*
X87031522Y-75935465D01*
X86999500Y-76137648D01*
X76300499Y-76137648D01*
X76300499Y-75469749D01*
X76294091Y-75410138D01*
X76287617Y-75392781D01*
X76243797Y-75275292D01*
X76243793Y-75275285D01*
X76157547Y-75160076D01*
X76157544Y-75160073D01*
X76042335Y-75073827D01*
X76042328Y-75073823D01*
X75907482Y-75023529D01*
X75907483Y-75023529D01*
X75847883Y-75017122D01*
X75847881Y-75017121D01*
X75847873Y-75017121D01*
X75847864Y-75017121D01*
X74152129Y-75017121D01*
X74152123Y-75017122D01*
X74092516Y-75023529D01*
X73957671Y-75073823D01*
X73957664Y-75073827D01*
X73842455Y-75160073D01*
X73842452Y-75160076D01*
X73756206Y-75275285D01*
X73756202Y-75275292D01*
X73705908Y-75410138D01*
X73699501Y-75469737D01*
X73699501Y-75469744D01*
X73699500Y-75469756D01*
X73699500Y-77165491D01*
X73699501Y-77165497D01*
X73705908Y-77225104D01*
X73756202Y-77359949D01*
X73756206Y-77359956D01*
X73842452Y-77475165D01*
X73842455Y-77475168D01*
X73957664Y-77561414D01*
X73957671Y-77561418D01*
X73993497Y-77574780D01*
X74092517Y-77611712D01*
X74152127Y-77618121D01*
X74152153Y-77618120D01*
X74155453Y-77618299D01*
X74155372Y-77619804D01*
X74216672Y-77637733D01*
X74262483Y-77690488D01*
X74270016Y-77734085D01*
X74953553Y-78417621D01*
X74947339Y-78417621D01*
X74845606Y-78444880D01*
X74754394Y-78497541D01*
X74679920Y-78572015D01*
X74627259Y-78663227D01*
X74600000Y-78764960D01*
X74600000Y-78771173D01*
X73920974Y-78092147D01*
X73920973Y-78092147D01*
X73869868Y-78165133D01*
X73869866Y-78165137D01*
X73773734Y-78371294D01*
X73773730Y-78371303D01*
X73714860Y-78591010D01*
X73714858Y-78591021D01*
X73695034Y-78817618D01*
X50500500Y-78817618D01*
X50500500Y-69756009D01*
X50520185Y-69688970D01*
X50572989Y-69643215D01*
X50642147Y-69633271D01*
X50705703Y-69662296D01*
X50712175Y-69668322D01*
X51035057Y-69991205D01*
X51035067Y-69991215D01*
X51035077Y-69991224D01*
X51101982Y-70043196D01*
X51101983Y-70043196D01*
X51101984Y-70043197D01*
X51234950Y-70098273D01*
X51319023Y-70108833D01*
X53680975Y-70108832D01*
X53765050Y-70098273D01*
X53898016Y-70043196D01*
X53964935Y-69991212D01*
X54782884Y-69173264D01*
X54834864Y-69106349D01*
X54889940Y-68973383D01*
X54900500Y-68889310D01*
X54900499Y-66999998D01*
X110534532Y-66999998D01*
X110534532Y-67000001D01*
X110554364Y-67226686D01*
X110554366Y-67226697D01*
X110613258Y-67446488D01*
X110613261Y-67446497D01*
X110709431Y-67652732D01*
X110709432Y-67652734D01*
X110839954Y-67839141D01*
X111000858Y-68000045D01*
X111000861Y-68000047D01*
X111187266Y-68130568D01*
X111393504Y-68226739D01*
X111613308Y-68285635D01*
X111775230Y-68299801D01*
X111839998Y-68305468D01*
X111840000Y-68305468D01*
X111840002Y-68305468D01*
X111896673Y-68300509D01*
X112066692Y-68285635D01*
X112286496Y-68226739D01*
X112492734Y-68130568D01*
X112679139Y-68000047D01*
X112840047Y-67839139D01*
X112970568Y-67652734D01*
X113066739Y-67446496D01*
X113125635Y-67226692D01*
X113145468Y-67000000D01*
X113145468Y-66999998D01*
X120694532Y-66999998D01*
X120694532Y-67000001D01*
X120714364Y-67226686D01*
X120714366Y-67226697D01*
X120773258Y-67446488D01*
X120773261Y-67446497D01*
X120869431Y-67652732D01*
X120869432Y-67652734D01*
X120999954Y-67839141D01*
X121160858Y-68000045D01*
X121160861Y-68000047D01*
X121347266Y-68130568D01*
X121553504Y-68226739D01*
X121773308Y-68285635D01*
X121935230Y-68299801D01*
X121999998Y-68305468D01*
X122000000Y-68305468D01*
X122000002Y-68305468D01*
X122056673Y-68300509D01*
X122226692Y-68285635D01*
X122446496Y-68226739D01*
X122652734Y-68130568D01*
X122839139Y-68000047D01*
X123000047Y-67839139D01*
X123130568Y-67652734D01*
X123226739Y-67446496D01*
X123285635Y-67226692D01*
X123305468Y-67000000D01*
X123285635Y-66773308D01*
X123226739Y-66553504D01*
X123130568Y-66347266D01*
X123000047Y-66160861D01*
X123000045Y-66160858D01*
X122839141Y-65999954D01*
X122652734Y-65869432D01*
X122652732Y-65869431D01*
X122446497Y-65773261D01*
X122446488Y-65773258D01*
X122226697Y-65714366D01*
X122226693Y-65714365D01*
X122226692Y-65714365D01*
X122226691Y-65714364D01*
X122226686Y-65714364D01*
X122000002Y-65694532D01*
X121999998Y-65694532D01*
X121773313Y-65714364D01*
X121773302Y-65714366D01*
X121553511Y-65773258D01*
X121553502Y-65773261D01*
X121347267Y-65869431D01*
X121347265Y-65869432D01*
X121160858Y-65999954D01*
X120999954Y-66160858D01*
X120869432Y-66347265D01*
X120869431Y-66347267D01*
X120773261Y-66553502D01*
X120773258Y-66553511D01*
X120714366Y-66773302D01*
X120714364Y-66773313D01*
X120694532Y-66999998D01*
X113145468Y-66999998D01*
X113125635Y-66773308D01*
X113066739Y-66553504D01*
X112970568Y-66347266D01*
X112840047Y-66160861D01*
X112840045Y-66160858D01*
X112679141Y-65999954D01*
X112492734Y-65869432D01*
X112492732Y-65869431D01*
X112286497Y-65773261D01*
X112286488Y-65773258D01*
X112066697Y-65714366D01*
X112066693Y-65714365D01*
X112066692Y-65714365D01*
X112066691Y-65714364D01*
X112066686Y-65714364D01*
X111840002Y-65694532D01*
X111839998Y-65694532D01*
X111613313Y-65714364D01*
X111613302Y-65714366D01*
X111393511Y-65773258D01*
X111393502Y-65773261D01*
X111187267Y-65869431D01*
X111187265Y-65869432D01*
X111000858Y-65999954D01*
X110839954Y-66160858D01*
X110709432Y-66347265D01*
X110709431Y-66347267D01*
X110613261Y-66553502D01*
X110613258Y-66553511D01*
X110554366Y-66773302D01*
X110554364Y-66773313D01*
X110534532Y-66999998D01*
X54900499Y-66999998D01*
X54900499Y-66527358D01*
X54889940Y-66443283D01*
X54834863Y-66310317D01*
X54782879Y-66243398D01*
X53964931Y-65425449D01*
X53964930Y-65425448D01*
X53964922Y-65425441D01*
X53898017Y-65373469D01*
X53822842Y-65342331D01*
X53765050Y-65318393D01*
X53680977Y-65307833D01*
X51319029Y-65307833D01*
X51234950Y-65318393D01*
X51101984Y-65373469D01*
X51035065Y-65425454D01*
X51035058Y-65425460D01*
X50712181Y-65748337D01*
X50650858Y-65781822D01*
X50581166Y-65776838D01*
X50525233Y-65734966D01*
X50500816Y-65669502D01*
X50500500Y-65660656D01*
X50500500Y-64000000D01*
X61649551Y-64000000D01*
X61669317Y-64251151D01*
X61728126Y-64496110D01*
X61824533Y-64728859D01*
X61956160Y-64943653D01*
X61956161Y-64943656D01*
X61956164Y-64943659D01*
X62119776Y-65135224D01*
X62268066Y-65261875D01*
X62311343Y-65298838D01*
X62311346Y-65298839D01*
X62526140Y-65430466D01*
X62758889Y-65526873D01*
X63003852Y-65585683D01*
X63255000Y-65605449D01*
X63506148Y-65585683D01*
X63751111Y-65526873D01*
X63983859Y-65430466D01*
X64198659Y-65298836D01*
X64390224Y-65135224D01*
X64553836Y-64943659D01*
X64685466Y-64728859D01*
X64781873Y-64496111D01*
X64840683Y-64251148D01*
X64860449Y-64000000D01*
X64840683Y-63748852D01*
X64781873Y-63503889D01*
X64686364Y-63273308D01*
X64685466Y-63271140D01*
X64553839Y-63056346D01*
X64553838Y-63056343D01*
X64516875Y-63013066D01*
X64390224Y-62864776D01*
X64375423Y-62852135D01*
X71814500Y-62852135D01*
X71814500Y-65147870D01*
X71814501Y-65147876D01*
X71820908Y-65207483D01*
X71871202Y-65342328D01*
X71871206Y-65342335D01*
X71957452Y-65457544D01*
X71957455Y-65457547D01*
X72072664Y-65543793D01*
X72072671Y-65543797D01*
X72207517Y-65594091D01*
X72207516Y-65594091D01*
X72214444Y-65594835D01*
X72267127Y-65600500D01*
X74562872Y-65600499D01*
X74622483Y-65594091D01*
X74757331Y-65543796D01*
X74872546Y-65457546D01*
X74958796Y-65342331D01*
X75009091Y-65207483D01*
X75015500Y-65147873D01*
X75015499Y-63499998D01*
X86414532Y-63499998D01*
X86414532Y-63500001D01*
X86434364Y-63726686D01*
X86434366Y-63726697D01*
X86493258Y-63946488D01*
X86493261Y-63946497D01*
X86589431Y-64152732D01*
X86589432Y-64152734D01*
X86719954Y-64339141D01*
X86880858Y-64500045D01*
X86880861Y-64500047D01*
X87067266Y-64630568D01*
X87273504Y-64726739D01*
X87493308Y-64785635D01*
X87655230Y-64799801D01*
X87719998Y-64805468D01*
X87720000Y-64805468D01*
X87720002Y-64805468D01*
X87776673Y-64800509D01*
X87946692Y-64785635D01*
X88166496Y-64726739D01*
X88372734Y-64630568D01*
X88559139Y-64500047D01*
X88720047Y-64339139D01*
X88850568Y-64152734D01*
X88946739Y-63946496D01*
X89005635Y-63726692D01*
X89025468Y-63500000D01*
X89025468Y-63499998D01*
X96574532Y-63499998D01*
X96574532Y-63500001D01*
X96594364Y-63726686D01*
X96594366Y-63726697D01*
X96653258Y-63946488D01*
X96653261Y-63946497D01*
X96749431Y-64152732D01*
X96749432Y-64152734D01*
X96879954Y-64339141D01*
X97040858Y-64500045D01*
X97040861Y-64500047D01*
X97227266Y-64630568D01*
X97433504Y-64726739D01*
X97653308Y-64785635D01*
X97815230Y-64799801D01*
X97879998Y-64805468D01*
X97880000Y-64805468D01*
X97880002Y-64805468D01*
X97936673Y-64800509D01*
X98106692Y-64785635D01*
X98326496Y-64726739D01*
X98532734Y-64630568D01*
X98719139Y-64500047D01*
X98880047Y-64339139D01*
X99010568Y-64152734D01*
X99106739Y-63946496D01*
X99165635Y-63726692D01*
X99185468Y-63500000D01*
X99185468Y-63499998D01*
X110579532Y-63499998D01*
X110579532Y-63500001D01*
X110599364Y-63726686D01*
X110599366Y-63726697D01*
X110658258Y-63946488D01*
X110658261Y-63946497D01*
X110754431Y-64152732D01*
X110754432Y-64152734D01*
X110884954Y-64339141D01*
X111045858Y-64500045D01*
X111045861Y-64500047D01*
X111232266Y-64630568D01*
X111438504Y-64726739D01*
X111658308Y-64785635D01*
X111820230Y-64799801D01*
X111884998Y-64805468D01*
X111885000Y-64805468D01*
X111885002Y-64805468D01*
X111941673Y-64800509D01*
X112111692Y-64785635D01*
X112331496Y-64726739D01*
X112537734Y-64630568D01*
X112724139Y-64500047D01*
X112885047Y-64339139D01*
X113015568Y-64152734D01*
X113111739Y-63946496D01*
X113170635Y-63726692D01*
X113190468Y-63500000D01*
X113190468Y-63499998D01*
X120739532Y-63499998D01*
X120739532Y-63500001D01*
X120759364Y-63726686D01*
X120759366Y-63726697D01*
X120818258Y-63946488D01*
X120818261Y-63946497D01*
X120914431Y-64152732D01*
X120914432Y-64152734D01*
X121044954Y-64339141D01*
X121205858Y-64500045D01*
X121205861Y-64500047D01*
X121392266Y-64630568D01*
X121598504Y-64726739D01*
X121818308Y-64785635D01*
X121980230Y-64799801D01*
X122044998Y-64805468D01*
X122045000Y-64805468D01*
X122045002Y-64805468D01*
X122101673Y-64800509D01*
X122271692Y-64785635D01*
X122491496Y-64726739D01*
X122697734Y-64630568D01*
X122884139Y-64500047D01*
X123045047Y-64339139D01*
X123175568Y-64152734D01*
X123271739Y-63946496D01*
X123330635Y-63726692D01*
X123350468Y-63500000D01*
X123330635Y-63273308D01*
X123271739Y-63053504D01*
X123175568Y-62847266D01*
X123045047Y-62660861D01*
X123045045Y-62660858D01*
X122884141Y-62499954D01*
X122697734Y-62369432D01*
X122697732Y-62369431D01*
X122491497Y-62273261D01*
X122491488Y-62273258D01*
X122271697Y-62214366D01*
X122271693Y-62214365D01*
X122271692Y-62214365D01*
X122271691Y-62214364D01*
X122271686Y-62214364D01*
X122045002Y-62194532D01*
X122044998Y-62194532D01*
X121818313Y-62214364D01*
X121818302Y-62214366D01*
X121598511Y-62273258D01*
X121598502Y-62273261D01*
X121392267Y-62369431D01*
X121392265Y-62369432D01*
X121205858Y-62499954D01*
X121044954Y-62660858D01*
X120914432Y-62847265D01*
X120914431Y-62847267D01*
X120818261Y-63053502D01*
X120818258Y-63053511D01*
X120759366Y-63273302D01*
X120759364Y-63273313D01*
X120739532Y-63499998D01*
X113190468Y-63499998D01*
X113170635Y-63273308D01*
X113111739Y-63053504D01*
X113015568Y-62847266D01*
X112885047Y-62660861D01*
X112885045Y-62660858D01*
X112724141Y-62499954D01*
X112537734Y-62369432D01*
X112537732Y-62369431D01*
X112331497Y-62273261D01*
X112331488Y-62273258D01*
X112111697Y-62214366D01*
X112111693Y-62214365D01*
X112111692Y-62214365D01*
X112111691Y-62214364D01*
X112111686Y-62214364D01*
X111885002Y-62194532D01*
X111884998Y-62194532D01*
X111658313Y-62214364D01*
X111658302Y-62214366D01*
X111438511Y-62273258D01*
X111438502Y-62273261D01*
X111232267Y-62369431D01*
X111232265Y-62369432D01*
X111045858Y-62499954D01*
X110884954Y-62660858D01*
X110754432Y-62847265D01*
X110754431Y-62847267D01*
X110658261Y-63053502D01*
X110658258Y-63053511D01*
X110599366Y-63273302D01*
X110599364Y-63273313D01*
X110579532Y-63499998D01*
X99185468Y-63499998D01*
X99165635Y-63273308D01*
X99106739Y-63053504D01*
X99010568Y-62847266D01*
X98880047Y-62660861D01*
X98880045Y-62660858D01*
X98719141Y-62499954D01*
X98532734Y-62369432D01*
X98532732Y-62369431D01*
X98326497Y-62273261D01*
X98326488Y-62273258D01*
X98106697Y-62214366D01*
X98106693Y-62214365D01*
X98106692Y-62214365D01*
X98106691Y-62214364D01*
X98106686Y-62214364D01*
X97880002Y-62194532D01*
X97879998Y-62194532D01*
X97653313Y-62214364D01*
X97653302Y-62214366D01*
X97433511Y-62273258D01*
X97433502Y-62273261D01*
X97227267Y-62369431D01*
X97227265Y-62369432D01*
X97040858Y-62499954D01*
X96879954Y-62660858D01*
X96749432Y-62847265D01*
X96749431Y-62847267D01*
X96653261Y-63053502D01*
X96653258Y-63053511D01*
X96594366Y-63273302D01*
X96594364Y-63273313D01*
X96574532Y-63499998D01*
X89025468Y-63499998D01*
X89005635Y-63273308D01*
X88946739Y-63053504D01*
X88850568Y-62847266D01*
X88720047Y-62660861D01*
X88720045Y-62660858D01*
X88559141Y-62499954D01*
X88372734Y-62369432D01*
X88372732Y-62369431D01*
X88166497Y-62273261D01*
X88166488Y-62273258D01*
X87946697Y-62214366D01*
X87946693Y-62214365D01*
X87946692Y-62214365D01*
X87946691Y-62214364D01*
X87946686Y-62214364D01*
X87720002Y-62194532D01*
X87719998Y-62194532D01*
X87493313Y-62214364D01*
X87493302Y-62214366D01*
X87273511Y-62273258D01*
X87273502Y-62273261D01*
X87067267Y-62369431D01*
X87067265Y-62369432D01*
X86880858Y-62499954D01*
X86719954Y-62660858D01*
X86589432Y-62847265D01*
X86589431Y-62847267D01*
X86493261Y-63053502D01*
X86493258Y-63053511D01*
X86434366Y-63273302D01*
X86434364Y-63273313D01*
X86414532Y-63499998D01*
X75015499Y-63499998D01*
X75015499Y-62852128D01*
X75009091Y-62792517D01*
X74975017Y-62701161D01*
X74958797Y-62657671D01*
X74958793Y-62657664D01*
X74872547Y-62542455D01*
X74872544Y-62542452D01*
X74757335Y-62456206D01*
X74757328Y-62456202D01*
X74622482Y-62405908D01*
X74622483Y-62405908D01*
X74562883Y-62399501D01*
X74562881Y-62399500D01*
X74562873Y-62399500D01*
X74562864Y-62399500D01*
X72267129Y-62399500D01*
X72267123Y-62399501D01*
X72207516Y-62405908D01*
X72072671Y-62456202D01*
X72072664Y-62456206D01*
X71957455Y-62542452D01*
X71957452Y-62542455D01*
X71871206Y-62657664D01*
X71871202Y-62657671D01*
X71820908Y-62792517D01*
X71814501Y-62852116D01*
X71814501Y-62852123D01*
X71814500Y-62852135D01*
X64375423Y-62852135D01*
X64263571Y-62756604D01*
X64198656Y-62701161D01*
X64198653Y-62701160D01*
X63983859Y-62569533D01*
X63751110Y-62473126D01*
X63506151Y-62414317D01*
X63255000Y-62394551D01*
X63003848Y-62414317D01*
X62758889Y-62473126D01*
X62526140Y-62569533D01*
X62311346Y-62701160D01*
X62311343Y-62701161D01*
X62119776Y-62864776D01*
X61956161Y-63056343D01*
X61956160Y-63056346D01*
X61824533Y-63271140D01*
X61728126Y-63503889D01*
X61669317Y-63748848D01*
X61649551Y-64000000D01*
X50500500Y-64000000D01*
X50500500Y-55002706D01*
X50500618Y-54997297D01*
X50501318Y-54981267D01*
X50509340Y-54797529D01*
X64142140Y-54797529D01*
X64142140Y-54797532D01*
X64161534Y-55068691D01*
X64161535Y-55068698D01*
X64213348Y-55306881D01*
X64219320Y-55334332D01*
X64295825Y-55539451D01*
X64314325Y-55589050D01*
X64444604Y-55827638D01*
X64444605Y-55827639D01*
X64444608Y-55827644D01*
X64607524Y-56045273D01*
X64607528Y-56045277D01*
X64607533Y-56045283D01*
X64799742Y-56237492D01*
X64799748Y-56237497D01*
X64799753Y-56237502D01*
X65017382Y-56400418D01*
X65017386Y-56400420D01*
X65017387Y-56400421D01*
X65255976Y-56530700D01*
X65255975Y-56530700D01*
X65255979Y-56530701D01*
X65255982Y-56530703D01*
X65510694Y-56625706D01*
X65776335Y-56683492D01*
X66028100Y-56701498D01*
X66047494Y-56702886D01*
X66047495Y-56702886D01*
X66047496Y-56702886D01*
X66065595Y-56701591D01*
X66318655Y-56683492D01*
X66584296Y-56625706D01*
X66839008Y-56530703D01*
X66839012Y-56530700D01*
X66839014Y-56530700D01*
X66990753Y-56447844D01*
X67077608Y-56400418D01*
X67295237Y-56237502D01*
X67487466Y-56045273D01*
X67650382Y-55827644D01*
X67780667Y-55589044D01*
X67875670Y-55334332D01*
X67933456Y-55068691D01*
X67952850Y-54797531D01*
X67933456Y-54526371D01*
X67875670Y-54260730D01*
X67780667Y-54006018D01*
X67780665Y-54006015D01*
X67780664Y-54006011D01*
X67650385Y-53767423D01*
X67650384Y-53767422D01*
X67650382Y-53767418D01*
X67523216Y-53597545D01*
X69147495Y-53597545D01*
X69147495Y-54547531D01*
X70447494Y-54547531D01*
X70422474Y-54607933D01*
X70397495Y-54733512D01*
X70397495Y-54861550D01*
X70422474Y-54987129D01*
X70447494Y-55047531D01*
X69147495Y-55047531D01*
X69147495Y-55997516D01*
X69157988Y-56100220D01*
X69157989Y-56100227D01*
X69213136Y-56266649D01*
X69213138Y-56266654D01*
X69305179Y-56415875D01*
X69429150Y-56539846D01*
X69578371Y-56631887D01*
X69578376Y-56631889D01*
X69744798Y-56687036D01*
X69744805Y-56687037D01*
X69847509Y-56697530D01*
X69847522Y-56697531D01*
X70797495Y-56697531D01*
X70797495Y-55397532D01*
X70857897Y-55422552D01*
X70983476Y-55447531D01*
X71111514Y-55447531D01*
X71237093Y-55422552D01*
X71297495Y-55397532D01*
X71297495Y-56697531D01*
X72247468Y-56697531D01*
X72247480Y-56697530D01*
X72350184Y-56687037D01*
X72350191Y-56687036D01*
X72516613Y-56631889D01*
X72516618Y-56631887D01*
X72665839Y-56539846D01*
X72789810Y-56415875D01*
X72881851Y-56266654D01*
X72881853Y-56266649D01*
X72937000Y-56100227D01*
X72937001Y-56100220D01*
X72947494Y-55997516D01*
X72947495Y-55997503D01*
X72947495Y-55047531D01*
X71647496Y-55047531D01*
X71672516Y-54987129D01*
X71697495Y-54861550D01*
X71697495Y-54733512D01*
X71672516Y-54607933D01*
X71647496Y-54547531D01*
X72947495Y-54547531D01*
X72947495Y-53597558D01*
X72947494Y-53597545D01*
X72937001Y-53494841D01*
X72937000Y-53494834D01*
X72881853Y-53328412D01*
X72881851Y-53328407D01*
X72789810Y-53179186D01*
X72665839Y-53055215D01*
X72516618Y-52963174D01*
X72516613Y-52963172D01*
X72507019Y-52959993D01*
X91094700Y-52959993D01*
X91094700Y-52960006D01*
X91113864Y-53191297D01*
X91113866Y-53191308D01*
X91170842Y-53416300D01*
X91264075Y-53628848D01*
X91391018Y-53823150D01*
X91486167Y-53926510D01*
X91517089Y-53989164D01*
X91509228Y-54058590D01*
X91465081Y-54112746D01*
X91438271Y-54126674D01*
X91357911Y-54156646D01*
X91357906Y-54156649D01*
X91242812Y-54242809D01*
X91242809Y-54242812D01*
X91156649Y-54357906D01*
X91156645Y-54357913D01*
X91106403Y-54492620D01*
X91106401Y-54492627D01*
X91100000Y-54552155D01*
X91100000Y-55250000D01*
X92124722Y-55250000D01*
X92080667Y-55326306D01*
X92050000Y-55440756D01*
X92050000Y-55559244D01*
X92080667Y-55673694D01*
X92124722Y-55750000D01*
X91100000Y-55750000D01*
X91100000Y-56447844D01*
X91106401Y-56507372D01*
X91106403Y-56507379D01*
X91156645Y-56642086D01*
X91156649Y-56642093D01*
X91242809Y-56757187D01*
X91242812Y-56757190D01*
X91357906Y-56843350D01*
X91357913Y-56843354D01*
X91492620Y-56893596D01*
X91492627Y-56893598D01*
X91552155Y-56899999D01*
X91552172Y-56900000D01*
X92250000Y-56900000D01*
X92250000Y-55875277D01*
X92326306Y-55919333D01*
X92440756Y-55950000D01*
X92559244Y-55950000D01*
X92673694Y-55919333D01*
X92750000Y-55875277D01*
X92750000Y-56900000D01*
X93447828Y-56900000D01*
X93447844Y-56899999D01*
X93507372Y-56893598D01*
X93507379Y-56893596D01*
X93642086Y-56843354D01*
X93642093Y-56843350D01*
X93757187Y-56757190D01*
X93757190Y-56757187D01*
X93843350Y-56642093D01*
X93843354Y-56642086D01*
X93893596Y-56507379D01*
X93893598Y-56507372D01*
X93899999Y-56447844D01*
X93900000Y-56447827D01*
X93900000Y-55750000D01*
X92875278Y-55750000D01*
X92919333Y-55673694D01*
X92950000Y-55559244D01*
X92950000Y-55440756D01*
X92919333Y-55326306D01*
X92875278Y-55250000D01*
X93900000Y-55250000D01*
X93900000Y-54552172D01*
X93899999Y-54552155D01*
X93894390Y-54499997D01*
X96744723Y-54499997D01*
X96744723Y-54500002D01*
X96763793Y-54717975D01*
X96763793Y-54717979D01*
X96820422Y-54929322D01*
X96820424Y-54929326D01*
X96820425Y-54929330D01*
X96849803Y-54992331D01*
X96912897Y-55127638D01*
X96912898Y-55127639D01*
X97038402Y-55306877D01*
X97038406Y-55306881D01*
X97063181Y-55331656D01*
X97096666Y-55392979D01*
X97099500Y-55419337D01*
X97099500Y-59580662D01*
X97079815Y-59647701D01*
X97063181Y-59668343D01*
X97038402Y-59693121D01*
X96912900Y-59872357D01*
X96912898Y-59872361D01*
X96820426Y-60070668D01*
X96820422Y-60070677D01*
X96763793Y-60282020D01*
X96763793Y-60282024D01*
X96744723Y-60499997D01*
X96744723Y-60500002D01*
X96763793Y-60717975D01*
X96763793Y-60717979D01*
X96820422Y-60929322D01*
X96820424Y-60929326D01*
X96820425Y-60929330D01*
X96866661Y-61028484D01*
X96912897Y-61127638D01*
X96912898Y-61127639D01*
X97038402Y-61306877D01*
X97193123Y-61461598D01*
X97372361Y-61587102D01*
X97570670Y-61679575D01*
X97782023Y-61736207D01*
X97964926Y-61752208D01*
X97999998Y-61755277D01*
X98000000Y-61755277D01*
X98000002Y-61755277D01*
X98028254Y-61752805D01*
X98217977Y-61736207D01*
X98429330Y-61679575D01*
X98627639Y-61587102D01*
X98806877Y-61461598D01*
X98961598Y-61306877D01*
X99087102Y-61127639D01*
X99179575Y-60929330D01*
X99236207Y-60717977D01*
X99255277Y-60500000D01*
X99236207Y-60282023D01*
X99179575Y-60070670D01*
X99087102Y-59872362D01*
X99087100Y-59872359D01*
X99087099Y-59872357D01*
X98961597Y-59693121D01*
X98936819Y-59668343D01*
X98903334Y-59607020D01*
X98900500Y-59580662D01*
X98900500Y-55419337D01*
X98920185Y-55352298D01*
X98936819Y-55331656D01*
X98942169Y-55326306D01*
X98961598Y-55306877D01*
X99087102Y-55127639D01*
X99179575Y-54929330D01*
X99236207Y-54717977D01*
X99255277Y-54500000D01*
X99254631Y-54492620D01*
X99251569Y-54457618D01*
X99236207Y-54282023D01*
X99179575Y-54070670D01*
X99087102Y-53872362D01*
X99087100Y-53872359D01*
X99087099Y-53872357D01*
X98961599Y-53693124D01*
X98897323Y-53628848D01*
X98806877Y-53538402D01*
X98627639Y-53412898D01*
X98627640Y-53412898D01*
X98627638Y-53412897D01*
X98528484Y-53366661D01*
X98429330Y-53320425D01*
X98429326Y-53320424D01*
X98429322Y-53320422D01*
X98217977Y-53263793D01*
X98000002Y-53244723D01*
X97999998Y-53244723D01*
X97854682Y-53257436D01*
X97782023Y-53263793D01*
X97782020Y-53263793D01*
X97570677Y-53320422D01*
X97570668Y-53320426D01*
X97372361Y-53412898D01*
X97372357Y-53412900D01*
X97193121Y-53538402D01*
X97038402Y-53693121D01*
X96912900Y-53872357D01*
X96912898Y-53872361D01*
X96820426Y-54070668D01*
X96820422Y-54070677D01*
X96763793Y-54282020D01*
X96763793Y-54282023D01*
X96759025Y-54336517D01*
X96744723Y-54499997D01*
X93894390Y-54499997D01*
X93893598Y-54492627D01*
X93893596Y-54492620D01*
X93843354Y-54357913D01*
X93843350Y-54357906D01*
X93757190Y-54242812D01*
X93757187Y-54242809D01*
X93642093Y-54156649D01*
X93642086Y-54156645D01*
X93561729Y-54126674D01*
X93505795Y-54084803D01*
X93481378Y-54019338D01*
X93496230Y-53951065D01*
X93513826Y-53926516D01*
X93608979Y-53823153D01*
X93735924Y-53628849D01*
X93829157Y-53416300D01*
X93883391Y-53202135D01*
X112709500Y-53202135D01*
X112709500Y-54797870D01*
X112709501Y-54797876D01*
X112715908Y-54857483D01*
X112766202Y-54992328D01*
X112766206Y-54992335D01*
X112852452Y-55107544D01*
X112852455Y-55107547D01*
X112967664Y-55193793D01*
X112967671Y-55193797D01*
X113102517Y-55244091D01*
X113102516Y-55244091D01*
X113109444Y-55244835D01*
X113162127Y-55250500D01*
X114757872Y-55250499D01*
X114817483Y-55244091D01*
X114952331Y-55193796D01*
X115067546Y-55107546D01*
X115130734Y-55023136D01*
X115186667Y-54981267D01*
X115256359Y-54976283D01*
X115317682Y-55009768D01*
X115329260Y-55023130D01*
X115392454Y-55107546D01*
X115419295Y-55127639D01*
X115507664Y-55193793D01*
X115507671Y-55193797D01*
X115642517Y-55244091D01*
X115642516Y-55244091D01*
X115649444Y-55244835D01*
X115702127Y-55250500D01*
X117297872Y-55250499D01*
X117357483Y-55244091D01*
X117492331Y-55193796D01*
X117607546Y-55107546D01*
X117670734Y-55023136D01*
X117726667Y-54981267D01*
X117796359Y-54976283D01*
X117857682Y-55009768D01*
X117869260Y-55023130D01*
X117932454Y-55107546D01*
X117959295Y-55127639D01*
X118047664Y-55193793D01*
X118047671Y-55193797D01*
X118182517Y-55244091D01*
X118182516Y-55244091D01*
X118189444Y-55244835D01*
X118242127Y-55250500D01*
X119837872Y-55250499D01*
X119897483Y-55244091D01*
X120032331Y-55193796D01*
X120147546Y-55107546D01*
X120233796Y-54992331D01*
X120284091Y-54857483D01*
X120290500Y-54797873D01*
X120290499Y-53202128D01*
X120284091Y-53142517D01*
X120269511Y-53103427D01*
X120233797Y-53007671D01*
X120233793Y-53007664D01*
X120147547Y-52892455D01*
X120147544Y-52892452D01*
X120032335Y-52806206D01*
X120032328Y-52806202D01*
X119897482Y-52755908D01*
X119897483Y-52755908D01*
X119837883Y-52749501D01*
X119837881Y-52749500D01*
X119837873Y-52749500D01*
X119837864Y-52749500D01*
X118242129Y-52749500D01*
X118242123Y-52749501D01*
X118182516Y-52755908D01*
X118047671Y-52806202D01*
X118047664Y-52806206D01*
X117932455Y-52892452D01*
X117932452Y-52892455D01*
X117869266Y-52976861D01*
X117813332Y-53018732D01*
X117743641Y-53023716D01*
X117682318Y-52990230D01*
X117670734Y-52976861D01*
X117607547Y-52892455D01*
X117607544Y-52892452D01*
X117492335Y-52806206D01*
X117492328Y-52806202D01*
X117357482Y-52755908D01*
X117357483Y-52755908D01*
X117297883Y-52749501D01*
X117297881Y-52749500D01*
X117297873Y-52749500D01*
X117297864Y-52749500D01*
X115702129Y-52749500D01*
X115702123Y-52749501D01*
X115642516Y-52755908D01*
X115507671Y-52806202D01*
X115507664Y-52806206D01*
X115392455Y-52892452D01*
X115392452Y-52892455D01*
X115329266Y-52976861D01*
X115273332Y-53018732D01*
X115203641Y-53023716D01*
X115142318Y-52990230D01*
X115130734Y-52976861D01*
X115067547Y-52892455D01*
X115067544Y-52892452D01*
X114952335Y-52806206D01*
X114952328Y-52806202D01*
X114817482Y-52755908D01*
X114817483Y-52755908D01*
X114757883Y-52749501D01*
X114757881Y-52749500D01*
X114757873Y-52749500D01*
X114757864Y-52749500D01*
X113162129Y-52749500D01*
X113162123Y-52749501D01*
X113102516Y-52755908D01*
X112967671Y-52806202D01*
X112967664Y-52806206D01*
X112852455Y-52892452D01*
X112852452Y-52892455D01*
X112766206Y-53007664D01*
X112766202Y-53007671D01*
X112715908Y-53142517D01*
X112709501Y-53202116D01*
X112709501Y-53202123D01*
X112709500Y-53202135D01*
X93883391Y-53202135D01*
X93886134Y-53191305D01*
X93886135Y-53191297D01*
X93905300Y-52960006D01*
X93905300Y-52959993D01*
X93886135Y-52728702D01*
X93886133Y-52728691D01*
X93829157Y-52503699D01*
X93735924Y-52291151D01*
X93608983Y-52096852D01*
X93608980Y-52096849D01*
X93608979Y-52096847D01*
X93451784Y-51926087D01*
X93451779Y-51926083D01*
X93451777Y-51926081D01*
X93268634Y-51783535D01*
X93268628Y-51783531D01*
X93064504Y-51673064D01*
X93064495Y-51673061D01*
X92844984Y-51597702D01*
X92673282Y-51569050D01*
X92616049Y-51559500D01*
X92383951Y-51559500D01*
X92338164Y-51567140D01*
X92155015Y-51597702D01*
X91935504Y-51673061D01*
X91935495Y-51673064D01*
X91731371Y-51783531D01*
X91731365Y-51783535D01*
X91548222Y-51926081D01*
X91548219Y-51926084D01*
X91391016Y-52096852D01*
X91264075Y-52291151D01*
X91170842Y-52503699D01*
X91113866Y-52728691D01*
X91113864Y-52728702D01*
X91094700Y-52959993D01*
X72507019Y-52959993D01*
X72350191Y-52908025D01*
X72350184Y-52908024D01*
X72247480Y-52897531D01*
X71297495Y-52897531D01*
X71297495Y-54197529D01*
X71237093Y-54172510D01*
X71111514Y-54147531D01*
X70983476Y-54147531D01*
X70857897Y-54172510D01*
X70797495Y-54197529D01*
X70797495Y-52897531D01*
X69847509Y-52897531D01*
X69744805Y-52908024D01*
X69744798Y-52908025D01*
X69578376Y-52963172D01*
X69578371Y-52963174D01*
X69429150Y-53055215D01*
X69305179Y-53179186D01*
X69213138Y-53328407D01*
X69213136Y-53328412D01*
X69157989Y-53494834D01*
X69157988Y-53494841D01*
X69147495Y-53597545D01*
X67523216Y-53597545D01*
X67487466Y-53549789D01*
X67487461Y-53549784D01*
X67487456Y-53549778D01*
X67295247Y-53357569D01*
X67295241Y-53357564D01*
X67295237Y-53357560D01*
X67077608Y-53194644D01*
X67077603Y-53194641D01*
X67077602Y-53194640D01*
X66839013Y-53064361D01*
X66839014Y-53064361D01*
X66730040Y-53023716D01*
X66584296Y-52969356D01*
X66584289Y-52969354D01*
X66584288Y-52969354D01*
X66318662Y-52911571D01*
X66318655Y-52911570D01*
X66047496Y-52892176D01*
X66047494Y-52892176D01*
X65776334Y-52911570D01*
X65776327Y-52911571D01*
X65510701Y-52969354D01*
X65510697Y-52969355D01*
X65510694Y-52969356D01*
X65407968Y-53007671D01*
X65255975Y-53064361D01*
X65017387Y-53194640D01*
X65017386Y-53194641D01*
X64799754Y-53357559D01*
X64799742Y-53357569D01*
X64607533Y-53549778D01*
X64607523Y-53549790D01*
X64444605Y-53767422D01*
X64444604Y-53767423D01*
X64314325Y-54006011D01*
X64274515Y-54112746D01*
X64219320Y-54260730D01*
X64219319Y-54260733D01*
X64219318Y-54260737D01*
X64161535Y-54526363D01*
X64161534Y-54526370D01*
X64142140Y-54797529D01*
X50509340Y-54797529D01*
X50517386Y-54613226D01*
X50518326Y-54602495D01*
X50568152Y-54224025D01*
X50570025Y-54213405D01*
X50652649Y-53840709D01*
X50655440Y-53830295D01*
X50770230Y-53466227D01*
X50773917Y-53456095D01*
X50920003Y-53103412D01*
X50924561Y-53093638D01*
X51100822Y-52755045D01*
X51106217Y-52745700D01*
X51311325Y-52423744D01*
X51317515Y-52414905D01*
X51549896Y-52112060D01*
X51556834Y-52103791D01*
X51814726Y-51822352D01*
X51822352Y-51814726D01*
X52103791Y-51556834D01*
X52112060Y-51549896D01*
X52414905Y-51317515D01*
X52423744Y-51311325D01*
X52745700Y-51106217D01*
X52755045Y-51100822D01*
X53093638Y-50924561D01*
X53103412Y-50920003D01*
X53456095Y-50773917D01*
X53466227Y-50770230D01*
X53830295Y-50655440D01*
X53840709Y-50652649D01*
X54213405Y-50570025D01*
X54224025Y-50568152D01*
X54602495Y-50518326D01*
X54613226Y-50517386D01*
X54997297Y-50500617D01*
X55002706Y-50500500D01*
X55065892Y-50500500D01*
X129934108Y-50500500D01*
X129997294Y-50500500D01*
X130002702Y-50500617D01*
G37*
%TD.AperFunction*%
%TD*%
M02*
