%TF.GenerationSoftware,KiCad,Pcbnew,8.0.8*%
%TF.CreationDate,2025-04-28T20:29:37-04:00*%
%TF.ProjectId,udpudu,75647075-6475-42e6-9b69-6361645f7063,rev?*%
%TF.SameCoordinates,Original*%
%TF.FileFunction,Soldermask,Top*%
%TF.FilePolarity,Negative*%
%FSLAX46Y46*%
G04 Gerber Fmt 4.6, Leading zero omitted, Abs format (unit mm)*
G04 Created by KiCad (PCBNEW 8.0.8) date 2025-04-28 20:29:37*
%MOMM*%
%LPD*%
G01*
G04 APERTURE LIST*
G04 Aperture macros list*
%AMRoundRect*
0 Rectangle with rounded corners*
0 $1 Rounding radius*
0 $2 $3 $4 $5 $6 $7 $8 $9 X,Y pos of 4 corners*
0 Add a 4 corners polygon primitive as box body*
4,1,4,$2,$3,$4,$5,$6,$7,$8,$9,$2,$3,0*
0 Add four circle primitives for the rounded corners*
1,1,$1+$1,$2,$3*
1,1,$1+$1,$4,$5*
1,1,$1+$1,$6,$7*
1,1,$1+$1,$8,$9*
0 Add four rect primitives between the rounded corners*
20,1,$1+$1,$2,$3,$4,$5,0*
20,1,$1+$1,$4,$5,$6,$7,0*
20,1,$1+$1,$6,$7,$8,$9,0*
20,1,$1+$1,$8,$9,$2,$3,0*%
%AMOutline5P*
0 Free polygon, 5 corners , with rotation*
0 The origin of the aperture is its center*
0 number of corners: always 5*
0 $1 to $10 corner X, Y*
0 $11 Rotation angle, in degrees counterclockwise*
0 create outline with 5 corners*
4,1,5,$1,$2,$3,$4,$5,$6,$7,$8,$9,$10,$1,$2,$11*%
%AMOutline6P*
0 Free polygon, 6 corners , with rotation*
0 The origin of the aperture is its center*
0 number of corners: always 6*
0 $1 to $12 corner X, Y*
0 $13 Rotation angle, in degrees counterclockwise*
0 create outline with 6 corners*
4,1,6,$1,$2,$3,$4,$5,$6,$7,$8,$9,$10,$11,$12,$1,$2,$13*%
%AMOutline7P*
0 Free polygon, 7 corners , with rotation*
0 The origin of the aperture is its center*
0 number of corners: always 7*
0 $1 to $14 corner X, Y*
0 $15 Rotation angle, in degrees counterclockwise*
0 create outline with 7 corners*
4,1,7,$1,$2,$3,$4,$5,$6,$7,$8,$9,$10,$11,$12,$13,$14,$1,$2,$15*%
%AMOutline8P*
0 Free polygon, 8 corners , with rotation*
0 The origin of the aperture is its center*
0 number of corners: always 8*
0 $1 to $16 corner X, Y*
0 $17 Rotation angle, in degrees counterclockwise*
0 create outline with 8 corners*
4,1,8,$1,$2,$3,$4,$5,$6,$7,$8,$9,$10,$11,$12,$13,$14,$15,$16,$1,$2,$17*%
G04 Aperture macros list end*
%ADD10C,0.000000*%
%ADD11C,0.300000*%
%ADD12R,1.800000X1.800000*%
%ADD13C,1.800000*%
%ADD14Outline8P,-1.900000X1.140000X-1.140000X1.900000X1.140000X1.900000X1.900000X1.140000X1.900000X-1.140000X1.140000X-1.900000X-1.140000X-1.900000X-1.900000X-1.140000X0.000000*%
%ADD15RoundRect,0.250001X1.149999X-1.149999X1.149999X1.149999X-1.149999X1.149999X-1.149999X-1.149999X0*%
%ADD16C,2.800000*%
%ADD17C,3.200000*%
%ADD18R,2.200000X2.200000*%
%ADD19O,2.200000X2.200000*%
%ADD20R,2.400000X1.600000*%
%ADD21O,2.400000X1.600000*%
%ADD22R,1.600000X1.600000*%
%ADD23C,1.600000*%
%ADD24R,1.500000X1.500000*%
%ADD25O,1.600000X1.600000*%
%ADD26RoundRect,0.250001X1.149999X1.149999X-1.149999X1.149999X-1.149999X-1.149999X1.149999X-1.149999X0*%
G04 APERTURE END LIST*
D10*
G36*
X101836913Y-70083302D02*
G01*
X101861444Y-70085361D01*
X101873447Y-70087139D01*
X101885223Y-70089416D01*
X101896731Y-70092194D01*
X101907932Y-70095475D01*
X101918787Y-70099258D01*
X101929256Y-70103546D01*
X101939299Y-70108338D01*
X101948877Y-70113637D01*
X101957950Y-70119444D01*
X101966478Y-70125758D01*
X101974421Y-70132582D01*
X101981741Y-70139917D01*
X101998467Y-70159883D01*
X102014492Y-70181995D01*
X102029785Y-70206131D01*
X102044315Y-70232166D01*
X102058052Y-70259978D01*
X102070964Y-70289443D01*
X102083020Y-70320438D01*
X102094189Y-70352841D01*
X102104441Y-70386527D01*
X102113744Y-70421373D01*
X102122067Y-70457257D01*
X102129379Y-70494054D01*
X102135649Y-70531642D01*
X102140847Y-70569897D01*
X102144941Y-70608697D01*
X102147900Y-70647917D01*
X102149078Y-70678113D01*
X102150459Y-70705307D01*
X102152081Y-70729661D01*
X102152995Y-70740824D01*
X102153985Y-70751337D01*
X102155056Y-70761220D01*
X102156212Y-70770494D01*
X102157459Y-70779179D01*
X102158801Y-70787295D01*
X102160245Y-70794862D01*
X102161794Y-70801901D01*
X102163454Y-70808431D01*
X102165230Y-70814473D01*
X102167127Y-70820046D01*
X102169149Y-70825172D01*
X102171303Y-70829870D01*
X102173593Y-70834159D01*
X102176024Y-70838062D01*
X102178601Y-70841597D01*
X102181329Y-70844784D01*
X102184214Y-70847645D01*
X102187259Y-70850199D01*
X102190471Y-70852465D01*
X102193854Y-70854466D01*
X102197414Y-70856219D01*
X102201155Y-70857746D01*
X102205082Y-70859068D01*
X102209201Y-70860203D01*
X102213516Y-70861172D01*
X102221016Y-70861950D01*
X102228248Y-70861887D01*
X102231769Y-70861534D01*
X102235229Y-70860962D01*
X102238630Y-70860170D01*
X102241975Y-70859154D01*
X102245266Y-70857912D01*
X102248505Y-70856441D01*
X102251694Y-70854737D01*
X102254835Y-70852800D01*
X102257930Y-70850625D01*
X102260981Y-70848211D01*
X102266962Y-70842651D01*
X102272794Y-70836099D01*
X102278494Y-70828533D01*
X102284080Y-70819931D01*
X102289567Y-70810273D01*
X102294975Y-70799535D01*
X102300318Y-70787696D01*
X102305615Y-70774735D01*
X102310883Y-70760630D01*
X102321022Y-70734980D01*
X102332542Y-70709171D01*
X102359435Y-70657330D01*
X102390993Y-70605617D01*
X102426646Y-70554544D01*
X102465825Y-70504622D01*
X102507959Y-70456360D01*
X102552479Y-70410271D01*
X102598816Y-70366864D01*
X102646398Y-70326651D01*
X102694658Y-70290142D01*
X102743024Y-70257848D01*
X102790928Y-70230281D01*
X102837799Y-70207950D01*
X102860669Y-70198908D01*
X102883068Y-70191367D01*
X102904924Y-70185391D01*
X102926165Y-70181043D01*
X102946721Y-70178388D01*
X102966520Y-70177488D01*
X102978554Y-70177788D01*
X102990538Y-70178682D01*
X103002456Y-70180155D01*
X103014296Y-70182198D01*
X103026044Y-70184798D01*
X103037686Y-70187942D01*
X103049208Y-70191620D01*
X103060596Y-70195819D01*
X103071837Y-70200527D01*
X103082917Y-70205733D01*
X103093823Y-70211424D01*
X103104540Y-70217588D01*
X103115054Y-70224214D01*
X103125353Y-70231290D01*
X103145246Y-70246743D01*
X103164110Y-70263851D01*
X103181835Y-70282520D01*
X103198310Y-70302655D01*
X103213426Y-70324158D01*
X103227072Y-70346936D01*
X103233310Y-70358773D01*
X103239138Y-70370893D01*
X103244545Y-70383284D01*
X103249515Y-70395934D01*
X103254035Y-70408831D01*
X103258091Y-70421963D01*
X103267533Y-70459333D01*
X103275245Y-70497357D01*
X103281266Y-70535933D01*
X103285634Y-70574958D01*
X103288387Y-70614331D01*
X103289562Y-70653949D01*
X103289200Y-70693709D01*
X103287336Y-70733510D01*
X103284009Y-70773249D01*
X103279258Y-70812823D01*
X103273121Y-70852131D01*
X103265635Y-70891069D01*
X103256838Y-70929537D01*
X103246770Y-70967431D01*
X103235467Y-71004648D01*
X103222968Y-71041088D01*
X103209310Y-71076647D01*
X103194533Y-71111223D01*
X103178674Y-71144714D01*
X103161771Y-71177018D01*
X103143863Y-71208031D01*
X103124986Y-71237653D01*
X103105180Y-71265780D01*
X103084483Y-71292310D01*
X103062932Y-71317141D01*
X103040566Y-71340170D01*
X103017422Y-71361296D01*
X102993540Y-71380416D01*
X102968956Y-71397427D01*
X102943709Y-71412228D01*
X102917837Y-71424716D01*
X102891379Y-71434788D01*
X102862103Y-71443718D01*
X102836464Y-71451755D01*
X102814277Y-71459047D01*
X102804421Y-71462461D01*
X102795360Y-71465745D01*
X102787069Y-71468917D01*
X102779527Y-71471995D01*
X102772710Y-71475000D01*
X102766595Y-71477949D01*
X102761160Y-71480860D01*
X102756382Y-71483753D01*
X102752237Y-71486646D01*
X102748702Y-71489557D01*
X102745755Y-71492506D01*
X102743373Y-71495510D01*
X102741532Y-71498589D01*
X102740210Y-71501761D01*
X102739383Y-71505045D01*
X102739029Y-71508458D01*
X102739125Y-71512021D01*
X102739648Y-71515751D01*
X102740575Y-71519667D01*
X102741883Y-71523788D01*
X102743548Y-71528131D01*
X102745549Y-71532717D01*
X102750463Y-71542689D01*
X102756441Y-71553851D01*
X102769577Y-71572643D01*
X102791850Y-71595669D01*
X102822265Y-71622314D01*
X102859827Y-71651962D01*
X102903541Y-71683997D01*
X102952410Y-71717804D01*
X103061638Y-71788272D01*
X103179547Y-71858442D01*
X103298175Y-71923391D01*
X103355271Y-71952369D01*
X103409561Y-71978195D01*
X103460049Y-72000254D01*
X103505741Y-72017930D01*
X103589210Y-72045667D01*
X103676307Y-72068751D01*
X103767040Y-72087180D01*
X103861415Y-72100951D01*
X103959440Y-72110061D01*
X104061121Y-72114510D01*
X104166466Y-72114293D01*
X104275480Y-72109409D01*
X104388172Y-72099856D01*
X104504548Y-72085631D01*
X104624616Y-72066732D01*
X104748381Y-72043156D01*
X104875852Y-72014902D01*
X105007035Y-71981966D01*
X105141938Y-71944347D01*
X105280566Y-71902043D01*
X105362326Y-71876984D01*
X105439693Y-71854770D01*
X105513211Y-71835366D01*
X105583423Y-71818740D01*
X105650872Y-71804857D01*
X105716102Y-71793686D01*
X105779656Y-71785191D01*
X105842078Y-71779341D01*
X105903910Y-71776102D01*
X105965697Y-71775440D01*
X106027981Y-71777322D01*
X106091307Y-71781714D01*
X106156217Y-71788584D01*
X106223254Y-71797898D01*
X106292963Y-71809623D01*
X106365886Y-71823725D01*
X106448780Y-71835946D01*
X106568359Y-71846976D01*
X106947838Y-71866456D01*
X107564847Y-71884150D01*
X108479908Y-71902043D01*
X109288830Y-71915207D01*
X109618526Y-71922206D01*
X109905019Y-71930468D01*
X110153288Y-71940734D01*
X110368313Y-71953741D01*
X110555072Y-71970231D01*
X110639409Y-71980013D01*
X110718547Y-71990942D01*
X110793108Y-72003112D01*
X110863715Y-72016614D01*
X110930991Y-72031542D01*
X110995557Y-72047987D01*
X111058037Y-72066042D01*
X111119052Y-72085799D01*
X111179226Y-72107351D01*
X111239180Y-72130791D01*
X111360921Y-72183702D01*
X111489253Y-72245271D01*
X111785611Y-72397342D01*
X111915586Y-72466663D01*
X112042033Y-72537002D01*
X112164719Y-72608197D01*
X112283417Y-72680090D01*
X112397894Y-72752519D01*
X112507921Y-72825325D01*
X112613268Y-72898345D01*
X112713704Y-72971421D01*
X112808999Y-73044392D01*
X112898924Y-73117096D01*
X112983247Y-73189374D01*
X113061739Y-73261066D01*
X113134169Y-73332010D01*
X113200307Y-73402046D01*
X113259924Y-73471015D01*
X113312788Y-73538754D01*
X113331875Y-73565631D01*
X113349321Y-73591071D01*
X113365236Y-73615337D01*
X113379728Y-73638693D01*
X113392905Y-73661400D01*
X113404875Y-73683722D01*
X113415748Y-73705922D01*
X113425632Y-73728262D01*
X113434636Y-73751005D01*
X113442867Y-73774414D01*
X113450435Y-73798752D01*
X113457448Y-73824281D01*
X113464014Y-73851264D01*
X113470243Y-73879964D01*
X113476241Y-73910644D01*
X113482119Y-73943566D01*
X113489095Y-73988314D01*
X113494740Y-74033088D01*
X113499050Y-74077925D01*
X113502021Y-74122863D01*
X113503650Y-74167941D01*
X113503932Y-74213197D01*
X113502864Y-74258668D01*
X113500442Y-74304392D01*
X113496662Y-74350408D01*
X113491520Y-74396754D01*
X113485012Y-74443466D01*
X113477134Y-74490584D01*
X113467883Y-74538146D01*
X113457254Y-74586189D01*
X113445244Y-74634751D01*
X113431849Y-74683870D01*
X113424469Y-74710981D01*
X113417728Y-74734860D01*
X113411509Y-74755649D01*
X113408559Y-74764929D01*
X113405696Y-74773490D01*
X113402905Y-74781350D01*
X113400172Y-74788525D01*
X113397481Y-74795035D01*
X113394818Y-74800896D01*
X113392169Y-74806127D01*
X113389519Y-74810745D01*
X113386854Y-74814768D01*
X113384158Y-74818213D01*
X113381417Y-74821099D01*
X113378616Y-74823443D01*
X113375741Y-74825262D01*
X113372778Y-74826575D01*
X113369710Y-74827400D01*
X113366525Y-74827753D01*
X113363207Y-74827653D01*
X113359742Y-74827118D01*
X113356114Y-74826165D01*
X113352310Y-74824811D01*
X113348315Y-74823076D01*
X113344114Y-74820975D01*
X113339692Y-74818528D01*
X113335035Y-74815752D01*
X113324957Y-74809283D01*
X113315184Y-74803878D01*
X113305588Y-74799403D01*
X113295983Y-74795910D01*
X113286187Y-74793449D01*
X113276016Y-74792070D01*
X113265286Y-74791824D01*
X113253814Y-74792760D01*
X113241415Y-74794929D01*
X113227906Y-74798383D01*
X113213104Y-74803170D01*
X113196824Y-74809341D01*
X113178882Y-74816948D01*
X113159097Y-74826039D01*
X113137282Y-74836667D01*
X113086833Y-74862729D01*
X113017325Y-74902655D01*
X112948998Y-74948969D01*
X112882305Y-75001016D01*
X112817694Y-75058141D01*
X112755616Y-75119686D01*
X112696522Y-75184998D01*
X112640862Y-75253419D01*
X112589086Y-75324295D01*
X112541644Y-75396969D01*
X112498988Y-75470785D01*
X112461567Y-75545088D01*
X112429831Y-75619222D01*
X112404232Y-75692532D01*
X112385219Y-75764360D01*
X112373243Y-75834053D01*
X112370034Y-75867893D01*
X112368753Y-75900953D01*
X112368753Y-76057587D01*
X112635453Y-76057587D01*
X112689737Y-76058847D01*
X112715693Y-76059975D01*
X112740859Y-76061437D01*
X112765231Y-76063233D01*
X112788809Y-76065362D01*
X112811591Y-76067827D01*
X112833576Y-76070626D01*
X112854763Y-76073762D01*
X112875150Y-76077233D01*
X112894736Y-76081041D01*
X112913520Y-76085186D01*
X112931500Y-76089668D01*
X112948674Y-76094489D01*
X112965042Y-76099648D01*
X112980602Y-76105146D01*
X112995353Y-76110984D01*
X113009293Y-76117162D01*
X113022422Y-76123680D01*
X113034737Y-76130539D01*
X113046237Y-76137740D01*
X113056921Y-76145282D01*
X113066788Y-76153167D01*
X113075836Y-76161395D01*
X113084064Y-76169966D01*
X113091471Y-76178881D01*
X113098054Y-76188141D01*
X113103814Y-76197745D01*
X113108748Y-76207695D01*
X113112855Y-76217990D01*
X113116134Y-76228632D01*
X113118583Y-76239620D01*
X113122268Y-76262899D01*
X113126139Y-76303113D01*
X113134192Y-76425689D01*
X113142246Y-76590037D01*
X113149803Y-76778841D01*
X113159081Y-76974207D01*
X113174715Y-77188053D01*
X113195670Y-77412068D01*
X113220910Y-77637944D01*
X113249399Y-77857370D01*
X113280102Y-78062038D01*
X113311983Y-78243637D01*
X113344006Y-78393859D01*
X113358408Y-78455462D01*
X113371061Y-78512233D01*
X113381980Y-78564399D01*
X113391177Y-78612189D01*
X113398666Y-78655830D01*
X113404460Y-78695551D01*
X113408571Y-78731579D01*
X113411013Y-78764142D01*
X113411613Y-78779196D01*
X113411800Y-78793468D01*
X113411577Y-78806989D01*
X113410944Y-78819785D01*
X113409904Y-78831886D01*
X113408459Y-78843321D01*
X113406609Y-78854117D01*
X113404357Y-78864303D01*
X113401705Y-78873908D01*
X113398653Y-78882960D01*
X113395204Y-78891488D01*
X113391359Y-78899519D01*
X113387119Y-78907084D01*
X113382488Y-78914209D01*
X113377465Y-78920924D01*
X113372053Y-78927257D01*
X113365337Y-78934944D01*
X113359279Y-78942766D01*
X113353881Y-78950781D01*
X113349141Y-78959049D01*
X113345063Y-78967631D01*
X113341645Y-78976585D01*
X113338890Y-78985972D01*
X113336797Y-78995851D01*
X113335367Y-79006282D01*
X113334602Y-79017325D01*
X113334503Y-79029039D01*
X113335068Y-79041484D01*
X113336301Y-79054719D01*
X113338201Y-79068805D01*
X113340769Y-79083801D01*
X113344006Y-79099767D01*
X113365704Y-79215654D01*
X113149275Y-79193958D01*
X113105380Y-79189088D01*
X113063624Y-79184069D01*
X113024956Y-79179001D01*
X112990326Y-79173982D01*
X112960681Y-79169112D01*
X112936971Y-79164490D01*
X112927638Y-79162303D01*
X112920144Y-79160216D01*
X112914608Y-79158240D01*
X112911149Y-79156388D01*
X112906935Y-79153483D01*
X112903118Y-79149563D01*
X112899695Y-79144677D01*
X112896659Y-79138874D01*
X112891732Y-79124712D01*
X112888297Y-79107464D01*
X112886312Y-79087523D01*
X112885738Y-79065277D01*
X112886534Y-79041116D01*
X112888661Y-79015431D01*
X112892077Y-78988610D01*
X112896743Y-78961045D01*
X112902618Y-78933125D01*
X112909662Y-78905240D01*
X112917835Y-78877779D01*
X112927096Y-78851133D01*
X112937404Y-78825692D01*
X112948721Y-78801845D01*
X112961448Y-78775688D01*
X112972650Y-78748835D01*
X112982341Y-78721021D01*
X112990533Y-78691985D01*
X112997241Y-78661465D01*
X113002476Y-78629196D01*
X113006252Y-78594916D01*
X113008583Y-78558363D01*
X113009481Y-78519274D01*
X113008960Y-78477385D01*
X113007033Y-78432435D01*
X113003713Y-78384160D01*
X112992947Y-78276585D01*
X112976767Y-78152559D01*
X112955516Y-78022249D01*
X112926124Y-77874358D01*
X112890716Y-77716855D01*
X112851421Y-77557709D01*
X112810364Y-77404888D01*
X112769673Y-77266361D01*
X112731475Y-77150097D01*
X112713976Y-77102803D01*
X112697897Y-77064063D01*
X112682075Y-77032555D01*
X112666127Y-77003767D01*
X112649703Y-76977477D01*
X112632454Y-76953467D01*
X112614029Y-76931515D01*
X112594080Y-76911402D01*
X112572256Y-76892908D01*
X112548209Y-76875812D01*
X112521588Y-76859894D01*
X112492044Y-76844934D01*
X112459227Y-76830712D01*
X112422788Y-76817008D01*
X112382377Y-76803602D01*
X112337645Y-76790273D01*
X112288242Y-76776801D01*
X112233818Y-76762967D01*
X112176742Y-76748646D01*
X112126538Y-76736258D01*
X112082869Y-76725827D01*
X112045402Y-76717376D01*
X112028889Y-76713899D01*
X112013801Y-76710927D01*
X112000095Y-76708461D01*
X111987731Y-76706505D01*
X111976666Y-76705061D01*
X111966858Y-76704132D01*
X111958265Y-76703721D01*
X111950846Y-76703832D01*
X111944559Y-76704466D01*
X111939362Y-76705628D01*
X111937159Y-76706407D01*
X111935212Y-76707319D01*
X111933518Y-76708364D01*
X111932069Y-76709543D01*
X111930862Y-76710856D01*
X111929890Y-76712303D01*
X111929149Y-76713884D01*
X111928634Y-76715601D01*
X111928338Y-76717453D01*
X111928258Y-76719440D01*
X111928721Y-76723824D01*
X111929980Y-76728755D01*
X111931995Y-76734237D01*
X111934722Y-76740271D01*
X111938121Y-76746862D01*
X111942150Y-76754011D01*
X111946766Y-76761722D01*
X111957593Y-76778841D01*
X111962866Y-76786801D01*
X111967957Y-76795343D01*
X111972843Y-76804377D01*
X111977502Y-76813816D01*
X111981914Y-76823571D01*
X111986056Y-76833555D01*
X111989906Y-76843677D01*
X111993444Y-76853851D01*
X111996646Y-76863988D01*
X111999492Y-76873999D01*
X112001960Y-76883796D01*
X112004027Y-76893291D01*
X112005673Y-76902395D01*
X112006876Y-76911019D01*
X112007613Y-76919077D01*
X112007864Y-76926479D01*
X112005993Y-76950409D01*
X112000390Y-76978717D01*
X111991068Y-77011367D01*
X111978040Y-77048319D01*
X111961320Y-77089539D01*
X111940919Y-77134987D01*
X111889132Y-77238423D01*
X111822785Y-77358329D01*
X111741982Y-77494407D01*
X111646831Y-77646361D01*
X111537435Y-77813892D01*
X111425026Y-77987663D01*
X111373633Y-78069683D01*
X111325553Y-78148275D01*
X111280865Y-78223302D01*
X111239649Y-78294625D01*
X111201982Y-78362106D01*
X111167944Y-78425608D01*
X111137615Y-78484992D01*
X111111074Y-78540121D01*
X111088398Y-78590856D01*
X111069668Y-78637059D01*
X111054963Y-78678594D01*
X111044361Y-78715320D01*
X111037942Y-78747102D01*
X111036326Y-78761094D01*
X111035785Y-78773799D01*
X111035014Y-78795391D01*
X111032739Y-78817743D01*
X111029019Y-78840773D01*
X111023915Y-78864399D01*
X111017485Y-78888538D01*
X111009788Y-78913108D01*
X111000883Y-78938025D01*
X110990831Y-78963208D01*
X110967517Y-79014041D01*
X110940321Y-79064945D01*
X110909716Y-79115260D01*
X110876175Y-79164325D01*
X110840172Y-79211480D01*
X110802181Y-79256065D01*
X110762676Y-79297419D01*
X110722129Y-79334882D01*
X110701613Y-79351948D01*
X110681015Y-79367793D01*
X110660393Y-79382336D01*
X110639807Y-79395492D01*
X110619316Y-79407181D01*
X110598980Y-79417319D01*
X110578856Y-79425824D01*
X110559005Y-79432613D01*
X110535659Y-79438969D01*
X110510716Y-79443977D01*
X110484553Y-79447677D01*
X110457546Y-79450108D01*
X110430071Y-79451311D01*
X110402504Y-79451327D01*
X110375220Y-79450196D01*
X110348596Y-79447958D01*
X110323007Y-79444653D01*
X110298830Y-79440322D01*
X110276441Y-79435005D01*
X110256215Y-79428743D01*
X110238528Y-79421575D01*
X110230754Y-79417664D01*
X110223757Y-79413542D01*
X110217582Y-79409214D01*
X110212277Y-79404685D01*
X110207888Y-79399959D01*
X110204464Y-79395043D01*
X110203410Y-79393364D01*
X110202627Y-79391313D01*
X110201854Y-79386141D01*
X110202102Y-79379624D01*
X110203331Y-79371858D01*
X110205500Y-79362938D01*
X110208566Y-79352960D01*
X110212490Y-79342022D01*
X110217230Y-79330219D01*
X110222746Y-79317646D01*
X110228995Y-79304401D01*
X110235937Y-79290579D01*
X110243531Y-79276277D01*
X110251736Y-79261590D01*
X110260511Y-79246615D01*
X110269815Y-79231447D01*
X110279605Y-79216184D01*
X110302511Y-79180012D01*
X110323995Y-79144546D01*
X110344050Y-79109824D01*
X110362668Y-79075880D01*
X110379841Y-79042751D01*
X110395561Y-79010475D01*
X110409821Y-78979087D01*
X110422613Y-78948623D01*
X110433928Y-78919121D01*
X110443761Y-78890616D01*
X110452101Y-78863146D01*
X110458943Y-78836746D01*
X110464278Y-78811453D01*
X110468098Y-78787303D01*
X110470396Y-78764332D01*
X110471164Y-78742578D01*
X110471501Y-78730886D01*
X110472526Y-78719409D01*
X110474254Y-78708127D01*
X110476703Y-78697021D01*
X110479890Y-78686069D01*
X110483833Y-78675253D01*
X110488547Y-78664551D01*
X110494050Y-78653943D01*
X110500360Y-78643410D01*
X110507492Y-78632932D01*
X110515465Y-78622487D01*
X110524295Y-78612056D01*
X110534000Y-78601619D01*
X110544596Y-78591156D01*
X110556101Y-78580646D01*
X110568531Y-78570070D01*
X110588471Y-78553959D01*
X110607896Y-78538809D01*
X110626341Y-78524985D01*
X110635051Y-78518686D01*
X110643342Y-78512855D01*
X110651155Y-78507539D01*
X110658432Y-78502783D01*
X110665116Y-78498633D01*
X110671148Y-78495136D01*
X110676470Y-78492336D01*
X110681023Y-78490279D01*
X110684751Y-78489012D01*
X110686286Y-78488688D01*
X110687593Y-78488579D01*
X110691935Y-78486695D01*
X110698418Y-78481187D01*
X110717260Y-78460148D01*
X110774608Y-78383961D01*
X110850858Y-78273680D01*
X110937227Y-78142967D01*
X111024936Y-78005482D01*
X111105204Y-77874886D01*
X111169250Y-77764841D01*
X111192445Y-77721794D01*
X111208292Y-77689008D01*
X111213582Y-77675213D01*
X111218910Y-77659737D01*
X111229534Y-77624408D01*
X111239872Y-77584354D01*
X111249634Y-77540908D01*
X111258527Y-77495402D01*
X111266261Y-77449172D01*
X111272544Y-77403549D01*
X111277084Y-77359867D01*
X111279664Y-77329290D01*
X111281624Y-77300890D01*
X111282929Y-77274415D01*
X111283541Y-77249610D01*
X111283425Y-77226222D01*
X111282544Y-77203997D01*
X111280861Y-77182683D01*
X111278340Y-77162025D01*
X111274945Y-77141770D01*
X111270640Y-77121664D01*
X111265387Y-77101455D01*
X111259150Y-77080888D01*
X111251893Y-77059711D01*
X111243580Y-77037670D01*
X111234173Y-77014510D01*
X111223638Y-76989980D01*
X111212634Y-76965634D01*
X111201715Y-76943053D01*
X111190677Y-76922016D01*
X111179320Y-76902303D01*
X111167442Y-76883694D01*
X111154842Y-76865968D01*
X111141318Y-76848906D01*
X111126668Y-76832288D01*
X111110692Y-76815892D01*
X111093186Y-76799500D01*
X111073951Y-76782891D01*
X111052784Y-76765844D01*
X111029483Y-76748140D01*
X111003848Y-76729559D01*
X110975677Y-76709880D01*
X110944767Y-76688883D01*
X110888009Y-76647566D01*
X110859220Y-76624818D01*
X110829930Y-76600438D01*
X110769159Y-76546055D01*
X110704327Y-76482971D01*
X110634062Y-76409743D01*
X110556995Y-76324924D01*
X110471755Y-76227070D01*
X110376971Y-76114737D01*
X110013434Y-75681880D01*
X109721863Y-75694579D01*
X109650308Y-75695659D01*
X109560286Y-75694289D01*
X109455405Y-75690700D01*
X109339276Y-75685120D01*
X109087707Y-75668907D01*
X108834451Y-75647484D01*
X108660531Y-75631869D01*
X108518522Y-75620297D01*
X108457783Y-75616005D01*
X108402980Y-75612695D01*
X108353433Y-75610358D01*
X108308460Y-75608986D01*
X108267382Y-75608569D01*
X108229517Y-75609098D01*
X108194186Y-75610563D01*
X108160707Y-75612955D01*
X108128400Y-75616265D01*
X108096585Y-75620483D01*
X108064580Y-75625601D01*
X108031706Y-75631608D01*
X107977886Y-75640174D01*
X107905450Y-75649038D01*
X107817560Y-75657951D01*
X107717380Y-75666666D01*
X107492798Y-75682508D01*
X107257005Y-75694579D01*
X107086900Y-75701404D01*
X107015196Y-75704723D01*
X106951453Y-75708106D01*
X106894969Y-75711650D01*
X106845040Y-75715452D01*
X106800963Y-75719608D01*
X106762036Y-75724212D01*
X106727555Y-75729363D01*
X106696817Y-75735155D01*
X106669119Y-75741686D01*
X106643759Y-75749050D01*
X106620032Y-75757345D01*
X106597237Y-75766665D01*
X106574669Y-75777109D01*
X106551626Y-75788771D01*
X106513511Y-75809384D01*
X106477882Y-75830027D01*
X106444647Y-75850816D01*
X106413712Y-75871867D01*
X106384985Y-75893296D01*
X106358373Y-75915219D01*
X106333782Y-75937753D01*
X106311120Y-75961015D01*
X106290293Y-75985120D01*
X106271209Y-76010184D01*
X106253775Y-76036324D01*
X106237897Y-76063657D01*
X106223482Y-76092298D01*
X106210438Y-76122363D01*
X106198671Y-76153970D01*
X106188089Y-76187234D01*
X106182904Y-76204156D01*
X106176924Y-76221882D01*
X106170219Y-76240258D01*
X106162863Y-76259134D01*
X106154926Y-76278357D01*
X106146482Y-76297776D01*
X106128360Y-76336591D01*
X106109071Y-76374364D01*
X106099169Y-76392480D01*
X106089193Y-76409880D01*
X106079213Y-76426412D01*
X106069303Y-76441924D01*
X106059533Y-76456264D01*
X106049977Y-76469280D01*
X106030680Y-76495651D01*
X106013850Y-76519616D01*
X105999457Y-76541498D01*
X105987477Y-76561619D01*
X105982382Y-76571119D01*
X105977881Y-76580301D01*
X105973968Y-76589203D01*
X105970642Y-76597866D01*
X105967898Y-76606332D01*
X105965733Y-76614639D01*
X105964144Y-76622828D01*
X105963127Y-76630939D01*
X105962679Y-76639014D01*
X105962797Y-76647091D01*
X105963477Y-76655212D01*
X105964715Y-76663417D01*
X105966509Y-76671746D01*
X105968855Y-76680239D01*
X105971750Y-76688936D01*
X105975190Y-76697879D01*
X105979172Y-76707107D01*
X105983692Y-76716660D01*
X105994334Y-76736905D01*
X106007089Y-76758936D01*
X106021930Y-76783075D01*
X106087547Y-76889968D01*
X106341547Y-76886791D01*
X106395148Y-76887379D01*
X106448985Y-76889114D01*
X106501556Y-76891954D01*
X106551362Y-76895853D01*
X106596901Y-76900770D01*
X106617602Y-76903596D01*
X106636674Y-76906660D01*
X106653928Y-76909957D01*
X106669178Y-76913480D01*
X106682236Y-76917226D01*
X106692914Y-76921187D01*
X106715185Y-76930025D01*
X106739418Y-76941042D01*
X106765143Y-76953909D01*
X106791893Y-76968300D01*
X106819197Y-76983888D01*
X106846588Y-77000346D01*
X106873596Y-77017346D01*
X106899751Y-77034562D01*
X106924586Y-77051666D01*
X106947632Y-77068331D01*
X106968418Y-77084230D01*
X106986477Y-77099037D01*
X107001339Y-77112424D01*
X107012535Y-77124063D01*
X107016612Y-77129125D01*
X107019597Y-77133628D01*
X107021430Y-77137530D01*
X107022055Y-77140792D01*
X107021781Y-77142008D01*
X107020969Y-77143274D01*
X107017781Y-77145941D01*
X107012598Y-77148765D01*
X107005527Y-77151722D01*
X106996672Y-77154784D01*
X106986141Y-77157925D01*
X106960473Y-77164340D01*
X106929374Y-77170754D01*
X106893691Y-77176957D01*
X106854276Y-77182739D01*
X106811976Y-77187888D01*
X106787881Y-77190520D01*
X106763879Y-77193637D01*
X106740061Y-77197219D01*
X106716520Y-77201241D01*
X106693347Y-77205682D01*
X106670636Y-77210519D01*
X106648478Y-77215730D01*
X106626967Y-77221292D01*
X106606192Y-77227182D01*
X106586249Y-77233379D01*
X106567227Y-77239859D01*
X106549220Y-77246601D01*
X106532321Y-77253581D01*
X106516620Y-77260778D01*
X106502211Y-77268168D01*
X106489185Y-77275730D01*
X106475410Y-77284140D01*
X106461261Y-77291919D01*
X106446725Y-77299077D01*
X106431787Y-77305627D01*
X106416434Y-77311583D01*
X106400651Y-77316955D01*
X106384425Y-77321756D01*
X106367741Y-77326000D01*
X106350587Y-77329698D01*
X106332947Y-77332863D01*
X106314807Y-77335506D01*
X106296155Y-77337641D01*
X106276976Y-77339281D01*
X106257255Y-77340436D01*
X106236979Y-77341120D01*
X106216135Y-77341345D01*
X106191304Y-77341146D01*
X106168446Y-77340492D01*
X106147327Y-77339301D01*
X106127714Y-77337492D01*
X106109373Y-77334983D01*
X106092068Y-77331690D01*
X106075566Y-77327532D01*
X106059634Y-77322428D01*
X106044036Y-77316293D01*
X106028539Y-77309047D01*
X106012909Y-77300608D01*
X105996911Y-77290892D01*
X105980312Y-77279819D01*
X105962877Y-77267305D01*
X105944373Y-77253269D01*
X105924564Y-77237628D01*
X105910597Y-77226808D01*
X105896911Y-77216597D01*
X105883567Y-77207033D01*
X105870622Y-77198157D01*
X105858137Y-77190005D01*
X105846169Y-77182619D01*
X105834778Y-77176035D01*
X105824023Y-77170293D01*
X105813962Y-77165431D01*
X105804654Y-77161489D01*
X105796159Y-77158505D01*
X105792235Y-77157384D01*
X105788535Y-77156517D01*
X105785069Y-77155910D01*
X105781842Y-77155566D01*
X105778862Y-77155490D01*
X105776137Y-77155688D01*
X105773674Y-77156164D01*
X105771481Y-77156924D01*
X105769564Y-77157971D01*
X105767931Y-77159311D01*
X105764378Y-77164181D01*
X105759721Y-77172894D01*
X105747393Y-77201000D01*
X105731542Y-77241930D01*
X105712765Y-77293985D01*
X105691656Y-77355466D01*
X105668811Y-77424673D01*
X105620293Y-77579470D01*
X105582811Y-77706907D01*
X105554090Y-77811072D01*
X105542637Y-77857433D01*
X105532922Y-77901582D01*
X105524793Y-77944721D01*
X105518098Y-77988054D01*
X105512687Y-78032782D01*
X105508409Y-78080107D01*
X105505112Y-78131232D01*
X105502645Y-78187360D01*
X105499597Y-78319429D01*
X105498056Y-78485933D01*
X105496532Y-78623347D01*
X105495478Y-78682717D01*
X105494195Y-78736230D01*
X105492654Y-78784161D01*
X105490829Y-78826787D01*
X105488692Y-78864385D01*
X105486216Y-78897229D01*
X105483374Y-78925595D01*
X105480140Y-78949761D01*
X105478366Y-78960354D01*
X105476485Y-78970001D01*
X105474492Y-78978735D01*
X105472383Y-78986591D01*
X105470156Y-78993605D01*
X105467807Y-78999809D01*
X105465332Y-79005238D01*
X105462729Y-79009928D01*
X105459993Y-79013913D01*
X105457122Y-79017226D01*
X105454112Y-79019904D01*
X105450960Y-79021979D01*
X105436382Y-79027840D01*
X105412521Y-79035630D01*
X105380611Y-79044945D01*
X105341886Y-79055383D01*
X105297579Y-79066540D01*
X105248926Y-79078013D01*
X105197160Y-79089400D01*
X105143514Y-79100296D01*
X105104847Y-79108054D01*
X105069873Y-79114856D01*
X105038390Y-79120704D01*
X105010197Y-79125596D01*
X104985092Y-79129534D01*
X104973635Y-79131145D01*
X104962874Y-79132517D01*
X104952784Y-79133650D01*
X104943341Y-79134544D01*
X104934518Y-79135200D01*
X104926291Y-79135617D01*
X104918635Y-79135795D01*
X104911523Y-79135735D01*
X104904932Y-79135436D01*
X104898836Y-79134898D01*
X104893210Y-79134121D01*
X104888028Y-79133106D01*
X104883266Y-79131852D01*
X104878897Y-79130359D01*
X104874898Y-79128627D01*
X104871243Y-79126657D01*
X104867906Y-79124448D01*
X104864862Y-79122000D01*
X104862087Y-79119313D01*
X104859555Y-79116388D01*
X104857240Y-79113224D01*
X104855118Y-79109821D01*
X104851527Y-79103875D01*
X104848392Y-79097749D01*
X104845711Y-79091448D01*
X104843480Y-79084979D01*
X104841696Y-79078347D01*
X104840358Y-79071558D01*
X104839461Y-79064618D01*
X104839003Y-79057532D01*
X104838982Y-79050307D01*
X104839395Y-79042949D01*
X104840238Y-79035462D01*
X104841510Y-79027854D01*
X104843206Y-79020129D01*
X104845325Y-79012293D01*
X104850819Y-78996315D01*
X104857968Y-78979964D01*
X104866751Y-78963287D01*
X104877144Y-78946332D01*
X104889125Y-78929144D01*
X104902673Y-78911770D01*
X104917763Y-78894256D01*
X104934375Y-78876650D01*
X104952485Y-78858997D01*
X104961933Y-78850514D01*
X104971389Y-78841590D01*
X104980801Y-78832302D01*
X104990114Y-78822731D01*
X104999275Y-78812956D01*
X105008230Y-78803055D01*
X105016927Y-78793107D01*
X105025311Y-78783192D01*
X105033330Y-78773389D01*
X105040929Y-78763777D01*
X105048055Y-78754434D01*
X105054655Y-78745440D01*
X105060675Y-78736873D01*
X105066062Y-78728814D01*
X105070762Y-78721341D01*
X105074722Y-78714533D01*
X105082957Y-78696787D01*
X105091186Y-78674116D01*
X105107613Y-78614041D01*
X105123966Y-78534395D01*
X105140207Y-78435265D01*
X105156299Y-78316738D01*
X105172205Y-78178900D01*
X105187888Y-78021839D01*
X105203310Y-77845641D01*
X105212711Y-77757295D01*
X105224344Y-77663244D01*
X105237764Y-77566365D01*
X105252523Y-77469536D01*
X105268174Y-77375634D01*
X105284273Y-77287536D01*
X105300371Y-77208120D01*
X105316023Y-77140262D01*
X105324037Y-77109660D01*
X105331593Y-77079103D01*
X105345235Y-77018893D01*
X105356755Y-76961175D01*
X105365963Y-76907495D01*
X105372665Y-76859395D01*
X105375017Y-76837921D01*
X105376670Y-76818421D01*
X105377601Y-76801089D01*
X105377785Y-76786116D01*
X105377199Y-76773697D01*
X105375819Y-76764025D01*
X105373438Y-76755254D01*
X105369724Y-76745482D01*
X105364755Y-76734809D01*
X105358612Y-76723337D01*
X105351375Y-76711167D01*
X105343123Y-76698401D01*
X105333936Y-76685140D01*
X105323894Y-76671487D01*
X105313077Y-76657542D01*
X105301565Y-76643407D01*
X105289437Y-76629184D01*
X105276773Y-76614974D01*
X105263654Y-76600878D01*
X105250159Y-76586999D01*
X105236368Y-76573437D01*
X105222360Y-76560295D01*
X105202759Y-76541444D01*
X105184962Y-76523662D01*
X105168862Y-76506765D01*
X105154354Y-76490569D01*
X105141331Y-76474892D01*
X105129687Y-76459548D01*
X105119316Y-76444355D01*
X105110111Y-76429128D01*
X105101966Y-76413685D01*
X105094776Y-76397840D01*
X105088434Y-76381412D01*
X105082834Y-76364215D01*
X105077869Y-76346066D01*
X105073434Y-76326781D01*
X105069422Y-76306178D01*
X105065727Y-76284071D01*
X105060122Y-76243517D01*
X105056208Y-76204193D01*
X105053991Y-76166075D01*
X105053474Y-76129140D01*
X105054662Y-76093365D01*
X105057560Y-76058726D01*
X105062173Y-76025200D01*
X105068505Y-75992764D01*
X105076561Y-75961395D01*
X105086346Y-75931069D01*
X105097864Y-75901763D01*
X105111120Y-75873454D01*
X105126118Y-75846118D01*
X105142864Y-75819733D01*
X105161361Y-75794275D01*
X105181615Y-75769721D01*
X105192113Y-75757541D01*
X105201781Y-75745706D01*
X105210618Y-75734213D01*
X105218625Y-75723059D01*
X105225802Y-75712241D01*
X105232149Y-75701757D01*
X105237666Y-75691604D01*
X105242353Y-75681780D01*
X105246211Y-75672281D01*
X105249240Y-75663104D01*
X105251439Y-75654248D01*
X105252810Y-75645709D01*
X105253352Y-75637485D01*
X105253066Y-75629573D01*
X105251952Y-75621971D01*
X105250009Y-75614675D01*
X105247239Y-75607682D01*
X105243641Y-75600991D01*
X105239215Y-75594598D01*
X105233963Y-75588501D01*
X105227883Y-75582698D01*
X105220976Y-75577184D01*
X105213243Y-75571958D01*
X105204683Y-75567016D01*
X105195297Y-75562357D01*
X105185084Y-75557978D01*
X105174046Y-75553875D01*
X105162182Y-75550046D01*
X105149493Y-75546488D01*
X105135978Y-75543199D01*
X105121638Y-75540176D01*
X105106473Y-75537416D01*
X105093538Y-75535191D01*
X105080641Y-75532590D01*
X105067803Y-75529627D01*
X105055045Y-75526315D01*
X105029845Y-75518693D01*
X105005204Y-75509825D01*
X104981281Y-75499813D01*
X104958240Y-75488759D01*
X104936240Y-75476763D01*
X104915444Y-75463928D01*
X104905547Y-75457227D01*
X104896011Y-75450355D01*
X104886857Y-75443323D01*
X104878104Y-75436146D01*
X104869773Y-75428834D01*
X104861884Y-75421401D01*
X104854457Y-75413860D01*
X104847512Y-75406224D01*
X104841069Y-75398504D01*
X104835149Y-75390714D01*
X104829771Y-75382867D01*
X104824956Y-75374975D01*
X104820724Y-75367051D01*
X104817095Y-75359107D01*
X104814089Y-75351156D01*
X104811727Y-75343212D01*
X104800778Y-75306325D01*
X104790066Y-75272947D01*
X104779159Y-75242619D01*
X104767624Y-75214881D01*
X104755029Y-75189272D01*
X104740941Y-75165334D01*
X104724927Y-75142607D01*
X104706555Y-75120631D01*
X104685393Y-75098946D01*
X104661008Y-75077094D01*
X104632967Y-75054613D01*
X104600837Y-75031045D01*
X104564188Y-75005929D01*
X104522585Y-74978807D01*
X104422789Y-74916703D01*
X104264941Y-74824248D01*
X104058525Y-74707286D01*
X103830379Y-74581394D01*
X103607344Y-74462149D01*
X103376787Y-74338927D01*
X103188757Y-74235394D01*
X103107531Y-74188884D01*
X103033147Y-74144746D01*
X102964340Y-74102129D01*
X102899848Y-74060182D01*
X102838407Y-74018055D01*
X102778754Y-73974898D01*
X102719624Y-73929860D01*
X102659755Y-73882092D01*
X102597883Y-73830743D01*
X102532745Y-73774962D01*
X102387615Y-73646704D01*
X102214067Y-73490522D01*
X102144985Y-73428920D01*
X102084187Y-73377234D01*
X102029038Y-73334654D01*
X101976905Y-73300371D01*
X101925153Y-73273579D01*
X101871148Y-73253467D01*
X101812257Y-73239228D01*
X101745845Y-73230052D01*
X101669279Y-73225133D01*
X101579925Y-73223660D01*
X101352315Y-73227822D01*
X101041944Y-73236071D01*
X100220148Y-73257766D01*
X100113256Y-73176275D01*
X100102003Y-73168122D01*
X100090524Y-73160163D01*
X100078904Y-73152445D01*
X100067227Y-73145013D01*
X100055578Y-73137912D01*
X100044042Y-73131189D01*
X100032703Y-73124889D01*
X100021645Y-73119059D01*
X100010952Y-73113742D01*
X100000710Y-73108987D01*
X99991003Y-73104837D01*
X99981916Y-73101340D01*
X99973532Y-73098540D01*
X99965936Y-73096483D01*
X99959214Y-73095216D01*
X99953448Y-73094783D01*
X99945126Y-73094365D01*
X99936649Y-73093134D01*
X99928043Y-73091122D01*
X99919338Y-73088362D01*
X99910559Y-73084887D01*
X99901735Y-73080729D01*
X99892893Y-73075923D01*
X99884061Y-73070499D01*
X99866536Y-73057935D01*
X99849380Y-73043298D01*
X99832813Y-73026852D01*
X99817055Y-73008859D01*
X99802327Y-72989583D01*
X99788848Y-72969286D01*
X99776839Y-72948231D01*
X99766520Y-72926681D01*
X99758111Y-72904898D01*
X99754691Y-72894002D01*
X99751832Y-72883146D01*
X99749560Y-72872363D01*
X99747903Y-72861686D01*
X99746888Y-72851148D01*
X99746544Y-72840782D01*
X99747389Y-72824860D01*
X99750201Y-72808501D01*
X99755397Y-72791197D01*
X99763395Y-72772438D01*
X99774611Y-72751712D01*
X99789462Y-72728511D01*
X99808366Y-72702323D01*
X99831740Y-72672640D01*
X99860000Y-72638951D01*
X99893563Y-72600746D01*
X99978269Y-72508747D01*
X100089194Y-72392564D01*
X100229673Y-72248117D01*
X100328014Y-72147647D01*
X100421587Y-72049894D01*
X100508252Y-71957324D01*
X100585868Y-71872408D01*
X100652299Y-71797611D01*
X100705402Y-71735403D01*
X100726288Y-71709791D01*
X100743040Y-71688251D01*
X100755391Y-71671093D01*
X100763073Y-71658624D01*
X100778044Y-71636448D01*
X100802149Y-71609355D01*
X100834241Y-71578158D01*
X100873173Y-71543671D01*
X100917798Y-71506706D01*
X100966968Y-71468078D01*
X101019536Y-71428598D01*
X101074355Y-71389080D01*
X101130279Y-71350337D01*
X101186158Y-71313183D01*
X101240848Y-71278430D01*
X101293199Y-71246891D01*
X101342065Y-71219380D01*
X101386299Y-71196710D01*
X101424754Y-71179694D01*
X101456281Y-71169145D01*
X101468530Y-71165606D01*
X101479509Y-71162087D01*
X101489263Y-71158524D01*
X101493695Y-71156705D01*
X101497837Y-71154850D01*
X101501696Y-71152950D01*
X101505277Y-71150999D01*
X101508585Y-71148986D01*
X101511627Y-71146905D01*
X101514407Y-71144746D01*
X101516932Y-71142503D01*
X101519206Y-71140165D01*
X101521237Y-71137726D01*
X101523028Y-71135177D01*
X101524587Y-71132509D01*
X101525917Y-71129715D01*
X101527026Y-71126786D01*
X101527919Y-71123714D01*
X101528601Y-71120491D01*
X101529078Y-71117108D01*
X101529356Y-71113558D01*
X101529440Y-71109832D01*
X101529336Y-71105921D01*
X101529049Y-71101818D01*
X101528585Y-71097515D01*
X101527149Y-71088273D01*
X101525073Y-71078129D01*
X101503510Y-70992337D01*
X101489354Y-70936667D01*
X101474802Y-70880749D01*
X101466342Y-70839022D01*
X101460920Y-70794183D01*
X101458413Y-70746792D01*
X101458696Y-70697409D01*
X101461646Y-70646594D01*
X101467138Y-70594906D01*
X101475048Y-70542905D01*
X101485253Y-70491150D01*
X101497629Y-70440202D01*
X101512051Y-70390619D01*
X101528395Y-70342962D01*
X101546538Y-70297790D01*
X101566354Y-70255662D01*
X101587722Y-70217139D01*
X101610515Y-70182780D01*
X101622408Y-70167337D01*
X101634611Y-70153145D01*
X101642844Y-70145149D01*
X101651642Y-70137631D01*
X101660966Y-70130593D01*
X101670775Y-70124036D01*
X101681030Y-70117960D01*
X101691692Y-70112367D01*
X101702721Y-70107258D01*
X101714077Y-70102634D01*
X101725720Y-70098496D01*
X101737611Y-70094846D01*
X101761980Y-70089009D01*
X101786864Y-70085134D01*
X101811947Y-70083229D01*
X101836913Y-70083302D01*
G37*
D11*
X62719601Y-88630517D02*
X62719601Y-87330517D01*
X62719601Y-87330517D02*
X63029125Y-87330517D01*
X63029125Y-87330517D02*
X63214839Y-87392422D01*
X63214839Y-87392422D02*
X63338649Y-87516232D01*
X63338649Y-87516232D02*
X63400554Y-87640041D01*
X63400554Y-87640041D02*
X63462458Y-87887660D01*
X63462458Y-87887660D02*
X63462458Y-88073374D01*
X63462458Y-88073374D02*
X63400554Y-88320993D01*
X63400554Y-88320993D02*
X63338649Y-88444803D01*
X63338649Y-88444803D02*
X63214839Y-88568613D01*
X63214839Y-88568613D02*
X63029125Y-88630517D01*
X63029125Y-88630517D02*
X62719601Y-88630517D01*
X64019601Y-88630517D02*
X64019601Y-87330517D01*
X64576745Y-88568613D02*
X64762459Y-88630517D01*
X64762459Y-88630517D02*
X65071983Y-88630517D01*
X65071983Y-88630517D02*
X65195792Y-88568613D01*
X65195792Y-88568613D02*
X65257697Y-88506708D01*
X65257697Y-88506708D02*
X65319602Y-88382898D01*
X65319602Y-88382898D02*
X65319602Y-88259089D01*
X65319602Y-88259089D02*
X65257697Y-88135279D01*
X65257697Y-88135279D02*
X65195792Y-88073374D01*
X65195792Y-88073374D02*
X65071983Y-88011470D01*
X65071983Y-88011470D02*
X64824364Y-87949565D01*
X64824364Y-87949565D02*
X64700554Y-87887660D01*
X64700554Y-87887660D02*
X64638649Y-87825755D01*
X64638649Y-87825755D02*
X64576745Y-87701946D01*
X64576745Y-87701946D02*
X64576745Y-87578136D01*
X64576745Y-87578136D02*
X64638649Y-87454327D01*
X64638649Y-87454327D02*
X64700554Y-87392422D01*
X64700554Y-87392422D02*
X64824364Y-87330517D01*
X64824364Y-87330517D02*
X65133887Y-87330517D01*
X65133887Y-87330517D02*
X65319602Y-87392422D01*
X66062459Y-87887660D02*
X65938649Y-87825755D01*
X65938649Y-87825755D02*
X65876744Y-87763851D01*
X65876744Y-87763851D02*
X65814840Y-87640041D01*
X65814840Y-87640041D02*
X65814840Y-87578136D01*
X65814840Y-87578136D02*
X65876744Y-87454327D01*
X65876744Y-87454327D02*
X65938649Y-87392422D01*
X65938649Y-87392422D02*
X66062459Y-87330517D01*
X66062459Y-87330517D02*
X66310078Y-87330517D01*
X66310078Y-87330517D02*
X66433887Y-87392422D01*
X66433887Y-87392422D02*
X66495792Y-87454327D01*
X66495792Y-87454327D02*
X66557697Y-87578136D01*
X66557697Y-87578136D02*
X66557697Y-87640041D01*
X66557697Y-87640041D02*
X66495792Y-87763851D01*
X66495792Y-87763851D02*
X66433887Y-87825755D01*
X66433887Y-87825755D02*
X66310078Y-87887660D01*
X66310078Y-87887660D02*
X66062459Y-87887660D01*
X66062459Y-87887660D02*
X65938649Y-87949565D01*
X65938649Y-87949565D02*
X65876744Y-88011470D01*
X65876744Y-88011470D02*
X65814840Y-88135279D01*
X65814840Y-88135279D02*
X65814840Y-88382898D01*
X65814840Y-88382898D02*
X65876744Y-88506708D01*
X65876744Y-88506708D02*
X65938649Y-88568613D01*
X65938649Y-88568613D02*
X66062459Y-88630517D01*
X66062459Y-88630517D02*
X66310078Y-88630517D01*
X66310078Y-88630517D02*
X66433887Y-88568613D01*
X66433887Y-88568613D02*
X66495792Y-88506708D01*
X66495792Y-88506708D02*
X66557697Y-88382898D01*
X66557697Y-88382898D02*
X66557697Y-88135279D01*
X66557697Y-88135279D02*
X66495792Y-88011470D01*
X66495792Y-88011470D02*
X66433887Y-87949565D01*
X66433887Y-87949565D02*
X66310078Y-87887660D01*
X67671982Y-87330517D02*
X67424363Y-87330517D01*
X67424363Y-87330517D02*
X67300554Y-87392422D01*
X67300554Y-87392422D02*
X67238649Y-87454327D01*
X67238649Y-87454327D02*
X67114839Y-87640041D01*
X67114839Y-87640041D02*
X67052935Y-87887660D01*
X67052935Y-87887660D02*
X67052935Y-88382898D01*
X67052935Y-88382898D02*
X67114839Y-88506708D01*
X67114839Y-88506708D02*
X67176744Y-88568613D01*
X67176744Y-88568613D02*
X67300554Y-88630517D01*
X67300554Y-88630517D02*
X67548173Y-88630517D01*
X67548173Y-88630517D02*
X67671982Y-88568613D01*
X67671982Y-88568613D02*
X67733887Y-88506708D01*
X67733887Y-88506708D02*
X67795792Y-88382898D01*
X67795792Y-88382898D02*
X67795792Y-88073374D01*
X67795792Y-88073374D02*
X67733887Y-87949565D01*
X67733887Y-87949565D02*
X67671982Y-87887660D01*
X67671982Y-87887660D02*
X67548173Y-87825755D01*
X67548173Y-87825755D02*
X67300554Y-87825755D01*
X67300554Y-87825755D02*
X67176744Y-87887660D01*
X67176744Y-87887660D02*
X67114839Y-87949565D01*
X67114839Y-87949565D02*
X67052935Y-88073374D01*
X68910077Y-87763851D02*
X68910077Y-88630517D01*
X68600553Y-87268613D02*
X68291030Y-88197184D01*
X68291030Y-88197184D02*
X69095791Y-88197184D01*
X70148172Y-87763851D02*
X70148172Y-88630517D01*
X69838648Y-87268613D02*
X69529125Y-88197184D01*
X69529125Y-88197184D02*
X70333886Y-88197184D01*
D12*
%TO.C,D2*%
X130000000Y-69500000D03*
D13*
X130000000Y-66960000D03*
%TD*%
D14*
%TO.C,J3*%
X53310000Y-85000000D03*
%TD*%
%TO.C,J1*%
X53000000Y-70000000D03*
%TD*%
D15*
%TO.C,LS1*%
X130000000Y-81500000D03*
D16*
X130000000Y-76500000D03*
%TD*%
D17*
%TO.C,H4*%
X130000000Y-100000000D03*
%TD*%
D12*
%TO.C,D3*%
X92500000Y-56040000D03*
D13*
X92500000Y-53500000D03*
%TD*%
D18*
%TO.C,D1*%
X75080000Y-63000000D03*
D19*
X64920000Y-63000000D03*
%TD*%
D20*
%TO.C,U1*%
X88700000Y-73700000D03*
D21*
X88700000Y-76240000D03*
X88700000Y-78780000D03*
X88700000Y-81320000D03*
X96320000Y-81320000D03*
X96320000Y-78780000D03*
X96320000Y-76240000D03*
X96320000Y-73700000D03*
%TD*%
D22*
%TO.C,C4*%
X80450000Y-70350000D03*
D23*
X80450000Y-72850000D03*
%TD*%
D24*
%TO.C,SW1*%
X79920000Y-54500000D03*
X82460000Y-54500000D03*
X85000000Y-54500000D03*
%TD*%
D23*
%TO.C,R2*%
X84200000Y-80095000D03*
D25*
X84200000Y-90255000D03*
%TD*%
D17*
%TO.C,H2*%
X130000000Y-55000000D03*
%TD*%
%TO.C,H1*%
X55000000Y-55000000D03*
%TD*%
D26*
%TO.C,J2*%
X68750000Y-55000000D03*
D16*
X63750000Y-55000000D03*
%TD*%
D23*
%TO.C,R4*%
X87420000Y-62500000D03*
D25*
X97580000Y-62500000D03*
%TD*%
D23*
%TO.C,C3*%
X99750000Y-81300000D03*
X104750000Y-81300000D03*
%TD*%
D22*
%TO.C,C5*%
X119500000Y-79500000D03*
D23*
X122000000Y-79500000D03*
%TD*%
D17*
%TO.C,H3*%
X55000000Y-100000000D03*
%TD*%
D23*
%TO.C,R3*%
X111920000Y-62500000D03*
D25*
X122080000Y-62500000D03*
%TD*%
M02*
