%TF.GenerationSoftware,KiCad,Pcbnew,8.0.8*%
%TF.CreationDate,2025-04-25T12:53:52-04:00*%
%TF.ProjectId,udpudu,75647075-6475-42e6-9b69-6361645f7063,rev?*%
%TF.SameCoordinates,Original*%
%TF.FileFunction,Copper,L1,Top*%
%TF.FilePolarity,Positive*%
%FSLAX46Y46*%
G04 Gerber Fmt 4.6, Leading zero omitted, Abs format (unit mm)*
G04 Created by KiCad (PCBNEW 8.0.8) date 2025-04-25 12:53:52*
%MOMM*%
%LPD*%
G01*
G04 APERTURE LIST*
G04 Aperture macros list*
%AMRoundRect*
0 Rectangle with rounded corners*
0 $1 Rounding radius*
0 $2 $3 $4 $5 $6 $7 $8 $9 X,Y pos of 4 corners*
0 Add a 4 corners polygon primitive as box body*
4,1,4,$2,$3,$4,$5,$6,$7,$8,$9,$2,$3,0*
0 Add four circle primitives for the rounded corners*
1,1,$1+$1,$2,$3*
1,1,$1+$1,$4,$5*
1,1,$1+$1,$6,$7*
1,1,$1+$1,$8,$9*
0 Add four rect primitives between the rounded corners*
20,1,$1+$1,$2,$3,$4,$5,0*
20,1,$1+$1,$4,$5,$6,$7,0*
20,1,$1+$1,$6,$7,$8,$9,0*
20,1,$1+$1,$8,$9,$2,$3,0*%
%AMOutline5P*
0 Free polygon, 5 corners , with rotation*
0 The origin of the aperture is its center*
0 number of corners: always 5*
0 $1 to $10 corner X, Y*
0 $11 Rotation angle, in degrees counterclockwise*
0 create outline with 5 corners*
4,1,5,$1,$2,$3,$4,$5,$6,$7,$8,$9,$10,$1,$2,$11*%
%AMOutline6P*
0 Free polygon, 6 corners , with rotation*
0 The origin of the aperture is its center*
0 number of corners: always 6*
0 $1 to $12 corner X, Y*
0 $13 Rotation angle, in degrees counterclockwise*
0 create outline with 6 corners*
4,1,6,$1,$2,$3,$4,$5,$6,$7,$8,$9,$10,$11,$12,$1,$2,$13*%
%AMOutline7P*
0 Free polygon, 7 corners , with rotation*
0 The origin of the aperture is its center*
0 number of corners: always 7*
0 $1 to $14 corner X, Y*
0 $15 Rotation angle, in degrees counterclockwise*
0 create outline with 7 corners*
4,1,7,$1,$2,$3,$4,$5,$6,$7,$8,$9,$10,$11,$12,$13,$14,$1,$2,$15*%
%AMOutline8P*
0 Free polygon, 8 corners , with rotation*
0 The origin of the aperture is its center*
0 number of corners: always 8*
0 $1 to $16 corner X, Y*
0 $17 Rotation angle, in degrees counterclockwise*
0 create outline with 8 corners*
4,1,8,$1,$2,$3,$4,$5,$6,$7,$8,$9,$10,$11,$12,$13,$14,$15,$16,$1,$2,$17*%
G04 Aperture macros list end*
%TA.AperFunction,NonConductor*%
%ADD10C,0.000000*%
%TD*%
%TA.AperFunction,ComponentPad*%
%ADD11R,1.800000X1.800000*%
%TD*%
%TA.AperFunction,ComponentPad*%
%ADD12C,1.800000*%
%TD*%
%TA.AperFunction,ComponentPad*%
%ADD13Outline8P,-1.900000X1.140000X-1.140000X1.900000X1.140000X1.900000X1.900000X1.140000X1.900000X-1.140000X1.140000X-1.900000X-1.140000X-1.900000X-1.900000X-1.140000X0.000000*%
%TD*%
%TA.AperFunction,ComponentPad*%
%ADD14RoundRect,0.250001X1.149999X-1.149999X1.149999X1.149999X-1.149999X1.149999X-1.149999X-1.149999X0*%
%TD*%
%TA.AperFunction,ComponentPad*%
%ADD15C,2.800000*%
%TD*%
%TA.AperFunction,ComponentPad*%
%ADD16R,2.200000X2.200000*%
%TD*%
%TA.AperFunction,ComponentPad*%
%ADD17O,2.200000X2.200000*%
%TD*%
%TA.AperFunction,ComponentPad*%
%ADD18R,2.400000X1.600000*%
%TD*%
%TA.AperFunction,ComponentPad*%
%ADD19O,2.400000X1.600000*%
%TD*%
%TA.AperFunction,ComponentPad*%
%ADD20R,1.600000X1.600000*%
%TD*%
%TA.AperFunction,ComponentPad*%
%ADD21C,1.600000*%
%TD*%
%TA.AperFunction,ComponentPad*%
%ADD22R,1.500000X1.500000*%
%TD*%
%TA.AperFunction,ComponentPad*%
%ADD23O,1.600000X1.600000*%
%TD*%
%TA.AperFunction,ComponentPad*%
%ADD24RoundRect,0.250001X1.149999X1.149999X-1.149999X1.149999X-1.149999X-1.149999X1.149999X-1.149999X0*%
%TD*%
%TA.AperFunction,ViaPad*%
%ADD25C,1.000000*%
%TD*%
%TA.AperFunction,Conductor*%
%ADD26C,0.600000*%
%TD*%
G04 APERTURE END LIST*
D10*
%TA.AperFunction,NonConductor*%
G36*
X101836913Y-70083302D02*
G01*
X101861444Y-70085361D01*
X101873447Y-70087139D01*
X101885223Y-70089416D01*
X101896731Y-70092194D01*
X101907932Y-70095475D01*
X101918787Y-70099258D01*
X101929256Y-70103546D01*
X101939299Y-70108338D01*
X101948877Y-70113637D01*
X101957950Y-70119444D01*
X101966478Y-70125758D01*
X101974421Y-70132582D01*
X101981741Y-70139917D01*
X101998467Y-70159883D01*
X102014492Y-70181995D01*
X102029785Y-70206131D01*
X102044315Y-70232166D01*
X102058052Y-70259978D01*
X102070964Y-70289443D01*
X102083020Y-70320438D01*
X102094189Y-70352841D01*
X102104441Y-70386527D01*
X102113744Y-70421373D01*
X102122067Y-70457257D01*
X102129379Y-70494054D01*
X102135649Y-70531642D01*
X102140847Y-70569897D01*
X102144941Y-70608697D01*
X102147900Y-70647917D01*
X102149078Y-70678113D01*
X102150459Y-70705307D01*
X102152081Y-70729661D01*
X102152995Y-70740824D01*
X102153985Y-70751337D01*
X102155056Y-70761220D01*
X102156212Y-70770494D01*
X102157459Y-70779179D01*
X102158801Y-70787295D01*
X102160245Y-70794862D01*
X102161794Y-70801901D01*
X102163454Y-70808431D01*
X102165230Y-70814473D01*
X102167127Y-70820046D01*
X102169149Y-70825172D01*
X102171303Y-70829870D01*
X102173593Y-70834159D01*
X102176024Y-70838062D01*
X102178601Y-70841597D01*
X102181329Y-70844784D01*
X102184214Y-70847645D01*
X102187259Y-70850199D01*
X102190471Y-70852465D01*
X102193854Y-70854466D01*
X102197414Y-70856219D01*
X102201155Y-70857746D01*
X102205082Y-70859068D01*
X102209201Y-70860203D01*
X102213516Y-70861172D01*
X102221016Y-70861950D01*
X102228248Y-70861887D01*
X102231769Y-70861534D01*
X102235229Y-70860962D01*
X102238630Y-70860170D01*
X102241975Y-70859154D01*
X102245266Y-70857912D01*
X102248505Y-70856441D01*
X102251694Y-70854737D01*
X102254835Y-70852800D01*
X102257930Y-70850625D01*
X102260981Y-70848211D01*
X102266962Y-70842651D01*
X102272794Y-70836099D01*
X102278494Y-70828533D01*
X102284080Y-70819931D01*
X102289567Y-70810273D01*
X102294975Y-70799535D01*
X102300318Y-70787696D01*
X102305615Y-70774735D01*
X102310883Y-70760630D01*
X102321022Y-70734980D01*
X102332542Y-70709171D01*
X102359435Y-70657330D01*
X102390993Y-70605617D01*
X102426646Y-70554544D01*
X102465825Y-70504622D01*
X102507959Y-70456360D01*
X102552479Y-70410271D01*
X102598816Y-70366864D01*
X102646398Y-70326651D01*
X102694658Y-70290142D01*
X102743024Y-70257848D01*
X102790928Y-70230281D01*
X102837799Y-70207950D01*
X102860669Y-70198908D01*
X102883068Y-70191367D01*
X102904924Y-70185391D01*
X102926165Y-70181043D01*
X102946721Y-70178388D01*
X102966520Y-70177488D01*
X102978554Y-70177788D01*
X102990538Y-70178682D01*
X103002456Y-70180155D01*
X103014296Y-70182198D01*
X103026044Y-70184798D01*
X103037686Y-70187942D01*
X103049208Y-70191620D01*
X103060596Y-70195819D01*
X103071837Y-70200527D01*
X103082917Y-70205733D01*
X103093823Y-70211424D01*
X103104540Y-70217588D01*
X103115054Y-70224214D01*
X103125353Y-70231290D01*
X103145246Y-70246743D01*
X103164110Y-70263851D01*
X103181835Y-70282520D01*
X103198310Y-70302655D01*
X103213426Y-70324158D01*
X103227072Y-70346936D01*
X103233310Y-70358773D01*
X103239138Y-70370893D01*
X103244545Y-70383284D01*
X103249515Y-70395934D01*
X103254035Y-70408831D01*
X103258091Y-70421963D01*
X103267533Y-70459333D01*
X103275245Y-70497357D01*
X103281266Y-70535933D01*
X103285634Y-70574958D01*
X103288387Y-70614331D01*
X103289562Y-70653949D01*
X103289200Y-70693709D01*
X103287336Y-70733510D01*
X103284009Y-70773249D01*
X103279258Y-70812823D01*
X103273121Y-70852131D01*
X103265635Y-70891069D01*
X103256838Y-70929537D01*
X103246770Y-70967431D01*
X103235467Y-71004648D01*
X103222968Y-71041088D01*
X103209310Y-71076647D01*
X103194533Y-71111223D01*
X103178674Y-71144714D01*
X103161771Y-71177018D01*
X103143863Y-71208031D01*
X103124986Y-71237653D01*
X103105180Y-71265780D01*
X103084483Y-71292310D01*
X103062932Y-71317141D01*
X103040566Y-71340170D01*
X103017422Y-71361296D01*
X102993540Y-71380416D01*
X102968956Y-71397427D01*
X102943709Y-71412228D01*
X102917837Y-71424716D01*
X102891379Y-71434788D01*
X102862103Y-71443718D01*
X102836464Y-71451755D01*
X102814277Y-71459047D01*
X102804421Y-71462461D01*
X102795360Y-71465745D01*
X102787069Y-71468917D01*
X102779527Y-71471995D01*
X102772710Y-71475000D01*
X102766595Y-71477949D01*
X102761160Y-71480860D01*
X102756382Y-71483753D01*
X102752237Y-71486646D01*
X102748702Y-71489557D01*
X102745755Y-71492506D01*
X102743373Y-71495510D01*
X102741532Y-71498589D01*
X102740210Y-71501761D01*
X102739383Y-71505045D01*
X102739029Y-71508458D01*
X102739125Y-71512021D01*
X102739648Y-71515751D01*
X102740575Y-71519667D01*
X102741883Y-71523788D01*
X102743548Y-71528131D01*
X102745549Y-71532717D01*
X102750463Y-71542689D01*
X102756441Y-71553851D01*
X102769577Y-71572643D01*
X102791850Y-71595669D01*
X102822265Y-71622314D01*
X102859827Y-71651962D01*
X102903541Y-71683997D01*
X102952410Y-71717804D01*
X103061638Y-71788272D01*
X103179547Y-71858442D01*
X103298175Y-71923391D01*
X103355271Y-71952369D01*
X103409561Y-71978195D01*
X103460049Y-72000254D01*
X103505741Y-72017930D01*
X103589210Y-72045667D01*
X103676307Y-72068751D01*
X103767040Y-72087180D01*
X103861415Y-72100951D01*
X103959440Y-72110061D01*
X104061121Y-72114510D01*
X104166466Y-72114293D01*
X104275480Y-72109409D01*
X104388172Y-72099856D01*
X104504548Y-72085631D01*
X104624616Y-72066732D01*
X104748381Y-72043156D01*
X104875852Y-72014902D01*
X105007035Y-71981966D01*
X105141938Y-71944347D01*
X105280566Y-71902043D01*
X105362326Y-71876984D01*
X105439693Y-71854770D01*
X105513211Y-71835366D01*
X105583423Y-71818740D01*
X105650872Y-71804857D01*
X105716102Y-71793686D01*
X105779656Y-71785191D01*
X105842078Y-71779341D01*
X105903910Y-71776102D01*
X105965697Y-71775440D01*
X106027981Y-71777322D01*
X106091307Y-71781714D01*
X106156217Y-71788584D01*
X106223254Y-71797898D01*
X106292963Y-71809623D01*
X106365886Y-71823725D01*
X106448780Y-71835946D01*
X106568359Y-71846976D01*
X106947838Y-71866456D01*
X107564847Y-71884150D01*
X108479908Y-71902043D01*
X109288830Y-71915207D01*
X109618526Y-71922206D01*
X109905019Y-71930468D01*
X110153288Y-71940734D01*
X110368313Y-71953741D01*
X110555072Y-71970231D01*
X110639409Y-71980013D01*
X110718547Y-71990942D01*
X110793108Y-72003112D01*
X110863715Y-72016614D01*
X110930991Y-72031542D01*
X110995557Y-72047987D01*
X111058037Y-72066042D01*
X111119052Y-72085799D01*
X111179226Y-72107351D01*
X111239180Y-72130791D01*
X111360921Y-72183702D01*
X111489253Y-72245271D01*
X111785611Y-72397342D01*
X111915586Y-72466663D01*
X112042033Y-72537002D01*
X112164719Y-72608197D01*
X112283417Y-72680090D01*
X112397894Y-72752519D01*
X112507921Y-72825325D01*
X112613268Y-72898345D01*
X112713704Y-72971421D01*
X112808999Y-73044392D01*
X112898924Y-73117096D01*
X112983247Y-73189374D01*
X113061739Y-73261066D01*
X113134169Y-73332010D01*
X113200307Y-73402046D01*
X113259924Y-73471015D01*
X113312788Y-73538754D01*
X113331875Y-73565631D01*
X113349321Y-73591071D01*
X113365236Y-73615337D01*
X113379728Y-73638693D01*
X113392905Y-73661400D01*
X113404875Y-73683722D01*
X113415748Y-73705922D01*
X113425632Y-73728262D01*
X113434636Y-73751005D01*
X113442867Y-73774414D01*
X113450435Y-73798752D01*
X113457448Y-73824281D01*
X113464014Y-73851264D01*
X113470243Y-73879964D01*
X113476241Y-73910644D01*
X113482119Y-73943566D01*
X113489095Y-73988314D01*
X113494740Y-74033088D01*
X113499050Y-74077925D01*
X113502021Y-74122863D01*
X113503650Y-74167941D01*
X113503932Y-74213197D01*
X113502864Y-74258668D01*
X113500442Y-74304392D01*
X113496662Y-74350408D01*
X113491520Y-74396754D01*
X113485012Y-74443466D01*
X113477134Y-74490584D01*
X113467883Y-74538146D01*
X113457254Y-74586189D01*
X113445244Y-74634751D01*
X113431849Y-74683870D01*
X113424469Y-74710981D01*
X113417728Y-74734860D01*
X113411509Y-74755649D01*
X113408559Y-74764929D01*
X113405696Y-74773490D01*
X113402905Y-74781350D01*
X113400172Y-74788525D01*
X113397481Y-74795035D01*
X113394818Y-74800896D01*
X113392169Y-74806127D01*
X113389519Y-74810745D01*
X113386854Y-74814768D01*
X113384158Y-74818213D01*
X113381417Y-74821099D01*
X113378616Y-74823443D01*
X113375741Y-74825262D01*
X113372778Y-74826575D01*
X113369710Y-74827400D01*
X113366525Y-74827753D01*
X113363207Y-74827653D01*
X113359742Y-74827118D01*
X113356114Y-74826165D01*
X113352310Y-74824811D01*
X113348315Y-74823076D01*
X113344114Y-74820975D01*
X113339692Y-74818528D01*
X113335035Y-74815752D01*
X113324957Y-74809283D01*
X113315184Y-74803878D01*
X113305588Y-74799403D01*
X113295983Y-74795910D01*
X113286187Y-74793449D01*
X113276016Y-74792070D01*
X113265286Y-74791824D01*
X113253814Y-74792760D01*
X113241415Y-74794929D01*
X113227906Y-74798383D01*
X113213104Y-74803170D01*
X113196824Y-74809341D01*
X113178882Y-74816948D01*
X113159097Y-74826039D01*
X113137282Y-74836667D01*
X113086833Y-74862729D01*
X113017325Y-74902655D01*
X112948998Y-74948969D01*
X112882305Y-75001016D01*
X112817694Y-75058141D01*
X112755616Y-75119686D01*
X112696522Y-75184998D01*
X112640862Y-75253419D01*
X112589086Y-75324295D01*
X112541644Y-75396969D01*
X112498988Y-75470785D01*
X112461567Y-75545088D01*
X112429831Y-75619222D01*
X112404232Y-75692532D01*
X112385219Y-75764360D01*
X112373243Y-75834053D01*
X112370034Y-75867893D01*
X112368753Y-75900953D01*
X112368753Y-76057587D01*
X112635453Y-76057587D01*
X112689737Y-76058847D01*
X112715693Y-76059975D01*
X112740859Y-76061437D01*
X112765231Y-76063233D01*
X112788809Y-76065362D01*
X112811591Y-76067827D01*
X112833576Y-76070626D01*
X112854763Y-76073762D01*
X112875150Y-76077233D01*
X112894736Y-76081041D01*
X112913520Y-76085186D01*
X112931500Y-76089668D01*
X112948674Y-76094489D01*
X112965042Y-76099648D01*
X112980602Y-76105146D01*
X112995353Y-76110984D01*
X113009293Y-76117162D01*
X113022422Y-76123680D01*
X113034737Y-76130539D01*
X113046237Y-76137740D01*
X113056921Y-76145282D01*
X113066788Y-76153167D01*
X113075836Y-76161395D01*
X113084064Y-76169966D01*
X113091471Y-76178881D01*
X113098054Y-76188141D01*
X113103814Y-76197745D01*
X113108748Y-76207695D01*
X113112855Y-76217990D01*
X113116134Y-76228632D01*
X113118583Y-76239620D01*
X113122268Y-76262899D01*
X113126139Y-76303113D01*
X113134192Y-76425689D01*
X113142246Y-76590037D01*
X113149803Y-76778841D01*
X113159081Y-76974207D01*
X113174715Y-77188053D01*
X113195670Y-77412068D01*
X113220910Y-77637944D01*
X113249399Y-77857370D01*
X113280102Y-78062038D01*
X113311983Y-78243637D01*
X113344006Y-78393859D01*
X113358408Y-78455462D01*
X113371061Y-78512233D01*
X113381980Y-78564399D01*
X113391177Y-78612189D01*
X113398666Y-78655830D01*
X113404460Y-78695551D01*
X113408571Y-78731579D01*
X113411013Y-78764142D01*
X113411613Y-78779196D01*
X113411800Y-78793468D01*
X113411577Y-78806989D01*
X113410944Y-78819785D01*
X113409904Y-78831886D01*
X113408459Y-78843321D01*
X113406609Y-78854117D01*
X113404357Y-78864303D01*
X113401705Y-78873908D01*
X113398653Y-78882960D01*
X113395204Y-78891488D01*
X113391359Y-78899519D01*
X113387119Y-78907084D01*
X113382488Y-78914209D01*
X113377465Y-78920924D01*
X113372053Y-78927257D01*
X113365337Y-78934944D01*
X113359279Y-78942766D01*
X113353881Y-78950781D01*
X113349141Y-78959049D01*
X113345063Y-78967631D01*
X113341645Y-78976585D01*
X113338890Y-78985972D01*
X113336797Y-78995851D01*
X113335367Y-79006282D01*
X113334602Y-79017325D01*
X113334503Y-79029039D01*
X113335068Y-79041484D01*
X113336301Y-79054719D01*
X113338201Y-79068805D01*
X113340769Y-79083801D01*
X113344006Y-79099767D01*
X113365704Y-79215654D01*
X113149275Y-79193958D01*
X113105380Y-79189088D01*
X113063624Y-79184069D01*
X113024956Y-79179001D01*
X112990326Y-79173982D01*
X112960681Y-79169112D01*
X112936971Y-79164490D01*
X112927638Y-79162303D01*
X112920144Y-79160216D01*
X112914608Y-79158240D01*
X112911149Y-79156388D01*
X112906935Y-79153483D01*
X112903118Y-79149563D01*
X112899695Y-79144677D01*
X112896659Y-79138874D01*
X112891732Y-79124712D01*
X112888297Y-79107464D01*
X112886312Y-79087523D01*
X112885738Y-79065277D01*
X112886534Y-79041116D01*
X112888661Y-79015431D01*
X112892077Y-78988610D01*
X112896743Y-78961045D01*
X112902618Y-78933125D01*
X112909662Y-78905240D01*
X112917835Y-78877779D01*
X112927096Y-78851133D01*
X112937404Y-78825692D01*
X112948721Y-78801845D01*
X112961448Y-78775688D01*
X112972650Y-78748835D01*
X112982341Y-78721021D01*
X112990533Y-78691985D01*
X112997241Y-78661465D01*
X113002476Y-78629196D01*
X113006252Y-78594916D01*
X113008583Y-78558363D01*
X113009481Y-78519274D01*
X113008960Y-78477385D01*
X113007033Y-78432435D01*
X113003713Y-78384160D01*
X112992947Y-78276585D01*
X112976767Y-78152559D01*
X112955516Y-78022249D01*
X112926124Y-77874358D01*
X112890716Y-77716855D01*
X112851421Y-77557709D01*
X112810364Y-77404888D01*
X112769673Y-77266361D01*
X112731475Y-77150097D01*
X112713976Y-77102803D01*
X112697897Y-77064063D01*
X112682075Y-77032555D01*
X112666127Y-77003767D01*
X112649703Y-76977477D01*
X112632454Y-76953467D01*
X112614029Y-76931515D01*
X112594080Y-76911402D01*
X112572256Y-76892908D01*
X112548209Y-76875812D01*
X112521588Y-76859894D01*
X112492044Y-76844934D01*
X112459227Y-76830712D01*
X112422788Y-76817008D01*
X112382377Y-76803602D01*
X112337645Y-76790273D01*
X112288242Y-76776801D01*
X112233818Y-76762967D01*
X112176742Y-76748646D01*
X112126538Y-76736258D01*
X112082869Y-76725827D01*
X112045402Y-76717376D01*
X112028889Y-76713899D01*
X112013801Y-76710927D01*
X112000095Y-76708461D01*
X111987731Y-76706505D01*
X111976666Y-76705061D01*
X111966858Y-76704132D01*
X111958265Y-76703721D01*
X111950846Y-76703832D01*
X111944559Y-76704466D01*
X111939362Y-76705628D01*
X111937159Y-76706407D01*
X111935212Y-76707319D01*
X111933518Y-76708364D01*
X111932069Y-76709543D01*
X111930862Y-76710856D01*
X111929890Y-76712303D01*
X111929149Y-76713884D01*
X111928634Y-76715601D01*
X111928338Y-76717453D01*
X111928258Y-76719440D01*
X111928721Y-76723824D01*
X111929980Y-76728755D01*
X111931995Y-76734237D01*
X111934722Y-76740271D01*
X111938121Y-76746862D01*
X111942150Y-76754011D01*
X111946766Y-76761722D01*
X111957593Y-76778841D01*
X111962866Y-76786801D01*
X111967957Y-76795343D01*
X111972843Y-76804377D01*
X111977502Y-76813816D01*
X111981914Y-76823571D01*
X111986056Y-76833555D01*
X111989906Y-76843677D01*
X111993444Y-76853851D01*
X111996646Y-76863988D01*
X111999492Y-76873999D01*
X112001960Y-76883796D01*
X112004027Y-76893291D01*
X112005673Y-76902395D01*
X112006876Y-76911019D01*
X112007613Y-76919077D01*
X112007864Y-76926479D01*
X112005993Y-76950409D01*
X112000390Y-76978717D01*
X111991068Y-77011367D01*
X111978040Y-77048319D01*
X111961320Y-77089539D01*
X111940919Y-77134987D01*
X111889132Y-77238423D01*
X111822785Y-77358329D01*
X111741982Y-77494407D01*
X111646831Y-77646361D01*
X111537435Y-77813892D01*
X111425026Y-77987663D01*
X111373633Y-78069683D01*
X111325553Y-78148275D01*
X111280865Y-78223302D01*
X111239649Y-78294625D01*
X111201982Y-78362106D01*
X111167944Y-78425608D01*
X111137615Y-78484992D01*
X111111074Y-78540121D01*
X111088398Y-78590856D01*
X111069668Y-78637059D01*
X111054963Y-78678594D01*
X111044361Y-78715320D01*
X111037942Y-78747102D01*
X111036326Y-78761094D01*
X111035785Y-78773799D01*
X111035014Y-78795391D01*
X111032739Y-78817743D01*
X111029019Y-78840773D01*
X111023915Y-78864399D01*
X111017485Y-78888538D01*
X111009788Y-78913108D01*
X111000883Y-78938025D01*
X110990831Y-78963208D01*
X110967517Y-79014041D01*
X110940321Y-79064945D01*
X110909716Y-79115260D01*
X110876175Y-79164325D01*
X110840172Y-79211480D01*
X110802181Y-79256065D01*
X110762676Y-79297419D01*
X110722129Y-79334882D01*
X110701613Y-79351948D01*
X110681015Y-79367793D01*
X110660393Y-79382336D01*
X110639807Y-79395492D01*
X110619316Y-79407181D01*
X110598980Y-79417319D01*
X110578856Y-79425824D01*
X110559005Y-79432613D01*
X110535659Y-79438969D01*
X110510716Y-79443977D01*
X110484553Y-79447677D01*
X110457546Y-79450108D01*
X110430071Y-79451311D01*
X110402504Y-79451327D01*
X110375220Y-79450196D01*
X110348596Y-79447958D01*
X110323007Y-79444653D01*
X110298830Y-79440322D01*
X110276441Y-79435005D01*
X110256215Y-79428743D01*
X110238528Y-79421575D01*
X110230754Y-79417664D01*
X110223757Y-79413542D01*
X110217582Y-79409214D01*
X110212277Y-79404685D01*
X110207888Y-79399959D01*
X110204464Y-79395043D01*
X110203410Y-79393364D01*
X110202627Y-79391313D01*
X110201854Y-79386141D01*
X110202102Y-79379624D01*
X110203331Y-79371858D01*
X110205500Y-79362938D01*
X110208566Y-79352960D01*
X110212490Y-79342022D01*
X110217230Y-79330219D01*
X110222746Y-79317646D01*
X110228995Y-79304401D01*
X110235937Y-79290579D01*
X110243531Y-79276277D01*
X110251736Y-79261590D01*
X110260511Y-79246615D01*
X110269815Y-79231447D01*
X110279605Y-79216184D01*
X110302511Y-79180012D01*
X110323995Y-79144546D01*
X110344050Y-79109824D01*
X110362668Y-79075880D01*
X110379841Y-79042751D01*
X110395561Y-79010475D01*
X110409821Y-78979087D01*
X110422613Y-78948623D01*
X110433928Y-78919121D01*
X110443761Y-78890616D01*
X110452101Y-78863146D01*
X110458943Y-78836746D01*
X110464278Y-78811453D01*
X110468098Y-78787303D01*
X110470396Y-78764332D01*
X110471164Y-78742578D01*
X110471501Y-78730886D01*
X110472526Y-78719409D01*
X110474254Y-78708127D01*
X110476703Y-78697021D01*
X110479890Y-78686069D01*
X110483833Y-78675253D01*
X110488547Y-78664551D01*
X110494050Y-78653943D01*
X110500360Y-78643410D01*
X110507492Y-78632932D01*
X110515465Y-78622487D01*
X110524295Y-78612056D01*
X110534000Y-78601619D01*
X110544596Y-78591156D01*
X110556101Y-78580646D01*
X110568531Y-78570070D01*
X110588471Y-78553959D01*
X110607896Y-78538809D01*
X110626341Y-78524985D01*
X110635051Y-78518686D01*
X110643342Y-78512855D01*
X110651155Y-78507539D01*
X110658432Y-78502783D01*
X110665116Y-78498633D01*
X110671148Y-78495136D01*
X110676470Y-78492336D01*
X110681023Y-78490279D01*
X110684751Y-78489012D01*
X110686286Y-78488688D01*
X110687593Y-78488579D01*
X110691935Y-78486695D01*
X110698418Y-78481187D01*
X110717260Y-78460148D01*
X110774608Y-78383961D01*
X110850858Y-78273680D01*
X110937227Y-78142967D01*
X111024936Y-78005482D01*
X111105204Y-77874886D01*
X111169250Y-77764841D01*
X111192445Y-77721794D01*
X111208292Y-77689008D01*
X111213582Y-77675213D01*
X111218910Y-77659737D01*
X111229534Y-77624408D01*
X111239872Y-77584354D01*
X111249634Y-77540908D01*
X111258527Y-77495402D01*
X111266261Y-77449172D01*
X111272544Y-77403549D01*
X111277084Y-77359867D01*
X111279664Y-77329290D01*
X111281624Y-77300890D01*
X111282929Y-77274415D01*
X111283541Y-77249610D01*
X111283425Y-77226222D01*
X111282544Y-77203997D01*
X111280861Y-77182683D01*
X111278340Y-77162025D01*
X111274945Y-77141770D01*
X111270640Y-77121664D01*
X111265387Y-77101455D01*
X111259150Y-77080888D01*
X111251893Y-77059711D01*
X111243580Y-77037670D01*
X111234173Y-77014510D01*
X111223638Y-76989980D01*
X111212634Y-76965634D01*
X111201715Y-76943053D01*
X111190677Y-76922016D01*
X111179320Y-76902303D01*
X111167442Y-76883694D01*
X111154842Y-76865968D01*
X111141318Y-76848906D01*
X111126668Y-76832288D01*
X111110692Y-76815892D01*
X111093186Y-76799500D01*
X111073951Y-76782891D01*
X111052784Y-76765844D01*
X111029483Y-76748140D01*
X111003848Y-76729559D01*
X110975677Y-76709880D01*
X110944767Y-76688883D01*
X110888009Y-76647566D01*
X110859220Y-76624818D01*
X110829930Y-76600438D01*
X110769159Y-76546055D01*
X110704327Y-76482971D01*
X110634062Y-76409743D01*
X110556995Y-76324924D01*
X110471755Y-76227070D01*
X110376971Y-76114737D01*
X110013434Y-75681880D01*
X109721863Y-75694579D01*
X109650308Y-75695659D01*
X109560286Y-75694289D01*
X109455405Y-75690700D01*
X109339276Y-75685120D01*
X109087707Y-75668907D01*
X108834451Y-75647484D01*
X108660531Y-75631869D01*
X108518522Y-75620297D01*
X108457783Y-75616005D01*
X108402980Y-75612695D01*
X108353433Y-75610358D01*
X108308460Y-75608986D01*
X108267382Y-75608569D01*
X108229517Y-75609098D01*
X108194186Y-75610563D01*
X108160707Y-75612955D01*
X108128400Y-75616265D01*
X108096585Y-75620483D01*
X108064580Y-75625601D01*
X108031706Y-75631608D01*
X107977886Y-75640174D01*
X107905450Y-75649038D01*
X107817560Y-75657951D01*
X107717380Y-75666666D01*
X107492798Y-75682508D01*
X107257005Y-75694579D01*
X107086900Y-75701404D01*
X107015196Y-75704723D01*
X106951453Y-75708106D01*
X106894969Y-75711650D01*
X106845040Y-75715452D01*
X106800963Y-75719608D01*
X106762036Y-75724212D01*
X106727555Y-75729363D01*
X106696817Y-75735155D01*
X106669119Y-75741686D01*
X106643759Y-75749050D01*
X106620032Y-75757345D01*
X106597237Y-75766665D01*
X106574669Y-75777109D01*
X106551626Y-75788771D01*
X106513511Y-75809384D01*
X106477882Y-75830027D01*
X106444647Y-75850816D01*
X106413712Y-75871867D01*
X106384985Y-75893296D01*
X106358373Y-75915219D01*
X106333782Y-75937753D01*
X106311120Y-75961015D01*
X106290293Y-75985120D01*
X106271209Y-76010184D01*
X106253775Y-76036324D01*
X106237897Y-76063657D01*
X106223482Y-76092298D01*
X106210438Y-76122363D01*
X106198671Y-76153970D01*
X106188089Y-76187234D01*
X106182904Y-76204156D01*
X106176924Y-76221882D01*
X106170219Y-76240258D01*
X106162863Y-76259134D01*
X106154926Y-76278357D01*
X106146482Y-76297776D01*
X106128360Y-76336591D01*
X106109071Y-76374364D01*
X106099169Y-76392480D01*
X106089193Y-76409880D01*
X106079213Y-76426412D01*
X106069303Y-76441924D01*
X106059533Y-76456264D01*
X106049977Y-76469280D01*
X106030680Y-76495651D01*
X106013850Y-76519616D01*
X105999457Y-76541498D01*
X105987477Y-76561619D01*
X105982382Y-76571119D01*
X105977881Y-76580301D01*
X105973968Y-76589203D01*
X105970642Y-76597866D01*
X105967898Y-76606332D01*
X105965733Y-76614639D01*
X105964144Y-76622828D01*
X105963127Y-76630939D01*
X105962679Y-76639014D01*
X105962797Y-76647091D01*
X105963477Y-76655212D01*
X105964715Y-76663417D01*
X105966509Y-76671746D01*
X105968855Y-76680239D01*
X105971750Y-76688936D01*
X105975190Y-76697879D01*
X105979172Y-76707107D01*
X105983692Y-76716660D01*
X105994334Y-76736905D01*
X106007089Y-76758936D01*
X106021930Y-76783075D01*
X106087547Y-76889968D01*
X106341547Y-76886791D01*
X106395148Y-76887379D01*
X106448985Y-76889114D01*
X106501556Y-76891954D01*
X106551362Y-76895853D01*
X106596901Y-76900770D01*
X106617602Y-76903596D01*
X106636674Y-76906660D01*
X106653928Y-76909957D01*
X106669178Y-76913480D01*
X106682236Y-76917226D01*
X106692914Y-76921187D01*
X106715185Y-76930025D01*
X106739418Y-76941042D01*
X106765143Y-76953909D01*
X106791893Y-76968300D01*
X106819197Y-76983888D01*
X106846588Y-77000346D01*
X106873596Y-77017346D01*
X106899751Y-77034562D01*
X106924586Y-77051666D01*
X106947632Y-77068331D01*
X106968418Y-77084230D01*
X106986477Y-77099037D01*
X107001339Y-77112424D01*
X107012535Y-77124063D01*
X107016612Y-77129125D01*
X107019597Y-77133628D01*
X107021430Y-77137530D01*
X107022055Y-77140792D01*
X107021781Y-77142008D01*
X107020969Y-77143274D01*
X107017781Y-77145941D01*
X107012598Y-77148765D01*
X107005527Y-77151722D01*
X106996672Y-77154784D01*
X106986141Y-77157925D01*
X106960473Y-77164340D01*
X106929374Y-77170754D01*
X106893691Y-77176957D01*
X106854276Y-77182739D01*
X106811976Y-77187888D01*
X106787881Y-77190520D01*
X106763879Y-77193637D01*
X106740061Y-77197219D01*
X106716520Y-77201241D01*
X106693347Y-77205682D01*
X106670636Y-77210519D01*
X106648478Y-77215730D01*
X106626967Y-77221292D01*
X106606192Y-77227182D01*
X106586249Y-77233379D01*
X106567227Y-77239859D01*
X106549220Y-77246601D01*
X106532321Y-77253581D01*
X106516620Y-77260778D01*
X106502211Y-77268168D01*
X106489185Y-77275730D01*
X106475410Y-77284140D01*
X106461261Y-77291919D01*
X106446725Y-77299077D01*
X106431787Y-77305627D01*
X106416434Y-77311583D01*
X106400651Y-77316955D01*
X106384425Y-77321756D01*
X106367741Y-77326000D01*
X106350587Y-77329698D01*
X106332947Y-77332863D01*
X106314807Y-77335506D01*
X106296155Y-77337641D01*
X106276976Y-77339281D01*
X106257255Y-77340436D01*
X106236979Y-77341120D01*
X106216135Y-77341345D01*
X106191304Y-77341146D01*
X106168446Y-77340492D01*
X106147327Y-77339301D01*
X106127714Y-77337492D01*
X106109373Y-77334983D01*
X106092068Y-77331690D01*
X106075566Y-77327532D01*
X106059634Y-77322428D01*
X106044036Y-77316293D01*
X106028539Y-77309047D01*
X106012909Y-77300608D01*
X105996911Y-77290892D01*
X105980312Y-77279819D01*
X105962877Y-77267305D01*
X105944373Y-77253269D01*
X105924564Y-77237628D01*
X105910597Y-77226808D01*
X105896911Y-77216597D01*
X105883567Y-77207033D01*
X105870622Y-77198157D01*
X105858137Y-77190005D01*
X105846169Y-77182619D01*
X105834778Y-77176035D01*
X105824023Y-77170293D01*
X105813962Y-77165431D01*
X105804654Y-77161489D01*
X105796159Y-77158505D01*
X105792235Y-77157384D01*
X105788535Y-77156517D01*
X105785069Y-77155910D01*
X105781842Y-77155566D01*
X105778862Y-77155490D01*
X105776137Y-77155688D01*
X105773674Y-77156164D01*
X105771481Y-77156924D01*
X105769564Y-77157971D01*
X105767931Y-77159311D01*
X105764378Y-77164181D01*
X105759721Y-77172894D01*
X105747393Y-77201000D01*
X105731542Y-77241930D01*
X105712765Y-77293985D01*
X105691656Y-77355466D01*
X105668811Y-77424673D01*
X105620293Y-77579470D01*
X105582811Y-77706907D01*
X105554090Y-77811072D01*
X105542637Y-77857433D01*
X105532922Y-77901582D01*
X105524793Y-77944721D01*
X105518098Y-77988054D01*
X105512687Y-78032782D01*
X105508409Y-78080107D01*
X105505112Y-78131232D01*
X105502645Y-78187360D01*
X105499597Y-78319429D01*
X105498056Y-78485933D01*
X105496532Y-78623347D01*
X105495478Y-78682717D01*
X105494195Y-78736230D01*
X105492654Y-78784161D01*
X105490829Y-78826787D01*
X105488692Y-78864385D01*
X105486216Y-78897229D01*
X105483374Y-78925595D01*
X105480140Y-78949761D01*
X105478366Y-78960354D01*
X105476485Y-78970001D01*
X105474492Y-78978735D01*
X105472383Y-78986591D01*
X105470156Y-78993605D01*
X105467807Y-78999809D01*
X105465332Y-79005238D01*
X105462729Y-79009928D01*
X105459993Y-79013913D01*
X105457122Y-79017226D01*
X105454112Y-79019904D01*
X105450960Y-79021979D01*
X105436382Y-79027840D01*
X105412521Y-79035630D01*
X105380611Y-79044945D01*
X105341886Y-79055383D01*
X105297579Y-79066540D01*
X105248926Y-79078013D01*
X105197160Y-79089400D01*
X105143514Y-79100296D01*
X105104847Y-79108054D01*
X105069873Y-79114856D01*
X105038390Y-79120704D01*
X105010197Y-79125596D01*
X104985092Y-79129534D01*
X104973635Y-79131145D01*
X104962874Y-79132517D01*
X104952784Y-79133650D01*
X104943341Y-79134544D01*
X104934518Y-79135200D01*
X104926291Y-79135617D01*
X104918635Y-79135795D01*
X104911523Y-79135735D01*
X104904932Y-79135436D01*
X104898836Y-79134898D01*
X104893210Y-79134121D01*
X104888028Y-79133106D01*
X104883266Y-79131852D01*
X104878897Y-79130359D01*
X104874898Y-79128627D01*
X104871243Y-79126657D01*
X104867906Y-79124448D01*
X104864862Y-79122000D01*
X104862087Y-79119313D01*
X104859555Y-79116388D01*
X104857240Y-79113224D01*
X104855118Y-79109821D01*
X104851527Y-79103875D01*
X104848392Y-79097749D01*
X104845711Y-79091448D01*
X104843480Y-79084979D01*
X104841696Y-79078347D01*
X104840358Y-79071558D01*
X104839461Y-79064618D01*
X104839003Y-79057532D01*
X104838982Y-79050307D01*
X104839395Y-79042949D01*
X104840238Y-79035462D01*
X104841510Y-79027854D01*
X104843206Y-79020129D01*
X104845325Y-79012293D01*
X104850819Y-78996315D01*
X104857968Y-78979964D01*
X104866751Y-78963287D01*
X104877144Y-78946332D01*
X104889125Y-78929144D01*
X104902673Y-78911770D01*
X104917763Y-78894256D01*
X104934375Y-78876650D01*
X104952485Y-78858997D01*
X104961933Y-78850514D01*
X104971389Y-78841590D01*
X104980801Y-78832302D01*
X104990114Y-78822731D01*
X104999275Y-78812956D01*
X105008230Y-78803055D01*
X105016927Y-78793107D01*
X105025311Y-78783192D01*
X105033330Y-78773389D01*
X105040929Y-78763777D01*
X105048055Y-78754434D01*
X105054655Y-78745440D01*
X105060675Y-78736873D01*
X105066062Y-78728814D01*
X105070762Y-78721341D01*
X105074722Y-78714533D01*
X105082957Y-78696787D01*
X105091186Y-78674116D01*
X105107613Y-78614041D01*
X105123966Y-78534395D01*
X105140207Y-78435265D01*
X105156299Y-78316738D01*
X105172205Y-78178900D01*
X105187888Y-78021839D01*
X105203310Y-77845641D01*
X105212711Y-77757295D01*
X105224344Y-77663244D01*
X105237764Y-77566365D01*
X105252523Y-77469536D01*
X105268174Y-77375634D01*
X105284273Y-77287536D01*
X105300371Y-77208120D01*
X105316023Y-77140262D01*
X105324037Y-77109660D01*
X105331593Y-77079103D01*
X105345235Y-77018893D01*
X105356755Y-76961175D01*
X105365963Y-76907495D01*
X105372665Y-76859395D01*
X105375017Y-76837921D01*
X105376670Y-76818421D01*
X105377601Y-76801089D01*
X105377785Y-76786116D01*
X105377199Y-76773697D01*
X105375819Y-76764025D01*
X105373438Y-76755254D01*
X105369724Y-76745482D01*
X105364755Y-76734809D01*
X105358612Y-76723337D01*
X105351375Y-76711167D01*
X105343123Y-76698401D01*
X105333936Y-76685140D01*
X105323894Y-76671487D01*
X105313077Y-76657542D01*
X105301565Y-76643407D01*
X105289437Y-76629184D01*
X105276773Y-76614974D01*
X105263654Y-76600878D01*
X105250159Y-76586999D01*
X105236368Y-76573437D01*
X105222360Y-76560295D01*
X105202759Y-76541444D01*
X105184962Y-76523662D01*
X105168862Y-76506765D01*
X105154354Y-76490569D01*
X105141331Y-76474892D01*
X105129687Y-76459548D01*
X105119316Y-76444355D01*
X105110111Y-76429128D01*
X105101966Y-76413685D01*
X105094776Y-76397840D01*
X105088434Y-76381412D01*
X105082834Y-76364215D01*
X105077869Y-76346066D01*
X105073434Y-76326781D01*
X105069422Y-76306178D01*
X105065727Y-76284071D01*
X105060122Y-76243517D01*
X105056208Y-76204193D01*
X105053991Y-76166075D01*
X105053474Y-76129140D01*
X105054662Y-76093365D01*
X105057560Y-76058726D01*
X105062173Y-76025200D01*
X105068505Y-75992764D01*
X105076561Y-75961395D01*
X105086346Y-75931069D01*
X105097864Y-75901763D01*
X105111120Y-75873454D01*
X105126118Y-75846118D01*
X105142864Y-75819733D01*
X105161361Y-75794275D01*
X105181615Y-75769721D01*
X105192113Y-75757541D01*
X105201781Y-75745706D01*
X105210618Y-75734213D01*
X105218625Y-75723059D01*
X105225802Y-75712241D01*
X105232149Y-75701757D01*
X105237666Y-75691604D01*
X105242353Y-75681780D01*
X105246211Y-75672281D01*
X105249240Y-75663104D01*
X105251439Y-75654248D01*
X105252810Y-75645709D01*
X105253352Y-75637485D01*
X105253066Y-75629573D01*
X105251952Y-75621971D01*
X105250009Y-75614675D01*
X105247239Y-75607682D01*
X105243641Y-75600991D01*
X105239215Y-75594598D01*
X105233963Y-75588501D01*
X105227883Y-75582698D01*
X105220976Y-75577184D01*
X105213243Y-75571958D01*
X105204683Y-75567016D01*
X105195297Y-75562357D01*
X105185084Y-75557978D01*
X105174046Y-75553875D01*
X105162182Y-75550046D01*
X105149493Y-75546488D01*
X105135978Y-75543199D01*
X105121638Y-75540176D01*
X105106473Y-75537416D01*
X105093538Y-75535191D01*
X105080641Y-75532590D01*
X105067803Y-75529627D01*
X105055045Y-75526315D01*
X105029845Y-75518693D01*
X105005204Y-75509825D01*
X104981281Y-75499813D01*
X104958240Y-75488759D01*
X104936240Y-75476763D01*
X104915444Y-75463928D01*
X104905547Y-75457227D01*
X104896011Y-75450355D01*
X104886857Y-75443323D01*
X104878104Y-75436146D01*
X104869773Y-75428834D01*
X104861884Y-75421401D01*
X104854457Y-75413860D01*
X104847512Y-75406224D01*
X104841069Y-75398504D01*
X104835149Y-75390714D01*
X104829771Y-75382867D01*
X104824956Y-75374975D01*
X104820724Y-75367051D01*
X104817095Y-75359107D01*
X104814089Y-75351156D01*
X104811727Y-75343212D01*
X104800778Y-75306325D01*
X104790066Y-75272947D01*
X104779159Y-75242619D01*
X104767624Y-75214881D01*
X104755029Y-75189272D01*
X104740941Y-75165334D01*
X104724927Y-75142607D01*
X104706555Y-75120631D01*
X104685393Y-75098946D01*
X104661008Y-75077094D01*
X104632967Y-75054613D01*
X104600837Y-75031045D01*
X104564188Y-75005929D01*
X104522585Y-74978807D01*
X104422789Y-74916703D01*
X104264941Y-74824248D01*
X104058525Y-74707286D01*
X103830379Y-74581394D01*
X103607344Y-74462149D01*
X103376787Y-74338927D01*
X103188757Y-74235394D01*
X103107531Y-74188884D01*
X103033147Y-74144746D01*
X102964340Y-74102129D01*
X102899848Y-74060182D01*
X102838407Y-74018055D01*
X102778754Y-73974898D01*
X102719624Y-73929860D01*
X102659755Y-73882092D01*
X102597883Y-73830743D01*
X102532745Y-73774962D01*
X102387615Y-73646704D01*
X102214067Y-73490522D01*
X102144985Y-73428920D01*
X102084187Y-73377234D01*
X102029038Y-73334654D01*
X101976905Y-73300371D01*
X101925153Y-73273579D01*
X101871148Y-73253467D01*
X101812257Y-73239228D01*
X101745845Y-73230052D01*
X101669279Y-73225133D01*
X101579925Y-73223660D01*
X101352315Y-73227822D01*
X101041944Y-73236071D01*
X100220148Y-73257766D01*
X100113256Y-73176275D01*
X100102003Y-73168122D01*
X100090524Y-73160163D01*
X100078904Y-73152445D01*
X100067227Y-73145013D01*
X100055578Y-73137912D01*
X100044042Y-73131189D01*
X100032703Y-73124889D01*
X100021645Y-73119059D01*
X100010952Y-73113742D01*
X100000710Y-73108987D01*
X99991003Y-73104837D01*
X99981916Y-73101340D01*
X99973532Y-73098540D01*
X99965936Y-73096483D01*
X99959214Y-73095216D01*
X99953448Y-73094783D01*
X99945126Y-73094365D01*
X99936649Y-73093134D01*
X99928043Y-73091122D01*
X99919338Y-73088362D01*
X99910559Y-73084887D01*
X99901735Y-73080729D01*
X99892893Y-73075923D01*
X99884061Y-73070499D01*
X99866536Y-73057935D01*
X99849380Y-73043298D01*
X99832813Y-73026852D01*
X99817055Y-73008859D01*
X99802327Y-72989583D01*
X99788848Y-72969286D01*
X99776839Y-72948231D01*
X99766520Y-72926681D01*
X99758111Y-72904898D01*
X99754691Y-72894002D01*
X99751832Y-72883146D01*
X99749560Y-72872363D01*
X99747903Y-72861686D01*
X99746888Y-72851148D01*
X99746544Y-72840782D01*
X99747389Y-72824860D01*
X99750201Y-72808501D01*
X99755397Y-72791197D01*
X99763395Y-72772438D01*
X99774611Y-72751712D01*
X99789462Y-72728511D01*
X99808366Y-72702323D01*
X99831740Y-72672640D01*
X99860000Y-72638951D01*
X99893563Y-72600746D01*
X99978269Y-72508747D01*
X100089194Y-72392564D01*
X100229673Y-72248117D01*
X100328014Y-72147647D01*
X100421587Y-72049894D01*
X100508252Y-71957324D01*
X100585868Y-71872408D01*
X100652299Y-71797611D01*
X100705402Y-71735403D01*
X100726288Y-71709791D01*
X100743040Y-71688251D01*
X100755391Y-71671093D01*
X100763073Y-71658624D01*
X100778044Y-71636448D01*
X100802149Y-71609355D01*
X100834241Y-71578158D01*
X100873173Y-71543671D01*
X100917798Y-71506706D01*
X100966968Y-71468078D01*
X101019536Y-71428598D01*
X101074355Y-71389080D01*
X101130279Y-71350337D01*
X101186158Y-71313183D01*
X101240848Y-71278430D01*
X101293199Y-71246891D01*
X101342065Y-71219380D01*
X101386299Y-71196710D01*
X101424754Y-71179694D01*
X101456281Y-71169145D01*
X101468530Y-71165606D01*
X101479509Y-71162087D01*
X101489263Y-71158524D01*
X101493695Y-71156705D01*
X101497837Y-71154850D01*
X101501696Y-71152950D01*
X101505277Y-71150999D01*
X101508585Y-71148986D01*
X101511627Y-71146905D01*
X101514407Y-71144746D01*
X101516932Y-71142503D01*
X101519206Y-71140165D01*
X101521237Y-71137726D01*
X101523028Y-71135177D01*
X101524587Y-71132509D01*
X101525917Y-71129715D01*
X101527026Y-71126786D01*
X101527919Y-71123714D01*
X101528601Y-71120491D01*
X101529078Y-71117108D01*
X101529356Y-71113558D01*
X101529440Y-71109832D01*
X101529336Y-71105921D01*
X101529049Y-71101818D01*
X101528585Y-71097515D01*
X101527149Y-71088273D01*
X101525073Y-71078129D01*
X101503510Y-70992337D01*
X101489354Y-70936667D01*
X101474802Y-70880749D01*
X101466342Y-70839022D01*
X101460920Y-70794183D01*
X101458413Y-70746792D01*
X101458696Y-70697409D01*
X101461646Y-70646594D01*
X101467138Y-70594906D01*
X101475048Y-70542905D01*
X101485253Y-70491150D01*
X101497629Y-70440202D01*
X101512051Y-70390619D01*
X101528395Y-70342962D01*
X101546538Y-70297790D01*
X101566354Y-70255662D01*
X101587722Y-70217139D01*
X101610515Y-70182780D01*
X101622408Y-70167337D01*
X101634611Y-70153145D01*
X101642844Y-70145149D01*
X101651642Y-70137631D01*
X101660966Y-70130593D01*
X101670775Y-70124036D01*
X101681030Y-70117960D01*
X101691692Y-70112367D01*
X101702721Y-70107258D01*
X101714077Y-70102634D01*
X101725720Y-70098496D01*
X101737611Y-70094846D01*
X101761980Y-70089009D01*
X101786864Y-70085134D01*
X101811947Y-70083229D01*
X101836913Y-70083302D01*
G37*
%TD.AperFunction*%
D11*
%TO.P,D2,1,K*%
%TO.N,GND*%
X131000000Y-67040000D03*
D12*
%TO.P,D2,2,A*%
%TO.N,Net-(D2-A)*%
X131000000Y-64500000D03*
%TD*%
D13*
%TO.P,J3,1,Pin_1*%
%TO.N,Net-(J3-Pin_1)*%
X53310000Y-85000000D03*
%TD*%
%TO.P,J1,1,Pin_1*%
%TO.N,Net-(J1-Pin_1)*%
X53000000Y-70000000D03*
%TD*%
D14*
%TO.P,LS1,1,1*%
%TO.N,Net-(C5-Pad2)*%
X130000000Y-81500000D03*
D15*
%TO.P,LS1,2,2*%
%TO.N,GND*%
X130000000Y-76500000D03*
%TD*%
D11*
%TO.P,D3,1,K*%
%TO.N,GND*%
X92500000Y-56040000D03*
D12*
%TO.P,D3,2,A*%
%TO.N,Net-(D3-A)*%
X92500000Y-53500000D03*
%TD*%
D16*
%TO.P,D1,1,K*%
%TO.N,Net-(D1-K)*%
X75080000Y-63000000D03*
D17*
%TO.P,D1,2,A*%
%TO.N,+9V*%
X64920000Y-63000000D03*
%TD*%
D18*
%TO.P,U1,1,GND*%
%TO.N,GND*%
X88700000Y-73700000D03*
D19*
%TO.P,U1,2,TR*%
%TO.N,Net-(J1-Pin_1)*%
X88700000Y-76240000D03*
%TO.P,U1,3,Q*%
%TO.N,Net-(U1-Q)*%
X88700000Y-78780000D03*
%TO.P,U1,4,R*%
%TO.N,VCC*%
X88700000Y-81320000D03*
%TO.P,U1,5,CV*%
%TO.N,Net-(U1-CV)*%
X96320000Y-81320000D03*
%TO.P,U1,6,THR*%
%TO.N,Net-(J1-Pin_1)*%
X96320000Y-78780000D03*
%TO.P,U1,7,DIS*%
%TO.N,Net-(J3-Pin_1)*%
X96320000Y-76240000D03*
%TO.P,U1,8,VCC*%
%TO.N,VCC*%
X96320000Y-73700000D03*
%TD*%
D20*
%TO.P,C4,1*%
%TO.N,Net-(J1-Pin_1)*%
X80450000Y-70350000D03*
D21*
%TO.P,C4,2*%
%TO.N,GND*%
X80450000Y-72850000D03*
%TD*%
D22*
%TO.P,SW1,1,A*%
%TO.N,unconnected-(SW1-A-Pad1)*%
X79920000Y-54500000D03*
%TO.P,SW1,2,B*%
%TO.N,Net-(D1-K)*%
X82460000Y-54500000D03*
%TO.P,SW1,3,C*%
%TO.N,VCC*%
X85000000Y-54500000D03*
%TD*%
D21*
%TO.P,R2,1*%
%TO.N,VCC*%
X84200000Y-80095000D03*
D23*
%TO.P,R2,2*%
%TO.N,Net-(J3-Pin_1)*%
X84200000Y-90255000D03*
%TD*%
D24*
%TO.P,J2,1,Pin_1*%
%TO.N,GND*%
X68750000Y-55000000D03*
D15*
%TO.P,J2,2,Pin_2*%
%TO.N,+9V*%
X63750000Y-55000000D03*
%TD*%
D21*
%TO.P,R4,1*%
%TO.N,VCC*%
X87420000Y-62500000D03*
D23*
%TO.P,R4,2*%
%TO.N,Net-(D3-A)*%
X97580000Y-62500000D03*
%TD*%
D21*
%TO.P,C3,1*%
%TO.N,Net-(U1-CV)*%
X99750000Y-81300000D03*
%TO.P,C3,2*%
%TO.N,GND*%
X104750000Y-81300000D03*
%TD*%
D20*
%TO.P,C5,1*%
%TO.N,Net-(U1-Q)*%
X119500000Y-79500000D03*
D21*
%TO.P,C5,2*%
%TO.N,Net-(C5-Pad2)*%
X122000000Y-79500000D03*
%TD*%
%TO.P,R3,1*%
%TO.N,Net-(U1-Q)*%
X111920000Y-62500000D03*
D23*
%TO.P,R3,2*%
%TO.N,Net-(D2-A)*%
X122080000Y-62500000D03*
%TD*%
D25*
%TO.N,Net-(U1-Q)*%
X92500000Y-82000000D03*
%TO.N,VCC*%
X85500000Y-77500000D03*
X85500000Y-68500000D03*
%TD*%
D26*
%TO.N,Net-(U1-Q)*%
X92500000Y-85500000D02*
X93500000Y-86500000D01*
X116500000Y-79500000D02*
X119500000Y-79500000D01*
X92500000Y-82000000D02*
X92500000Y-85500000D01*
X109500000Y-86500000D02*
X116500000Y-79500000D01*
X93500000Y-86500000D02*
X109500000Y-86500000D01*
%TO.N,VCC*%
X85500000Y-77500000D02*
X85500000Y-68500000D01*
%TD*%
%TA.AperFunction,NonConductor*%
G36*
X130002702Y-50500617D02*
G01*
X130386771Y-50517386D01*
X130397506Y-50518326D01*
X130775971Y-50568152D01*
X130786597Y-50570025D01*
X131159284Y-50652648D01*
X131169710Y-50655442D01*
X131533765Y-50770227D01*
X131543911Y-50773920D01*
X131896578Y-50920000D01*
X131906369Y-50924566D01*
X132244942Y-51100816D01*
X132254310Y-51106224D01*
X132576244Y-51311318D01*
X132585105Y-51317523D01*
X132887930Y-51549889D01*
X132896217Y-51556843D01*
X133177635Y-51814715D01*
X133185284Y-51822364D01*
X133443156Y-52103782D01*
X133450110Y-52112069D01*
X133682476Y-52414894D01*
X133688681Y-52423755D01*
X133893775Y-52745689D01*
X133899183Y-52755057D01*
X134075430Y-53093623D01*
X134080002Y-53103427D01*
X134226075Y-53456078D01*
X134229775Y-53466244D01*
X134344554Y-53830278D01*
X134347354Y-53840727D01*
X134429971Y-54213389D01*
X134431849Y-54224042D01*
X134481671Y-54602473D01*
X134482614Y-54613249D01*
X134499382Y-54997297D01*
X134499500Y-55002706D01*
X134499500Y-99997293D01*
X134499382Y-100002702D01*
X134482614Y-100386750D01*
X134481671Y-100397526D01*
X134431849Y-100775957D01*
X134429971Y-100786610D01*
X134347354Y-101159272D01*
X134344554Y-101169721D01*
X134229775Y-101533755D01*
X134226075Y-101543921D01*
X134080002Y-101896572D01*
X134075430Y-101906376D01*
X133899183Y-102244942D01*
X133893775Y-102254310D01*
X133688681Y-102576244D01*
X133682476Y-102585105D01*
X133450110Y-102887930D01*
X133443156Y-102896217D01*
X133185284Y-103177635D01*
X133177635Y-103185284D01*
X132896217Y-103443156D01*
X132887930Y-103450110D01*
X132585105Y-103682476D01*
X132576244Y-103688681D01*
X132254310Y-103893775D01*
X132244942Y-103899183D01*
X131906376Y-104075430D01*
X131896572Y-104080002D01*
X131543921Y-104226075D01*
X131533755Y-104229775D01*
X131169721Y-104344554D01*
X131159272Y-104347354D01*
X130786610Y-104429971D01*
X130775957Y-104431849D01*
X130397526Y-104481671D01*
X130386750Y-104482614D01*
X130002703Y-104499382D01*
X129997294Y-104499500D01*
X55002706Y-104499500D01*
X54997297Y-104499382D01*
X54613249Y-104482614D01*
X54602473Y-104481671D01*
X54224042Y-104431849D01*
X54213389Y-104429971D01*
X53840727Y-104347354D01*
X53830278Y-104344554D01*
X53466244Y-104229775D01*
X53456078Y-104226075D01*
X53103427Y-104080002D01*
X53093623Y-104075430D01*
X52755057Y-103899183D01*
X52745689Y-103893775D01*
X52423755Y-103688681D01*
X52414894Y-103682476D01*
X52112069Y-103450110D01*
X52103782Y-103443156D01*
X51822364Y-103185284D01*
X51814715Y-103177635D01*
X51556843Y-102896217D01*
X51549889Y-102887930D01*
X51317523Y-102585105D01*
X51311318Y-102576244D01*
X51106224Y-102254310D01*
X51100816Y-102244942D01*
X50924569Y-101906376D01*
X50919997Y-101896572D01*
X50773920Y-101543911D01*
X50770224Y-101533755D01*
X50655442Y-101169710D01*
X50652648Y-101159284D01*
X50570025Y-100786597D01*
X50568152Y-100775971D01*
X50518326Y-100397506D01*
X50517386Y-100386771D01*
X50500618Y-100002702D01*
X50500500Y-99997293D01*
X50500500Y-99878711D01*
X53149500Y-99878711D01*
X53149500Y-100121288D01*
X53181161Y-100361785D01*
X53243947Y-100596104D01*
X53336773Y-100820205D01*
X53336776Y-100820212D01*
X53458064Y-101030289D01*
X53458066Y-101030292D01*
X53458067Y-101030293D01*
X53605733Y-101222736D01*
X53605739Y-101222743D01*
X53777256Y-101394260D01*
X53777262Y-101394265D01*
X53969711Y-101541936D01*
X54179788Y-101663224D01*
X54403900Y-101756054D01*
X54638211Y-101818838D01*
X54818586Y-101842584D01*
X54878711Y-101850500D01*
X54878712Y-101850500D01*
X55121289Y-101850500D01*
X55169388Y-101844167D01*
X55361789Y-101818838D01*
X55596100Y-101756054D01*
X55820212Y-101663224D01*
X56030289Y-101541936D01*
X56222738Y-101394265D01*
X56394265Y-101222738D01*
X56541936Y-101030289D01*
X56663224Y-100820212D01*
X56756054Y-100596100D01*
X56818838Y-100361789D01*
X56850500Y-100121288D01*
X56850500Y-99878712D01*
X56850500Y-99878711D01*
X128149500Y-99878711D01*
X128149500Y-100121288D01*
X128181161Y-100361785D01*
X128243947Y-100596104D01*
X128336773Y-100820205D01*
X128336776Y-100820212D01*
X128458064Y-101030289D01*
X128458066Y-101030292D01*
X128458067Y-101030293D01*
X128605733Y-101222736D01*
X128605739Y-101222743D01*
X128777256Y-101394260D01*
X128777262Y-101394265D01*
X128969711Y-101541936D01*
X129179788Y-101663224D01*
X129403900Y-101756054D01*
X129638211Y-101818838D01*
X129818586Y-101842584D01*
X129878711Y-101850500D01*
X129878712Y-101850500D01*
X130121289Y-101850500D01*
X130169388Y-101844167D01*
X130361789Y-101818838D01*
X130596100Y-101756054D01*
X130820212Y-101663224D01*
X131030289Y-101541936D01*
X131222738Y-101394265D01*
X131394265Y-101222738D01*
X131541936Y-101030289D01*
X131663224Y-100820212D01*
X131756054Y-100596100D01*
X131818838Y-100361789D01*
X131850500Y-100121288D01*
X131850500Y-99878712D01*
X131818838Y-99638211D01*
X131756054Y-99403900D01*
X131663224Y-99179788D01*
X131541936Y-98969711D01*
X131394265Y-98777262D01*
X131394260Y-98777256D01*
X131222743Y-98605739D01*
X131222736Y-98605733D01*
X131030293Y-98458067D01*
X131030292Y-98458066D01*
X131030289Y-98458064D01*
X130820212Y-98336776D01*
X130820205Y-98336773D01*
X130596104Y-98243947D01*
X130361785Y-98181161D01*
X130121289Y-98149500D01*
X130121288Y-98149500D01*
X129878712Y-98149500D01*
X129878711Y-98149500D01*
X129638214Y-98181161D01*
X129403895Y-98243947D01*
X129179794Y-98336773D01*
X129179785Y-98336777D01*
X128969706Y-98458067D01*
X128777263Y-98605733D01*
X128777256Y-98605739D01*
X128605739Y-98777256D01*
X128605733Y-98777263D01*
X128458067Y-98969706D01*
X128336777Y-99179785D01*
X128336773Y-99179794D01*
X128243947Y-99403895D01*
X128181161Y-99638214D01*
X128149500Y-99878711D01*
X56850500Y-99878711D01*
X56818838Y-99638211D01*
X56756054Y-99403900D01*
X56663224Y-99179788D01*
X56541936Y-98969711D01*
X56394265Y-98777262D01*
X56394260Y-98777256D01*
X56222743Y-98605739D01*
X56222736Y-98605733D01*
X56030293Y-98458067D01*
X56030292Y-98458066D01*
X56030289Y-98458064D01*
X55820212Y-98336776D01*
X55820205Y-98336773D01*
X55596104Y-98243947D01*
X55361785Y-98181161D01*
X55121289Y-98149500D01*
X55121288Y-98149500D01*
X54878712Y-98149500D01*
X54878711Y-98149500D01*
X54638214Y-98181161D01*
X54403895Y-98243947D01*
X54179794Y-98336773D01*
X54179785Y-98336777D01*
X53969706Y-98458067D01*
X53777263Y-98605733D01*
X53777256Y-98605739D01*
X53605739Y-98777256D01*
X53605733Y-98777263D01*
X53458067Y-98969706D01*
X53336777Y-99179785D01*
X53336773Y-99179794D01*
X53243947Y-99403895D01*
X53181161Y-99638214D01*
X53149500Y-99878711D01*
X50500500Y-99878711D01*
X50500500Y-90254998D01*
X82894532Y-90254998D01*
X82894532Y-90255001D01*
X82914364Y-90481686D01*
X82914366Y-90481697D01*
X82973258Y-90701488D01*
X82973261Y-90701497D01*
X83069431Y-90907732D01*
X83069432Y-90907734D01*
X83199954Y-91094141D01*
X83360858Y-91255045D01*
X83360861Y-91255047D01*
X83547266Y-91385568D01*
X83753504Y-91481739D01*
X83973308Y-91540635D01*
X84135230Y-91554801D01*
X84199998Y-91560468D01*
X84200000Y-91560468D01*
X84200002Y-91560468D01*
X84256673Y-91555509D01*
X84426692Y-91540635D01*
X84646496Y-91481739D01*
X84852734Y-91385568D01*
X85039139Y-91255047D01*
X85200047Y-91094139D01*
X85330568Y-90907734D01*
X85426739Y-90701496D01*
X85485635Y-90481692D01*
X85505468Y-90255000D01*
X85485635Y-90028308D01*
X85426739Y-89808504D01*
X85330568Y-89602266D01*
X85200047Y-89415861D01*
X85200045Y-89415858D01*
X85039141Y-89254954D01*
X84852734Y-89124432D01*
X84852732Y-89124431D01*
X84646497Y-89028261D01*
X84646488Y-89028258D01*
X84426697Y-88969366D01*
X84426693Y-88969365D01*
X84426692Y-88969365D01*
X84426691Y-88969364D01*
X84426686Y-88969364D01*
X84200002Y-88949532D01*
X84199998Y-88949532D01*
X83973313Y-88969364D01*
X83973302Y-88969366D01*
X83753511Y-89028258D01*
X83753502Y-89028261D01*
X83547267Y-89124431D01*
X83547265Y-89124432D01*
X83360858Y-89254954D01*
X83199954Y-89415858D01*
X83069432Y-89602265D01*
X83069431Y-89602267D01*
X82973261Y-89808502D01*
X82973258Y-89808511D01*
X82914366Y-90028302D01*
X82914364Y-90028313D01*
X82894532Y-90254998D01*
X50500500Y-90254998D01*
X50500500Y-83819019D01*
X50909500Y-83819019D01*
X50909500Y-86180970D01*
X50920060Y-86265049D01*
X50975136Y-86398015D01*
X50975137Y-86398016D01*
X51027121Y-86464935D01*
X51027127Y-86464941D01*
X51845067Y-87282882D01*
X51845077Y-87282891D01*
X51911982Y-87334863D01*
X51911983Y-87334863D01*
X51911984Y-87334864D01*
X52044950Y-87389940D01*
X52129023Y-87400500D01*
X54490975Y-87400499D01*
X54575050Y-87389940D01*
X54708016Y-87334863D01*
X54774935Y-87282879D01*
X55592884Y-86464931D01*
X55644864Y-86398016D01*
X55699940Y-86265050D01*
X55710500Y-86180977D01*
X55710499Y-83819025D01*
X55699940Y-83734950D01*
X55644863Y-83601984D01*
X55592879Y-83535065D01*
X54774931Y-82717116D01*
X54774930Y-82717115D01*
X54774922Y-82717108D01*
X54708017Y-82665136D01*
X54627272Y-82631691D01*
X54575050Y-82610060D01*
X54490977Y-82599500D01*
X52129029Y-82599500D01*
X52044950Y-82610060D01*
X51911984Y-82665136D01*
X51845065Y-82717121D01*
X51845058Y-82717127D01*
X51027117Y-83535067D01*
X51027108Y-83535077D01*
X50975136Y-83601982D01*
X50920060Y-83734950D01*
X50909500Y-83819019D01*
X50500500Y-83819019D01*
X50500500Y-80094998D01*
X82894532Y-80094998D01*
X82894532Y-80095001D01*
X82914364Y-80321686D01*
X82914366Y-80321697D01*
X82973258Y-80541488D01*
X82973261Y-80541497D01*
X83069431Y-80747732D01*
X83069432Y-80747734D01*
X83199954Y-80934141D01*
X83360858Y-81095045D01*
X83360861Y-81095047D01*
X83547266Y-81225568D01*
X83753504Y-81321739D01*
X83973308Y-81380635D01*
X84135230Y-81394801D01*
X84199998Y-81400468D01*
X84200000Y-81400468D01*
X84200002Y-81400468D01*
X84256673Y-81395509D01*
X84426692Y-81380635D01*
X84646496Y-81321739D01*
X84852734Y-81225568D01*
X85039139Y-81095047D01*
X85200047Y-80934139D01*
X85330568Y-80747734D01*
X85426739Y-80541496D01*
X85485635Y-80321692D01*
X85503154Y-80121446D01*
X85505468Y-80095001D01*
X85505468Y-80094998D01*
X85493341Y-79956392D01*
X85485635Y-79868308D01*
X85436589Y-79685266D01*
X85426741Y-79648511D01*
X85426738Y-79648502D01*
X85423369Y-79641277D01*
X85330568Y-79442266D01*
X85200324Y-79256257D01*
X85200045Y-79255858D01*
X85039141Y-79094954D01*
X84852734Y-78964432D01*
X84852732Y-78964431D01*
X84646497Y-78868261D01*
X84646488Y-78868258D01*
X84426697Y-78809366D01*
X84426693Y-78809365D01*
X84426692Y-78809365D01*
X84426691Y-78809364D01*
X84426686Y-78809364D01*
X84200002Y-78789532D01*
X84199998Y-78789532D01*
X83973313Y-78809364D01*
X83973302Y-78809366D01*
X83753511Y-78868258D01*
X83753502Y-78868261D01*
X83547267Y-78964431D01*
X83547265Y-78964432D01*
X83360858Y-79094954D01*
X83199954Y-79255858D01*
X83069432Y-79442265D01*
X83069431Y-79442267D01*
X82973261Y-79648502D01*
X82973258Y-79648511D01*
X82914366Y-79868302D01*
X82914364Y-79868313D01*
X82894532Y-80094998D01*
X50500500Y-80094998D01*
X50500500Y-72849998D01*
X79144532Y-72849998D01*
X79144532Y-72850001D01*
X79164364Y-73076686D01*
X79164366Y-73076697D01*
X79223258Y-73296488D01*
X79223261Y-73296497D01*
X79319431Y-73502732D01*
X79319432Y-73502734D01*
X79449954Y-73689141D01*
X79610858Y-73850045D01*
X79635637Y-73867395D01*
X79797266Y-73980568D01*
X80003504Y-74076739D01*
X80223308Y-74135635D01*
X80383900Y-74149685D01*
X80449998Y-74155468D01*
X80450000Y-74155468D01*
X80450002Y-74155468D01*
X80516100Y-74149685D01*
X80676692Y-74135635D01*
X80896496Y-74076739D01*
X81102734Y-73980568D01*
X81289139Y-73850047D01*
X81450047Y-73689139D01*
X81580568Y-73502734D01*
X81676739Y-73296496D01*
X81735635Y-73076692D01*
X81755468Y-72850000D01*
X81750923Y-72798056D01*
X81745776Y-72739224D01*
X81735635Y-72623308D01*
X81677530Y-72406456D01*
X81676741Y-72403511D01*
X81676738Y-72403502D01*
X81642901Y-72330939D01*
X81580568Y-72197266D01*
X81450047Y-72010861D01*
X81450045Y-72010858D01*
X81292913Y-71853726D01*
X81259428Y-71792403D01*
X81264412Y-71722711D01*
X81306284Y-71666778D01*
X81352078Y-71645368D01*
X81357480Y-71644091D01*
X81357483Y-71644091D01*
X81492331Y-71593796D01*
X81607546Y-71507546D01*
X81693796Y-71392331D01*
X81744091Y-71257483D01*
X81750500Y-71197873D01*
X81750499Y-69502128D01*
X81744091Y-69442517D01*
X81693796Y-69307669D01*
X81693795Y-69307668D01*
X81693793Y-69307664D01*
X81607547Y-69192455D01*
X81607544Y-69192452D01*
X81492335Y-69106206D01*
X81492328Y-69106202D01*
X81357482Y-69055908D01*
X81357483Y-69055908D01*
X81297883Y-69049501D01*
X81297881Y-69049500D01*
X81297873Y-69049500D01*
X81297864Y-69049500D01*
X79602129Y-69049500D01*
X79602123Y-69049501D01*
X79542516Y-69055908D01*
X79407671Y-69106202D01*
X79407664Y-69106206D01*
X79292455Y-69192452D01*
X79292452Y-69192455D01*
X79206206Y-69307664D01*
X79206202Y-69307671D01*
X79155908Y-69442517D01*
X79149501Y-69502116D01*
X79149501Y-69502123D01*
X79149500Y-69502135D01*
X79149500Y-71197870D01*
X79149501Y-71197876D01*
X79155908Y-71257483D01*
X79206202Y-71392328D01*
X79206206Y-71392335D01*
X79292452Y-71507544D01*
X79292455Y-71507547D01*
X79407664Y-71593793D01*
X79407671Y-71593797D01*
X79460490Y-71613497D01*
X79542517Y-71644091D01*
X79542527Y-71644092D01*
X79547913Y-71645365D01*
X79608631Y-71679935D01*
X79641021Y-71741843D01*
X79634799Y-71811435D01*
X79607088Y-71853725D01*
X79449951Y-72010862D01*
X79319432Y-72197265D01*
X79319431Y-72197267D01*
X79223261Y-72403502D01*
X79223258Y-72403511D01*
X79164366Y-72623302D01*
X79164364Y-72623313D01*
X79144532Y-72849998D01*
X50500500Y-72849998D01*
X50500500Y-71547382D01*
X50520185Y-71480343D01*
X50572989Y-71434588D01*
X50642147Y-71424644D01*
X50705703Y-71453669D01*
X50714343Y-71462232D01*
X50714381Y-71462195D01*
X51535067Y-72282882D01*
X51535077Y-72282891D01*
X51601982Y-72334863D01*
X51601983Y-72334863D01*
X51601984Y-72334864D01*
X51734950Y-72389940D01*
X51819023Y-72400500D01*
X54180975Y-72400499D01*
X54265050Y-72389940D01*
X54398016Y-72334863D01*
X54464935Y-72282879D01*
X55282884Y-71464931D01*
X55334864Y-71398016D01*
X55389940Y-71265050D01*
X55400500Y-71180977D01*
X55400499Y-68819025D01*
X55389940Y-68734950D01*
X55334863Y-68601984D01*
X55282879Y-68535065D01*
X55247814Y-68500000D01*
X84494659Y-68500000D01*
X84513975Y-68696129D01*
X84571187Y-68884730D01*
X84659259Y-69049500D01*
X84664090Y-69058538D01*
X84671350Y-69067385D01*
X84698666Y-69131691D01*
X84699500Y-69146052D01*
X84699500Y-76853946D01*
X84679815Y-76920985D01*
X84671355Y-76932609D01*
X84664090Y-76941461D01*
X84664086Y-76941467D01*
X84571188Y-77115266D01*
X84513975Y-77303870D01*
X84494659Y-77500000D01*
X84513975Y-77696129D01*
X84518727Y-77711794D01*
X84559685Y-77846815D01*
X84571188Y-77884733D01*
X84664086Y-78058532D01*
X84664090Y-78058539D01*
X84789116Y-78210883D01*
X84941460Y-78335909D01*
X84941467Y-78335913D01*
X85115266Y-78428811D01*
X85115269Y-78428811D01*
X85115273Y-78428814D01*
X85303868Y-78486024D01*
X85500000Y-78505341D01*
X85696132Y-78486024D01*
X85884727Y-78428814D01*
X85885160Y-78428583D01*
X86034993Y-78348495D01*
X86058538Y-78335910D01*
X86210883Y-78210883D01*
X86335910Y-78058538D01*
X86399009Y-77940488D01*
X86428811Y-77884733D01*
X86428811Y-77884732D01*
X86428814Y-77884727D01*
X86486024Y-77696132D01*
X86505341Y-77500000D01*
X86486024Y-77303868D01*
X86428814Y-77115273D01*
X86428811Y-77115269D01*
X86428811Y-77115266D01*
X86335913Y-76941467D01*
X86335909Y-76941461D01*
X86328645Y-76932609D01*
X86301333Y-76868299D01*
X86300500Y-76853946D01*
X86300500Y-72852135D01*
X86999500Y-72852135D01*
X86999500Y-74547870D01*
X86999501Y-74547876D01*
X87005908Y-74607483D01*
X87056202Y-74742328D01*
X87056206Y-74742335D01*
X87142452Y-74857544D01*
X87142455Y-74857547D01*
X87257664Y-74943793D01*
X87257671Y-74943797D01*
X87302618Y-74960561D01*
X87392517Y-74994091D01*
X87429441Y-74998060D01*
X87493989Y-75024796D01*
X87533838Y-75082188D01*
X87536333Y-75152013D01*
X87500681Y-75212102D01*
X87489071Y-75221666D01*
X87452784Y-75248030D01*
X87308028Y-75392786D01*
X87187715Y-75558386D01*
X87094781Y-75740776D01*
X87031522Y-75935465D01*
X87001681Y-76123878D01*
X86999500Y-76137648D01*
X86999500Y-76342352D01*
X87003205Y-76365743D01*
X87031522Y-76544534D01*
X87094781Y-76739223D01*
X87154014Y-76855472D01*
X87186238Y-76918716D01*
X87187715Y-76921613D01*
X87308028Y-77087213D01*
X87452786Y-77231971D01*
X87563575Y-77312462D01*
X87618390Y-77352287D01*
X87699012Y-77393366D01*
X87711080Y-77399515D01*
X87761876Y-77447490D01*
X87778671Y-77515311D01*
X87756134Y-77581446D01*
X87711080Y-77620485D01*
X87618386Y-77667715D01*
X87452786Y-77788028D01*
X87308028Y-77932786D01*
X87187715Y-78098386D01*
X87094781Y-78280776D01*
X87031522Y-78475465D01*
X87002159Y-78660858D01*
X86999500Y-78677648D01*
X86999500Y-78882352D01*
X87002031Y-78898331D01*
X87031522Y-79084534D01*
X87094781Y-79279223D01*
X87139459Y-79366907D01*
X87181874Y-79450151D01*
X87187715Y-79461613D01*
X87308028Y-79627213D01*
X87452786Y-79771971D01*
X87603334Y-79881348D01*
X87618390Y-79892287D01*
X87696610Y-79932142D01*
X87711080Y-79939515D01*
X87761876Y-79987490D01*
X87778671Y-80055311D01*
X87756134Y-80121446D01*
X87711080Y-80160485D01*
X87618386Y-80207715D01*
X87452786Y-80328028D01*
X87308028Y-80472786D01*
X87187715Y-80638386D01*
X87094781Y-80820776D01*
X87031522Y-81015465D01*
X87007983Y-81164090D01*
X86999500Y-81217648D01*
X86999500Y-81422352D01*
X87002527Y-81441462D01*
X87031522Y-81624534D01*
X87094781Y-81819223D01*
X87187715Y-82001613D01*
X87308028Y-82167213D01*
X87452786Y-82311971D01*
X87607749Y-82424556D01*
X87618390Y-82432287D01*
X87734607Y-82491503D01*
X87800776Y-82525218D01*
X87800778Y-82525218D01*
X87800781Y-82525220D01*
X87903323Y-82558538D01*
X87995465Y-82588477D01*
X88078850Y-82601684D01*
X88197648Y-82620500D01*
X88197649Y-82620500D01*
X89202351Y-82620500D01*
X89202352Y-82620500D01*
X89404534Y-82588477D01*
X89599219Y-82525220D01*
X89781610Y-82432287D01*
X89874590Y-82364732D01*
X89947213Y-82311971D01*
X89947215Y-82311968D01*
X89947219Y-82311966D01*
X90091966Y-82167219D01*
X90091968Y-82167215D01*
X90091971Y-82167213D01*
X90144732Y-82094590D01*
X90212287Y-82001610D01*
X90213107Y-82000000D01*
X91494659Y-82000000D01*
X91513975Y-82196129D01*
X91571187Y-82384730D01*
X91647093Y-82526739D01*
X91664090Y-82558538D01*
X91671350Y-82567385D01*
X91698666Y-82631691D01*
X91699500Y-82646052D01*
X91699500Y-85578846D01*
X91730261Y-85733489D01*
X91730264Y-85733501D01*
X91790602Y-85879172D01*
X91790609Y-85879185D01*
X91878210Y-86010288D01*
X91878213Y-86010292D01*
X92989707Y-87121786D01*
X92989711Y-87121789D01*
X93120814Y-87209390D01*
X93120818Y-87209392D01*
X93120821Y-87209394D01*
X93266503Y-87269738D01*
X93421153Y-87300499D01*
X93421157Y-87300500D01*
X93421158Y-87300500D01*
X109578844Y-87300500D01*
X109578845Y-87300499D01*
X109733497Y-87269737D01*
X109879179Y-87209394D01*
X110010289Y-87121789D01*
X116795259Y-80336819D01*
X116856582Y-80303334D01*
X116882940Y-80300500D01*
X118083023Y-80300500D01*
X118150062Y-80320185D01*
X118195817Y-80372989D01*
X118203266Y-80400134D01*
X118204124Y-80399932D01*
X118205907Y-80407479D01*
X118256202Y-80542328D01*
X118256206Y-80542335D01*
X118342452Y-80657544D01*
X118342455Y-80657547D01*
X118457664Y-80743793D01*
X118457671Y-80743797D01*
X118592517Y-80794091D01*
X118592516Y-80794091D01*
X118599444Y-80794835D01*
X118652127Y-80800500D01*
X120347872Y-80800499D01*
X120407483Y-80794091D01*
X120542331Y-80743796D01*
X120657546Y-80657546D01*
X120743796Y-80542331D01*
X120794091Y-80407483D01*
X120794092Y-80407472D01*
X120795365Y-80402088D01*
X120829933Y-80341369D01*
X120891841Y-80308978D01*
X120961433Y-80315199D01*
X121003725Y-80342912D01*
X121160858Y-80500045D01*
X121160861Y-80500047D01*
X121347266Y-80630568D01*
X121553504Y-80726739D01*
X121773308Y-80785635D01*
X121935230Y-80799801D01*
X121999998Y-80805468D01*
X122000000Y-80805468D01*
X122000002Y-80805468D01*
X122056807Y-80800498D01*
X122226692Y-80785635D01*
X122446496Y-80726739D01*
X122652734Y-80630568D01*
X122839139Y-80500047D01*
X123000047Y-80339139D01*
X123027463Y-80299984D01*
X128099500Y-80299984D01*
X128099500Y-82700015D01*
X128110000Y-82802795D01*
X128110001Y-82802796D01*
X128165186Y-82969335D01*
X128165187Y-82969337D01*
X128257286Y-83118651D01*
X128257289Y-83118655D01*
X128381344Y-83242710D01*
X128381348Y-83242713D01*
X128530662Y-83334812D01*
X128530664Y-83334813D01*
X128530666Y-83334814D01*
X128697203Y-83389999D01*
X128799992Y-83400500D01*
X128799997Y-83400500D01*
X131200003Y-83400500D01*
X131200008Y-83400500D01*
X131302797Y-83389999D01*
X131469334Y-83334814D01*
X131618655Y-83242711D01*
X131742711Y-83118655D01*
X131834814Y-82969334D01*
X131889999Y-82802797D01*
X131900500Y-82700008D01*
X131900500Y-80299992D01*
X131889999Y-80197203D01*
X131834814Y-80030666D01*
X131824759Y-80014365D01*
X131742713Y-79881348D01*
X131742710Y-79881344D01*
X131618655Y-79757289D01*
X131618651Y-79757286D01*
X131469337Y-79665187D01*
X131469335Y-79665186D01*
X131382138Y-79636292D01*
X131302797Y-79610001D01*
X131302795Y-79610000D01*
X131200015Y-79599500D01*
X131200008Y-79599500D01*
X128799992Y-79599500D01*
X128799984Y-79599500D01*
X128697204Y-79610000D01*
X128697203Y-79610001D01*
X128530664Y-79665186D01*
X128530662Y-79665187D01*
X128381348Y-79757286D01*
X128381344Y-79757289D01*
X128257289Y-79881344D01*
X128257286Y-79881348D01*
X128165187Y-80030662D01*
X128165186Y-80030664D01*
X128110001Y-80197203D01*
X128110000Y-80197204D01*
X128099500Y-80299984D01*
X123027463Y-80299984D01*
X123130568Y-80152734D01*
X123226739Y-79946496D01*
X123285635Y-79726692D01*
X123303641Y-79520878D01*
X123305468Y-79500001D01*
X123305468Y-79499998D01*
X123297246Y-79406018D01*
X123285635Y-79273308D01*
X123238451Y-79097213D01*
X123226741Y-79053511D01*
X123226738Y-79053502D01*
X123225933Y-79051776D01*
X123130568Y-78847266D01*
X123014956Y-78682154D01*
X123000045Y-78660858D01*
X122839141Y-78499954D01*
X122652734Y-78369432D01*
X122652732Y-78369431D01*
X122446497Y-78273261D01*
X122446488Y-78273258D01*
X122226697Y-78214366D01*
X122226693Y-78214365D01*
X122226692Y-78214365D01*
X122226691Y-78214364D01*
X122226686Y-78214364D01*
X122000002Y-78194532D01*
X121999998Y-78194532D01*
X121773313Y-78214364D01*
X121773302Y-78214366D01*
X121553511Y-78273258D01*
X121553502Y-78273261D01*
X121347267Y-78369431D01*
X121347265Y-78369432D01*
X121160862Y-78499951D01*
X121003726Y-78657087D01*
X120942403Y-78690571D01*
X120872711Y-78685587D01*
X120816778Y-78643715D01*
X120795369Y-78597923D01*
X120794091Y-78592518D01*
X120791805Y-78586390D01*
X120764174Y-78512306D01*
X120743797Y-78457671D01*
X120743793Y-78457664D01*
X120657547Y-78342455D01*
X120657544Y-78342452D01*
X120542335Y-78256206D01*
X120542328Y-78256202D01*
X120407482Y-78205908D01*
X120407483Y-78205908D01*
X120347883Y-78199501D01*
X120347881Y-78199500D01*
X120347873Y-78199500D01*
X120347864Y-78199500D01*
X118652129Y-78199500D01*
X118652123Y-78199501D01*
X118592516Y-78205908D01*
X118457671Y-78256202D01*
X118457664Y-78256206D01*
X118342455Y-78342452D01*
X118342452Y-78342455D01*
X118256206Y-78457664D01*
X118256202Y-78457671D01*
X118205908Y-78592517D01*
X118204126Y-78600062D01*
X118201853Y-78599525D01*
X118179571Y-78653312D01*
X118122177Y-78693157D01*
X118083024Y-78699500D01*
X116421155Y-78699500D01*
X116266510Y-78730261D01*
X116266498Y-78730264D01*
X116120827Y-78790602D01*
X116120814Y-78790609D01*
X115989711Y-78878210D01*
X115989707Y-78878213D01*
X109204741Y-85663181D01*
X109143418Y-85696666D01*
X109117060Y-85699500D01*
X93882940Y-85699500D01*
X93815901Y-85679815D01*
X93795259Y-85663181D01*
X93336819Y-85204741D01*
X93303334Y-85143418D01*
X93300500Y-85117060D01*
X93300500Y-82646052D01*
X93320185Y-82579013D01*
X93328643Y-82567392D01*
X93335910Y-82558538D01*
X93428814Y-82384727D01*
X93486024Y-82196132D01*
X93505341Y-82000000D01*
X93486024Y-81803868D01*
X93428814Y-81615273D01*
X93428811Y-81615269D01*
X93428811Y-81615266D01*
X93335913Y-81441467D01*
X93335909Y-81441460D01*
X93210883Y-81289116D01*
X93058539Y-81164090D01*
X93058532Y-81164086D01*
X92884733Y-81071188D01*
X92884727Y-81071186D01*
X92696132Y-81013976D01*
X92696129Y-81013975D01*
X92500000Y-80994659D01*
X92303870Y-81013975D01*
X92115266Y-81071188D01*
X91941467Y-81164086D01*
X91941460Y-81164090D01*
X91789116Y-81289116D01*
X91664090Y-81441460D01*
X91664086Y-81441467D01*
X91571188Y-81615266D01*
X91513975Y-81803870D01*
X91494659Y-82000000D01*
X90213107Y-82000000D01*
X90305220Y-81819219D01*
X90368477Y-81624534D01*
X90400500Y-81422352D01*
X90400500Y-81217648D01*
X90392017Y-81164090D01*
X90368477Y-81015465D01*
X90339127Y-80925137D01*
X90305220Y-80820781D01*
X90305218Y-80820778D01*
X90305218Y-80820776D01*
X90257303Y-80726739D01*
X90212287Y-80638390D01*
X90142497Y-80542331D01*
X90091971Y-80472786D01*
X89947213Y-80328028D01*
X89781614Y-80207715D01*
X89706477Y-80169431D01*
X89688917Y-80160483D01*
X89638123Y-80112511D01*
X89621328Y-80044690D01*
X89643865Y-79978555D01*
X89688917Y-79939516D01*
X89781610Y-79892287D01*
X89812664Y-79869725D01*
X89947213Y-79771971D01*
X89947215Y-79771968D01*
X89947219Y-79771966D01*
X90091966Y-79627219D01*
X90091968Y-79627215D01*
X90091971Y-79627213D01*
X90155816Y-79539336D01*
X90212287Y-79461610D01*
X90305220Y-79279219D01*
X90368477Y-79084534D01*
X90400500Y-78882352D01*
X90400500Y-78677648D01*
X90397243Y-78657087D01*
X90368477Y-78475465D01*
X90330541Y-78358710D01*
X90305220Y-78280781D01*
X90305218Y-78280778D01*
X90305218Y-78280776D01*
X90256479Y-78185122D01*
X90212287Y-78098390D01*
X90183329Y-78058532D01*
X90091971Y-77932786D01*
X89947213Y-77788028D01*
X89781614Y-77667715D01*
X89743590Y-77648341D01*
X89688917Y-77620483D01*
X89638123Y-77572511D01*
X89621328Y-77504690D01*
X89643865Y-77438555D01*
X89688917Y-77399516D01*
X89781610Y-77352287D01*
X89836425Y-77312462D01*
X89947213Y-77231971D01*
X89947215Y-77231968D01*
X89947219Y-77231966D01*
X90091966Y-77087219D01*
X90091968Y-77087215D01*
X90091971Y-77087213D01*
X90163355Y-76988959D01*
X90212287Y-76921610D01*
X90305220Y-76739219D01*
X90368477Y-76544534D01*
X90400500Y-76342352D01*
X90400500Y-76137648D01*
X90386808Y-76051200D01*
X90368477Y-75935465D01*
X90327306Y-75808755D01*
X90305220Y-75740781D01*
X90305218Y-75740778D01*
X90305218Y-75740776D01*
X90261520Y-75655015D01*
X90212287Y-75558390D01*
X90204556Y-75547749D01*
X90091971Y-75392786D01*
X89947219Y-75248034D01*
X89910930Y-75221669D01*
X89868264Y-75166339D01*
X89862285Y-75096726D01*
X89894890Y-75034931D01*
X89955728Y-75000573D01*
X89970562Y-74998060D01*
X90007483Y-74994091D01*
X90076158Y-74968477D01*
X90142331Y-74943796D01*
X90257546Y-74857546D01*
X90343796Y-74742331D01*
X90394091Y-74607483D01*
X90400500Y-74547873D01*
X90400499Y-73597648D01*
X94619500Y-73597648D01*
X94619500Y-73802352D01*
X94621290Y-73813654D01*
X94651522Y-74004534D01*
X94714781Y-74199223D01*
X94758695Y-74285407D01*
X94805383Y-74377038D01*
X94807715Y-74381613D01*
X94928028Y-74547213D01*
X95072786Y-74691971D01*
X95196374Y-74781761D01*
X95238390Y-74812287D01*
X95308993Y-74848261D01*
X95331080Y-74859515D01*
X95381876Y-74907490D01*
X95398671Y-74975311D01*
X95376134Y-75041446D01*
X95331080Y-75080485D01*
X95238386Y-75127715D01*
X95072786Y-75248028D01*
X94928028Y-75392786D01*
X94807715Y-75558386D01*
X94714781Y-75740776D01*
X94651522Y-75935465D01*
X94621681Y-76123878D01*
X94619500Y-76137648D01*
X94619500Y-76342352D01*
X94623205Y-76365743D01*
X94651522Y-76544534D01*
X94714781Y-76739223D01*
X94774014Y-76855472D01*
X94806238Y-76918716D01*
X94807715Y-76921613D01*
X94928028Y-77087213D01*
X95072786Y-77231971D01*
X95183575Y-77312462D01*
X95238390Y-77352287D01*
X95319012Y-77393366D01*
X95331080Y-77399515D01*
X95381876Y-77447490D01*
X95398671Y-77515311D01*
X95376134Y-77581446D01*
X95331080Y-77620485D01*
X95238386Y-77667715D01*
X95072786Y-77788028D01*
X94928028Y-77932786D01*
X94807715Y-78098386D01*
X94714781Y-78280776D01*
X94651522Y-78475465D01*
X94622159Y-78660858D01*
X94619500Y-78677648D01*
X94619500Y-78882352D01*
X94622031Y-78898331D01*
X94651522Y-79084534D01*
X94714781Y-79279223D01*
X94759459Y-79366907D01*
X94801874Y-79450151D01*
X94807715Y-79461613D01*
X94928028Y-79627213D01*
X95072786Y-79771971D01*
X95223334Y-79881348D01*
X95238390Y-79892287D01*
X95316610Y-79932142D01*
X95331080Y-79939515D01*
X95381876Y-79987490D01*
X95398671Y-80055311D01*
X95376134Y-80121446D01*
X95331080Y-80160485D01*
X95238386Y-80207715D01*
X95072786Y-80328028D01*
X94928028Y-80472786D01*
X94807715Y-80638386D01*
X94714781Y-80820776D01*
X94651522Y-81015465D01*
X94627983Y-81164090D01*
X94619500Y-81217648D01*
X94619500Y-81422352D01*
X94622527Y-81441462D01*
X94651522Y-81624534D01*
X94714781Y-81819223D01*
X94807715Y-82001613D01*
X94928028Y-82167213D01*
X95072786Y-82311971D01*
X95227749Y-82424556D01*
X95238390Y-82432287D01*
X95354607Y-82491503D01*
X95420776Y-82525218D01*
X95420778Y-82525218D01*
X95420781Y-82525220D01*
X95523323Y-82558538D01*
X95615465Y-82588477D01*
X95698850Y-82601684D01*
X95817648Y-82620500D01*
X95817649Y-82620500D01*
X96822351Y-82620500D01*
X96822352Y-82620500D01*
X97024534Y-82588477D01*
X97219219Y-82525220D01*
X97401610Y-82432287D01*
X97494590Y-82364732D01*
X97567213Y-82311971D01*
X97567215Y-82311968D01*
X97567219Y-82311966D01*
X97711966Y-82167219D01*
X97711968Y-82167215D01*
X97711971Y-82167213D01*
X97764732Y-82094590D01*
X97832287Y-82001610D01*
X97925220Y-81819219D01*
X97988477Y-81624534D01*
X98020500Y-81422352D01*
X98020500Y-81299998D01*
X98444532Y-81299998D01*
X98444532Y-81300001D01*
X98464364Y-81526686D01*
X98464366Y-81526697D01*
X98523258Y-81746488D01*
X98523261Y-81746497D01*
X98619431Y-81952732D01*
X98619432Y-81952734D01*
X98749954Y-82139141D01*
X98910858Y-82300045D01*
X98910861Y-82300047D01*
X99097266Y-82430568D01*
X99303504Y-82526739D01*
X99523308Y-82585635D01*
X99681786Y-82599500D01*
X99749998Y-82605468D01*
X99750000Y-82605468D01*
X99750002Y-82605468D01*
X99818214Y-82599500D01*
X99976692Y-82585635D01*
X100196496Y-82526739D01*
X100402734Y-82430568D01*
X100589139Y-82300047D01*
X100750047Y-82139139D01*
X100880568Y-81952734D01*
X100976739Y-81746496D01*
X101035635Y-81526692D01*
X101055468Y-81300000D01*
X101055468Y-81299998D01*
X103444532Y-81299998D01*
X103444532Y-81300001D01*
X103464364Y-81526686D01*
X103464366Y-81526697D01*
X103523258Y-81746488D01*
X103523261Y-81746497D01*
X103619431Y-81952732D01*
X103619432Y-81952734D01*
X103749954Y-82139141D01*
X103910858Y-82300045D01*
X103910861Y-82300047D01*
X104097266Y-82430568D01*
X104303504Y-82526739D01*
X104523308Y-82585635D01*
X104681786Y-82599500D01*
X104749998Y-82605468D01*
X104750000Y-82605468D01*
X104750002Y-82605468D01*
X104818214Y-82599500D01*
X104976692Y-82585635D01*
X105196496Y-82526739D01*
X105402734Y-82430568D01*
X105589139Y-82300047D01*
X105750047Y-82139139D01*
X105880568Y-81952734D01*
X105976739Y-81746496D01*
X106035635Y-81526692D01*
X106055468Y-81300000D01*
X106035635Y-81073308D01*
X105976739Y-80853504D01*
X105880568Y-80647266D01*
X105750047Y-80460861D01*
X105750045Y-80460858D01*
X105589141Y-80299954D01*
X105402734Y-80169432D01*
X105402732Y-80169431D01*
X105196497Y-80073261D01*
X105196488Y-80073258D01*
X104976697Y-80014366D01*
X104976693Y-80014365D01*
X104976692Y-80014365D01*
X104976691Y-80014364D01*
X104976686Y-80014364D01*
X104750002Y-79994532D01*
X104749998Y-79994532D01*
X104523313Y-80014364D01*
X104523302Y-80014366D01*
X104303511Y-80073258D01*
X104303502Y-80073261D01*
X104097267Y-80169431D01*
X104097265Y-80169432D01*
X103910858Y-80299954D01*
X103749954Y-80460858D01*
X103619432Y-80647265D01*
X103619431Y-80647267D01*
X103523261Y-80853502D01*
X103523258Y-80853511D01*
X103464366Y-81073302D01*
X103464364Y-81073313D01*
X103444532Y-81299998D01*
X101055468Y-81299998D01*
X101035635Y-81073308D01*
X100976739Y-80853504D01*
X100880568Y-80647266D01*
X100750047Y-80460861D01*
X100750045Y-80460858D01*
X100589141Y-80299954D01*
X100402734Y-80169432D01*
X100402732Y-80169431D01*
X100196497Y-80073261D01*
X100196488Y-80073258D01*
X99976697Y-80014366D01*
X99976693Y-80014365D01*
X99976692Y-80014365D01*
X99976691Y-80014364D01*
X99976686Y-80014364D01*
X99750002Y-79994532D01*
X99749998Y-79994532D01*
X99523313Y-80014364D01*
X99523302Y-80014366D01*
X99303511Y-80073258D01*
X99303502Y-80073261D01*
X99097267Y-80169431D01*
X99097265Y-80169432D01*
X98910858Y-80299954D01*
X98749954Y-80460858D01*
X98619432Y-80647265D01*
X98619431Y-80647267D01*
X98523261Y-80853502D01*
X98523258Y-80853511D01*
X98464366Y-81073302D01*
X98464364Y-81073313D01*
X98444532Y-81299998D01*
X98020500Y-81299998D01*
X98020500Y-81217648D01*
X98012017Y-81164090D01*
X97988477Y-81015465D01*
X97959127Y-80925137D01*
X97925220Y-80820781D01*
X97925218Y-80820778D01*
X97925218Y-80820776D01*
X97877303Y-80726739D01*
X97832287Y-80638390D01*
X97762497Y-80542331D01*
X97711971Y-80472786D01*
X97567213Y-80328028D01*
X97401614Y-80207715D01*
X97326477Y-80169431D01*
X97308917Y-80160483D01*
X97258123Y-80112511D01*
X97241328Y-80044690D01*
X97263865Y-79978555D01*
X97308917Y-79939516D01*
X97401610Y-79892287D01*
X97432664Y-79869725D01*
X97567213Y-79771971D01*
X97567215Y-79771968D01*
X97567219Y-79771966D01*
X97711966Y-79627219D01*
X97711968Y-79627215D01*
X97711971Y-79627213D01*
X97775816Y-79539336D01*
X97832287Y-79461610D01*
X97925220Y-79279219D01*
X97988477Y-79084534D01*
X98020500Y-78882352D01*
X98020500Y-78677648D01*
X98017243Y-78657087D01*
X97988477Y-78475465D01*
X97950541Y-78358710D01*
X97925220Y-78280781D01*
X97925218Y-78280778D01*
X97925218Y-78280776D01*
X97876479Y-78185122D01*
X97832287Y-78098390D01*
X97803329Y-78058532D01*
X97711971Y-77932786D01*
X97567213Y-77788028D01*
X97401614Y-77667715D01*
X97363590Y-77648341D01*
X97308917Y-77620483D01*
X97258123Y-77572511D01*
X97241328Y-77504690D01*
X97263865Y-77438555D01*
X97308917Y-77399516D01*
X97401610Y-77352287D01*
X97456425Y-77312462D01*
X97567213Y-77231971D01*
X97567215Y-77231968D01*
X97567219Y-77231966D01*
X97711966Y-77087219D01*
X97711968Y-77087215D01*
X97711971Y-77087213D01*
X97783355Y-76988959D01*
X97832287Y-76921610D01*
X97925220Y-76739219D01*
X97988477Y-76544534D01*
X98020500Y-76342352D01*
X98020500Y-76137648D01*
X98006808Y-76051200D01*
X97988477Y-75935465D01*
X97947306Y-75808755D01*
X97925220Y-75740781D01*
X97925218Y-75740778D01*
X97925218Y-75740776D01*
X97881520Y-75655015D01*
X97832287Y-75558390D01*
X97824556Y-75547749D01*
X97711971Y-75392786D01*
X97567213Y-75248028D01*
X97401614Y-75127715D01*
X97395006Y-75124348D01*
X97308917Y-75080483D01*
X97258123Y-75032511D01*
X97241328Y-74964690D01*
X97263865Y-74898555D01*
X97308917Y-74859516D01*
X97401610Y-74812287D01*
X97443626Y-74781761D01*
X97567213Y-74691971D01*
X97567215Y-74691968D01*
X97567219Y-74691966D01*
X97711966Y-74547219D01*
X97711968Y-74547215D01*
X97711971Y-74547213D01*
X97793520Y-74434968D01*
X97832287Y-74381610D01*
X97925220Y-74199219D01*
X97988477Y-74004534D01*
X98020500Y-73802352D01*
X98020500Y-73597648D01*
X98000087Y-73468765D01*
X97988477Y-73395465D01*
X97950873Y-73279732D01*
X97925220Y-73200781D01*
X97925218Y-73200778D01*
X97925218Y-73200776D01*
X97878324Y-73108743D01*
X97832287Y-73018390D01*
X97809772Y-72987400D01*
X97715431Y-72857548D01*
X99241322Y-72857548D01*
X99241666Y-72867933D01*
X99243714Y-72899592D01*
X99244730Y-72910142D01*
X99248384Y-72939221D01*
X99250043Y-72949904D01*
X99254914Y-72976552D01*
X99257200Y-72987400D01*
X99262992Y-73011854D01*
X99265865Y-73022760D01*
X99272390Y-73045383D01*
X99275813Y-73056290D01*
X99286519Y-73086921D01*
X99294944Y-73108743D01*
X99310591Y-73144992D01*
X99317419Y-73159251D01*
X99320913Y-73166547D01*
X99337741Y-73198677D01*
X99338941Y-73200781D01*
X99349760Y-73219749D01*
X99354694Y-73227755D01*
X99367746Y-73248935D01*
X99376732Y-73262466D01*
X99381230Y-73269240D01*
X99400658Y-73296491D01*
X99415374Y-73315752D01*
X99436779Y-73341908D01*
X99452525Y-73359886D01*
X99452533Y-73359895D01*
X99476094Y-73384975D01*
X99476688Y-73385607D01*
X99493252Y-73402051D01*
X99515465Y-73422498D01*
X99521286Y-73427856D01*
X99538442Y-73442493D01*
X99572004Y-73468765D01*
X99589529Y-73481329D01*
X99619522Y-73501253D01*
X99628354Y-73506677D01*
X99651488Y-73520056D01*
X99660330Y-73524862D01*
X99686260Y-73538004D01*
X99695084Y-73542162D01*
X99724511Y-73554905D01*
X99733290Y-73558380D01*
X99766560Y-73570222D01*
X99766566Y-73570224D01*
X99766586Y-73570231D01*
X99774473Y-73572731D01*
X99775265Y-73572982D01*
X99790524Y-73577178D01*
X99832821Y-73598126D01*
X99867174Y-73624316D01*
X99913660Y-73659756D01*
X99913668Y-73659761D01*
X99913675Y-73659767D01*
X99958172Y-73690084D01*
X99958177Y-73690086D01*
X100090579Y-73746378D01*
X100090582Y-73746379D01*
X100233488Y-73763090D01*
X101055284Y-73741395D01*
X101055374Y-73741393D01*
X101363250Y-73733209D01*
X101364048Y-73733191D01*
X101578271Y-73729274D01*
X101582527Y-73729271D01*
X101645935Y-73730316D01*
X101651831Y-73730553D01*
X101682520Y-73732525D01*
X101748159Y-73756466D01*
X101750354Y-73758122D01*
X101763537Y-73768301D01*
X101768068Y-73771974D01*
X101811893Y-73809230D01*
X101814086Y-73811139D01*
X101826062Y-73821818D01*
X101876750Y-73867018D01*
X101877170Y-73867395D01*
X102049454Y-74022440D01*
X102052730Y-74025362D01*
X102052849Y-74025467D01*
X102052869Y-74025485D01*
X102197999Y-74153743D01*
X102203945Y-74158916D01*
X102269083Y-74214697D01*
X102269114Y-74214723D01*
X102275046Y-74219725D01*
X102336951Y-74271101D01*
X102343119Y-74276119D01*
X102344484Y-74277230D01*
X102404353Y-74324998D01*
X102413327Y-74331995D01*
X102472457Y-74377033D01*
X102482453Y-74384454D01*
X102542106Y-74427611D01*
X102552551Y-74434968D01*
X102552579Y-74434987D01*
X102552583Y-74434990D01*
X102613987Y-74477092D01*
X102624220Y-74483927D01*
X102624231Y-74483934D01*
X102688723Y-74525881D01*
X102698168Y-74531876D01*
X102723996Y-74547873D01*
X102767009Y-74574514D01*
X102770303Y-74576511D01*
X102775188Y-74579473D01*
X102849572Y-74623611D01*
X102856346Y-74627559D01*
X102890950Y-74647373D01*
X102933649Y-74671823D01*
X102937572Y-74674069D01*
X102944936Y-74678205D01*
X103132966Y-74781738D01*
X103138516Y-74784749D01*
X103369057Y-74907962D01*
X103369070Y-74907975D01*
X103369073Y-74907971D01*
X103588390Y-75025228D01*
X103589833Y-75026012D01*
X103811163Y-75148143D01*
X103812379Y-75148823D01*
X103995245Y-75252441D01*
X104011796Y-75261819D01*
X104013335Y-75262706D01*
X104160025Y-75348625D01*
X104162814Y-75350308D01*
X104249915Y-75404512D01*
X104252016Y-75405850D01*
X104277075Y-75422187D01*
X104322484Y-75475285D01*
X104328215Y-75490723D01*
X104329557Y-75495239D01*
X104341250Y-75529911D01*
X104344256Y-75537862D01*
X104357300Y-75569154D01*
X104360923Y-75577083D01*
X104360929Y-75577096D01*
X104369639Y-75594696D01*
X104374846Y-75605218D01*
X104379058Y-75613104D01*
X104393417Y-75638233D01*
X104393430Y-75638254D01*
X104398245Y-75646146D01*
X104398258Y-75646166D01*
X104412786Y-75668618D01*
X104412799Y-75668637D01*
X104412801Y-75668640D01*
X104414357Y-75670911D01*
X104418191Y-75676504D01*
X104432683Y-75696576D01*
X104436883Y-75702102D01*
X104438599Y-75704360D01*
X104452972Y-75722404D01*
X104459415Y-75730124D01*
X104473550Y-75746345D01*
X104480495Y-75753981D01*
X104494303Y-75768570D01*
X104501730Y-75776111D01*
X104501740Y-75776121D01*
X104515260Y-75789345D01*
X104523115Y-75796745D01*
X104529733Y-75802764D01*
X104566086Y-75862432D01*
X104568007Y-75918255D01*
X104566041Y-75928324D01*
X104561391Y-75956292D01*
X104556775Y-75989843D01*
X104553819Y-76016585D01*
X104550923Y-76051200D01*
X104549440Y-76076582D01*
X104548251Y-76112387D01*
X104548030Y-76135571D01*
X104548024Y-76136215D01*
X104548104Y-76141931D01*
X104548541Y-76173173D01*
X104549342Y-76195399D01*
X104551561Y-76233553D01*
X104553193Y-76254268D01*
X104557107Y-76293593D01*
X104559376Y-76312682D01*
X104564987Y-76353284D01*
X104567143Y-76367405D01*
X104570839Y-76389521D01*
X104573246Y-76402826D01*
X104577256Y-76423415D01*
X104580784Y-76440035D01*
X104585231Y-76459373D01*
X104590282Y-76479444D01*
X104595252Y-76497612D01*
X104602174Y-76520727D01*
X104607781Y-76537944D01*
X104616844Y-76563436D01*
X104623205Y-76579914D01*
X104634452Y-76606724D01*
X104641634Y-76622553D01*
X104654848Y-76649516D01*
X104662993Y-76664961D01*
X104677505Y-76690628D01*
X104677513Y-76690641D01*
X104686718Y-76705868D01*
X104701813Y-76729349D01*
X104712184Y-76744542D01*
X104715884Y-76749680D01*
X104727011Y-76765133D01*
X104738656Y-76780478D01*
X104752498Y-76797908D01*
X104765517Y-76813581D01*
X104774999Y-76824571D01*
X104777829Y-76827851D01*
X104782404Y-76832958D01*
X104792322Y-76844031D01*
X104792337Y-76844047D01*
X104801830Y-76854322D01*
X104802920Y-76855501D01*
X104806195Y-76858938D01*
X104838189Y-76921052D01*
X104836794Y-76974252D01*
X104834351Y-76984128D01*
X104833936Y-76985756D01*
X104827012Y-77012200D01*
X104823456Y-77026643D01*
X104807801Y-77094512D01*
X104804951Y-77107673D01*
X104788850Y-77187101D01*
X104787011Y-77196648D01*
X104770903Y-77284792D01*
X104770052Y-77289664D01*
X104769552Y-77292527D01*
X104761153Y-77342920D01*
X104753891Y-77386488D01*
X104752794Y-77393371D01*
X104738037Y-77490183D01*
X104737037Y-77497052D01*
X104723638Y-77593784D01*
X104722655Y-77601284D01*
X104711032Y-77695255D01*
X104710055Y-77703747D01*
X104700649Y-77792137D01*
X104699735Y-77801558D01*
X104684644Y-77973972D01*
X104684502Y-77975479D01*
X104669687Y-78123856D01*
X104669483Y-78125752D01*
X104654856Y-78252496D01*
X104654547Y-78254961D01*
X104640462Y-78358710D01*
X104639957Y-78362078D01*
X104627907Y-78435625D01*
X104597643Y-78498600D01*
X104592097Y-78504367D01*
X104581499Y-78514697D01*
X104566704Y-78529736D01*
X104550109Y-78547323D01*
X104534804Y-78564296D01*
X104519706Y-78581820D01*
X104504040Y-78600927D01*
X104490498Y-78618294D01*
X104474436Y-78640071D01*
X104462436Y-78657285D01*
X104446171Y-78682147D01*
X104435784Y-78699092D01*
X104419484Y-78727739D01*
X104410705Y-78744408D01*
X104394794Y-78777477D01*
X104387659Y-78793796D01*
X104372788Y-78831947D01*
X104367298Y-78847911D01*
X104357350Y-78880339D01*
X104355229Y-78888183D01*
X104349462Y-78911739D01*
X104347770Y-78919448D01*
X104342929Y-78944497D01*
X104341659Y-78952094D01*
X104337908Y-78978926D01*
X104337071Y-78986364D01*
X104334687Y-79014634D01*
X104334275Y-79021983D01*
X104333483Y-79051783D01*
X104333504Y-79058998D01*
X104334554Y-79090119D01*
X104334867Y-79094953D01*
X104335014Y-79097223D01*
X104338131Y-79129415D01*
X104338134Y-79129442D01*
X104338135Y-79129447D01*
X104339026Y-79136345D01*
X104344395Y-79169291D01*
X104345738Y-79176105D01*
X104353547Y-79209650D01*
X104355336Y-79216300D01*
X104363673Y-79243500D01*
X104365601Y-79249788D01*
X104367832Y-79256257D01*
X104371723Y-79266373D01*
X104380565Y-79289363D01*
X104383245Y-79295662D01*
X104398395Y-79328040D01*
X104401532Y-79334170D01*
X104418803Y-79365180D01*
X104418811Y-79365193D01*
X104418817Y-79365204D01*
X104422408Y-79371150D01*
X104423671Y-79373207D01*
X104426156Y-79377256D01*
X104428307Y-79380706D01*
X104449279Y-79411717D01*
X104451594Y-79414881D01*
X104473406Y-79442267D01*
X104477364Y-79447236D01*
X104479887Y-79450151D01*
X104499685Y-79471086D01*
X104510449Y-79482467D01*
X104513224Y-79485154D01*
X104548070Y-79515920D01*
X104548076Y-79515924D01*
X104548083Y-79515931D01*
X104548099Y-79515944D01*
X104551086Y-79518346D01*
X104551098Y-79518355D01*
X104551114Y-79518368D01*
X104585480Y-79543479D01*
X104588876Y-79545960D01*
X104588900Y-79545977D01*
X104592177Y-79548146D01*
X104592188Y-79548153D01*
X104592214Y-79548170D01*
X104631404Y-79571637D01*
X104635059Y-79573607D01*
X104673995Y-79592489D01*
X104677994Y-79594221D01*
X104715435Y-79608700D01*
X104719804Y-79610193D01*
X104754539Y-79620687D01*
X104759301Y-79621941D01*
X104790862Y-79629180D01*
X104790865Y-79629180D01*
X104790880Y-79629184D01*
X104796048Y-79630196D01*
X104824032Y-79634865D01*
X104824043Y-79634866D01*
X104824052Y-79634868D01*
X104829678Y-79635645D01*
X104846822Y-79637584D01*
X104854403Y-79638442D01*
X104860478Y-79638978D01*
X104860488Y-79638978D01*
X104860492Y-79638979D01*
X104862814Y-79639134D01*
X104882016Y-79640417D01*
X104883967Y-79640505D01*
X104888615Y-79640716D01*
X104907259Y-79641217D01*
X104914371Y-79641277D01*
X104930385Y-79641158D01*
X104938041Y-79640980D01*
X104938083Y-79640978D01*
X104938102Y-79640978D01*
X104945469Y-79640705D01*
X104951880Y-79640469D01*
X104960107Y-79640052D01*
X104971999Y-79639309D01*
X104972030Y-79639306D01*
X104972057Y-79639305D01*
X104974595Y-79639115D01*
X104980822Y-79638653D01*
X104990985Y-79637794D01*
X105000428Y-79636900D01*
X105009192Y-79635993D01*
X105019282Y-79634860D01*
X105026806Y-79633958D01*
X105037567Y-79632586D01*
X105044022Y-79631721D01*
X105044082Y-79631712D01*
X105044131Y-79631706D01*
X105048867Y-79631039D01*
X105055479Y-79630110D01*
X105063427Y-79628927D01*
X105088532Y-79624989D01*
X105096619Y-79623654D01*
X105124812Y-79618762D01*
X105130708Y-79617703D01*
X105162191Y-79611855D01*
X105166378Y-79611059D01*
X105201352Y-79604257D01*
X105201359Y-79604255D01*
X105201537Y-79604221D01*
X105204133Y-79603708D01*
X105243046Y-79595901D01*
X105243727Y-79595762D01*
X105244131Y-79595681D01*
X105297777Y-79584785D01*
X105305759Y-79583097D01*
X105305795Y-79583088D01*
X105305819Y-79583084D01*
X105318068Y-79580389D01*
X105357525Y-79571710D01*
X105364947Y-79570018D01*
X105365009Y-79570003D01*
X105365037Y-79569997D01*
X105393232Y-79563347D01*
X105413600Y-79558545D01*
X105421016Y-79556737D01*
X105465323Y-79545580D01*
X105473444Y-79543464D01*
X105512169Y-79533026D01*
X105522262Y-79530193D01*
X105554172Y-79520878D01*
X105569405Y-79516169D01*
X105593266Y-79508379D01*
X105624946Y-79496854D01*
X105639524Y-79490993D01*
X105728914Y-79444201D01*
X105732066Y-79442126D01*
X105790119Y-79397567D01*
X105793129Y-79394889D01*
X105839138Y-79348276D01*
X105842009Y-79344963D01*
X105876726Y-79300031D01*
X105879462Y-79296046D01*
X105904718Y-79255236D01*
X105907321Y-79250546D01*
X105925290Y-79214926D01*
X105927765Y-79209497D01*
X105940555Y-79178804D01*
X105942904Y-79172600D01*
X105948144Y-79157536D01*
X105951948Y-79146597D01*
X105951954Y-79146580D01*
X105954181Y-79139566D01*
X105960596Y-79117655D01*
X105962705Y-79109799D01*
X105967324Y-79091194D01*
X105969317Y-79082460D01*
X105972641Y-79066743D01*
X105974522Y-79057096D01*
X105976923Y-79043847D01*
X105978697Y-79033254D01*
X105981173Y-79016811D01*
X105984407Y-78992645D01*
X105986356Y-78975989D01*
X105989198Y-78947623D01*
X105990286Y-78935229D01*
X105990781Y-78928659D01*
X105992761Y-78902402D01*
X105993378Y-78893049D01*
X105993712Y-78887184D01*
X105995430Y-78856956D01*
X105995516Y-78855439D01*
X105995860Y-78848533D01*
X105995860Y-78848514D01*
X105995866Y-78848410D01*
X105997691Y-78805784D01*
X105997893Y-78800405D01*
X105999434Y-78752474D01*
X105999550Y-78748346D01*
X105999645Y-78744411D01*
X106000080Y-78726236D01*
X106000833Y-78694833D01*
X106000898Y-78691690D01*
X106001952Y-78632320D01*
X106002001Y-78628953D01*
X106002001Y-78628915D01*
X106002004Y-78628739D01*
X106003526Y-78491453D01*
X106003527Y-78491301D01*
X106003534Y-78490611D01*
X106005034Y-78328392D01*
X106005062Y-78326716D01*
X106005315Y-78315769D01*
X106007859Y-78205512D01*
X106007943Y-78203039D01*
X106009842Y-78159837D01*
X106009972Y-78157426D01*
X106012341Y-78120681D01*
X106012579Y-78117607D01*
X106015281Y-78087713D01*
X106015666Y-78084079D01*
X106016720Y-78075367D01*
X106018698Y-78059015D01*
X106019246Y-78055035D01*
X106022787Y-78032125D01*
X106023469Y-78028139D01*
X106027920Y-78004518D01*
X106028637Y-78001004D01*
X106034614Y-77973843D01*
X106035317Y-77970841D01*
X106035787Y-77968935D01*
X106042823Y-77940456D01*
X106043773Y-77936847D01*
X106043823Y-77936665D01*
X106080855Y-77877417D01*
X106144040Y-77847594D01*
X106166774Y-77846151D01*
X106168510Y-77846200D01*
X106176847Y-77846439D01*
X106187253Y-77846630D01*
X106192219Y-77846669D01*
X106212068Y-77846829D01*
X106212081Y-77846828D01*
X106212084Y-77846829D01*
X106221591Y-77846816D01*
X106242435Y-77846591D01*
X106254022Y-77846333D01*
X106274298Y-77845649D01*
X106286810Y-77845071D01*
X106306531Y-77843916D01*
X106320044Y-77842943D01*
X106320053Y-77842942D01*
X106320070Y-77842941D01*
X106339215Y-77841304D01*
X106345011Y-77840724D01*
X106353642Y-77839862D01*
X106372294Y-77837727D01*
X106372333Y-77837721D01*
X106372341Y-77837721D01*
X106387643Y-77835730D01*
X106387643Y-77835729D01*
X106387689Y-77835724D01*
X106405829Y-77833081D01*
X106422219Y-77830418D01*
X106439859Y-77827253D01*
X106457114Y-77823846D01*
X106474268Y-77820148D01*
X106492359Y-77815899D01*
X106509043Y-77811655D01*
X106527848Y-77806483D01*
X106544074Y-77801682D01*
X106563530Y-77795495D01*
X106579313Y-77790123D01*
X106599261Y-77782863D01*
X106614614Y-77776907D01*
X106634781Y-77768578D01*
X106649719Y-77762028D01*
X106670042Y-77752574D01*
X106684578Y-77745416D01*
X106704800Y-77734885D01*
X106718949Y-77727106D01*
X106727354Y-77722232D01*
X106755746Y-77710203D01*
X106757907Y-77709591D01*
X106760517Y-77708884D01*
X106768411Y-77706842D01*
X106770951Y-77706216D01*
X106779871Y-77704119D01*
X106782354Y-77703562D01*
X106792423Y-77701417D01*
X106794786Y-77700940D01*
X106805423Y-77698901D01*
X106807870Y-77698458D01*
X106819033Y-77696551D01*
X106821437Y-77696165D01*
X106832805Y-77694455D01*
X106835222Y-77694117D01*
X106846667Y-77692630D01*
X106849054Y-77692343D01*
X106866867Y-77690399D01*
X106866915Y-77690393D01*
X106866965Y-77690388D01*
X106869757Y-77690065D01*
X106873058Y-77689684D01*
X106915358Y-77684535D01*
X106927645Y-77682886D01*
X106967060Y-77677104D01*
X106980267Y-77674988D01*
X107015950Y-77668785D01*
X107031482Y-77665834D01*
X107062581Y-77659420D01*
X107083039Y-77654756D01*
X107108707Y-77648341D01*
X107130623Y-77642337D01*
X107141154Y-77639196D01*
X107161873Y-77632528D01*
X107170728Y-77629466D01*
X107200554Y-77618085D01*
X107207625Y-77615128D01*
X107254454Y-77592652D01*
X107259637Y-77589828D01*
X107342135Y-77533658D01*
X107345323Y-77530991D01*
X107352345Y-77525007D01*
X107446468Y-77416185D01*
X107447280Y-77414919D01*
X107463636Y-77387557D01*
X107514917Y-77253126D01*
X107515191Y-77251910D01*
X107525213Y-77189393D01*
X107518524Y-77045668D01*
X107517899Y-77042406D01*
X107478962Y-76922600D01*
X107478960Y-76922597D01*
X107478959Y-76922592D01*
X107477138Y-76918716D01*
X107477134Y-76918710D01*
X107477129Y-76918698D01*
X107440931Y-76854329D01*
X107437946Y-76849826D01*
X107437944Y-76849823D01*
X107437932Y-76849806D01*
X107410324Y-76812077D01*
X107410300Y-76812044D01*
X107406223Y-76806982D01*
X107376843Y-76773621D01*
X107365647Y-76761982D01*
X107363307Y-76759717D01*
X107339659Y-76736831D01*
X107324804Y-76723451D01*
X107306958Y-76708111D01*
X107288935Y-76693334D01*
X107275525Y-76682713D01*
X107254780Y-76666844D01*
X107243854Y-76658718D01*
X107241415Y-76656954D01*
X107220793Y-76642042D01*
X107220758Y-76642017D01*
X107211321Y-76635356D01*
X107186444Y-76618223D01*
X107177704Y-76612338D01*
X107151514Y-76595100D01*
X107148002Y-76592839D01*
X107142876Y-76589539D01*
X107115868Y-76572539D01*
X107106938Y-76567047D01*
X107079547Y-76550589D01*
X107069822Y-76544892D01*
X107069793Y-76544875D01*
X107069753Y-76544852D01*
X107042524Y-76529307D01*
X107031357Y-76523117D01*
X107004635Y-76508741D01*
X106991323Y-76501833D01*
X106965518Y-76488926D01*
X106948618Y-76480861D01*
X106924425Y-76469862D01*
X106917851Y-76467065D01*
X106901642Y-76460170D01*
X106901625Y-76460163D01*
X106901608Y-76460156D01*
X106889097Y-76455191D01*
X106834046Y-76412166D01*
X106810996Y-76346208D01*
X106827264Y-76278259D01*
X106877686Y-76229891D01*
X106925414Y-76216295D01*
X106929275Y-76216001D01*
X106930695Y-76215902D01*
X106980250Y-76212792D01*
X106981062Y-76212745D01*
X107040288Y-76209602D01*
X107040559Y-76209589D01*
X107108267Y-76206455D01*
X107108890Y-76206428D01*
X107277271Y-76199673D01*
X107282849Y-76199418D01*
X107518642Y-76187347D01*
X107528368Y-76186755D01*
X107752950Y-76170913D01*
X107761190Y-76170264D01*
X107861370Y-76161549D01*
X107868562Y-76160872D01*
X107956452Y-76151959D01*
X107966850Y-76150795D01*
X108039286Y-76141931D01*
X108057341Y-76139390D01*
X108111161Y-76130824D01*
X108122570Y-76128874D01*
X108148611Y-76124115D01*
X108151181Y-76123674D01*
X108168138Y-76120962D01*
X108171364Y-76120491D01*
X108185573Y-76118607D01*
X108189192Y-76118182D01*
X108192522Y-76117841D01*
X108202582Y-76116811D01*
X108206374Y-76116480D01*
X108220851Y-76115446D01*
X108224527Y-76115238D01*
X108241826Y-76114521D01*
X108245213Y-76114428D01*
X108266854Y-76114125D01*
X108269837Y-76114120D01*
X108271167Y-76114133D01*
X108296995Y-76114394D01*
X108299429Y-76114444D01*
X108332823Y-76115464D01*
X108334774Y-76115540D01*
X108375155Y-76117444D01*
X108376660Y-76117526D01*
X108424015Y-76120386D01*
X108425282Y-76120469D01*
X108479616Y-76124309D01*
X108480904Y-76124406D01*
X108617023Y-76135498D01*
X108617691Y-76135555D01*
X108770981Y-76149318D01*
X108789091Y-76150945D01*
X108789092Y-76150945D01*
X108789248Y-76150959D01*
X108791843Y-76151185D01*
X109045099Y-76172608D01*
X109055196Y-76173360D01*
X109306765Y-76189573D01*
X109308232Y-76189655D01*
X109314988Y-76190036D01*
X109400816Y-76194159D01*
X109431144Y-76195617D01*
X109431159Y-76195617D01*
X109431167Y-76195618D01*
X109432674Y-76195680D01*
X109438117Y-76195904D01*
X109542998Y-76199493D01*
X109546930Y-76199590D01*
X109552533Y-76199729D01*
X109552586Y-76199729D01*
X109552594Y-76199730D01*
X109642616Y-76201100D01*
X109657937Y-76201101D01*
X109728805Y-76200031D01*
X109796133Y-76218702D01*
X109825628Y-76244267D01*
X109989879Y-76439838D01*
X109990627Y-76440725D01*
X110085411Y-76553058D01*
X110088370Y-76556509D01*
X110090570Y-76559076D01*
X110175841Y-76656966D01*
X110182856Y-76664851D01*
X110259958Y-76749709D01*
X110269303Y-76759717D01*
X110339588Y-76832966D01*
X110350593Y-76844047D01*
X110351802Y-76845264D01*
X110360725Y-76853946D01*
X110416634Y-76908348D01*
X110431909Y-76922604D01*
X110432063Y-76922747D01*
X110492834Y-76977130D01*
X110506539Y-76988959D01*
X110534461Y-77012200D01*
X110535869Y-77013372D01*
X110545793Y-77021421D01*
X110545821Y-77021443D01*
X110574610Y-77044191D01*
X110590507Y-77056250D01*
X110590517Y-77056257D01*
X110647277Y-77097576D01*
X110660701Y-77107018D01*
X110672854Y-77115273D01*
X110688285Y-77125755D01*
X110689502Y-77126594D01*
X110709917Y-77140854D01*
X110711594Y-77142047D01*
X110723425Y-77150623D01*
X110764582Y-77202082D01*
X110767248Y-77208289D01*
X110768200Y-77210570D01*
X110768400Y-77211060D01*
X110777339Y-77263762D01*
X110777039Y-77269851D01*
X110776895Y-77272283D01*
X110775696Y-77289664D01*
X110775551Y-77291559D01*
X110773887Y-77311273D01*
X110773662Y-77313660D01*
X110770834Y-77340876D01*
X110770342Y-77344951D01*
X110766720Y-77371249D01*
X110766187Y-77374740D01*
X110761371Y-77403528D01*
X110760769Y-77406851D01*
X110755210Y-77435296D01*
X110754495Y-77438700D01*
X110748844Y-77463847D01*
X110747927Y-77467647D01*
X110745029Y-77478876D01*
X110734123Y-77506712D01*
X110729139Y-77515961D01*
X110727150Y-77519510D01*
X110672117Y-77614071D01*
X110670607Y-77616596D01*
X110629864Y-77682886D01*
X110597060Y-77736257D01*
X110595958Y-77738017D01*
X110513746Y-77866885D01*
X110512663Y-77868552D01*
X110432771Y-77989464D01*
X110431309Y-77991627D01*
X110373409Y-78075367D01*
X110343424Y-78105795D01*
X110338820Y-78109078D01*
X110330151Y-78115348D01*
X110323155Y-78120499D01*
X110304768Y-78134278D01*
X110296974Y-78140238D01*
X110277646Y-78155313D01*
X110270731Y-78160802D01*
X110250872Y-78176848D01*
X110240893Y-78185122D01*
X110228521Y-78195649D01*
X110215201Y-78207393D01*
X110203659Y-78217936D01*
X110189405Y-78231475D01*
X110178830Y-78241917D01*
X110163809Y-78257397D01*
X110154101Y-78267837D01*
X110138467Y-78285455D01*
X110129631Y-78295893D01*
X110113648Y-78315771D01*
X110105683Y-78326205D01*
X110089617Y-78348483D01*
X110082471Y-78358983D01*
X110066727Y-78383615D01*
X110060407Y-78394164D01*
X110045334Y-78421166D01*
X110039829Y-78431777D01*
X110025936Y-78460783D01*
X110021219Y-78471490D01*
X110008911Y-78502105D01*
X110004958Y-78512949D01*
X109994523Y-78544824D01*
X109991340Y-78555763D01*
X109983058Y-78588182D01*
X109980611Y-78599281D01*
X109974582Y-78631587D01*
X109972850Y-78642889D01*
X109969030Y-78674434D01*
X109968003Y-78685929D01*
X109966606Y-78709599D01*
X109960063Y-78742669D01*
X109959576Y-78744083D01*
X109958109Y-78748116D01*
X109954172Y-78758379D01*
X109952730Y-78761970D01*
X109947237Y-78775053D01*
X109945806Y-78778327D01*
X109938829Y-78793686D01*
X109937436Y-78796646D01*
X109934915Y-78801824D01*
X109928808Y-78814360D01*
X109927420Y-78817120D01*
X109917279Y-78836684D01*
X109915910Y-78839251D01*
X109904193Y-78860613D01*
X109902849Y-78863001D01*
X109889518Y-78886081D01*
X109888200Y-78888308D01*
X109873430Y-78912690D01*
X109872136Y-78914779D01*
X109853501Y-78944209D01*
X109853116Y-78944814D01*
X109844300Y-78958559D01*
X109838919Y-78967138D01*
X109829636Y-78982270D01*
X109824364Y-78991063D01*
X109815628Y-79005971D01*
X109810430Y-79015055D01*
X109802233Y-79029727D01*
X109800334Y-79033214D01*
X109799147Y-79035394D01*
X109797042Y-79039258D01*
X109789484Y-79053490D01*
X109784205Y-79063712D01*
X109777248Y-79077563D01*
X109771850Y-79088649D01*
X109765567Y-79101965D01*
X109759825Y-79114581D01*
X109754327Y-79127115D01*
X109748128Y-79141870D01*
X109743420Y-79153595D01*
X109736683Y-79171321D01*
X109732751Y-79182283D01*
X109725364Y-79204478D01*
X109722297Y-79214460D01*
X109714308Y-79243517D01*
X109712147Y-79252405D01*
X109712144Y-79252420D01*
X109704451Y-79290816D01*
X109704043Y-79292850D01*
X109702814Y-79300613D01*
X109696970Y-79360372D01*
X109696967Y-79360413D01*
X109696720Y-79366907D01*
X109696720Y-79366940D01*
X109701905Y-79460848D01*
X109701907Y-79460862D01*
X109702679Y-79466029D01*
X109702680Y-79466034D01*
X109726945Y-79558545D01*
X109730371Y-79571604D01*
X109730421Y-79571734D01*
X109731155Y-79573658D01*
X109775271Y-79662114D01*
X109775275Y-79662121D01*
X109775278Y-79662126D01*
X109776332Y-79663805D01*
X109776347Y-79663828D01*
X109776351Y-79663834D01*
X109789652Y-79683939D01*
X109793083Y-79688865D01*
X109793083Y-79688866D01*
X109837487Y-79743957D01*
X109841862Y-79748666D01*
X109841881Y-79748686D01*
X109884062Y-79789139D01*
X109884064Y-79789141D01*
X109886334Y-79791079D01*
X109889366Y-79793667D01*
X109927449Y-79823162D01*
X109931172Y-79825771D01*
X109933626Y-79827492D01*
X109949519Y-79837719D01*
X109967175Y-79849083D01*
X109970673Y-79851144D01*
X109974163Y-79853200D01*
X110003582Y-79869243D01*
X110011346Y-79873149D01*
X110029435Y-79881348D01*
X110048664Y-79890064D01*
X110057507Y-79893648D01*
X110066355Y-79897234D01*
X110106710Y-79911628D01*
X110126928Y-79917888D01*
X110126939Y-79917891D01*
X110159642Y-79926826D01*
X110182031Y-79932143D01*
X110209695Y-79937901D01*
X110218705Y-79939515D01*
X110233875Y-79942233D01*
X110247020Y-79944257D01*
X110258256Y-79945989D01*
X110283845Y-79949294D01*
X110306253Y-79951681D01*
X110306260Y-79951681D01*
X110306264Y-79951682D01*
X110315859Y-79952488D01*
X110332877Y-79953919D01*
X110354284Y-79955262D01*
X110381568Y-79956393D01*
X110402479Y-79956820D01*
X110402796Y-79956827D01*
X110402796Y-79956826D01*
X110402797Y-79956827D01*
X110430364Y-79956811D01*
X110452183Y-79956327D01*
X110471636Y-79955475D01*
X110479662Y-79955124D01*
X110487358Y-79954609D01*
X110502865Y-79953572D01*
X110529872Y-79951141D01*
X110555337Y-79948197D01*
X110555350Y-79948195D01*
X110555360Y-79948194D01*
X110565260Y-79946793D01*
X110581500Y-79944497D01*
X110610223Y-79939586D01*
X110635166Y-79934578D01*
X110668449Y-79926716D01*
X110691795Y-79920360D01*
X110722583Y-79910915D01*
X110742434Y-79904126D01*
X110742432Y-79904126D01*
X110742443Y-79904123D01*
X110760492Y-79897232D01*
X110775642Y-79891448D01*
X110795766Y-79882943D01*
X110824512Y-79869719D01*
X110844848Y-79859581D01*
X110869789Y-79846264D01*
X110890280Y-79834575D01*
X110912019Y-79821439D01*
X110932605Y-79808283D01*
X110951723Y-79795443D01*
X110972345Y-79780900D01*
X110989228Y-79768461D01*
X111009826Y-79752616D01*
X111024883Y-79740569D01*
X111045399Y-79723503D01*
X111065173Y-79706165D01*
X111105720Y-79668702D01*
X111128197Y-79646597D01*
X111167702Y-79605243D01*
X111186942Y-79583921D01*
X111224933Y-79539336D01*
X111241953Y-79518241D01*
X111277956Y-79471086D01*
X111293486Y-79449600D01*
X111327027Y-79400535D01*
X111341595Y-79377958D01*
X111372200Y-79327643D01*
X111386179Y-79303149D01*
X111413375Y-79252245D01*
X111414218Y-79250546D01*
X111426994Y-79224780D01*
X111426996Y-79224776D01*
X111450310Y-79173943D01*
X111460312Y-79150605D01*
X111470364Y-79125422D01*
X111476897Y-79108146D01*
X111485802Y-79083229D01*
X111492172Y-79064224D01*
X111499869Y-79039654D01*
X111505952Y-79018653D01*
X111512382Y-78994514D01*
X111518017Y-78971141D01*
X111523121Y-78947515D01*
X111528051Y-78921381D01*
X111531771Y-78898351D01*
X111532469Y-78893049D01*
X111533875Y-78882352D01*
X111535641Y-78868929D01*
X111537916Y-78846577D01*
X111538134Y-78843398D01*
X111546928Y-78805285D01*
X111552715Y-78791010D01*
X111554402Y-78787049D01*
X111568971Y-78754453D01*
X111570392Y-78751391D01*
X111589916Y-78710837D01*
X111591104Y-78708442D01*
X111615405Y-78660861D01*
X111616354Y-78659048D01*
X111644976Y-78605649D01*
X111645953Y-78603862D01*
X111678831Y-78544962D01*
X111679638Y-78543543D01*
X111716484Y-78479782D01*
X111717295Y-78478401D01*
X111719044Y-78475466D01*
X111757983Y-78410088D01*
X111758666Y-78408957D01*
X111803181Y-78336193D01*
X111803681Y-78335387D01*
X111851006Y-78259860D01*
X111851914Y-78258432D01*
X111961146Y-78089572D01*
X111961317Y-78089310D01*
X112070058Y-77922784D01*
X112075263Y-77914644D01*
X112093993Y-77884733D01*
X112166374Y-77769141D01*
X112218635Y-77722771D01*
X112287672Y-77712015D01*
X112351565Y-77740291D01*
X112390027Y-77798621D01*
X112391854Y-77805229D01*
X112398381Y-77831665D01*
X112398977Y-77834190D01*
X112406327Y-77866885D01*
X112430558Y-77974672D01*
X112431218Y-77977604D01*
X112431855Y-77980619D01*
X112432197Y-77982339D01*
X112457592Y-78110118D01*
X112458354Y-78114330D01*
X112476235Y-78223974D01*
X112476810Y-78227892D01*
X112490474Y-78332632D01*
X112490900Y-78336324D01*
X112499749Y-78424741D01*
X112500073Y-78428583D01*
X112502168Y-78459048D01*
X112502346Y-78462244D01*
X112503513Y-78489468D01*
X112503617Y-78493239D01*
X112503880Y-78514411D01*
X112503857Y-78518791D01*
X112503510Y-78533938D01*
X112503291Y-78538992D01*
X112503155Y-78541124D01*
X112491434Y-78586390D01*
X112480721Y-78608965D01*
X112468899Y-78635865D01*
X112458596Y-78661293D01*
X112449607Y-78685197D01*
X112440347Y-78711838D01*
X112433344Y-78733561D01*
X112425164Y-78761044D01*
X112421994Y-78772573D01*
X112420646Y-78777477D01*
X112419555Y-78781443D01*
X112412516Y-78809306D01*
X112407946Y-78829057D01*
X112402078Y-78856942D01*
X112399338Y-78871381D01*
X112398333Y-78876678D01*
X112393982Y-78902385D01*
X112393669Y-78904232D01*
X112390622Y-78924784D01*
X112387210Y-78951570D01*
X112384886Y-78973695D01*
X112382757Y-78999400D01*
X112381308Y-79024455D01*
X112380511Y-79048650D01*
X112380405Y-79078297D01*
X112380980Y-79100566D01*
X112383298Y-79137602D01*
X112385282Y-79157536D01*
X112392528Y-79206171D01*
X112392537Y-79206221D01*
X112395969Y-79223449D01*
X112414301Y-79290816D01*
X112419227Y-79304975D01*
X112448750Y-79373198D01*
X112451785Y-79379000D01*
X112451789Y-79379007D01*
X112451791Y-79379010D01*
X112485685Y-79434721D01*
X112489108Y-79439607D01*
X112540949Y-79502216D01*
X112544766Y-79506136D01*
X112573317Y-79530239D01*
X112620024Y-79569671D01*
X112620029Y-79569675D01*
X112624238Y-79572576D01*
X112624241Y-79572578D01*
X112672545Y-79602032D01*
X112676004Y-79603884D01*
X112676012Y-79603887D01*
X112676013Y-79603888D01*
X112744669Y-79634319D01*
X112744693Y-79634328D01*
X112750196Y-79636292D01*
X112750213Y-79636298D01*
X112784528Y-79647185D01*
X112792022Y-79649272D01*
X112792069Y-79649284D01*
X112812283Y-79654465D01*
X112812301Y-79654469D01*
X112812308Y-79654471D01*
X112814930Y-79655085D01*
X112821648Y-79656660D01*
X112828132Y-79658051D01*
X112840250Y-79660651D01*
X112856578Y-79663834D01*
X112863933Y-79665268D01*
X112863950Y-79665271D01*
X112863960Y-79665273D01*
X112878737Y-79667926D01*
X112908382Y-79672796D01*
X112913011Y-79673511D01*
X112917760Y-79674246D01*
X112917788Y-79674250D01*
X112917820Y-79674255D01*
X112952450Y-79679274D01*
X112959265Y-79680214D01*
X112977403Y-79682591D01*
X112997809Y-79685266D01*
X112997854Y-79685271D01*
X112997933Y-79685282D01*
X113003298Y-79685956D01*
X113045054Y-79690975D01*
X113049639Y-79691505D01*
X113093534Y-79696375D01*
X113098553Y-79696905D01*
X113098863Y-79696938D01*
X113112984Y-79698353D01*
X113315283Y-79718633D01*
X113387076Y-79720702D01*
X113528499Y-79694223D01*
X113656733Y-79628973D01*
X113761389Y-79530238D01*
X113833990Y-79406018D01*
X113868653Y-79266375D01*
X113868181Y-79255213D01*
X113862383Y-79118199D01*
X113863298Y-79118160D01*
X113869581Y-79066269D01*
X113870344Y-79064210D01*
X113877659Y-79044463D01*
X113880711Y-79035411D01*
X113888973Y-79008446D01*
X113891625Y-78998841D01*
X113897938Y-78973428D01*
X113900190Y-78963242D01*
X113901109Y-78958559D01*
X113904841Y-78939526D01*
X113904841Y-78939522D01*
X113904847Y-78939495D01*
X113906697Y-78928699D01*
X113907280Y-78924784D01*
X113909965Y-78906741D01*
X113909971Y-78906695D01*
X113911416Y-78895260D01*
X113913547Y-78875171D01*
X113914587Y-78863070D01*
X113915827Y-78844761D01*
X113916460Y-78831965D01*
X113917008Y-78815325D01*
X113917231Y-78801804D01*
X113917257Y-78786845D01*
X113917070Y-78772573D01*
X113916712Y-78759065D01*
X113916112Y-78744011D01*
X113915098Y-78726339D01*
X113912656Y-78693776D01*
X113910812Y-78674270D01*
X113906701Y-78638242D01*
X113906698Y-78638215D01*
X113904664Y-78622572D01*
X113901927Y-78603813D01*
X113898872Y-78582866D01*
X113896883Y-78570334D01*
X113889394Y-78526693D01*
X113887569Y-78516660D01*
X113878372Y-78468870D01*
X113876758Y-78460836D01*
X113865839Y-78408670D01*
X113864455Y-78402266D01*
X113851802Y-78345495D01*
X113850635Y-78340386D01*
X113837635Y-78284782D01*
X113837113Y-78282444D01*
X113836758Y-78280781D01*
X113808750Y-78149394D01*
X113807895Y-78144990D01*
X113807055Y-78140206D01*
X113779337Y-77982315D01*
X113778845Y-77979294D01*
X113778591Y-77977604D01*
X113750232Y-77788561D01*
X113749893Y-77786138D01*
X113748695Y-77776907D01*
X113722916Y-77578350D01*
X113722655Y-77576189D01*
X113718803Y-77541715D01*
X113698667Y-77361520D01*
X113698452Y-77359429D01*
X113678603Y-77147238D01*
X113678405Y-77144864D01*
X113663814Y-76945292D01*
X113663633Y-76942274D01*
X113654838Y-76757080D01*
X113654816Y-76756594D01*
X113647342Y-76569820D01*
X113647140Y-76565294D01*
X113647138Y-76565255D01*
X113647127Y-76565005D01*
X113643940Y-76499998D01*
X128094645Y-76499998D01*
X128094645Y-76500001D01*
X128114039Y-76771160D01*
X128114040Y-76771167D01*
X128166721Y-77013339D01*
X128171825Y-77036801D01*
X128240892Y-77221976D01*
X128266830Y-77291519D01*
X128397109Y-77530107D01*
X128397110Y-77530108D01*
X128397113Y-77530113D01*
X128560029Y-77747742D01*
X128560033Y-77747746D01*
X128560038Y-77747752D01*
X128752247Y-77939961D01*
X128752253Y-77939966D01*
X128752258Y-77939971D01*
X128969887Y-78102887D01*
X128969891Y-78102889D01*
X128969892Y-78102890D01*
X129208481Y-78233169D01*
X129208480Y-78233169D01*
X129208484Y-78233170D01*
X129208487Y-78233172D01*
X129463199Y-78328175D01*
X129728840Y-78385961D01*
X129980605Y-78403967D01*
X129999999Y-78405355D01*
X130000000Y-78405355D01*
X130000001Y-78405355D01*
X130018100Y-78404060D01*
X130271160Y-78385961D01*
X130536801Y-78328175D01*
X130791513Y-78233172D01*
X130791517Y-78233169D01*
X130791519Y-78233169D01*
X130953007Y-78144990D01*
X131030113Y-78102887D01*
X131247742Y-77939971D01*
X131439971Y-77747742D01*
X131602887Y-77530113D01*
X131726426Y-77303868D01*
X131733169Y-77291519D01*
X131733169Y-77291517D01*
X131733172Y-77291513D01*
X131828175Y-77036801D01*
X131885961Y-76771160D01*
X131905355Y-76500000D01*
X131903986Y-76480866D01*
X131901298Y-76443283D01*
X131885961Y-76228840D01*
X131828175Y-75963199D01*
X131733172Y-75708487D01*
X131733170Y-75708484D01*
X131733169Y-75708480D01*
X131602890Y-75469892D01*
X131602889Y-75469891D01*
X131602887Y-75469887D01*
X131439971Y-75252258D01*
X131439966Y-75252253D01*
X131439961Y-75252247D01*
X131247752Y-75060038D01*
X131247746Y-75060033D01*
X131247742Y-75060029D01*
X131030113Y-74897113D01*
X131030108Y-74897110D01*
X131030107Y-74897109D01*
X130791518Y-74766830D01*
X130791519Y-74766830D01*
X130725826Y-74742328D01*
X130536801Y-74671825D01*
X130536794Y-74671823D01*
X130536793Y-74671823D01*
X130271167Y-74614040D01*
X130271160Y-74614039D01*
X130000001Y-74594645D01*
X129999999Y-74594645D01*
X129728839Y-74614039D01*
X129728832Y-74614040D01*
X129463206Y-74671823D01*
X129463202Y-74671824D01*
X129463199Y-74671825D01*
X129367420Y-74707549D01*
X129208480Y-74766830D01*
X128969892Y-74897109D01*
X128969891Y-74897110D01*
X128752259Y-75060028D01*
X128752247Y-75060038D01*
X128560038Y-75252247D01*
X128560028Y-75252259D01*
X128397110Y-75469891D01*
X128397109Y-75469892D01*
X128266830Y-75708480D01*
X128225276Y-75819892D01*
X128171825Y-75963199D01*
X128171824Y-75963202D01*
X128171823Y-75963206D01*
X128114040Y-76228832D01*
X128114039Y-76228839D01*
X128094645Y-76499998D01*
X113643940Y-76499998D01*
X113641988Y-76460170D01*
X113639086Y-76400946D01*
X113638605Y-76392550D01*
X113630552Y-76269974D01*
X113629313Y-76254677D01*
X113625442Y-76214463D01*
X113621551Y-76183864D01*
X113617866Y-76160585D01*
X113613831Y-76139390D01*
X113611980Y-76129667D01*
X113610795Y-76124350D01*
X113609528Y-76118665D01*
X113603755Y-76096887D01*
X113599222Y-76079781D01*
X113595949Y-76069159D01*
X113595943Y-76069141D01*
X113582373Y-76030685D01*
X113578266Y-76020390D01*
X113561625Y-75983123D01*
X113556691Y-75973173D01*
X113537324Y-75937747D01*
X113537320Y-75937739D01*
X113531569Y-75928151D01*
X113510049Y-75895240D01*
X113503476Y-75885994D01*
X113480278Y-75855833D01*
X113472886Y-75846936D01*
X113461526Y-75834220D01*
X113448729Y-75819895D01*
X113440501Y-75811324D01*
X113431707Y-75802764D01*
X113415936Y-75787412D01*
X113406883Y-75779180D01*
X113382374Y-75758280D01*
X113372489Y-75750381D01*
X113359707Y-75740776D01*
X113348443Y-75732311D01*
X113345345Y-75730124D01*
X113337753Y-75724764D01*
X113320360Y-75713193D01*
X113314513Y-75709303D01*
X113303013Y-75702102D01*
X113280704Y-75688917D01*
X113268383Y-75682054D01*
X113247214Y-75670911D01*
X113234055Y-75664378D01*
X113214113Y-75655016D01*
X113200181Y-75648842D01*
X113200170Y-75648837D01*
X113188374Y-75643891D01*
X113134162Y-75599814D01*
X113112385Y-75533424D01*
X113129958Y-75465801D01*
X113149019Y-75441481D01*
X113160822Y-75429779D01*
X113165981Y-75424950D01*
X113202702Y-75392484D01*
X113208504Y-75387662D01*
X113243396Y-75360432D01*
X113250054Y-75355586D01*
X113254461Y-75352599D01*
X113320997Y-75331282D01*
X113335382Y-75331765D01*
X113347979Y-75332924D01*
X113351297Y-75333024D01*
X113351322Y-75333023D01*
X113351324Y-75333023D01*
X113363586Y-75332530D01*
X113422210Y-75330177D01*
X113425395Y-75329824D01*
X113500978Y-75315559D01*
X113504046Y-75314734D01*
X113577574Y-75288732D01*
X113577590Y-75288724D01*
X113577595Y-75288723D01*
X113580523Y-75287425D01*
X113580537Y-75287419D01*
X113646015Y-75252441D01*
X113648890Y-75250622D01*
X113703032Y-75211109D01*
X113705833Y-75208765D01*
X113747949Y-75169215D01*
X113750690Y-75166329D01*
X113782247Y-75129751D01*
X113784943Y-75126306D01*
X113808276Y-75093935D01*
X113810941Y-75089912D01*
X113827959Y-75062340D01*
X113830609Y-75057722D01*
X113843141Y-75034501D01*
X113845790Y-75029270D01*
X113855041Y-75010002D01*
X113857704Y-75004141D01*
X113864642Y-74988143D01*
X113867333Y-74981633D01*
X113872563Y-74968461D01*
X113875296Y-74961286D01*
X113879265Y-74950500D01*
X113882056Y-74942640D01*
X113885098Y-74933813D01*
X113887961Y-74925252D01*
X113890304Y-74918070D01*
X113893254Y-74908790D01*
X113895804Y-74900525D01*
X113902023Y-74879736D01*
X113904215Y-74872194D01*
X113910956Y-74848315D01*
X113912221Y-74843754D01*
X113919601Y-74816643D01*
X113919600Y-74816642D01*
X113920060Y-74814956D01*
X113920075Y-74814901D01*
X113928307Y-74784715D01*
X113932935Y-74767747D01*
X113935960Y-74756111D01*
X113947970Y-74707549D01*
X113950819Y-74695385D01*
X113961448Y-74647342D01*
X113964084Y-74634659D01*
X113973335Y-74587097D01*
X113973340Y-74587066D01*
X113973348Y-74587028D01*
X113975707Y-74573978D01*
X113980072Y-74547876D01*
X113983591Y-74526827D01*
X113985676Y-74513219D01*
X113992184Y-74466507D01*
X113993937Y-74452496D01*
X113999079Y-74406150D01*
X114000465Y-74391793D01*
X114004245Y-74345777D01*
X114005234Y-74331131D01*
X114007656Y-74285407D01*
X114008225Y-74270538D01*
X114009293Y-74225067D01*
X114009422Y-74210047D01*
X114009140Y-74164791D01*
X114008820Y-74149685D01*
X114007191Y-74104607D01*
X114006420Y-74089516D01*
X114003449Y-74044578D01*
X114002231Y-74029556D01*
X113997921Y-73984719D01*
X113997018Y-73976597D01*
X113996272Y-73969869D01*
X113990631Y-73925125D01*
X113990625Y-73925082D01*
X113988562Y-73910449D01*
X113981586Y-73865701D01*
X113979750Y-73854717D01*
X113973872Y-73821795D01*
X113972349Y-73813654D01*
X113970139Y-73802352D01*
X113966360Y-73783020D01*
X113966351Y-73782974D01*
X113964242Y-73772747D01*
X113958013Y-73744047D01*
X113955181Y-73731744D01*
X113955178Y-73731735D01*
X113955168Y-73731688D01*
X113948623Y-73704795D01*
X113948615Y-73704761D01*
X113944890Y-73690377D01*
X113944550Y-73689141D01*
X113937877Y-73664849D01*
X113936391Y-73659773D01*
X113933137Y-73648654D01*
X113925569Y-73624316D01*
X113919746Y-73606735D01*
X113911515Y-73583326D01*
X113904642Y-73564929D01*
X113900675Y-73554908D01*
X113895648Y-73542211D01*
X113895627Y-73542162D01*
X113887908Y-73523735D01*
X113878024Y-73501395D01*
X113869722Y-73483577D01*
X113858849Y-73461377D01*
X113850365Y-73444831D01*
X113850360Y-73444821D01*
X113838390Y-73422498D01*
X113830141Y-73407719D01*
X113826852Y-73402051D01*
X113816943Y-73384975D01*
X113809261Y-73372175D01*
X113794769Y-73348819D01*
X113790356Y-73341902D01*
X113787914Y-73338074D01*
X113772068Y-73313914D01*
X113772020Y-73313842D01*
X113766211Y-73305180D01*
X113748765Y-73279740D01*
X113744020Y-73272942D01*
X113724933Y-73246065D01*
X113711297Y-73227755D01*
X113711287Y-73227743D01*
X113711272Y-73227722D01*
X113658460Y-73160050D01*
X113658450Y-73160038D01*
X113658433Y-73160016D01*
X113642353Y-73140442D01*
X113642330Y-73140414D01*
X113596089Y-73086921D01*
X113582736Y-73071473D01*
X113582727Y-73071463D01*
X113567834Y-73054980D01*
X113501707Y-72984955D01*
X113487890Y-72970884D01*
X113415443Y-72899923D01*
X113402666Y-72887839D01*
X113402665Y-72887838D01*
X113402648Y-72887822D01*
X113324156Y-72816130D01*
X113312225Y-72805572D01*
X113312214Y-72805562D01*
X113234820Y-72739224D01*
X113227902Y-72733294D01*
X113216740Y-72724001D01*
X113126815Y-72651297D01*
X113126762Y-72651255D01*
X113116346Y-72643059D01*
X113044070Y-72587715D01*
X113021031Y-72570073D01*
X113011109Y-72562666D01*
X113011089Y-72562651D01*
X112910671Y-72489588D01*
X112901227Y-72482881D01*
X112827132Y-72431523D01*
X112795890Y-72409868D01*
X112786874Y-72403762D01*
X112720578Y-72359893D01*
X112676822Y-72330939D01*
X112668222Y-72325375D01*
X112668168Y-72325340D01*
X112553691Y-72252911D01*
X112553692Y-72252911D01*
X112553661Y-72252892D01*
X112545272Y-72247699D01*
X112426602Y-72175823D01*
X112418459Y-72170994D01*
X112352194Y-72132540D01*
X112295750Y-72099786D01*
X112291365Y-72097294D01*
X112287781Y-72095257D01*
X112161263Y-72024879D01*
X112153472Y-72020635D01*
X112073487Y-71977976D01*
X112023496Y-71951314D01*
X112020958Y-71949986D01*
X112016408Y-71947605D01*
X111720063Y-71795541D01*
X111720032Y-71795525D01*
X111707911Y-71789509D01*
X111650962Y-71762187D01*
X111579579Y-71727939D01*
X111562394Y-71720086D01*
X111440696Y-71667194D01*
X111423239Y-71659991D01*
X111363311Y-71636561D01*
X111360008Y-71635324D01*
X111349674Y-71631454D01*
X111349649Y-71631445D01*
X111289528Y-71609911D01*
X111283097Y-71607719D01*
X111274775Y-71604883D01*
X111213760Y-71585126D01*
X111205523Y-71582603D01*
X111198372Y-71580412D01*
X111135886Y-71562355D01*
X111120337Y-71558129D01*
X111055765Y-71541683D01*
X111044430Y-71538982D01*
X111040494Y-71538045D01*
X111040484Y-71538042D01*
X111040443Y-71538033D01*
X110973235Y-71523119D01*
X110958681Y-71520115D01*
X110888052Y-71506608D01*
X110874566Y-71504218D01*
X110809989Y-71493678D01*
X110799978Y-71492044D01*
X110799968Y-71492042D01*
X110799916Y-71492034D01*
X110787722Y-71490198D01*
X110708541Y-71479262D01*
X110697655Y-71477879D01*
X110613305Y-71468096D01*
X110599523Y-71466688D01*
X110412785Y-71450200D01*
X110398875Y-71449165D01*
X110183779Y-71436154D01*
X110174166Y-71435665D01*
X109926000Y-71425403D01*
X109921995Y-71425262D01*
X109919591Y-71425178D01*
X109919554Y-71425176D01*
X109919442Y-71425173D01*
X109633178Y-71416918D01*
X109629279Y-71416820D01*
X109379875Y-71411526D01*
X109299559Y-71409821D01*
X109298894Y-71409808D01*
X109297196Y-71409776D01*
X108488870Y-71396622D01*
X108488870Y-71396618D01*
X108488463Y-71396614D01*
X107577639Y-71378803D01*
X107576508Y-71378776D01*
X106969448Y-71361367D01*
X106966646Y-71361255D01*
X106607072Y-71342797D01*
X106602038Y-71342436D01*
X106512250Y-71334153D01*
X106505559Y-71333352D01*
X106493674Y-71331600D01*
X106453492Y-71325676D01*
X106448074Y-71324753D01*
X106423833Y-71320065D01*
X106388953Y-71313320D01*
X106376783Y-71311119D01*
X106307140Y-71299406D01*
X106292780Y-71297202D01*
X106225823Y-71287899D01*
X106223761Y-71287646D01*
X106209421Y-71285892D01*
X106209413Y-71285891D01*
X106209371Y-71285886D01*
X106144544Y-71279025D01*
X106144516Y-71279022D01*
X106144511Y-71279022D01*
X106126282Y-71277425D01*
X106084584Y-71274533D01*
X106062944Y-71273032D01*
X106043229Y-71272052D01*
X105980979Y-71270170D01*
X105960294Y-71269969D01*
X105960287Y-71269969D01*
X105960281Y-71269969D01*
X105941521Y-71270170D01*
X105898465Y-71270631D01*
X105877474Y-71271293D01*
X105815661Y-71274530D01*
X105794895Y-71276047D01*
X105732500Y-71281894D01*
X105712676Y-71284147D01*
X105649128Y-71292642D01*
X105630748Y-71295443D01*
X105565595Y-71306602D01*
X105565569Y-71306606D01*
X105565545Y-71306611D01*
X105556960Y-71308228D01*
X105548944Y-71309739D01*
X105481497Y-71323622D01*
X105466942Y-71326842D01*
X105396736Y-71343467D01*
X105384183Y-71346609D01*
X105310740Y-71365993D01*
X105303261Y-71368054D01*
X105300188Y-71368901D01*
X105279630Y-71374803D01*
X105222745Y-71391136D01*
X105214195Y-71393673D01*
X105132579Y-71418689D01*
X105132433Y-71418734D01*
X105001681Y-71458633D01*
X104998798Y-71459475D01*
X104879099Y-71492854D01*
X104875987Y-71493678D01*
X104761276Y-71522479D01*
X104757913Y-71523274D01*
X104648202Y-71547591D01*
X104644573Y-71548339D01*
X104539936Y-71568272D01*
X104536012Y-71568954D01*
X104436664Y-71584591D01*
X104432430Y-71585183D01*
X104338421Y-71596675D01*
X104333849Y-71597148D01*
X104245266Y-71604657D01*
X104240342Y-71604976D01*
X104157284Y-71608697D01*
X104151990Y-71608821D01*
X104074480Y-71608981D01*
X104068803Y-71608862D01*
X103996932Y-71605717D01*
X103990884Y-71605304D01*
X103976669Y-71603983D01*
X103924557Y-71599140D01*
X103918133Y-71598373D01*
X103857320Y-71589499D01*
X103850553Y-71588319D01*
X103795011Y-71577038D01*
X103787936Y-71575383D01*
X103737488Y-71562013D01*
X103730175Y-71559830D01*
X103714342Y-71554569D01*
X103699625Y-71549679D01*
X103642214Y-71509858D01*
X103615446Y-71445319D01*
X103627740Y-71376712D01*
X103635541Y-71361054D01*
X103651400Y-71327563D01*
X103659362Y-71309880D01*
X103674139Y-71275304D01*
X103675061Y-71273032D01*
X103681182Y-71257939D01*
X103681182Y-71257937D01*
X103681199Y-71257897D01*
X103694857Y-71222338D01*
X103701122Y-71205096D01*
X103713621Y-71168656D01*
X103719152Y-71151546D01*
X103730455Y-71114329D01*
X103735321Y-71097233D01*
X103745389Y-71059339D01*
X103749617Y-71042227D01*
X103753689Y-71024421D01*
X103758408Y-71003787D01*
X103758414Y-71003759D01*
X103762044Y-70986506D01*
X103769530Y-70947568D01*
X103772571Y-70930108D01*
X103778708Y-70890800D01*
X103781154Y-70873077D01*
X103785905Y-70833503D01*
X103786165Y-70830950D01*
X103787744Y-70815457D01*
X103787747Y-70815423D01*
X103791074Y-70775684D01*
X103792283Y-70757158D01*
X103794147Y-70717357D01*
X103794679Y-70698311D01*
X103795041Y-70658551D01*
X103794840Y-70638963D01*
X103793665Y-70599345D01*
X103792656Y-70579072D01*
X103789903Y-70539699D01*
X103787997Y-70518729D01*
X103783629Y-70479704D01*
X103780719Y-70457978D01*
X103774698Y-70419402D01*
X103770658Y-70396878D01*
X103762946Y-70358854D01*
X103757631Y-70335503D01*
X103748189Y-70298133D01*
X103741078Y-70272786D01*
X103737022Y-70259654D01*
X103731086Y-70241640D01*
X103726566Y-70228743D01*
X103725778Y-70226623D01*
X103719999Y-70211069D01*
X103715050Y-70198473D01*
X103715048Y-70198469D01*
X103715035Y-70198435D01*
X103707855Y-70181112D01*
X103702448Y-70168721D01*
X103694705Y-70151830D01*
X103694694Y-70151806D01*
X103688891Y-70139738D01*
X103680505Y-70123088D01*
X103674282Y-70111281D01*
X103674274Y-70111265D01*
X103660709Y-70087150D01*
X103647063Y-70064372D01*
X103626970Y-70033449D01*
X103611854Y-70011946D01*
X103589537Y-69982543D01*
X103573062Y-69962408D01*
X103573059Y-69962404D01*
X103548429Y-69934469D01*
X103530694Y-69915790D01*
X103503702Y-69889408D01*
X103484827Y-69872291D01*
X103455343Y-69847531D01*
X103435469Y-69832092D01*
X103411610Y-69814651D01*
X103401311Y-69807576D01*
X103384565Y-69796553D01*
X103382740Y-69795403D01*
X103374054Y-69789929D01*
X103356570Y-69779397D01*
X103345851Y-69773231D01*
X103327689Y-69763275D01*
X103316760Y-69757572D01*
X103297870Y-69748211D01*
X103286818Y-69743018D01*
X103267126Y-69734273D01*
X103255855Y-69729553D01*
X103235492Y-69721538D01*
X103224101Y-69717338D01*
X103203746Y-69710341D01*
X103202929Y-69710060D01*
X103202916Y-69710055D01*
X103202899Y-69710050D01*
X103191442Y-69706393D01*
X103191435Y-69706390D01*
X103191407Y-69706382D01*
X103169478Y-69699925D01*
X103169477Y-69699924D01*
X103169444Y-69699915D01*
X103157835Y-69696780D01*
X103135297Y-69691246D01*
X103135280Y-69691242D01*
X103135275Y-69691241D01*
X103130391Y-69690160D01*
X103123502Y-69688635D01*
X103100281Y-69684064D01*
X103088389Y-69682012D01*
X103064449Y-69678469D01*
X103052550Y-69676999D01*
X103028134Y-69674581D01*
X103016176Y-69673689D01*
X102991134Y-69672444D01*
X102979115Y-69672144D01*
X102943577Y-69672508D01*
X102923776Y-69673408D01*
X102881963Y-69677052D01*
X102861405Y-69679707D01*
X102824806Y-69685809D01*
X102803529Y-69690164D01*
X102771603Y-69697788D01*
X102749757Y-69703761D01*
X102721777Y-69712288D01*
X102699384Y-69719828D01*
X102674795Y-69728820D01*
X102651950Y-69737853D01*
X102620380Y-69751594D01*
X102573504Y-69773928D01*
X102538794Y-69792149D01*
X102500048Y-69814447D01*
X102432125Y-69830823D01*
X102366130Y-69807878D01*
X102346707Y-69790667D01*
X102339549Y-69782841D01*
X102332229Y-69775506D01*
X102303833Y-69749153D01*
X102295890Y-69742329D01*
X102267272Y-69719491D01*
X102258744Y-69713177D01*
X102258736Y-69713171D01*
X102236410Y-69697788D01*
X102230451Y-69693682D01*
X102229504Y-69693076D01*
X102221389Y-69687881D01*
X102193589Y-69671318D01*
X102191756Y-69670304D01*
X102184011Y-69666019D01*
X102180419Y-69664170D01*
X102156992Y-69652114D01*
X102146929Y-69647313D01*
X102120867Y-69635769D01*
X102110364Y-69631467D01*
X102085150Y-69621918D01*
X102085149Y-69621917D01*
X102085142Y-69621915D01*
X102082232Y-69620900D01*
X102074303Y-69618137D01*
X102065294Y-69615250D01*
X102050032Y-69610359D01*
X102038831Y-69607078D01*
X102015350Y-69600808D01*
X102014007Y-69600483D01*
X102003866Y-69598035D01*
X101992515Y-69595569D01*
X101981189Y-69593109D01*
X101981180Y-69593107D01*
X101981165Y-69593104D01*
X101973959Y-69591711D01*
X101969413Y-69590832D01*
X101961773Y-69589528D01*
X101947516Y-69587094D01*
X101935504Y-69585315D01*
X101903720Y-69581631D01*
X101879212Y-69579574D01*
X101879197Y-69579573D01*
X101879193Y-69579573D01*
X101846848Y-69578170D01*
X101838369Y-69577803D01*
X101813445Y-69577730D01*
X101773664Y-69579181D01*
X101757817Y-69580384D01*
X101748583Y-69581086D01*
X101748580Y-69581086D01*
X101748571Y-69581087D01*
X101709085Y-69585653D01*
X101684203Y-69589528D01*
X101644230Y-69597414D01*
X101619847Y-69603253D01*
X101589297Y-69611594D01*
X101589289Y-69611596D01*
X101589276Y-69611600D01*
X101578776Y-69614822D01*
X101577362Y-69615257D01*
X101556434Y-69622183D01*
X101544788Y-69626323D01*
X101523452Y-69634453D01*
X101512103Y-69639074D01*
X101490216Y-69648593D01*
X101479233Y-69653681D01*
X101456864Y-69664721D01*
X101446222Y-69670304D01*
X101423355Y-69683063D01*
X101413123Y-69689126D01*
X101389823Y-69703801D01*
X101380040Y-69710341D01*
X101356421Y-69727129D01*
X101347095Y-69734169D01*
X101323252Y-69753325D01*
X101314449Y-69760847D01*
X101290667Y-69782516D01*
X101282427Y-69790520D01*
X101282405Y-69790542D01*
X101251330Y-69823561D01*
X101251314Y-69823578D01*
X101239116Y-69837764D01*
X101221909Y-69858902D01*
X101210015Y-69874348D01*
X101189278Y-69903333D01*
X101166478Y-69937704D01*
X101145667Y-69971948D01*
X101124308Y-70010455D01*
X101108934Y-70040495D01*
X101089110Y-70082638D01*
X101077462Y-70109381D01*
X101059323Y-70154541D01*
X101050221Y-70179008D01*
X101033892Y-70226623D01*
X101026671Y-70249421D01*
X101012243Y-70299025D01*
X101006415Y-70320874D01*
X100994034Y-70371840D01*
X100989303Y-70393351D01*
X100979099Y-70445104D01*
X100975296Y-70466894D01*
X100967384Y-70518907D01*
X100964470Y-70541476D01*
X100958974Y-70593197D01*
X100956996Y-70617280D01*
X100954046Y-70668120D01*
X100953203Y-70694516D01*
X100952921Y-70743882D01*
X100953619Y-70773512D01*
X100954341Y-70787154D01*
X100938224Y-70855139D01*
X100899172Y-70896960D01*
X100850369Y-70929409D01*
X100842384Y-70934829D01*
X100786520Y-70973530D01*
X100778690Y-70979063D01*
X100723973Y-71018508D01*
X100715936Y-71024421D01*
X100663425Y-71063859D01*
X100654686Y-71070572D01*
X100616007Y-71100958D01*
X100605517Y-71109200D01*
X100599171Y-71114320D01*
X100595312Y-71117433D01*
X100550693Y-71154393D01*
X100537994Y-71165272D01*
X100499045Y-71199775D01*
X100481898Y-71215687D01*
X100449786Y-71246904D01*
X100424489Y-71273343D01*
X100400387Y-71300432D01*
X100400381Y-71300439D01*
X100359086Y-71353597D01*
X100359084Y-71353600D01*
X100344119Y-71375766D01*
X100339461Y-71382986D01*
X100333118Y-71391922D01*
X100331685Y-71393763D01*
X100329934Y-71395961D01*
X100318134Y-71410432D01*
X100316345Y-71412576D01*
X100271801Y-71464758D01*
X100270203Y-71466594D01*
X100211484Y-71532708D01*
X100210925Y-71533337D01*
X100209740Y-71534652D01*
X100137674Y-71613497D01*
X100136667Y-71614586D01*
X100054983Y-71701835D01*
X100054038Y-71702833D01*
X99965200Y-71795640D01*
X99964240Y-71796632D01*
X99868424Y-71894523D01*
X99868361Y-71894588D01*
X99867363Y-71895608D01*
X99867364Y-71895609D01*
X99726761Y-72040183D01*
X99724118Y-72042925D01*
X99723574Y-72043491D01*
X99674151Y-72095257D01*
X99612608Y-72159717D01*
X99606385Y-72166352D01*
X99521676Y-72258356D01*
X99513819Y-72267091D01*
X99480241Y-72305312D01*
X99472695Y-72314104D01*
X99444451Y-72347773D01*
X99434600Y-72359893D01*
X99411224Y-72389577D01*
X99398491Y-72406463D01*
X99379586Y-72432652D01*
X99363707Y-72455995D01*
X99348871Y-72479174D01*
X99330039Y-72511117D01*
X99318819Y-72531850D01*
X99318808Y-72531871D01*
X99298404Y-72574161D01*
X99298384Y-72574207D01*
X99290404Y-72592924D01*
X99290400Y-72592934D01*
X99290397Y-72592942D01*
X99272258Y-72643044D01*
X99271251Y-72645825D01*
X99266058Y-72663116D01*
X99266052Y-72663138D01*
X99252006Y-72722869D01*
X99249195Y-72739229D01*
X99242601Y-72798041D01*
X99242600Y-72798056D01*
X99242599Y-72798065D01*
X99242599Y-72798070D01*
X99242201Y-72805572D01*
X99241754Y-72813995D01*
X99241322Y-72857548D01*
X97715431Y-72857548D01*
X97711971Y-72852786D01*
X97567213Y-72708028D01*
X97401613Y-72587715D01*
X97401612Y-72587714D01*
X97401610Y-72587713D01*
X97344653Y-72558691D01*
X97219223Y-72494781D01*
X97024534Y-72431522D01*
X96847619Y-72403502D01*
X96822352Y-72399500D01*
X95817648Y-72399500D01*
X95793329Y-72403351D01*
X95615465Y-72431522D01*
X95420776Y-72494781D01*
X95238386Y-72587715D01*
X95072786Y-72708028D01*
X94928028Y-72852786D01*
X94807715Y-73018386D01*
X94714781Y-73200776D01*
X94651522Y-73395465D01*
X94624687Y-73564901D01*
X94619500Y-73597648D01*
X90400499Y-73597648D01*
X90400499Y-72852128D01*
X90394091Y-72792517D01*
X90372002Y-72733294D01*
X90343797Y-72657671D01*
X90343793Y-72657664D01*
X90257547Y-72542455D01*
X90257544Y-72542452D01*
X90142335Y-72456206D01*
X90142328Y-72456202D01*
X90007482Y-72405908D01*
X90007483Y-72405908D01*
X89947883Y-72399501D01*
X89947881Y-72399500D01*
X89947873Y-72399500D01*
X89947864Y-72399500D01*
X87452129Y-72399500D01*
X87452123Y-72399501D01*
X87392516Y-72405908D01*
X87257671Y-72456202D01*
X87257664Y-72456206D01*
X87142455Y-72542452D01*
X87142452Y-72542455D01*
X87056206Y-72657664D01*
X87056202Y-72657671D01*
X87005908Y-72792517D01*
X86999501Y-72852116D01*
X86999501Y-72852123D01*
X86999500Y-72852135D01*
X86300500Y-72852135D01*
X86300500Y-69146052D01*
X86320185Y-69079013D01*
X86328643Y-69067392D01*
X86335910Y-69058538D01*
X86428814Y-68884727D01*
X86486024Y-68696132D01*
X86505341Y-68500000D01*
X86486024Y-68303868D01*
X86428814Y-68115273D01*
X86428811Y-68115269D01*
X86428811Y-68115266D01*
X86335913Y-67941467D01*
X86335909Y-67941460D01*
X86210883Y-67789116D01*
X86058539Y-67664090D01*
X86058532Y-67664086D01*
X85884733Y-67571188D01*
X85884727Y-67571186D01*
X85696132Y-67513976D01*
X85696129Y-67513975D01*
X85500000Y-67494659D01*
X85303870Y-67513975D01*
X85115266Y-67571188D01*
X84941467Y-67664086D01*
X84941460Y-67664090D01*
X84789116Y-67789116D01*
X84664090Y-67941460D01*
X84664086Y-67941467D01*
X84571188Y-68115266D01*
X84513975Y-68303870D01*
X84494659Y-68500000D01*
X55247814Y-68500000D01*
X54464931Y-67717116D01*
X54464930Y-67717115D01*
X54464922Y-67717108D01*
X54398017Y-67665136D01*
X54331533Y-67637598D01*
X54265050Y-67610060D01*
X54180977Y-67599500D01*
X51819029Y-67599500D01*
X51734950Y-67610060D01*
X51601984Y-67665136D01*
X51535065Y-67717121D01*
X51535058Y-67717127D01*
X50714376Y-68537809D01*
X50713644Y-68537077D01*
X50658349Y-68571906D01*
X50588482Y-68571269D01*
X50530051Y-68532960D01*
X50501606Y-68469143D01*
X50500500Y-68452615D01*
X50500500Y-63000000D01*
X63314551Y-63000000D01*
X63334317Y-63251151D01*
X63393126Y-63496110D01*
X63489533Y-63728859D01*
X63621160Y-63943653D01*
X63621161Y-63943656D01*
X63621164Y-63943659D01*
X63784776Y-64135224D01*
X63933066Y-64261875D01*
X63976343Y-64298838D01*
X63976346Y-64298839D01*
X64191140Y-64430466D01*
X64359026Y-64500006D01*
X64423889Y-64526873D01*
X64668852Y-64585683D01*
X64920000Y-64605449D01*
X65171148Y-64585683D01*
X65416111Y-64526873D01*
X65648859Y-64430466D01*
X65863659Y-64298836D01*
X66055224Y-64135224D01*
X66218836Y-63943659D01*
X66350466Y-63728859D01*
X66446873Y-63496111D01*
X66505683Y-63251148D01*
X66525449Y-63000000D01*
X66505683Y-62748852D01*
X66446873Y-62503889D01*
X66351364Y-62273308D01*
X66350466Y-62271140D01*
X66218839Y-62056346D01*
X66218838Y-62056343D01*
X66181875Y-62013066D01*
X66055224Y-61864776D01*
X66040423Y-61852135D01*
X73479500Y-61852135D01*
X73479500Y-64147870D01*
X73479501Y-64147876D01*
X73485908Y-64207483D01*
X73536202Y-64342328D01*
X73536206Y-64342335D01*
X73622452Y-64457544D01*
X73622455Y-64457547D01*
X73737664Y-64543793D01*
X73737671Y-64543797D01*
X73872517Y-64594091D01*
X73872516Y-64594091D01*
X73879444Y-64594835D01*
X73932127Y-64600500D01*
X76227872Y-64600499D01*
X76287483Y-64594091D01*
X76422331Y-64543796D01*
X76480844Y-64499993D01*
X129594700Y-64499993D01*
X129594700Y-64500006D01*
X129613864Y-64731297D01*
X129613866Y-64731308D01*
X129670842Y-64956300D01*
X129764075Y-65168848D01*
X129891016Y-65363147D01*
X129891019Y-65363151D01*
X129891021Y-65363153D01*
X129985803Y-65466114D01*
X130016724Y-65528767D01*
X130008864Y-65598193D01*
X129964716Y-65652348D01*
X129937906Y-65666277D01*
X129857669Y-65696203D01*
X129857664Y-65696206D01*
X129742455Y-65782452D01*
X129742452Y-65782455D01*
X129656206Y-65897664D01*
X129656202Y-65897671D01*
X129605908Y-66032517D01*
X129599501Y-66092116D01*
X129599501Y-66092123D01*
X129599500Y-66092135D01*
X129599500Y-67987870D01*
X129599501Y-67987876D01*
X129605908Y-68047483D01*
X129656202Y-68182328D01*
X129656206Y-68182335D01*
X129742452Y-68297544D01*
X129742455Y-68297547D01*
X129857664Y-68383793D01*
X129857671Y-68383797D01*
X129992517Y-68434091D01*
X129992516Y-68434091D01*
X129999444Y-68434835D01*
X130052127Y-68440500D01*
X131947872Y-68440499D01*
X132007483Y-68434091D01*
X132142331Y-68383796D01*
X132257546Y-68297546D01*
X132343796Y-68182331D01*
X132394091Y-68047483D01*
X132400500Y-67987873D01*
X132400499Y-66092128D01*
X132394091Y-66032517D01*
X132343796Y-65897669D01*
X132343795Y-65897668D01*
X132343793Y-65897664D01*
X132257547Y-65782455D01*
X132257544Y-65782452D01*
X132142335Y-65696206D01*
X132142328Y-65696202D01*
X132062094Y-65666277D01*
X132006160Y-65624406D01*
X131981743Y-65558941D01*
X131996595Y-65490668D01*
X132014190Y-65466121D01*
X132108979Y-65363153D01*
X132235924Y-65168849D01*
X132329157Y-64956300D01*
X132386134Y-64731305D01*
X132386135Y-64731297D01*
X132405300Y-64500006D01*
X132405300Y-64499993D01*
X132386135Y-64268702D01*
X132386133Y-64268691D01*
X132329157Y-64043699D01*
X132235924Y-63831151D01*
X132108983Y-63636852D01*
X132108980Y-63636849D01*
X132108979Y-63636847D01*
X131951784Y-63466087D01*
X131951779Y-63466083D01*
X131951777Y-63466081D01*
X131768634Y-63323535D01*
X131768628Y-63323531D01*
X131564504Y-63213064D01*
X131564495Y-63213061D01*
X131344984Y-63137702D01*
X131173282Y-63109050D01*
X131116049Y-63099500D01*
X130883951Y-63099500D01*
X130838164Y-63107140D01*
X130655015Y-63137702D01*
X130435504Y-63213061D01*
X130435495Y-63213064D01*
X130231371Y-63323531D01*
X130231365Y-63323535D01*
X130048222Y-63466081D01*
X130048219Y-63466084D01*
X129891016Y-63636852D01*
X129764075Y-63831151D01*
X129670842Y-64043699D01*
X129613866Y-64268691D01*
X129613864Y-64268702D01*
X129594700Y-64499993D01*
X76480844Y-64499993D01*
X76537546Y-64457546D01*
X76623796Y-64342331D01*
X76674091Y-64207483D01*
X76680500Y-64147873D01*
X76680499Y-62499998D01*
X86114532Y-62499998D01*
X86114532Y-62500001D01*
X86134364Y-62726686D01*
X86134366Y-62726697D01*
X86193258Y-62946488D01*
X86193261Y-62946497D01*
X86289431Y-63152732D01*
X86289432Y-63152734D01*
X86419954Y-63339141D01*
X86580858Y-63500045D01*
X86580861Y-63500047D01*
X86767266Y-63630568D01*
X86973504Y-63726739D01*
X87193308Y-63785635D01*
X87355230Y-63799801D01*
X87419998Y-63805468D01*
X87420000Y-63805468D01*
X87420002Y-63805468D01*
X87476673Y-63800509D01*
X87646692Y-63785635D01*
X87866496Y-63726739D01*
X88072734Y-63630568D01*
X88259139Y-63500047D01*
X88420047Y-63339139D01*
X88550568Y-63152734D01*
X88646739Y-62946496D01*
X88705635Y-62726692D01*
X88725468Y-62500000D01*
X88725468Y-62499998D01*
X96274532Y-62499998D01*
X96274532Y-62500001D01*
X96294364Y-62726686D01*
X96294366Y-62726697D01*
X96353258Y-62946488D01*
X96353261Y-62946497D01*
X96449431Y-63152732D01*
X96449432Y-63152734D01*
X96579954Y-63339141D01*
X96740858Y-63500045D01*
X96740861Y-63500047D01*
X96927266Y-63630568D01*
X97133504Y-63726739D01*
X97353308Y-63785635D01*
X97515230Y-63799801D01*
X97579998Y-63805468D01*
X97580000Y-63805468D01*
X97580002Y-63805468D01*
X97636673Y-63800509D01*
X97806692Y-63785635D01*
X98026496Y-63726739D01*
X98232734Y-63630568D01*
X98419139Y-63500047D01*
X98580047Y-63339139D01*
X98710568Y-63152734D01*
X98806739Y-62946496D01*
X98865635Y-62726692D01*
X98885468Y-62500000D01*
X98885468Y-62499998D01*
X110614532Y-62499998D01*
X110614532Y-62500001D01*
X110634364Y-62726686D01*
X110634366Y-62726697D01*
X110693258Y-62946488D01*
X110693261Y-62946497D01*
X110789431Y-63152732D01*
X110789432Y-63152734D01*
X110919954Y-63339141D01*
X111080858Y-63500045D01*
X111080861Y-63500047D01*
X111267266Y-63630568D01*
X111473504Y-63726739D01*
X111693308Y-63785635D01*
X111855230Y-63799801D01*
X111919998Y-63805468D01*
X111920000Y-63805468D01*
X111920002Y-63805468D01*
X111976673Y-63800509D01*
X112146692Y-63785635D01*
X112366496Y-63726739D01*
X112572734Y-63630568D01*
X112759139Y-63500047D01*
X112920047Y-63339139D01*
X113050568Y-63152734D01*
X113146739Y-62946496D01*
X113205635Y-62726692D01*
X113225468Y-62500000D01*
X113225468Y-62499998D01*
X120774532Y-62499998D01*
X120774532Y-62500001D01*
X120794364Y-62726686D01*
X120794366Y-62726697D01*
X120853258Y-62946488D01*
X120853261Y-62946497D01*
X120949431Y-63152732D01*
X120949432Y-63152734D01*
X121079954Y-63339141D01*
X121240858Y-63500045D01*
X121240861Y-63500047D01*
X121427266Y-63630568D01*
X121633504Y-63726739D01*
X121853308Y-63785635D01*
X122015230Y-63799801D01*
X122079998Y-63805468D01*
X122080000Y-63805468D01*
X122080002Y-63805468D01*
X122136673Y-63800509D01*
X122306692Y-63785635D01*
X122526496Y-63726739D01*
X122732734Y-63630568D01*
X122919139Y-63500047D01*
X123080047Y-63339139D01*
X123210568Y-63152734D01*
X123306739Y-62946496D01*
X123365635Y-62726692D01*
X123385468Y-62500000D01*
X123365635Y-62273308D01*
X123306739Y-62053504D01*
X123210568Y-61847266D01*
X123080047Y-61660861D01*
X123080045Y-61660858D01*
X122919141Y-61499954D01*
X122732734Y-61369432D01*
X122732732Y-61369431D01*
X122526497Y-61273261D01*
X122526488Y-61273258D01*
X122306697Y-61214366D01*
X122306693Y-61214365D01*
X122306692Y-61214365D01*
X122306691Y-61214364D01*
X122306686Y-61214364D01*
X122080002Y-61194532D01*
X122079998Y-61194532D01*
X121853313Y-61214364D01*
X121853302Y-61214366D01*
X121633511Y-61273258D01*
X121633502Y-61273261D01*
X121427267Y-61369431D01*
X121427265Y-61369432D01*
X121240858Y-61499954D01*
X121079954Y-61660858D01*
X120949432Y-61847265D01*
X120949431Y-61847267D01*
X120853261Y-62053502D01*
X120853258Y-62053511D01*
X120794366Y-62273302D01*
X120794364Y-62273313D01*
X120774532Y-62499998D01*
X113225468Y-62499998D01*
X113205635Y-62273308D01*
X113146739Y-62053504D01*
X113050568Y-61847266D01*
X112920047Y-61660861D01*
X112920045Y-61660858D01*
X112759141Y-61499954D01*
X112572734Y-61369432D01*
X112572732Y-61369431D01*
X112366497Y-61273261D01*
X112366488Y-61273258D01*
X112146697Y-61214366D01*
X112146693Y-61214365D01*
X112146692Y-61214365D01*
X112146691Y-61214364D01*
X112146686Y-61214364D01*
X111920002Y-61194532D01*
X111919998Y-61194532D01*
X111693313Y-61214364D01*
X111693302Y-61214366D01*
X111473511Y-61273258D01*
X111473502Y-61273261D01*
X111267267Y-61369431D01*
X111267265Y-61369432D01*
X111080858Y-61499954D01*
X110919954Y-61660858D01*
X110789432Y-61847265D01*
X110789431Y-61847267D01*
X110693261Y-62053502D01*
X110693258Y-62053511D01*
X110634366Y-62273302D01*
X110634364Y-62273313D01*
X110614532Y-62499998D01*
X98885468Y-62499998D01*
X98865635Y-62273308D01*
X98806739Y-62053504D01*
X98710568Y-61847266D01*
X98580047Y-61660861D01*
X98580045Y-61660858D01*
X98419141Y-61499954D01*
X98232734Y-61369432D01*
X98232732Y-61369431D01*
X98026497Y-61273261D01*
X98026488Y-61273258D01*
X97806697Y-61214366D01*
X97806693Y-61214365D01*
X97806692Y-61214365D01*
X97806691Y-61214364D01*
X97806686Y-61214364D01*
X97580002Y-61194532D01*
X97579998Y-61194532D01*
X97353313Y-61214364D01*
X97353302Y-61214366D01*
X97133511Y-61273258D01*
X97133502Y-61273261D01*
X96927267Y-61369431D01*
X96927265Y-61369432D01*
X96740858Y-61499954D01*
X96579954Y-61660858D01*
X96449432Y-61847265D01*
X96449431Y-61847267D01*
X96353261Y-62053502D01*
X96353258Y-62053511D01*
X96294366Y-62273302D01*
X96294364Y-62273313D01*
X96274532Y-62499998D01*
X88725468Y-62499998D01*
X88705635Y-62273308D01*
X88646739Y-62053504D01*
X88550568Y-61847266D01*
X88420047Y-61660861D01*
X88420045Y-61660858D01*
X88259141Y-61499954D01*
X88072734Y-61369432D01*
X88072732Y-61369431D01*
X87866497Y-61273261D01*
X87866488Y-61273258D01*
X87646697Y-61214366D01*
X87646693Y-61214365D01*
X87646692Y-61214365D01*
X87646691Y-61214364D01*
X87646686Y-61214364D01*
X87420002Y-61194532D01*
X87419998Y-61194532D01*
X87193313Y-61214364D01*
X87193302Y-61214366D01*
X86973511Y-61273258D01*
X86973502Y-61273261D01*
X86767267Y-61369431D01*
X86767265Y-61369432D01*
X86580858Y-61499954D01*
X86419954Y-61660858D01*
X86289432Y-61847265D01*
X86289431Y-61847267D01*
X86193261Y-62053502D01*
X86193258Y-62053511D01*
X86134366Y-62273302D01*
X86134364Y-62273313D01*
X86114532Y-62499998D01*
X76680499Y-62499998D01*
X76680499Y-61852128D01*
X76674091Y-61792517D01*
X76640017Y-61701161D01*
X76623797Y-61657671D01*
X76623793Y-61657664D01*
X76537547Y-61542455D01*
X76537544Y-61542452D01*
X76422335Y-61456206D01*
X76422328Y-61456202D01*
X76287482Y-61405908D01*
X76287483Y-61405908D01*
X76227883Y-61399501D01*
X76227881Y-61399500D01*
X76227873Y-61399500D01*
X76227864Y-61399500D01*
X73932129Y-61399500D01*
X73932123Y-61399501D01*
X73872516Y-61405908D01*
X73737671Y-61456202D01*
X73737664Y-61456206D01*
X73622455Y-61542452D01*
X73622452Y-61542455D01*
X73536206Y-61657664D01*
X73536202Y-61657671D01*
X73485908Y-61792517D01*
X73479501Y-61852116D01*
X73479501Y-61852123D01*
X73479500Y-61852135D01*
X66040423Y-61852135D01*
X65928571Y-61756604D01*
X65863656Y-61701161D01*
X65863653Y-61701160D01*
X65648859Y-61569533D01*
X65416110Y-61473126D01*
X65171151Y-61414317D01*
X64920000Y-61394551D01*
X64668848Y-61414317D01*
X64423889Y-61473126D01*
X64191140Y-61569533D01*
X63976346Y-61701160D01*
X63976343Y-61701161D01*
X63784776Y-61864776D01*
X63621161Y-62056343D01*
X63621160Y-62056346D01*
X63489533Y-62271140D01*
X63393126Y-62503889D01*
X63334317Y-62748848D01*
X63314551Y-63000000D01*
X50500500Y-63000000D01*
X50500500Y-55002706D01*
X50500618Y-54997297D01*
X50504968Y-54897664D01*
X50505795Y-54878711D01*
X53149500Y-54878711D01*
X53149500Y-55121288D01*
X53181161Y-55361785D01*
X53243947Y-55596104D01*
X53324891Y-55791519D01*
X53336776Y-55820212D01*
X53458064Y-56030289D01*
X53458066Y-56030292D01*
X53458067Y-56030293D01*
X53605733Y-56222736D01*
X53605739Y-56222743D01*
X53777256Y-56394260D01*
X53777262Y-56394265D01*
X53969711Y-56541936D01*
X54179788Y-56663224D01*
X54403900Y-56756054D01*
X54638211Y-56818838D01*
X54818586Y-56842584D01*
X54878711Y-56850500D01*
X54878712Y-56850500D01*
X55121289Y-56850500D01*
X55169388Y-56844167D01*
X55361789Y-56818838D01*
X55596100Y-56756054D01*
X55820212Y-56663224D01*
X56030289Y-56541936D01*
X56222738Y-56394265D01*
X56394265Y-56222738D01*
X56541936Y-56030289D01*
X56663224Y-55820212D01*
X56756054Y-55596100D01*
X56818838Y-55361789D01*
X56850500Y-55121288D01*
X56850500Y-54999998D01*
X61844645Y-54999998D01*
X61844645Y-55000001D01*
X61864039Y-55271160D01*
X61864040Y-55271167D01*
X61912151Y-55492331D01*
X61921825Y-55536801D01*
X61980382Y-55693797D01*
X62016830Y-55791519D01*
X62147109Y-56030107D01*
X62147110Y-56030108D01*
X62147113Y-56030113D01*
X62310029Y-56247742D01*
X62310033Y-56247746D01*
X62310038Y-56247752D01*
X62502247Y-56439961D01*
X62502253Y-56439966D01*
X62502258Y-56439971D01*
X62719887Y-56602887D01*
X62719891Y-56602889D01*
X62719892Y-56602890D01*
X62958481Y-56733169D01*
X62958480Y-56733169D01*
X62958484Y-56733170D01*
X62958487Y-56733172D01*
X63213199Y-56828175D01*
X63478840Y-56885961D01*
X63730605Y-56903967D01*
X63749999Y-56905355D01*
X63750000Y-56905355D01*
X63750001Y-56905355D01*
X63768100Y-56904060D01*
X64021160Y-56885961D01*
X64286801Y-56828175D01*
X64541513Y-56733172D01*
X64541517Y-56733169D01*
X64541519Y-56733169D01*
X64751243Y-56618651D01*
X64780113Y-56602887D01*
X64997742Y-56439971D01*
X65189971Y-56247742D01*
X65352887Y-56030113D01*
X65483172Y-55791513D01*
X65578175Y-55536801D01*
X65635961Y-55271160D01*
X65654060Y-55018100D01*
X65655355Y-55000001D01*
X65655355Y-54999998D01*
X65648036Y-54897669D01*
X65635961Y-54728840D01*
X65578175Y-54463199D01*
X65483172Y-54208487D01*
X65483170Y-54208484D01*
X65483169Y-54208480D01*
X65352890Y-53969892D01*
X65352889Y-53969891D01*
X65352887Y-53969887D01*
X65225698Y-53799984D01*
X66849500Y-53799984D01*
X66849500Y-56200015D01*
X66860000Y-56302795D01*
X66860001Y-56302796D01*
X66915186Y-56469335D01*
X66915187Y-56469337D01*
X67007286Y-56618651D01*
X67007289Y-56618655D01*
X67131344Y-56742710D01*
X67131348Y-56742713D01*
X67280662Y-56834812D01*
X67280664Y-56834813D01*
X67280666Y-56834814D01*
X67447203Y-56889999D01*
X67549992Y-56900500D01*
X67549997Y-56900500D01*
X69950003Y-56900500D01*
X69950008Y-56900500D01*
X70052797Y-56889999D01*
X70219334Y-56834814D01*
X70368655Y-56742711D01*
X70492711Y-56618655D01*
X70584814Y-56469334D01*
X70639999Y-56302797D01*
X70650500Y-56200008D01*
X70650500Y-53799992D01*
X70640503Y-53702135D01*
X78669500Y-53702135D01*
X78669500Y-55297870D01*
X78669501Y-55297876D01*
X78675908Y-55357483D01*
X78726202Y-55492328D01*
X78726206Y-55492335D01*
X78812452Y-55607544D01*
X78812455Y-55607547D01*
X78927664Y-55693793D01*
X78927671Y-55693797D01*
X79062517Y-55744091D01*
X79062516Y-55744091D01*
X79069444Y-55744835D01*
X79122127Y-55750500D01*
X80717872Y-55750499D01*
X80777483Y-55744091D01*
X80912331Y-55693796D01*
X81027546Y-55607546D01*
X81090734Y-55523136D01*
X81146667Y-55481267D01*
X81216359Y-55476283D01*
X81277682Y-55509768D01*
X81289260Y-55523130D01*
X81352454Y-55607546D01*
X81398643Y-55642123D01*
X81467664Y-55693793D01*
X81467671Y-55693797D01*
X81602517Y-55744091D01*
X81602516Y-55744091D01*
X81609444Y-55744835D01*
X81662127Y-55750500D01*
X83257872Y-55750499D01*
X83317483Y-55744091D01*
X83452331Y-55693796D01*
X83567546Y-55607546D01*
X83630734Y-55523136D01*
X83686667Y-55481267D01*
X83756359Y-55476283D01*
X83817682Y-55509768D01*
X83829260Y-55523130D01*
X83892454Y-55607546D01*
X83938643Y-55642123D01*
X84007664Y-55693793D01*
X84007671Y-55693797D01*
X84142517Y-55744091D01*
X84142516Y-55744091D01*
X84149444Y-55744835D01*
X84202127Y-55750500D01*
X85797872Y-55750499D01*
X85857483Y-55744091D01*
X85992331Y-55693796D01*
X86107546Y-55607546D01*
X86193796Y-55492331D01*
X86244091Y-55357483D01*
X86250500Y-55297873D01*
X86250499Y-53702128D01*
X86244091Y-53642517D01*
X86230372Y-53605735D01*
X86193797Y-53507671D01*
X86193793Y-53507664D01*
X86188050Y-53499993D01*
X91094700Y-53499993D01*
X91094700Y-53500006D01*
X91113864Y-53731297D01*
X91113866Y-53731308D01*
X91170842Y-53956300D01*
X91264075Y-54168848D01*
X91391016Y-54363147D01*
X91391019Y-54363151D01*
X91391021Y-54363153D01*
X91485803Y-54466114D01*
X91516724Y-54528767D01*
X91508864Y-54598193D01*
X91464716Y-54652348D01*
X91437906Y-54666277D01*
X91357669Y-54696203D01*
X91357664Y-54696206D01*
X91242455Y-54782452D01*
X91242452Y-54782455D01*
X91156206Y-54897664D01*
X91156202Y-54897671D01*
X91105908Y-55032517D01*
X91099501Y-55092116D01*
X91099501Y-55092123D01*
X91099500Y-55092135D01*
X91099500Y-56987870D01*
X91099501Y-56987876D01*
X91105908Y-57047483D01*
X91156202Y-57182328D01*
X91156206Y-57182335D01*
X91242452Y-57297544D01*
X91242455Y-57297547D01*
X91357664Y-57383793D01*
X91357671Y-57383797D01*
X91492517Y-57434091D01*
X91492516Y-57434091D01*
X91499444Y-57434835D01*
X91552127Y-57440500D01*
X93447872Y-57440499D01*
X93507483Y-57434091D01*
X93642331Y-57383796D01*
X93757546Y-57297546D01*
X93843796Y-57182331D01*
X93894091Y-57047483D01*
X93900500Y-56987873D01*
X93900499Y-55092128D01*
X93894091Y-55032517D01*
X93882972Y-55002706D01*
X93843797Y-54897671D01*
X93843793Y-54897664D01*
X93829605Y-54878711D01*
X128149500Y-54878711D01*
X128149500Y-55121288D01*
X128181161Y-55361785D01*
X128243947Y-55596104D01*
X128324891Y-55791519D01*
X128336776Y-55820212D01*
X128458064Y-56030289D01*
X128458066Y-56030292D01*
X128458067Y-56030293D01*
X128605733Y-56222736D01*
X128605739Y-56222743D01*
X128777256Y-56394260D01*
X128777262Y-56394265D01*
X128969711Y-56541936D01*
X129179788Y-56663224D01*
X129403900Y-56756054D01*
X129638211Y-56818838D01*
X129818586Y-56842584D01*
X129878711Y-56850500D01*
X129878712Y-56850500D01*
X130121289Y-56850500D01*
X130169388Y-56844167D01*
X130361789Y-56818838D01*
X130596100Y-56756054D01*
X130820212Y-56663224D01*
X131030289Y-56541936D01*
X131222738Y-56394265D01*
X131394265Y-56222738D01*
X131541936Y-56030289D01*
X131663224Y-55820212D01*
X131756054Y-55596100D01*
X131818838Y-55361789D01*
X131850500Y-55121288D01*
X131850500Y-54878712D01*
X131818838Y-54638211D01*
X131756054Y-54403900D01*
X131663224Y-54179788D01*
X131541936Y-53969711D01*
X131394265Y-53777262D01*
X131394260Y-53777256D01*
X131222743Y-53605739D01*
X131222736Y-53605733D01*
X131030293Y-53458067D01*
X131030292Y-53458066D01*
X131030289Y-53458064D01*
X130820212Y-53336776D01*
X130820205Y-53336773D01*
X130596104Y-53243947D01*
X130361785Y-53181161D01*
X130121289Y-53149500D01*
X130121288Y-53149500D01*
X129878712Y-53149500D01*
X129878711Y-53149500D01*
X129638214Y-53181161D01*
X129403895Y-53243947D01*
X129179794Y-53336773D01*
X129179785Y-53336777D01*
X128969706Y-53458067D01*
X128777263Y-53605733D01*
X128777256Y-53605739D01*
X128605739Y-53777256D01*
X128605733Y-53777263D01*
X128458067Y-53969706D01*
X128458064Y-53969710D01*
X128458064Y-53969711D01*
X128441817Y-53997851D01*
X128336777Y-54179785D01*
X128336773Y-54179794D01*
X128243947Y-54403895D01*
X128181161Y-54638214D01*
X128149500Y-54878711D01*
X93829605Y-54878711D01*
X93757547Y-54782455D01*
X93757544Y-54782452D01*
X93642335Y-54696206D01*
X93642328Y-54696202D01*
X93562094Y-54666277D01*
X93506160Y-54624406D01*
X93481743Y-54558941D01*
X93496595Y-54490668D01*
X93514190Y-54466121D01*
X93608979Y-54363153D01*
X93735924Y-54168849D01*
X93829157Y-53956300D01*
X93886134Y-53731305D01*
X93893491Y-53642516D01*
X93905300Y-53500006D01*
X93905300Y-53499993D01*
X93886135Y-53268702D01*
X93886133Y-53268691D01*
X93829157Y-53043699D01*
X93735924Y-52831151D01*
X93608983Y-52636852D01*
X93608980Y-52636849D01*
X93608979Y-52636847D01*
X93451784Y-52466087D01*
X93451779Y-52466083D01*
X93451777Y-52466081D01*
X93268634Y-52323535D01*
X93268628Y-52323531D01*
X93064504Y-52213064D01*
X93064495Y-52213061D01*
X92844984Y-52137702D01*
X92665650Y-52107777D01*
X92616049Y-52099500D01*
X92383951Y-52099500D01*
X92338164Y-52107140D01*
X92155015Y-52137702D01*
X91935504Y-52213061D01*
X91935495Y-52213064D01*
X91731371Y-52323531D01*
X91731365Y-52323535D01*
X91548222Y-52466081D01*
X91548219Y-52466084D01*
X91391016Y-52636852D01*
X91264075Y-52831151D01*
X91170842Y-53043699D01*
X91113866Y-53268691D01*
X91113864Y-53268702D01*
X91094700Y-53499993D01*
X86188050Y-53499993D01*
X86107547Y-53392455D01*
X86107544Y-53392452D01*
X85992335Y-53306206D01*
X85992328Y-53306202D01*
X85857482Y-53255908D01*
X85857483Y-53255908D01*
X85797883Y-53249501D01*
X85797881Y-53249500D01*
X85797873Y-53249500D01*
X85797864Y-53249500D01*
X84202129Y-53249500D01*
X84202123Y-53249501D01*
X84142516Y-53255908D01*
X84007671Y-53306202D01*
X84007664Y-53306206D01*
X83892455Y-53392452D01*
X83892452Y-53392455D01*
X83829266Y-53476861D01*
X83773332Y-53518732D01*
X83703641Y-53523716D01*
X83642318Y-53490230D01*
X83630734Y-53476861D01*
X83567547Y-53392455D01*
X83567544Y-53392452D01*
X83452335Y-53306206D01*
X83452328Y-53306202D01*
X83317482Y-53255908D01*
X83317483Y-53255908D01*
X83257883Y-53249501D01*
X83257881Y-53249500D01*
X83257873Y-53249500D01*
X83257864Y-53249500D01*
X81662129Y-53249500D01*
X81662123Y-53249501D01*
X81602516Y-53255908D01*
X81467671Y-53306202D01*
X81467664Y-53306206D01*
X81352455Y-53392452D01*
X81352452Y-53392455D01*
X81289266Y-53476861D01*
X81233332Y-53518732D01*
X81163641Y-53523716D01*
X81102318Y-53490230D01*
X81090734Y-53476861D01*
X81027547Y-53392455D01*
X81027544Y-53392452D01*
X80912335Y-53306206D01*
X80912328Y-53306202D01*
X80777482Y-53255908D01*
X80777483Y-53255908D01*
X80717883Y-53249501D01*
X80717881Y-53249500D01*
X80717873Y-53249500D01*
X80717864Y-53249500D01*
X79122129Y-53249500D01*
X79122123Y-53249501D01*
X79062516Y-53255908D01*
X78927671Y-53306202D01*
X78927664Y-53306206D01*
X78812455Y-53392452D01*
X78812452Y-53392455D01*
X78726206Y-53507664D01*
X78726202Y-53507671D01*
X78675908Y-53642517D01*
X78670029Y-53697203D01*
X78669501Y-53702123D01*
X78669500Y-53702135D01*
X70640503Y-53702135D01*
X70639999Y-53697203D01*
X70584814Y-53530666D01*
X70580527Y-53523716D01*
X70492713Y-53381348D01*
X70492710Y-53381344D01*
X70368655Y-53257289D01*
X70368651Y-53257286D01*
X70219337Y-53165187D01*
X70219335Y-53165186D01*
X70136065Y-53137593D01*
X70052797Y-53110001D01*
X70052795Y-53110000D01*
X69950015Y-53099500D01*
X69950008Y-53099500D01*
X67549992Y-53099500D01*
X67549984Y-53099500D01*
X67447204Y-53110000D01*
X67447203Y-53110001D01*
X67280664Y-53165186D01*
X67280662Y-53165187D01*
X67131348Y-53257286D01*
X67131344Y-53257289D01*
X67007289Y-53381344D01*
X67007286Y-53381348D01*
X66915187Y-53530662D01*
X66915186Y-53530664D01*
X66860001Y-53697203D01*
X66860000Y-53697204D01*
X66849500Y-53799984D01*
X65225698Y-53799984D01*
X65189971Y-53752258D01*
X65189966Y-53752253D01*
X65189961Y-53752247D01*
X64997752Y-53560038D01*
X64997746Y-53560033D01*
X64997742Y-53560029D01*
X64780113Y-53397113D01*
X64780108Y-53397110D01*
X64780107Y-53397109D01*
X64541518Y-53266830D01*
X64541519Y-53266830D01*
X64480164Y-53243946D01*
X64286801Y-53171825D01*
X64286794Y-53171823D01*
X64286793Y-53171823D01*
X64021167Y-53114040D01*
X64021160Y-53114039D01*
X63750001Y-53094645D01*
X63749999Y-53094645D01*
X63478839Y-53114039D01*
X63478832Y-53114040D01*
X63213206Y-53171823D01*
X63213202Y-53171824D01*
X63213199Y-53171825D01*
X63085843Y-53219326D01*
X62958480Y-53266830D01*
X62719892Y-53397109D01*
X62719891Y-53397110D01*
X62502259Y-53560028D01*
X62502247Y-53560038D01*
X62310038Y-53752247D01*
X62310028Y-53752259D01*
X62147110Y-53969891D01*
X62147109Y-53969892D01*
X62016830Y-54208480D01*
X62011026Y-54224042D01*
X61921825Y-54463199D01*
X61921824Y-54463202D01*
X61921823Y-54463206D01*
X61864040Y-54728832D01*
X61864039Y-54728839D01*
X61844645Y-54999998D01*
X56850500Y-54999998D01*
X56850500Y-54878712D01*
X56818838Y-54638211D01*
X56756054Y-54403900D01*
X56663224Y-54179788D01*
X56541936Y-53969711D01*
X56394265Y-53777262D01*
X56394260Y-53777256D01*
X56222743Y-53605739D01*
X56222736Y-53605733D01*
X56030293Y-53458067D01*
X56030292Y-53458066D01*
X56030289Y-53458064D01*
X55820212Y-53336776D01*
X55820205Y-53336773D01*
X55596104Y-53243947D01*
X55361785Y-53181161D01*
X55121289Y-53149500D01*
X55121288Y-53149500D01*
X54878712Y-53149500D01*
X54878711Y-53149500D01*
X54638214Y-53181161D01*
X54403895Y-53243947D01*
X54179794Y-53336773D01*
X54179785Y-53336777D01*
X53969706Y-53458067D01*
X53777263Y-53605733D01*
X53777256Y-53605739D01*
X53605739Y-53777256D01*
X53605733Y-53777263D01*
X53458067Y-53969706D01*
X53458064Y-53969710D01*
X53458064Y-53969711D01*
X53441817Y-53997851D01*
X53336777Y-54179785D01*
X53336773Y-54179794D01*
X53243947Y-54403895D01*
X53181161Y-54638214D01*
X53149500Y-54878711D01*
X50505795Y-54878711D01*
X50517386Y-54613226D01*
X50518326Y-54602495D01*
X50568152Y-54224025D01*
X50570025Y-54213405D01*
X50652649Y-53840709D01*
X50655440Y-53830295D01*
X50770230Y-53466227D01*
X50773917Y-53456095D01*
X50920003Y-53103412D01*
X50924561Y-53093638D01*
X51100822Y-52755045D01*
X51106217Y-52745700D01*
X51311325Y-52423744D01*
X51317515Y-52414905D01*
X51549896Y-52112060D01*
X51556834Y-52103791D01*
X51814726Y-51822352D01*
X51822352Y-51814726D01*
X52103791Y-51556834D01*
X52112060Y-51549896D01*
X52414905Y-51317515D01*
X52423744Y-51311325D01*
X52745700Y-51106217D01*
X52755045Y-51100822D01*
X53093638Y-50924561D01*
X53103412Y-50920003D01*
X53456095Y-50773917D01*
X53466227Y-50770230D01*
X53830295Y-50655440D01*
X53840709Y-50652649D01*
X54213405Y-50570025D01*
X54224025Y-50568152D01*
X54602495Y-50518326D01*
X54613226Y-50517386D01*
X54997297Y-50500617D01*
X55002706Y-50500500D01*
X55065892Y-50500500D01*
X129934108Y-50500500D01*
X129997294Y-50500500D01*
X130002702Y-50500617D01*
G37*
%TD.AperFunction*%
M02*
