M48
; DRILL file {KiCad 8.0.8} date 2025-04-25T12:53:54-0400
; FORMAT={-:-/ absolute / metric / decimal}
; #@! TF.CreationDate,2025-04-25T12:53:54-04:00
; #@! TF.GenerationSoftware,Kicad,Pcbnew,8.0.8
; #@! TF.FileFunction,Plated,1,2,PTH
FMAT,2
METRIC
; #@! TA.AperFunction,Plated,PTH,ViaDrill
T1C0.700
; #@! TA.AperFunction,Plated,PTH,ComponentDrill
T2C0.700
; #@! TA.AperFunction,Plated,PTH,ComponentDrill
T3C0.800
; #@! TA.AperFunction,Plated,PTH,ComponentDrill
T4C0.900
; #@! TA.AperFunction,Plated,PTH,ComponentDrill
T5C1.100
; #@! TA.AperFunction,Plated,PTH,ComponentDrill
T6C1.300
; #@! TA.AperFunction,Plated,PTH,ComponentDrill
T7C3.000
%
G90
G05
T1
X85.5Y-68.5
X85.5Y-77.5
X92.5Y-82.0
T2
X79.92Y-54.5
X82.46Y-54.5
X85.0Y-54.5
T3
X80.45Y-70.35
X80.45Y-72.85
X84.2Y-80.095
X84.2Y-90.255
X87.42Y-62.5
X88.7Y-73.7
X88.7Y-76.24
X88.7Y-78.78
X88.7Y-81.32
X96.32Y-73.7
X96.32Y-76.24
X96.32Y-78.78
X96.32Y-81.32
X97.58Y-62.5
X99.75Y-81.3
X104.75Y-81.3
X111.92Y-62.5
X119.5Y-79.5
X122.0Y-79.5
X122.08Y-62.5
T4
X92.5Y-53.5
X92.5Y-56.04
X131.0Y-64.5
X131.0Y-67.04
T5
X64.92Y-63.0
X75.08Y-63.0
T6
X63.75Y-55.0
X68.75Y-55.0
X130.0Y-76.5
X130.0Y-81.5
T7
X53.0Y-70.0
X53.31Y-85.0
M30
